<svg width="1430" height="981" viewBox="0 0 1430 981" fill="none" xmlns="http://www.w3.org/2000/svg">
<path d="M0.310059 2.54997C278.58 -1.90003 1110.65 4.57997 1421.19 5.52997" stroke="#00BDFF" stroke-width="4" stroke-miterlimit="10"/>
<path d="M993.73 66.8199C993.73 66.8199 1134.52 96.72 1168.16 210.11C1201.8 323.49 1173.14 494.26 1173.14 494.26C1173.14 494.26 1150.71 686.5 1009.92 708.09C869.13 729.68 538.95 721.39 487.86 708.09C436.78 694.79 343.33 694.79 318.41 560.23C293.49 425.67 253.62 313.53 295.98 186.44C295.98 186.44 323.39 92.9899 447.99 66.8299C447.99 66.8299 393.17 165.26 396.28 235.66C396.28 235.66 400.64 258.71 421.82 267.43L463.56 297.33L460.45 343.43L1008.67 341.56L998.08 294.84L1044.18 262.44C1044.18 262.44 1068.48 251.23 1062.87 225.06C1057.26 198.89 1041.07 111.68 993.72 66.8199H993.73Z" stroke="#00BDFF" stroke-width="6" stroke-miterlimit="10"/>
<path d="M469.18 97.97L521.51 223.19C521.51 223.19 444.06 227.07 426.72 270.92" stroke="#00BDFF" stroke-width="8" stroke-miterlimit="10"/>
<path d="M977.53 97.97L921.46 223.19C921.46 223.19 1029.24 233.3 1028.61 270.92" stroke="#00BDFF" stroke-width="8" stroke-miterlimit="10"/>
<path d="M542.79 231.03C477.38 240.37 466.69 273.65 466.69 273.65C466.69 273.65 486.63 295.45 568.24 294.83C649.85 294.21 918.36 294.84 918.36 294.84C918.36 294.84 979.16 286.72 988.76 263.68C988.76 263.68 960.87 234.14 903.56 231.03" stroke="#00BDFF" stroke-width="4" stroke-miterlimit="10"/>
<path d="M530.86 289.85L571.35 263.68C571.35 263.68 576.33 257.45 606.86 257.45H847.95C847.95 257.45 869.13 259.32 887.2 268.04C905.27 276.76 927.86 293.24 927.86 293.24" stroke="#00BDFF" stroke-width="4" stroke-miterlimit="10"/>
<path d="M448 66.82H460.46L469.18 97.97C469.18 97.97 745.78 -6.68998 977.53 97.97V66.82H993.73" stroke="#00BDFF" stroke-width="6" stroke-miterlimit="10"/>
<path d="M813.27 94.24H625.97C623.673 94.24 621.81 96.1025 621.81 98.4V198.48C621.81 200.777 623.673 202.64 625.97 202.64H813.27C815.568 202.64 817.43 200.777 817.43 198.48V98.4C817.43 96.1025 815.568 94.24 813.27 94.24Z" stroke="#00BDFF" stroke-width="10" stroke-miterlimit="10"/>
<path d="M521.51 223.19L568.86 240.64H881.59L921.47 223.19" stroke="#00BDFF" stroke-width="8" stroke-miterlimit="10"/>
<path d="M466.69 343.41C466.69 343.41 447.89 397.48 546.22 715.12" stroke="#00BDFF" stroke-width="4" stroke-miterlimit="10"/>
<path d="M1008.68 341.56C1008.68 341.56 1032.89 397.48 934.56 715.12" stroke="#00BDFF" stroke-width="4" stroke-miterlimit="10"/>
<path d="M913.47 365.62H568.75V369.84H913.47V365.62Z" stroke="#00BDFF" stroke-width="6" stroke-miterlimit="10"/>
<path d="M736.39 553.62C767.097 553.62 791.99 531.834 791.99 504.96C791.99 478.086 767.097 456.3 736.39 456.3C705.683 456.3 680.79 478.086 680.79 504.96C680.79 531.834 705.683 553.62 736.39 553.62Z" stroke="#00BDFF" stroke-width="4" stroke-miterlimit="10"/>
<path d="M734.54 517.15C743.703 517.15 751.13 510.649 751.13 502.63C751.13 494.611 743.703 488.11 734.54 488.11C725.378 488.11 717.95 494.611 717.95 502.63C717.95 510.649 725.378 517.15 734.54 517.15Z" stroke="#00BDFF" stroke-width="4" stroke-miterlimit="10"/>
<path d="M739.35 611.31C793.496 611.31 837.39 572.896 837.39 525.51C837.39 478.124 793.496 439.71 739.35 439.71C685.204 439.71 641.31 478.124 641.31 525.51C641.31 572.896 685.204 611.31 739.35 611.31Z" stroke="#00BDFF" stroke-width="8" stroke-miterlimit="10"/>
<path d="M791.26 721.35L795.99 611.31C727.83 631.87 680.99 611.31 680.99 611.31L690.3 720.85" stroke="#00BDFF" stroke-width="4" stroke-miterlimit="10"/>
<path d="M734.74 647.3L719 675.47C717.18 678.72 719.53 682.72 723.26 682.72H758.97C762.93 682.72 765.24 678.25 762.95 675.03L742.98 646.86C740.91 643.94 736.5 644.17 734.75 647.3H734.74Z" stroke="#00BDFF" stroke-width="0.75" stroke-miterlimit="10"/>
<path d="M736.32 653.79L724.49 673.02C723.13 675.24 724.89 677.97 727.69 677.97H754.53C757.5 677.97 759.24 674.92 757.52 672.72L742.51 653.49C740.95 651.49 737.64 651.66 736.32 653.79Z" stroke="#00BDFF" stroke-width="0.5" stroke-miterlimit="10"/>
<path d="M1101.04 184.45C1101.04 184.45 1101.51 176.31 1111.32 180.05C1121.13 183.79 1143.09 195.94 1143.09 195.94C1143.09 195.94 1146.83 196.87 1148.7 210.42C1150.57 223.97 1153.84 253.41 1153.84 253.41H1121.6C1121.6 253.41 1109.92 254.81 1108.52 246.4C1107.12 237.99 1101.04 184.45 1101.04 184.45Z" stroke="#00BDFF" stroke-width="8" stroke-miterlimit="10"/>
<path d="M355.11 184.45C355.11 184.45 354.64 176.31 344.83 180.05C335.02 183.79 313.06 195.94 313.06 195.94C313.06 195.94 309.32 196.87 307.45 210.42C305.58 223.97 302.31 253.41 302.31 253.41H334.55C334.55 253.41 346.23 254.81 347.63 246.4C349.03 237.99 355.11 184.45 355.11 184.45Z" stroke="#00BDFF" stroke-width="8" stroke-miterlimit="10"/>
<path d="M335.08 298.21H314.04C314.04 298.21 304.14 295.74 306 316.77C307.86 337.81 336.32 576.85 385.19 632.41C385.19 632.41 418.6 670.65 479.23 673.74C479.23 673.74 494.7 673.74 490.37 658.27C486.04 642.8 419.84 415.13 411.8 339.03C411.8 339.03 406.23 314.9 374.06 305.62C341.89 296.34 335.08 298.2 335.08 298.2V298.21Z" stroke="#00BDFF" stroke-width="8" stroke-miterlimit="10"/>
<path d="M1134.69 305.8H1155.73C1155.73 305.8 1165.63 303.33 1163.77 324.36C1161.91 345.4 1133.45 584.44 1084.58 640C1084.58 640 1051.17 678.24 990.54 681.33C990.54 681.33 975.07 681.33 979.4 665.86C983.73 650.39 1049.93 422.72 1057.97 346.62C1057.97 346.62 1063.54 322.49 1095.71 313.21C1127.88 303.93 1134.69 305.79 1134.69 305.79V305.8Z" stroke="#00BDFF" stroke-width="6" stroke-miterlimit="10"/>
<path d="M0.310059 41.71C0.310059 41.71 269.2 13.68 560.14 8.26001C560.14 8.26001 460.46 38.16 460.46 66.82C460.46 66.82 708.41 7.01001 977.53 66.82C977.53 66.82 948.87 33.18 889.07 8.26001C889.07 8.26001 1381.28 31.72 1429.75 41.7" stroke="#00BDFF" stroke-width="4" stroke-miterlimit="10"/>
<path d="M0.310059 777.25L176.38 815.03C176.38 815.03 253.16 837.43 317.32 971.81" stroke="#00BDFF" stroke-width="6" stroke-miterlimit="10"/>
<path d="M1164 971.8C1170.21 851.32 1245.05 815.02 1245.05 815.02L1421.2 777.24" stroke="#00BDFF" stroke-width="6" stroke-miterlimit="10"/>
<path d="M1095.94 978.73C1110.94 867.73 1113.11 878.15 1128.84 772.66C1133.97 738.25 1158.03 709.66 1191.07 698.77C1246.7 680.44 1336.91 654.15 1421.2 644.8" stroke="#00BDFF" stroke-width="6" stroke-miterlimit="10"/>
<path d="M402.86 976.79C402.86 976.79 399.4 968.9 389.44 839.32C379.47 709.74 200.05 673.74 200.05 673.74L5.43994 632.41" stroke="#00BDFF" stroke-width="6" stroke-miterlimit="10"/>
<path d="M1126.51 772.04L1096.32 779.52C1025.64 993.83 1095.94 978.74 1095.94 978.74" stroke="#00BDFF" stroke-width="6" stroke-miterlimit="10"/>
<path d="M364.4 770.15L402.2 779.51C472.88 993.82 402.58 978.73 402.58 978.73" stroke="#00BDFF" stroke-width="6" stroke-miterlimit="10"/>
<path d="M867.04 902.4H611.82C609.804 902.4 608.17 904.034 608.17 906.05V960.89C608.17 962.906 609.804 964.54 611.82 964.54H867.04C869.056 964.54 870.69 962.906 870.69 960.89V906.05C870.69 904.034 869.056 902.4 867.04 902.4Z" stroke="#00BDFF" stroke-miterlimit="10"/>
<path d="M929.33 978.17C954.017 978.17 974.03 958.157 974.03 933.47C974.03 908.783 954.017 888.77 929.33 888.77C904.643 888.77 884.63 908.783 884.63 933.47C884.63 958.157 904.643 978.17 929.33 978.17Z" stroke="#00BDFF" stroke-width="4" stroke-miterlimit="10"/>
<path d="M530.15 979.43C554.837 979.43 574.85 959.417 574.85 934.73C574.85 910.043 554.837 890.03 530.15 890.03C505.463 890.03 485.45 910.043 485.45 934.73C485.45 959.417 505.463 979.43 530.15 979.43Z" stroke="#00BDFF" stroke-width="4" stroke-miterlimit="10"/>
<path d="M307.91 843.99C321.457 843.99 332.44 830.603 332.44 814.09C332.44 797.577 321.457 784.19 307.91 784.19C294.362 784.19 283.38 797.577 283.38 814.09C283.38 830.603 294.362 843.99 307.91 843.99Z" stroke="#00BDFF" stroke-width="4" stroke-miterlimit="10"/>
<path d="M308.84 850.93C325.53 850.93 339.06 834.436 339.06 814.09C339.06 793.744 325.53 777.25 308.84 777.25C292.15 777.25 278.62 793.744 278.62 814.09C278.62 834.436 292.15 850.93 308.84 850.93Z" stroke="#00BDFF" stroke-width="0.75" stroke-miterlimit="10"/>
<path d="M530.15 964.87C546.796 964.87 560.29 951.376 560.29 934.73C560.29 918.084 546.796 904.59 530.15 904.59C513.504 904.59 500.01 918.084 500.01 934.73C500.01 951.376 513.504 964.87 530.15 964.87Z" stroke="#00BDFF" stroke-width="0.75" stroke-miterlimit="10"/>
<path d="M928.96 963.61C945.606 963.61 959.1 950.116 959.1 933.47C959.1 916.824 945.606 903.33 928.96 903.33C912.314 903.33 898.82 916.824 898.82 933.47C898.82 950.116 912.314 963.61 928.96 963.61Z" stroke="#00BDFF" stroke-width="0.75" stroke-miterlimit="10"/>
<path d="M625.64 448.55H573.6V461.38H625.64V448.55Z" stroke="#00BDFF" stroke-width="6" stroke-miterlimit="10"/>
<path d="M565.04 448.55H513V461.38H565.04V448.55Z" stroke="#00BDFF" stroke-width="6" stroke-miterlimit="10"/>
<path d="M957.83 448.55H905.79V461.38H957.83V448.55Z" stroke="#00BDFF" stroke-width="6" stroke-miterlimit="10"/>
<path d="M897.24 448.55H845.2V461.38H897.24V448.55Z" stroke="#00BDFF" stroke-width="6" stroke-miterlimit="10"/>
<path d="M625.11 472.33H573.07V485.16H625.11V472.33Z" stroke="#00BDFF" stroke-width="6" stroke-miterlimit="10"/>
<path d="M564.51 472.33H512.47V485.16H564.51V472.33Z" stroke="#00BDFF" stroke-width="6" stroke-miterlimit="10"/>
<path d="M957.3 472.33H905.26V485.16H957.3V472.33Z" stroke="#00BDFF" stroke-width="6" stroke-miterlimit="10"/>
<path d="M896.71 472.33H844.67V485.16H896.71V472.33Z" stroke="#00BDFF" stroke-width="6" stroke-miterlimit="10"/>
<path d="M321.2 298.05L332.97 383.47L340.58 395.54L368.14 554.76L365.76 563.11L377.68 621.31" stroke="#00BDFF" stroke-width="4" stroke-miterlimit="10"/>
<path d="M346.38 301.46L358.15 392.18L365.76 405L393.32 574.12L390.95 582.99L402.86 644.8" stroke="#00BDFF" stroke-width="4" stroke-miterlimit="10"/>
<path d="M366.18 301.46L379.65 396.15L388.34 409.53L419.87 586.03L417.15 595.29L430.78 659.8" stroke="#00BDFF" stroke-width="4" stroke-miterlimit="10"/>
<path d="M391.43 311.99L404.9 406.68L413.6 420.06L445.12 596.56L442.41 605.82L456.04 670.33" stroke="#00BDFF" stroke-width="4" stroke-miterlimit="10"/>
<path d="M1146.15 305.65L1134.38 392.2L1126.78 404.43L1099.21 565.79L1101.59 574.25L1089.67 633.23" stroke="#00BDFF" stroke-width="4" stroke-miterlimit="10"/>
<path d="M1120.97 305.65L1109.2 398.41L1101.59 411.52L1074.03 584.45L1076.41 593.52L1064.49 656.73" stroke="#00BDFF" stroke-width="4" stroke-miterlimit="10"/>
<path d="M1101.17 313.39L1087.71 408.07L1079.01 421.45L1047.48 597.95L1050.2 607.21L1036.57 671.72" stroke="#00BDFF" stroke-width="4" stroke-miterlimit="10"/>
<path d="M1075.92 323.91L1062.45 417.47L1053.76 430.69L1022.23 605.08L1024.95 614.23L1011.32 677.97" stroke="#00BDFF" stroke-width="4" stroke-miterlimit="10"/>
<path d="M1096.32 779.51L1064.49 730.85C814.49 769.35 448 730.85 448 730.85L402.2 779.51C402.2 779.51 751.48 860.25 1096.32 779.51Z" stroke="#00BDFF" stroke-width="4" stroke-miterlimit="10"/>
<path d="M1111.32 180.05L1113.95 202.63L1120.97 212.59V236.83L1121.6 253.41" stroke="#00BDFF" stroke-width="4" stroke-miterlimit="10"/>
<path d="M1122.3 186.51L1124.93 207.13L1131.95 216.23V238.36L1132.58 253.49" stroke="#00BDFF" stroke-width="4" stroke-miterlimit="10"/>
<path d="M1132.58 189.7L1135.21 209.34L1142.23 218V239.08L1142.86 253.49" stroke="#00BDFF" stroke-width="4" stroke-miterlimit="10"/>
<path d="M344.48 181.32L341.85 203.9L334.83 213.86V238.1L334.2 254.68" stroke="#00BDFF" stroke-width="4" stroke-miterlimit="10"/>
<path d="M333.5 187.78L330.87 208.41L323.85 217.5V239.63L323.22 254.77" stroke="#00BDFF" stroke-width="4" stroke-miterlimit="10"/>
<path d="M323.22 190.97L320.59 210.61L313.57 219.27V240.35L312.94 254.77" stroke="#00BDFF" stroke-width="4" stroke-miterlimit="10"/>
<path d="M680.86 503.09C680.86 503.09 680.57 504.48 680.18 506.88C680.08 507.49 679.99 508.1 679.92 508.7C675.37 544.46 711.01 571.33 746.22 566.51C746.37 566.49 746.53 566.45 746.67 566.41L747.4 566.27C754.12 565.02 760.66 562.96 766.88 560.13C784.96 551.91 795.61 534.31 793.74 513.99C793.02 506.22 791.99 500.93 791.99 500.93" stroke="#00BDFF" stroke-width="4" stroke-miterlimit="10"/>
</svg>
