<svg width="1467" height="1067" viewBox="0 0 1467 1067" fill="none" xmlns="http://www.w3.org/2000/svg">
<path d="M221.48 727.74C208.1 637.5 213.46 545.47 236.42 457.18L298.91 216.89C298.91 216.89 324.57 101.4 433.64 96.06C542.71 90.71 1028.17 96.06 1028.17 96.06C1028.17 96.06 1147.93 97.13 1177.87 206.2C1205.52 306.91 1260.51 470.52 1268.78 495.01C1269.6 497.44 1270.24 499.91 1270.71 502.43C1274.71 524.13 1289.09 627.3 1241.43 802.75C1230.82 841.81 1202.26 873.67 1164.38 887.96C1142.09 896.36 1113.19 902.72 1076.29 903.39C958.67 905.53 368.41 907.67 368.41 907.67C368.41 907.67 272.17 910.88 245.44 834.96C235.37 806.36 227.39 767.59 221.48 727.75V727.74Z" stroke="#00BDFF" stroke-width="8" stroke-miterlimit="10"/>
<path d="M235.76 717.52C222.66 630.65 227.9 542.05 250.38 457.05L311.56 225.72C311.56 225.72 336.69 114.54 443.47 109.39C550.25 104.24 1025.54 109.39 1025.54 109.39C1025.54 109.39 1142.79 110.42 1172.1 215.42C1197.29 305.67 1245.69 448.38 1258.79 486.71C1261.66 495.1 1263.71 503.75 1264.86 512.54C1269.63 548.99 1275.22 646.75 1231.56 799.56C1224.11 825.63 1206.67 847.83 1182.9 860.86C1159.29 873.8 1123.83 885.69 1072.64 886.61C957.48 888.67 379.6 890.73 379.6 890.73C379.6 890.73 285.38 893.82 259.21 820.73C249.35 793.2 241.54 755.87 235.75 717.51L235.76 717.52Z" stroke="#00BDFF" stroke-miterlimit="10"/>
<path d="M269.47 668.04C257.32 593.89 262.19 518.27 283.03 445.72L339.76 248.27C339.76 248.27 363.06 153.37 462.08 148.98C561.1 144.59 1001.83 148.98 1001.83 148.98C1001.83 148.98 1110.56 149.86 1137.74 239.48C1161.1 316.51 1205.98 438.32 1218.13 471.04C1220.79 478.2 1222.69 485.58 1223.76 493.09C1228.19 524.2 1233.37 607.64 1192.88 738.07C1185.97 760.32 1169.8 779.27 1147.76 790.39C1125.87 801.43 1092.98 811.58 1045.52 812.36C938.73 814.12 402.87 815.87 402.87 815.87C402.87 815.87 315.5 818.51 291.23 756.12C282.09 732.62 274.84 700.76 269.48 668.02L269.47 668.04Z" stroke="#00BDFF" stroke-width="4" stroke-miterlimit="10"/>
<path d="M1085.56 332.38C875.98 348.06 361.28 332.38 361.28 332.38V353.77H385.52L381.24 402.25C381.24 402.25 368.41 436.47 449.68 439.32C530.95 442.17 1039.94 439.32 1039.94 439.32C1039.94 439.32 1082.96 439.96 1079.86 386.49L1078.43 355.2L1095.54 356.63V332.39H1085.56V332.38Z" stroke="#00BDFF" stroke-width="4" stroke-miterlimit="10"/>
<path d="M386.59 332.38C386.59 332.38 402.63 309.92 432.57 308.86C462.51 307.79 802.55 308.86 802.55 308.86C802.55 308.86 814.31 312.59 816.45 325.97L818.59 339.35" stroke="#00BDFF" stroke-width="4" stroke-miterlimit="10"/>
<path d="M814.21 319.1C814.21 319.1 821.8 308.97 838.91 308.38C856.02 307.79 1031.39 308.38 1031.39 308.38C1031.39 308.38 1074.16 316.34 1075.23 332.38" stroke="#00BDFF" stroke-width="6" stroke-miterlimit="10"/>
<path d="M331.9 799.85C316.83 793.26 339.55 768.66 339.55 768.66L434.15 626.29C444.5 610.72 455.75 595.77 467.86 581.53L980.06 575.11L1128.69 767.59C1128.69 767.59 1147.1 791.73 1135.19 796.08" stroke="#00BDFF" stroke-width="4" stroke-miterlimit="10"/>
<path d="M450.75 598.63L435.78 511.88C435.78 511.88 429.36 498.54 397.28 484.9C365.2 471.26 361.28 353.76 361.28 353.76" stroke="#00BDFF" stroke-width="4" stroke-miterlimit="10"/>
<path d="M991.82 590.08L1009.18 506.36C1009.18 506.36 1016.62 493.49 1053.81 480.32C1091 467.15 1095.55 353.76 1095.55 353.76" stroke="#00BDFF" stroke-width="4" stroke-miterlimit="10"/>
<path d="M704.18 888.96V875.58C704.18 866.72 711.36 859.54 720.22 859.54H764.06C772.33 859.54 779.03 866.24 779.03 874.51V888.96" stroke="#00BDFF" stroke-width="6" stroke-miterlimit="10"/>
<path d="M692.51 308.32H764.27C776.68 308.32 786.01 298.59 783.64 288.13L779.14 268.25C776.96 258.61 767.13 251.65 755.7 251.65H702.27C691.4 251.65 681.93 258.01 679.29 267.06L673.4 287.3C670.29 297.98 679.69 308.32 692.5 308.32H692.51Z" stroke="#00BDFF" stroke-width="6" stroke-miterlimit="10"/>
<path d="M900.32 308.32H972.08C984.49 308.32 993.82 298.59 991.45 288.13L986.95 268.25C984.77 258.61 974.94 251.65 963.51 251.65H910.08C899.21 251.65 889.74 258.01 887.1 267.06L881.21 287.3C878.1 297.98 887.5 308.32 900.31 308.32H900.32Z" stroke="#00BDFF" stroke-width="6" stroke-miterlimit="10"/>
<path d="M478.45 308.32H550.21C562.62 308.32 571.95 298.59 569.58 288.13L565.08 268.25C562.9 258.61 553.07 251.65 541.64 251.65H488.21C477.34 251.65 467.87 258.01 465.23 267.06L459.34 287.3C456.23 297.98 465.63 308.32 478.44 308.32H478.45Z" stroke="#00BDFF" stroke-width="6" stroke-miterlimit="10"/>
<path d="M194.48 2L237.25 55.78C237.25 55.78 242.38 70.16 303.2 76.25C314.04 77.34 326.66 78.16 341.33 78.59C438.28 81.44 1146.87 78.59 1146.87 78.59C1146.87 78.59 1228.14 79.86 1252.37 40.93C1276.61 2 1282.31 2 1282.31 2" stroke="#00BDFF" stroke-width="8" stroke-miterlimit="10"/>
<path d="M54.6001 418.5C61.7301 399.65 111.63 356.14 111.63 351.79C111.63 347.44 167.23 241.57 191.47 185C215.71 128.43 275.59 81.87 275.59 81.87C275.59 81.87 290.31 75.16 303.19 76.26" stroke="#00BDFF" stroke-width="8" stroke-miterlimit="10"/>
<path d="M24.8101 598.63V620.37C24.8101 620.37 53.3201 772.58 49.0501 799.84C44.7701 827.1 30.5201 862.41 30.5201 888.95C30.5201 915.49 39.0701 1004.68 71.8701 1049.91" stroke="#00BDFF" stroke-width="8" stroke-miterlimit="10"/>
<path d="M1414.59 416.5C1402.87 363.26 1347.9 315.51 1347.9 315.51L1239.54 127.08C1239.54 127.08 1213.89 78.36 1146.87 78.6" stroke="#00BDFF" stroke-width="8" stroke-miterlimit="10"/>
<path d="M1414.59 622.7L1422.04 640.58C1422.04 640.58 1392.1 821.62 1422.04 883.62C1422.04 883.62 1436.3 950.42 1374.99 1049.92" stroke="#00BDFF" stroke-width="8" stroke-miterlimit="10"/>
<path d="M56.8 425.27L70.6701 442.2L84.7001 622.8C84.7001 622.8 21.66 631.82 11.09 567.17C0.52005 502.52 2.08005 485.33 2.08005 485.33L35.62 427.02C40.12 419.19 51.07 418.29 56.8 425.28V425.27Z" stroke="#00BDFF" stroke-width="8" stroke-miterlimit="10"/>
<path d="M1410.03 425.27L1396.16 442.2L1382.13 622.8C1382.13 622.8 1445.17 631.82 1455.74 567.17C1466.3 502.52 1464.75 485.33 1464.75 485.33L1431.21 427.02C1426.71 419.19 1415.76 418.29 1410.03 425.28V425.27Z" stroke="#00BDFF" stroke-width="8" stroke-miterlimit="10"/>
<path d="M1396.16 442.2L1320.81 432.18C1320.81 432.18 1329.36 493.49 1345.05 575.11C1360.73 656.73 1275.89 907.68 1275.89 907.68C797.54 999.66 194.48 915.5 194.48 915.5C194.48 915.5 111.79 638.91 128.9 575.1C146.01 511.29 153.14 432.17 153.14 432.17L70.6802 442.19" stroke="#00BDFF" stroke-width="4" stroke-miterlimit="10"/>
<path d="M1275.89 907.68L1352.18 1002.47C1352.18 1002.47 1401.08 1002.42 1406.7 986.04" stroke="#00BDFF" stroke-width="4" stroke-miterlimit="10"/>
<path d="M194.48 915.5L128.9 1021C128.9 1021 79.3201 1032.75 48.3501 999.78" stroke="#00BDFF" stroke-width="4" stroke-miterlimit="10"/>
<path d="M315.59 332.38H361.29" stroke="#00BDFF" stroke-width="4" stroke-miterlimit="10"/>
<path d="M1095.54 332.38H1168.3" stroke="#00BDFF" stroke-width="4" stroke-miterlimit="10"/>
<path d="M111.63 351.78L153.13 432.18" stroke="#00BDFF" stroke-width="4" stroke-miterlimit="10"/>
<path d="M1320.81 432.18L1374.99 343.78" stroke="#00BDFF" stroke-width="4" stroke-miterlimit="10"/>
<path d="M970.19 1063.49C1090.18 1052.27 1218.54 1033.02 1352.18 1002.48" stroke="#00BDFF" stroke-width="4" stroke-miterlimit="10"/>
<path d="M128.89 1021.01C128.89 1021.01 239.78 1048.95 424.08 1065.25" stroke="#00BDFF" stroke-width="4" stroke-miterlimit="10"/>
</svg>
