<svg width="1444" height="1079" viewBox="0 0 1444 1079" fill="none" xmlns="http://www.w3.org/2000/svg">
<g clip-path="url(#clip0_1838_449)">
<path d="M2.9502 407.6C7.7302 408.67 178.82 463.2 182.03 465.34C185.24 467.48 232.29 474.96 225.87 524.15C219.45 573.34 210.9 603.28 210.9 603.28" stroke="#00BDFF" stroke-width="8" stroke-miterlimit="10"/>
<path d="M2.9502 389.42C2.9502 389.42 46.2202 373.38 89.0002 384.07C124.13 392.85 222.76 426.17 256.86 437.79C263.48 440.04 267.18 447.07 265.31 453.8L239.77 545.54C239.77 545.54 238.83 469.62 226.47 466.41C214.11 463.2 2.9502 389.42 2.9502 389.42Z" stroke="#00BDFF" stroke-width="4" stroke-miterlimit="10"/>
<path d="M315.69 264.31C315.69 264.31 201.27 319.91 167.06 338.09C132.85 356.27 159.57 373.38 159.57 373.38C159.57 373.38 234.42 422.57 261.15 431.12C287.88 439.67 273.98 467.48 273.98 467.48L232.28 580.83" stroke="#00BDFF" stroke-width="4" stroke-miterlimit="10"/>
<path d="M237.63 473.9L242.27 520.23L248.68 503.48L256.17 460L237.63 473.9Z" stroke="#00BDFF" stroke-width="1.5" stroke-miterlimit="10"/>
<path d="M238.88 486.39L253.59 474.95" stroke="#00BDFF" stroke-width="4" stroke-miterlimit="10"/>
<path d="M239.74 494.93L251.62 486.39" stroke="#00BDFF" stroke-width="4" stroke-miterlimit="10"/>
<path d="M28.8999 391.84C28.8999 391.84 74.1699 383.29 99.8299 391.84L72.0299 406.1L28.8999 391.84Z" stroke="#00BDFF" stroke-width="4" stroke-miterlimit="10"/>
<path d="M91.8501 414.37C98.4701 409.88 105.67 406.29 113.25 403.72L121.08 401.06C121.08 401.06 127.5 398.56 144.25 404.33C161 410.09 237.64 439.68 237.64 439.68C237.64 439.68 246.91 444.31 241.2 446.81C235.49 449.31 216.96 460 216.96 460L91.8501 414.38V414.37Z" stroke="#00BDFF" stroke-width="1.5" stroke-miterlimit="10"/>
<path d="M242.95 445.31L156.01 411.52C156.01 411.52 143.53 407.24 132.49 404.39C122.98 401.93 120.07 403.71 119.44 404.25C119.32 404.35 119.2 404.44 119.05 404.5L109.48 408.64C108.28 409.16 108.34 410.88 109.57 411.31C124.01 416.36 179.1 435.79 188.51 441.71C189.31 442.21 189.41 443.32 188.72 443.97L184.31 448.1" stroke="#00BDFF" stroke-width="1.5" stroke-miterlimit="10"/>
<path d="M119.44 404.25L237.63 448.54" stroke="#00BDFF" stroke-width="4" stroke-miterlimit="10"/>
<path d="M111.88 407.6L228.38 453.53" stroke="#00BDFF" stroke-width="4" stroke-miterlimit="10"/>
<path d="M122.15 342.37L310.7 264.31C310.7 264.31 354.9 251.48 359.18 258.25L341 294.96" stroke="#00BDFF" stroke-width="6" stroke-miterlimit="10"/>
<path d="M482.95 262.98C521.88 271.5 562.09 288.32 587.4 318.85" stroke="#00BDFF" stroke-width="6" stroke-miterlimit="10"/>
<path d="M46.9399 318.85C180.96 236.87 350.98 247.56 350.98 247.56L359.18 256.28C359.18 256.28 394.71 253.1 437.24 256.65" stroke="#00BDFF" stroke-width="6" stroke-miterlimit="10"/>
<path d="M211.92 599.45L262.94 648.9C262.94 648.9 270.78 658.17 280.05 653.89C289.32 649.61 336.37 607.55 336.37 607.55C336.37 607.55 344.92 596.86 332.09 573.33C319.26 549.8 267.03 486.38 267.03 486.38" stroke="#00BDFF" stroke-width="8" stroke-miterlimit="10"/>
<path d="M205.91 400.53C205.91 400.53 196.67 322.41 228.38 314.57C228.38 314.57 272.62 326.34 245.68 424.53" stroke="#00BDFF" stroke-width="4" stroke-miterlimit="10"/>
<path d="M228.38 314.57L188.88 326.86" stroke="#00BDFF" stroke-width="4" stroke-miterlimit="10"/>
<path d="M313.03 411.79L301.43 380.39C301.43 380.39 298.58 367.31 306.06 350.92C313.55 334.52 322.81 304.75 336.36 299.32C349.91 293.89 373.43 288.9 379.13 314.56C384.83 340.22 359.17 397.25 359.17 397.25" stroke="#00BDFF" stroke-width="4" stroke-miterlimit="10"/>
<path d="M334.94 299.33L272.96 326.86C272.96 326.86 263.84 334.53 266.18 342.37" stroke="#00BDFF" stroke-width="4" stroke-miterlimit="10"/>
<path d="M237.63 318.85C239.41 318.14 254.37 314.57 254.37 314.57L275.53 363.76L256.16 369.55" stroke="#00BDFF" stroke-miterlimit="10"/>
<path d="M275.11 464.82L296.18 455.6C298.84 454.44 300.36 451.64 299.94 448.78C298.78 440.95 298.4 425.61 311.41 419.36C329.23 410.81 353.47 403.12 353.47 403.12C353.47 403.12 363.45 401.14 367.73 403.12" stroke="#00BDFF" stroke-miterlimit="10"/>
<path d="M275.54 490.11L291.45 486.39C291.45 486.39 300.72 504.53 291.45 516.84" stroke="#00BDFF" stroke-miterlimit="10"/>
<path d="M307.85 477.82C307.85 477.82 342.78 423.64 367.73 415.8C367.73 415.8 366.53 394.41 379.96 383.72C393.39 373.03 396.95 369.55 396.95 369.55" stroke="#00BDFF" stroke-width="4" stroke-miterlimit="10"/>
<path d="M307.85 516.84L456.51 422.57C456.51 422.57 494.7 482.98 528.95 494.26C530.07 494.63 531.23 493.83 531.26 492.67L531.69 476.16" stroke="#00BDFF" stroke-width="4" stroke-miterlimit="10"/>
<path d="M293.02 490.11L320.68 541.98V555.68" stroke="#00BDFF" stroke-miterlimit="10"/>
<path d="M431.18 351.28C431.18 351.28 423.34 351.64 426.9 363.76C430.46 375.88 453.99 422.57 453.99 422.57" stroke="#00BDFF" stroke-miterlimit="10"/>
<path d="M333.63 572.67L410.53 541.8L528.95 494.26" stroke="#00BDFF" stroke-width="4" stroke-miterlimit="10"/>
<path d="M376.94 553.02L413.25 530.71C421.07 525.9 430.92 525.82 438.82 530.49" stroke="#00BDFF" stroke-miterlimit="10"/>
<path d="M429.75 397.16C436.16 399.84 434.03 408.67 434.03 414.37C434.03 420.07 425.97 423.68 425.97 423.68C425.97 423.68 414.78 423.63 407.88 412.94C400.98 402.25 401.23 380.39 401.23 380.39L387.69 351.27C387.69 351.27 389.12 340.94 396.96 342.37C404.8 343.8 403 340.23 411.03 346.65C419.06 353.07 426.9 363.76 426.9 363.76C426.9 363.76 434.03 375.17 421.91 376.59C421.91 376.59 413.36 402.97 421.91 407.6" stroke="#00BDFF" stroke-width="4" stroke-miterlimit="10"/>
<path d="M389.02 347H392.05C395.2 347 398.23 348.21 400.52 350.37L407.01 356.51C407.5 356.97 407.53 357.73 407.09 358.23C405.43 360.11 402.56 360.31 400.66 358.68L395.24 354.05C393.45 352.52 393.27 349.82 394.83 348.07" stroke="#00BDFF" stroke-miterlimit="10"/>
<path d="M465.63 335.96L434.37 342.38C434.37 342.38 425.92 357.83 434.37 373.03C442.82 388.23 467.06 455.72 509.83 471.88C509.83 471.88 525.3 480.52 535.02 474.96L554.51 463.81" stroke="#00BDFF" stroke-width="6" stroke-miterlimit="10"/>
<path d="M677.35 485.38C674.55 497.87 668.93 507.17 660.31 512.3C623.74 534.06 547.03 472.59 488.99 375.01C430.95 277.43 413.54 180.69 450.11 158.94C458.55 153.92 469.13 153.33 481.12 156.6" stroke="#00BDFF" stroke-width="6" stroke-miterlimit="10"/>
<path d="M477.85 156.84C483.71 157.92 490.33 160.69 497.52 164.98C530.4 184.56 575.34 235.76 614.78 302.06C645.12 353.06 666.05 402.65 674.79 440.23C679.53 460.64 680.25 473.77 677.35 485.39" stroke="#00BDFF" stroke-width="4" stroke-miterlimit="10"/>
<path d="M573.04 321.88C573.04 321.88 594.43 326.19 585.87 310.03C577.32 293.87 546.42 254.9 546.42 254.9C546.42 254.9 517.14 215.37 490.91 191.41C484.62 185.67 477.48 186.09 473.34 188.55C455.43 199.2 479.82 273.23 527.8 353.9C575.78 434.57 629.2 491.32 647.11 480.67C648.05 480.11 648.87 479.38 649.58 478.48C654.49 472.26 650.15 463.04 642.27 462.27L605.79 458.74" stroke="#00BDFF" stroke-width="4" stroke-miterlimit="10"/>
<path d="M615.33 415.8L632.22 422.41C634.46 423.29 636.6 424.38 638.79 425.39C639.79 425.85 641.28 425.79 642.42 422.58C644.32 417.23 621.03 363.67 615.33 359.8C609.63 355.93 601.16 360.77 602.5 359.8C607.73 356.01 610.1 343.1 610.1 343.1C610.1 343.1 604.22 331.87 598.34 327.6C592.46 323.33 573.03 321.9 573.03 321.9" stroke="#00BDFF" stroke-miterlimit="10"/>
<path d="M512.85 327.59C514.79 327.41 552.05 343.26 590.35 418.72C591.17 420.34 591.87 422.03 592.59 423.7C593.25 425.21 595.29 427.62 601.55 426.97C610.49 426.04 614.58 419.82 614.58 419.82" stroke="#00BDFF" stroke-width="6" stroke-miterlimit="10"/>
<path d="M543.9 379.78C543.9 379.78 554.26 381.33 581.59 427.08L587.23 438.63C602.68 440.06 614.15 421.02 614.15 421.02C617.06 414.7 613.08 397.78 610.61 388.78C609.63 385.19 608.71 381.6 607.91 377.96C588.35 288.54 506.97 313.61 506.97 313.61" stroke="#00BDFF" stroke-width="4" stroke-miterlimit="10"/>
<path d="M536.68 365.8C536.68 365.8 550.96 362.42 554.15 364.75" stroke="#00BDFF" stroke-width="1" stroke-miterlimit="10"/>
<path d="M638.8 425.38C638.8 425.38 645.75 438.61 644.68 444.67C643.61 450.73 645.04 456.79 629 456.08C612.96 455.37 603.17 456.14 603.17 456.14" stroke="#00BDFF" stroke-miterlimit="10"/>
<path d="M198.07 603.28C198.07 603.28 228.5 603.99 226.47 635.36C224.44 666.73 84.0098 853.5 84.0098 853.5" stroke="#00BDFF" stroke-width="6" stroke-miterlimit="10"/>
<path d="M87.5698 860.63C87.5698 860.63 326.38 697.38 345.63 667.44C364.88 637.5 407.4 545.54 407.4 545.54" stroke="#00BDFF" stroke-width="6" stroke-miterlimit="10"/>
<path d="M2.9502 718.77C2.9502 718.77 92.5602 864.2 95.4102 875.6C98.2602 887.01 103.25 906.25 95.4102 912.67C87.5702 919.09 81.8702 923.36 66.9002 938.33C51.9302 953.3 64.7602 1076.63 64.7602 1076.63" stroke="#00BDFF" stroke-width="4" stroke-miterlimit="10"/>
<path d="M501.1 505.44L655.73 639.64" stroke="#00BDFF" stroke-width="4" stroke-miterlimit="10"/>
<path d="M685.77 583.19C685.77 583.19 694.23 572.35 725.6 570.71C756.97 569.07 797.88 566.93 797.88 566.93" stroke="#00BDFF" stroke-width="4" stroke-miterlimit="10"/>
<path d="M837.51 560.64C837.51 560.64 905.23 552.67 917.35 553.02C929.47 553.37 949.43 562.65 949.43 562.65" stroke="#00BDFF" stroke-width="4" stroke-miterlimit="10"/>
<path d="M961.55 545.54C961.55 545.54 948.72 568.07 937.31 570.71C925.9 573.35 906.66 580.83 906.66 580.83" stroke="#00BDFF" stroke-width="6" stroke-miterlimit="10"/>
<path d="M863.89 603.28L837.51 627.52" stroke="#00BDFF" stroke-width="6" stroke-miterlimit="10"/>
<path d="M701.07 535.79C701.07 535.79 715.68 546.13 737.07 543.99C758.46 541.85 752.39 542.57 752.39 542.57" stroke="#00BDFF" stroke-width="1.5" stroke-miterlimit="10"/>
<path d="M788.68 538.09L896.33 524.87" stroke="#00BDFF" stroke-width="6" stroke-miterlimit="10"/>
<path d="M980.09 544.05L910.59 531.48C910.59 531.48 894.19 525.94 893.48 518.45C892.77 510.96 890.27 502.21 905.24 485.38C920.21 468.55 963.34 463.2 963.34 463.2C963.34 463.2 971.18 460.35 1034.98 457.85" stroke="#00BDFF" stroke-width="4" stroke-miterlimit="10"/>
<path d="M899.18 493.5C899.18 493.5 898.8 501.7 923.39 503.84C947.98 505.98 1002.55 503.84 1002.55 503.84" stroke="#00BDFF" stroke-width="4" stroke-miterlimit="10"/>
<path d="M604.4 505.44L678.18 549.64C678.18 549.64 685.84 555.34 691.19 547.68C696.54 540.02 701.17 531.48 701.17 531.48C701.17 531.48 704.91 526.11 698.14 520.41" stroke="#00BDFF" stroke-width="1" stroke-miterlimit="10"/>
<path d="M733.01 553.01C740.134 553.01 745.91 551.134 745.91 548.82C745.91 546.506 740.134 544.63 733.01 544.63C725.885 544.63 720.11 546.506 720.11 548.82C720.11 551.134 725.885 553.01 733.01 553.01Z" stroke="#00BDFF" stroke-width="4" stroke-miterlimit="10"/>
<path d="M720.11 549.16V554.18C720.11 557.08 725.89 559.44 733.01 559.44C740.13 559.44 745.91 557.09 745.91 554.18V548.4" stroke="#00BDFF" stroke-width="1" stroke-miterlimit="10"/>
<path d="M720.11 548.82L714.49 561.1C714.49 561.1 712.17 566.27 717.1 566.33C721.37 566.38 739.87 565.59 744.74 565.37C745.46 565.34 746.08 564.88 746.33 564.21L752.34 548.1C752.54 547.57 752.15 547.01 751.59 547L744.45 546.88" stroke="#00BDFF" stroke-width="0.25" stroke-miterlimit="10"/>
<path d="M738.84 563.94L728.1 563.85C727.38 563.85 726.92 563.09 727.24 562.45L728.03 560.87H741.16L740.85 562.33C740.65 563.28 739.81 563.96 738.84 563.95V563.94Z" stroke="#00BDFF" stroke-width="0.25" stroke-miterlimit="10"/>
<path d="M608.21 598.05L686.77 583.19" stroke="#00BDFF" stroke-width="4" stroke-miterlimit="10"/>
<path d="M531.27 492.66C531.27 492.66 532.17 489.69 536.69 492.66C541.21 495.63 581.36 522.49 585.64 524.86" stroke="#00BDFF" stroke-width="4" stroke-miterlimit="10"/>
<path d="M540.23 471.97C540.23 471.97 538.24 486.88 534.96 491.73" stroke="#00BDFF" stroke-width="4" stroke-miterlimit="10"/>
<path d="M681.34 584.03L576.61 503.24C576.61 503.24 567.9 495.4 549.2 500.98" stroke="#00BDFF" stroke-width="4" stroke-miterlimit="10"/>
<path d="M680.24 583.19C680.24 583.19 710.03 558.69 704.39 538.1" stroke="#00BDFF" stroke-width="1.5" stroke-miterlimit="10"/>
<path d="M767.65 536.75C772.4 535.8 784.52 538.1 784.52 538.1C816.84 546.81 865.55 576.44 868.64 578.81C871.73 581.18 869.83 586.65 869.83 586.65L853.67 596.87L847.49 592.59C823.49 575.24 785.71 562.41 781.67 560.64C777.63 558.87 768.84 559.32 760.76 557.83C752.68 556.34 754.82 548.4 754.82 548.4C760.29 548.4 770.98 538.09 770.98 538.09L763.38 536.51M763.38 536.51C763.38 536.51 761.67 543.03 752.39 544.63C752.39 544.63 753.4 537.47 763.38 536.51Z" stroke="#00BDFF" stroke-miterlimit="10"/>
<path d="M752.39 544.63L754.82 548.4" stroke="#00BDFF" stroke-miterlimit="10"/>
<path d="M762.66 545.54C762.66 545.54 771.69 540.87 781.91 544.63C792.13 548.39 847.49 575.34 852.01 575.05C856.53 574.76 861.05 574.03 861.05 574.03" stroke="#00BDFF" stroke-width="1" stroke-miterlimit="10"/>
<path d="M670.05 422.57C670.05 422.57 678.61 408.26 691 415.38C699.74 420.4 704.41 426.9 706.41 430.3C707.22 431.67 707.52 433.27 707.26 434.84C706.24 440.9 703.05 457.45 698.12 461.52C698.12 461.52 693.7 464.57 685.73 459.94L677.76 455.3" stroke="#00BDFF" stroke-width="4" stroke-miterlimit="10"/>
<path d="M680.24 414.03C680.24 414.03 678.17 415.91 680.24 417.75C682.31 419.59 700.69 431.18 699.93 438.7C699.17 446.22 695.75 452.05 696.28 456.13C696.81 460.21 698.13 461.52 698.13 461.52" stroke="#00BDFF" stroke-miterlimit="10"/>
<path d="M691 462.51L688.7 471.97C688.7 471.97 684.49 473.19 680.23 471.97" stroke="#00BDFF" stroke-width="1.5" stroke-miterlimit="10"/>
<path d="M683.09 472.51L681.33 479.45C681.33 479.45 682.15 480.24 679.06 479.45" stroke="#00BDFF" stroke-width="1" stroke-miterlimit="10"/>
<path d="M678.08 481.96C678.08 481.96 682.04 483.15 683.09 481.96C684.14 480.77 681.77 477.74 681.77 477.74" stroke="#00BDFF" stroke-width="1" stroke-miterlimit="10"/>
<path d="M677.35 488.68C677.35 488.68 677.39 488.7 677.41 488.71C679.02 489.59 681.04 488.71 681.57 486.96L683.1 481.96C683.1 481.96 787.36 452.43 892.88 498.98" stroke="#00BDFF" stroke-width="6" stroke-miterlimit="10"/>
<path d="M680.24 489.06C680.24 489.06 677.82 492.9 678.08 496.33C678.34 499.76 678.08 505.45 678.08 505.45C678.08 505.45 675.44 512.68 678.08 519.27C678.46 520.22 678.79 521.01 679.07 521.67C680.72 525.57 680.73 524.92 680.73 527.06" stroke="#00BDFF" stroke-miterlimit="10"/>
<path d="M679.32 505.44L696.02 516.83C696.02 516.83 699.97 521.64 697.6 527.04C695.23 532.44 686.77 544.63 686.77 544.63C686.77 544.63 684.43 548.82 678.82 544.63C671.23 538.97 628.75 514.49 628.75 514.49" stroke="#00BDFF" stroke-width="1.5" stroke-miterlimit="10"/>
<path d="M683.13 551.68L685.76 566.93C685.76 566.93 679.25 573.7 672.12 568.18C664.99 562.66 613.31 521.13 609.57 517.92C605.83 514.71 600.06 507.33 598.52 503.13" stroke="#00BDFF" stroke-width="0.25" stroke-miterlimit="10"/>
<path d="M700.49 532.72L702 542.69C702.13 543.56 701.92 544.45 701.41 545.16L685.77 566.92" stroke="#00BDFF" stroke-width="1" stroke-miterlimit="10"/>
<path d="M501.1 525.97L444.72 627.52C444.72 627.52 471.81 678.13 604.4 674.57" stroke="#00BDFF" stroke-width="4" stroke-miterlimit="10"/>
<path d="M279.33 728.39C279.33 728.39 299.52 790.05 379.96 793.62C460.4 797.19 545.41 797.9 545.41 797.9" stroke="#00BDFF" stroke-width="4" stroke-miterlimit="10"/>
<path d="M220.89 766.98L254.38 806.45L257.06 833.36L253.59 837.1L247.48 814.29L208.63 775.8" stroke="#00BDFF" stroke-miterlimit="10"/>
<path d="M226.57 762.88L256.59 802.89L254.38 806.45" stroke="#00BDFF" stroke-width="1.5" stroke-miterlimit="10"/>
<path d="M248.86 842.2L265.43 824.86C265.43 824.86 291.09 828.19 300.6 856.23C300.6 856.23 292.11 875.24 249.81 843.87L252.12 855.75C252.12 855.75 273.98 879.51 289.66 869.06C305.34 858.61 300.59 856.23 300.59 856.23" stroke="#00BDFF" stroke-width="3" stroke-miterlimit="10"/>
<path d="M256.59 802.53L259.37 830.51" stroke="#00BDFF" stroke-width="1" stroke-miterlimit="10"/>
<path d="M163.12 806.83L204.18 852.84L207.47 884.21L203.22 888.58L195.73 861.98L148.08 817.11" stroke="#00BDFF" stroke-miterlimit="10"/>
<path d="M170.08 802.04L206.89 848.68L204.18 852.84" stroke="#00BDFF" stroke-width="1.5" stroke-miterlimit="10"/>
<path d="M197.42 894.52L217.74 874.31C217.74 874.31 249.21 878.19 260.87 910.88C260.87 910.88 250.46 933.04 198.59 896.47L201.43 910.32C201.43 910.32 228.24 938.02 247.47 925.83C266.7 913.64 260.88 910.87 260.88 910.87" stroke="#00BDFF" stroke-width="3" stroke-miterlimit="10"/>
<path d="M206.89 848.27L210.31 880.89" stroke="#00BDFF" stroke-width="1" stroke-miterlimit="10"/>
<path d="M84.0098 922.14L134.37 1078.09" stroke="#00BDFF" stroke-width="6" stroke-miterlimit="10"/>
<path d="M893.47 497.06C893.47 497.06 885.75 474.96 918.06 422.56C950.38 370.16 1002.54 293.65 1002.54 293.65C1002.54 293.65 1031.17 254.24 1062.06 247.09" stroke="#00BDFF" stroke-width="6" stroke-miterlimit="10"/>
<path d="M903.32 449.96L899.18 440.75C885.04 413.43 916.17 366.84 916.17 366.84C916.17 366.84 962.74 292.7 971.77 280.82C980.8 268.94 1012.17 237.57 1019.77 231.87C1027.37 226.17 1050.66 178.17 1050.66 178.17C1050.66 178.17 1060.52 162.49 1072.28 160.35C1084.04 158.21 1086.3 157.85 1086.3 157.85C1086.3 157.85 1092.72 155.83 1089.86 165.22C1089.81 165.39 1089.76 165.56 1089.71 165.72C1087.93 171.63 1086.73 177.68 1085.83 183.79C1081.7 211.75 1052.86 250.16 1052.86 250.16" stroke="#00BDFF" stroke-width="4" stroke-miterlimit="10"/>
<path d="M1063.97 162.97C1063.97 162.97 1103.42 140.63 1135.26 152.51C1167.1 164.39 1154.75 221.42 1154.75 221.42L1134.31 342.61" stroke="#00BDFF" stroke-width="4" stroke-miterlimit="10"/>
<path d="M1015.02 241.86C1015.02 241.86 1007.44 286.41 1000.13 297.21" stroke="#00BDFF" stroke-width="1" stroke-miterlimit="10"/>
<path d="M1090.6 157.67C1090.6 157.67 1138.58 161.06 1143.81 168.19C1149.04 175.32 1152.84 195.28 1143.81 235.68C1134.78 276.08 1106.27 340.23 1106.27 340.23C1106.27 340.23 1076.33 398.21 1074.43 409.62" stroke="#00BDFF" stroke-width="1.5" stroke-miterlimit="10"/>
<path d="M1096.76 150.99V145.85C1096.76 145.85 1114.78 135.26 1128.6 145.85V150.53" stroke="#00BDFF" stroke-miterlimit="10"/>
<path d="M1078.23 154.56V150.99C1078.23 150.99 1082.51 144.9 1096.76 145.85" stroke="#00BDFF" stroke-width="1" stroke-miterlimit="10"/>
<path d="M1121.47 116.87V141.15" stroke="#00BDFF" stroke-miterlimit="10"/>
<path d="M1068.25 98.33C1034.03 64.59 1070.63 4.23 1070.63 4.23C1070.63 4.23 1154.27 -9.55 1157.11 33.22C1159.94 75.99 1140.49 106.41 1140.49 106.41C1117.68 93.58 1071.1 98.33 1071.1 98.33L1043.54 114.49C1043.54 114.49 1044.49 121.62 1084.89 122.57" stroke="#00BDFF" stroke-width="6" stroke-miterlimit="10"/>
<path d="M1100.46 144.09V119.25C1100.46 119.25 1097.24 113.55 1087.5 116.87V146.33" stroke="#00BDFF" stroke-width="1" stroke-miterlimit="10"/>
<path d="M1108.17 141.15V112.59C1108.17 112.59 1120.15 107.5 1121.48 116.87L1140.49 106.41" stroke="#00BDFF" stroke-miterlimit="10"/>
<path d="M1070.62 4.23001C1070.62 4.23001 1066.66 5.11001 1060.69 9.15001C1050.29 16.2 1043 26.99 1040 39.19C1034.42 61.86 1025.91 106.73 1043.53 114.48" stroke="#00BDFF" stroke-width="4" stroke-miterlimit="10"/>
<path d="M870.41 589.26L864.7 598.42C864.43 598.85 864.85 599.38 865.33 599.21L894.54 589.13C896.49 588.46 898.04 586.93 898.73 584.98L901.19 578.08L870.4 589.25L870.41 589.26Z" stroke="#00BDFF" stroke-width="4" stroke-miterlimit="10"/>
<path d="M896.8 587.72L901.2 593.54" stroke="#00BDFF" stroke-width="1" stroke-miterlimit="10"/>
<path d="M864.61 599.02L868.07 603.39C868.78 604.29 869.99 604.64 871.08 604.26L902.93 593.05L906.66 583.12L902.93 576.91" stroke="#00BDFF" stroke-miterlimit="10"/>
<path d="M867.09 602.39L865.37 606.58C864.79 608 866.13 609.46 867.59 608.99L901.26 598.21C903.88 597.37 905.88 595.24 906.55 592.58L908.64 584.28C908.99 582.88 907.58 581.69 906.26 582.28L904.25 583.18" stroke="#00BDFF" stroke-width="1.5" stroke-miterlimit="10"/>
<path d="M908.56 583.19C908.56 583.19 914.15 588.11 919.86 598.22C925.78 608.7 927.19 621.14 924.01 632.75C923.3 618.97 903.78 596.87 903.78 596.87" stroke="#00BDFF" stroke-miterlimit="10"/>
<path d="M865.22 609.08C865.22 609.08 874.82 629.66 890.97 639.4L924 634.89L934.1 655.33" stroke="#00BDFF" stroke-miterlimit="10"/>
<path d="M1034.98 721.62C1034.98 721.62 961.1 623.96 977.37 560.87C993.64 497.78 1101.28 377.33 1101.28 377.33L1197.52 297.2C1197.52 297.2 1260.97 203.36 1285.2 193.38C1289.87 191.46 1294.31 189.69 1298.52 188.07C1316.13 181.3 1329.74 177.14 1340.1 174.84" stroke="#00BDFF" stroke-width="6" stroke-miterlimit="10"/>
<path d="M1332.25 286.79C1332.25 286.79 1295.89 333.1 1276.65 355.91C1257.4 378.72 1249.56 376.58 1249.56 376.58C1249.56 376.58 1243.86 375.87 1234.59 372.07C1225.32 368.28 1234.59 328.1 1234.59 328.1L1288.77 196.93C1288.77 196.93 1300.18 182.67 1323.7 184.81L1347.22 186.95" stroke="#00BDFF" stroke-width="4" stroke-miterlimit="10"/>
<path d="M1189.57 303.82C1189.57 303.82 1162.58 438.13 1124.09 493.92C1085.59 549.71 1030.7 721.62 1030.7 721.62" stroke="#00BDFF" stroke-width="4" stroke-miterlimit="10"/>
<path d="M1308.92 387.46L1072.65 652.92C1049.38 679.06 1033.84 711.3 1028.73 745.92C1025.21 769.73 1026.24 796.55 1038.54 821.41C1071.33 887.71 1083.45 903.39 1083.45 903.39" stroke="#00BDFF" stroke-width="8" stroke-miterlimit="10"/>
<path d="M1182.54 872.03C1182.54 872.03 1123.27 905.53 1110.13 903.4C1096.99 901.26 1090.58 903.4 1090.58 903.4L999.33 929.78C999.33 929.78 972.72 960.43 924 951.17C875.29 941.9 635.05 903.41 635.05 903.41C635.05 903.41 577.31 887.01 573.03 927.65C570.75 949.35 575.1 990.77 579.66 1024.67C583.64 1054.26 587.77 1078.11 587.77 1078.11" stroke="#00BDFF" stroke-width="8" stroke-miterlimit="10"/>
<path d="M585.63 1052.41L587.77 976.13C587.77 976.13 591.49 946.9 642.14 957.6C692.79 968.3 938.02 997.52 938.02 997.52C938.02 997.52 961.54 1002.51 1017.15 984.69C1072.76 966.87 1106.26 955.25 1106.26 955.25C1106.26 955.25 1121.81 945.31 1131.21 926.24C1140.62 907.16 1178.26 897.73 1178.26 897.73" stroke="#00BDFF" stroke-width="4" stroke-miterlimit="10"/>
<path d="M1140.48 1032.43L1027.89 1011.88C1017.7 1010.02 1007.22 1013.15 999.88 1020.23L939.44 1078.57" stroke="#00BDFF" stroke-width="1.5" stroke-miterlimit="10"/>
<path d="M1144.76 1023.41L1018.2 998.84C1006.75 996.62 994.97 1000.35 986.72 1008.82L918.78 1078.56" stroke="#00BDFF" stroke-miterlimit="10"/>
<path d="M578.41 908.39C578.41 908.39 540.97 857.06 554.15 795.04C567.33 733.02 616.52 665.41 637.19 655.02C657.86 644.63 719.03 614.68 797.87 623.95C802.8 624.53 807.68 625.17 812.51 625.87C880.93 635.75 946.46 660.14 1005.14 696.69L1026.97 710.29" stroke="#00BDFF" stroke-width="6" stroke-miterlimit="10"/>
<path d="M554.16 795.04C554.16 795.04 560.21 823.91 602.27 830.51C644.33 837.11 831.31 859.92 870.41 867.04C909.51 874.17 1051.93 914.57 1051.93 914.57" stroke="#00BDFF" stroke-width="10" stroke-miterlimit="10"/>
<path d="M559.56 784.67C564.48 781.5 593.33 758.69 679.06 757.98C732.64 757.53 741.88 738.71 741.27 724.65C740.89 715.84 736.34 707.77 729.36 702.38C720.18 695.3 701.42 684.16 666.42 674.75C610.1 659.6 621.46 668.07 621.46 668.07" stroke="#00BDFF" stroke-miterlimit="10"/>
<path d="M737.71 627.52C737.71 628.23 748.4 638.93 812.56 652.47C876.72 666.01 999.33 698.81 1008.6 750.85" stroke="#00BDFF" stroke-width="1" stroke-miterlimit="10"/>
<path d="M667.85 830.51C667.85 830.51 697.16 808.59 721 813.58C744.84 818.57 1010.42 892 1026.98 879.88" stroke="#00BDFF" stroke-width="1.5" stroke-miterlimit="10"/>
<path d="M1367.18 1.49999C1368.61 3.75999 1375.02 49.38 1375.02 49.38L1288.84 72.19C1288.84 72.19 1271.65 62.09 1274.5 36.84C1277.35 11.59 1283.05 1.48999 1283.05 1.48999H1367.17L1367.18 1.49999Z" stroke="#00BDFF" stroke-width="4" stroke-miterlimit="10"/>
<path d="M1288.84 72.19C1288.84 72.19 1351.14 80.74 1361.83 80.74" stroke="#00BDFF" stroke-miterlimit="10"/>
<path d="M1372.52 85.74H1366.28C1362 85.74 1361.82 83.96 1361.82 83.96V78.61L1362.71 77.9C1362.71 77.9 1365.74 75.4 1373.22 77.9" stroke="#00BDFF" stroke-width="1" stroke-miterlimit="10"/>
<path d="M5.7998 294.95L152.12 272.78" stroke="#00BDFF" stroke-width="4" stroke-miterlimit="10"/>
<path d="M350.98 247.56C350.98 247.56 366.78 251.84 394.35 239.48C421.91 227.12 430.97 220.47 430.97 220.47" stroke="#00BDFF" stroke-width="4" stroke-miterlimit="10"/>
<path d="M501.26 167.3L672.36 43.68C672.36 43.68 705.15 18.25 702.3 1.5" stroke="#00BDFF" stroke-width="4" stroke-miterlimit="10"/>
<path d="M554.5 213.82C554.5 213.82 557.83 189.11 576.36 177.7C594.89 166.29 790.7 33.22 859.13 19.92L948.96 1.5" stroke="#00BDFF" stroke-width="4" stroke-miterlimit="10"/>
<path d="M1027.85 2.12C1027.85 2.12 1044.75 8.04 1032.97 51.29C1021.19 94.54 993.05 220.48 993.05 220.48L597.51 274.49" stroke="#00BDFF" stroke-width="6" stroke-miterlimit="10"/>
<path d="M583.02 252.31V190.53C583.02 190.53 580.64 183.4 597.51 171.04C614.39 158.68 656.33 126.02 656.33 126.02" stroke="#00BDFF" stroke-miterlimit="10"/>
<path d="M277.55 450.49L287.48 447.87C290.03 447.2 291.89 445 292.11 442.37C292.66 435.78 294.84 423.34 303.34 417.23C315.22 408.68 347.3 399.17 347.3 399.17C347.3 399.17 359.12 394.53 369.6 400.53" stroke="#00BDFF" stroke-width="1.5" stroke-miterlimit="10"/>
<path d="M255.36 373.83L301.34 361.71" stroke="#00BDFF" stroke-width="1" stroke-miterlimit="10"/>
<path d="M254.78 376.41L301.34 364.11" stroke="#00BDFF" stroke-width="1.5" stroke-miterlimit="10"/>
<path d="M262.3 384.88C260.73 386.44 259.78 388.52 259.46 390.72C258.5 397.33 255.28 419.68 255.36 420.44C255.45 421.33 254.11 425.98 257.54 425.62C260.97 425.26 277.56 427.12 298.7 411.37C299.55 410.74 300.48 410.24 301.41 409.75C302.48 409.18 303.9 407.76 303.2 404.27C302.13 398.89 299.99 377.68 296.25 375.36C292.51 373.04 265.06 382.98 265.06 382.98C265.06 382.98 263.73 383.46 262.29 384.9L262.3 384.88Z" stroke="#00BDFF" stroke-miterlimit="10"/>
<path d="M264.67 387.12C263.33 388.47 262.52 390.28 262.25 392.18C261.44 397.91 258.69 417.27 258.76 417.93C258.84 418.7 257.7 422.73 260.62 422.41C263.54 422.09 277.66 423.71 295.66 410.06C296.38 409.51 297.17 409.08 297.97 408.65C298.88 408.16 300.09 406.93 299.5 403.9C298.59 399.24 296.77 380.86 293.58 378.86C290.39 376.86 267.03 385.46 267.03 385.46C267.03 385.46 265.9 385.88 264.67 387.12Z" stroke="#00BDFF" stroke-width="0.25" stroke-miterlimit="10"/>
<path d="M262.3 384.88H254.78" stroke="#00BDFF" stroke-width="1" stroke-miterlimit="10"/>
<path d="M296.27 375.34L270.42 372.28" stroke="#00BDFF" stroke-width="1" stroke-miterlimit="10"/>
<path d="M255.36 425.61L247.94 425.63" stroke="#00BDFF" stroke-width="0.25" stroke-miterlimit="10"/>
<path d="M5.7998 199.08C5.7998 199.08 210.36 33.22 283.34 4.23001" stroke="#00BDFF" stroke-width="6" stroke-miterlimit="10"/>
<path d="M1142.19 106.41L1135.26 152.51" stroke="#00BDFF" stroke-width="6" stroke-miterlimit="10"/>
<path d="M1157.56 4.23001L1154.68 23.39" stroke="#00BDFF" stroke-width="6" stroke-miterlimit="10"/>
<path d="M1157.56 199.08L1361.83 167.3" stroke="#00BDFF" stroke-width="6" stroke-miterlimit="10"/>
<path d="M1408.52 2.12L1128.6 1076.63" stroke="#00BDFF" stroke-width="6" stroke-miterlimit="10"/>
<path d="M1441.23 53.66C1441.23 53.66 1198.99 1038.85 1179.01 1076.63" stroke="#00BDFF" stroke-width="8" stroke-miterlimit="10"/>
<path d="M1441.23 372.08C1441.23 372.08 1394.84 550.93 1408.52 631.56C1422.2 712.19 1429.73 720.07 1419.94 795.05C1410.15 870.03 1367.53 1076.63 1367.53 1076.63" stroke="#00BDFF" stroke-width="8" stroke-miterlimit="10"/>
<path d="M1299.81 870.25L1308.92 846.73L1314.78 836.75H1321.55L1353.99 878.09L1358.62 914.58L1351.49 951.52L1336.88 964.71L1329.22 961.86L1305.87 928" stroke="#00BDFF" stroke-width="4" stroke-miterlimit="10"/>
<path d="M1321.91 836.75H1328.68L1361.12 878.09L1365.75 914.58L1358.62 951.52L1344.01 964.71H1336.88" stroke="#00BDFF" stroke-width="4" stroke-miterlimit="10"/>
<path d="M1338.83 916.06L1295.3 910.8C1289.16 910.06 1283.54 906.97 1279.62 902.18L1262.77 881.56C1260.1 878.29 1262.9 873.45 1267.07 874.15L1302.48 880.07L1301.82 884.57L1277.03 880.43C1274.11 879.94 1272.15 883.33 1274.02 885.62L1285.82 900.05C1288.56 903.4 1292.49 905.57 1296.79 906.09L1327.26 909.77L1338.83 916.07V916.06Z" stroke="#00BDFF" stroke-width="4" stroke-miterlimit="10"/>
<path d="M1263.98 875.08C1259.81 874.38 1260.09 891.61 1262.77 894.88L1279.62 913.5C1283.54 918.29 1289.15 921.38 1295.3 922.12L1338.83 927.38L1341.87 917.66" stroke="#00BDFF" stroke-miterlimit="10"/>
<path d="M1277.86 890.32L1300.27 895.07" stroke="#00BDFF" stroke-width="4" stroke-miterlimit="10"/>
<path d="M280.05 653.9L218.03 695.24" stroke="#00BDFF" stroke-width="6" stroke-miterlimit="10"/>
</g>
<defs>
<clipPath id="clip0_1838_449">
<rect width="1443.17" height="1078.42" fill="white" transform="translate(0 0.5)"/>
</clipPath>
</defs>
</svg>
