<svg width="1448" height="1083" viewBox="0 0 1448 1083" fill="none" xmlns="http://www.w3.org/2000/svg">
<g clip-path="url(#clip0_1838_599)">
<path d="M301.17 787.2C428.339 787.2 531.43 684.109 531.43 556.94C531.43 429.771 428.339 326.68 301.17 326.68C174.001 326.68 70.9102 429.771 70.9102 556.94C70.9102 684.109 174.001 787.2 301.17 787.2Z" stroke="#00BDFF" stroke-width="6" stroke-miterlimit="10"/>
<path d="M147.65 526.05C122.63 524.95 122.87 501.78 122.87 501.78C124.22 497.3 125.73 492.9 127.39 488.56C155.13 416.18 225.26 364.78 307.41 364.78C400.79 364.78 478.66 431.2 496.35 519.37C496.35 519.37 494.92 545.61 482.47 539.51C470.02 533.41 473.68 535.07 473.68 535.07" stroke="#00BDFF" stroke-width="6" stroke-miterlimit="10"/>
<path d="M407.97 505.26L473.67 535.08C489.83 561.22 468.44 586.88 468.44 586.88C468.44 586.88 451.33 590.21 421.39 592.98C391.45 595.75 388.12 617.3 380.04 635.83C371.96 654.36 356.75 666.72 356.75 666.72C303.52 682.88 271.21 671.47 254.1 666.72C236.99 661.97 226.06 641.53 216.08 612.07C206.1 582.61 140.52 572.15 140.52 572.15C123.41 546.01 147.65 526.05 147.65 526.05L237.21 505.26C237.21 505.26 286.59 478.89 407.97 505.26Z" stroke="#00BDFF" stroke-width="4" stroke-miterlimit="10"/>
<path d="M393.33 502.32C404.66 567.92 351.43 652.93 351.43 652.93C344.82 662.37 308.48 668.03 283.94 664.26C259.4 660.49 249.96 651.99 249.96 651.99C189.08 546.27 240.76 503.7 240.76 503.7" stroke="#00BDFF" stroke-width="4" stroke-miterlimit="10"/>
<path d="M178.92 562.32C192.081 562.32 202.75 554.078 202.75 543.91C202.75 533.742 192.081 525.5 178.92 525.5C165.759 525.5 155.09 533.742 155.09 543.91C155.09 554.078 165.759 562.32 178.92 562.32Z" stroke="#00BDFF" stroke-width="1.5" stroke-miterlimit="10"/>
<path d="M436.88 573.42C450.041 573.42 460.71 565.178 460.71 555.01C460.71 544.842 450.041 536.6 436.88 536.6C423.719 536.6 413.05 544.842 413.05 555.01C413.05 565.178 423.719 573.42 436.88 573.42Z" stroke="#00BDFF" stroke-width="1.5" stroke-miterlimit="10"/>
<path d="M116.86 602.43C113.61 589.85 123.39 581.98 129.63 578.35C132.41 576.74 135.67 576.13 138.85 576.59C180.73 582.71 201.22 599.28 207.91 605.11C209.53 606.52 210.8 608.27 211.65 610.24L224.58 640.18C226.87 645.49 225.77 651.66 221.77 655.83C211.62 666.41 191.56 684.83 176.34 683.14C155.1 680.78 148.49 675.09 148.49 675.09C148.49 675.09 131.97 660.96 116.87 602.43H116.86Z" stroke="#00BDFF" stroke-width="4" stroke-miterlimit="10"/>
<path d="M482.82 622.53C489.09 611.09 484.05 600.12 479.97 595.08C478.15 592.84 473.46 591.02 470.7 591.16C434.18 592.94 412.62 597.1 405.47 601.14C403.74 602.12 398.53 607.5 397.27 609.2L384.27 635.71C380.87 640.31 383.31 647.09 385.39 652.12C390.67 664.86 401.83 687.6 414.79 689.65C432.87 692.5 439.92 688.58 439.92 688.58C439.92 688.58 453.63 675.72 482.81 622.53H482.82Z" stroke="#00BDFF" stroke-width="4" stroke-miterlimit="10"/>
<path d="M334.14 677.42C281.46 684.81 251.5 672.43 251.5 672.43C251.5 672.43 231.54 704.51 225.76 718.41C219.98 732.31 234.04 736.94 234.04 736.94C305.68 750.13 339.9 743.71 354.16 739.08C354.16 739.08 363.78 735.16 359.86 723.04C355.94 710.92 344.18 675.08 344.18 675.08L334.15 677.42H334.14Z" stroke="#00BDFF" stroke-width="4" stroke-miterlimit="10"/>
<path d="M4.81006 163.08C4.81006 163.08 152.22 319.2 292.57 315.99C414.65 313.2 945.9 315.3 1082.14 315.89C1097.62 315.96 1113.09 316.69 1128.5 318.16C1163.14 321.47 1255.3 319.85 1351.46 230.44C1473.36 117.09 1442.81 143.83 1442.81 143.83" stroke="#00BDFF" stroke-width="4" stroke-miterlimit="10"/>
<path d="M837.71 339.28C837.71 339.28 891.41 350.69 904.24 393.93C917.07 437.18 906.14 502.31 906.14 502.31C906.14 502.31 897.59 575.64 843.88 583.87C790.18 592.1 664.24 588.94 644.75 583.87C625.26 578.8 589.62 578.8 580.12 527.47C570.62 476.14 555.41 433.37 571.57 384.9C571.57 384.9 582.03 349.26 629.55 339.28C629.55 339.28 608.64 376.82 609.83 403.68C609.83 403.68 611.49 412.47 619.57 415.8L635.49 427.21L634.3 444.79L843.41 444.08L839.37 426.26L856.95 413.9C856.95 413.9 866.22 409.62 864.08 399.64C861.94 389.66 855.76 356.39 837.7 339.28H837.71Z" stroke="#00BDFF" stroke-width="6" stroke-miterlimit="10"/>
<path d="M637.63 351.16L657.59 398.92C657.59 398.92 628.05 400.4 621.43 417.13" stroke="#00BDFF" stroke-miterlimit="10"/>
<path d="M831.53 351.16L810.14 398.92C810.14 398.92 851.25 402.78 851.01 417.13" stroke="#00BDFF" stroke-miterlimit="10"/>
<path d="M665.71 401.91C640.76 405.47 636.68 418.17 636.68 418.17C636.68 418.17 644.28 426.49 675.41 426.25C706.54 426.01 808.95 426.25 808.95 426.25C808.95 426.25 832.14 423.15 835.8 414.36C835.8 414.36 825.16 403.09 803.3 401.9" stroke="#00BDFF" stroke-miterlimit="10"/>
<path d="M661.16 424.35L676.61 414.37C676.61 414.37 678.51 411.99 690.15 411.99H782.11C782.11 411.99 790.19 412.7 797.08 416.03C803.97 419.36 812.59 425.64 812.59 425.64" stroke="#00BDFF" stroke-width="1.5" stroke-miterlimit="10"/>
<path d="M629.55 339.28H634.3L637.63 351.16C637.63 351.16 743.13 311.24 831.53 351.16V339.28H837.71" stroke="#00BDFF" stroke-width="2" stroke-miterlimit="10"/>
<path d="M766.3 349.73H700.01C697.713 349.73 695.85 351.593 695.85 353.89V386.92C695.85 389.218 697.713 391.08 700.01 391.08H766.3C768.598 391.08 770.46 389.218 770.46 386.92V353.89C770.46 351.593 768.598 349.73 766.3 349.73Z" stroke="#00BDFF" stroke-width="4" stroke-miterlimit="10"/>
<path d="M657.59 398.92L675.65 405.58H794.94L810.15 398.92" stroke="#00BDFF" stroke-width="2" stroke-miterlimit="10"/>
<path d="M636.68 444.78C636.68 444.78 629.51 465.4 667.02 586.56" stroke="#00BDFF" stroke-miterlimit="10"/>
<path d="M843.41 444.07C843.41 444.07 852.64 465.4 815.14 586.56" stroke="#00BDFF" stroke-miterlimit="10"/>
<path d="M830.58 450.37H647.49V452.61H830.58V450.37Z" stroke="#00BDFF" stroke-miterlimit="10"/>
<path d="M741.08 528.01C752.794 528.01 762.29 519.7 762.29 509.45C762.29 499.2 752.794 490.89 741.08 490.89C729.366 490.89 719.87 499.2 719.87 509.45C719.87 519.7 729.366 528.01 741.08 528.01Z" stroke="#00BDFF" stroke-miterlimit="10"/>
<path d="M740.37 514.1C743.866 514.1 746.7 511.62 746.7 508.56C746.7 505.5 743.866 503.02 740.37 503.02C736.874 503.02 734.04 505.5 734.04 508.56C734.04 511.62 736.874 514.1 740.37 514.1Z" stroke="#00BDFF" stroke-width="2" stroke-miterlimit="10"/>
<path d="M740.68 546.96C761.336 546.96 778.08 532.306 778.08 514.23C778.08 496.154 761.336 481.5 740.68 481.5C720.025 481.5 703.28 496.154 703.28 514.23C703.28 532.306 720.025 546.96 740.68 546.96Z" stroke="#00BDFF" stroke-width="2" stroke-miterlimit="10"/>
<path d="M760.48 588.94L762.28 546.97C736.28 554.81 718.42 546.97 718.42 546.97L721.97 588.75" stroke="#00BDFF" stroke-miterlimit="10"/>
<path d="M738.92 560.69L732.92 571.43C732.23 572.67 733.12 574.2 734.54 574.2H748.16C749.67 574.2 750.55 572.5 749.68 571.27L742.06 560.53C741.27 559.42 739.59 559.51 738.92 560.7V560.69Z" stroke="#00BDFF" stroke-width="1.5" stroke-miterlimit="10"/>
<path d="M739.53 563.17L735.02 570.5C734.5 571.35 735.17 572.39 736.24 572.39H746.48C747.61 572.39 748.28 571.23 747.62 570.39L741.9 563.06C741.31 562.3 740.04 562.36 739.54 563.17H739.53Z" stroke="#00BDFF" stroke-width="2" stroke-miterlimit="10"/>
<path d="M878.64 384.14C878.64 384.14 878.82 381.04 882.56 382.46C886.3 383.89 894.68 388.52 894.68 388.52C894.68 388.52 896.11 388.88 896.82 394.04C897.53 399.2 898.78 410.44 898.78 410.44H886.48C886.48 410.44 882.02 410.97 881.49 407.77C880.96 404.56 878.64 384.14 878.64 384.14Z" stroke="#00BDFF" stroke-width="1.5" stroke-miterlimit="10"/>
<path d="M594.12 384.14C594.12 384.14 593.94 381.04 590.2 382.46C586.46 383.89 578.08 388.52 578.08 388.52C578.08 388.52 576.65 388.88 575.94 394.04C575.23 399.2 573.98 410.44 573.98 410.44H586.28C586.28 410.44 590.74 410.97 591.27 407.77C591.8 404.57 594.12 384.14 594.12 384.14Z" stroke="#00BDFF" stroke-width="1.5" stroke-miterlimit="10"/>
<path d="M586.48 427.54H578.46C578.46 427.54 574.68 426.6 575.39 434.62C576.1 442.64 586.95 533.82 605.6 555.02C605.6 555.02 618.34 569.61 641.47 570.79C641.47 570.79 647.37 570.79 645.72 564.89C644.07 558.99 618.82 472.15 615.75 443.12C615.75 443.12 613.63 433.92 601.36 430.38C589.09 426.84 586.49 427.55 586.49 427.55L586.48 427.54Z" stroke="#00BDFF" stroke-width="4" stroke-miterlimit="10"/>
<path d="M891.48 430.43H899.5C899.5 430.43 903.28 429.49 902.57 437.51C901.86 445.53 891.01 536.71 872.36 557.91C872.36 557.91 859.62 572.5 836.49 573.68C836.49 573.68 830.59 573.68 832.24 567.78C833.89 561.88 859.14 475.04 862.21 446.01C862.21 446.01 864.33 436.81 876.6 433.27C888.87 429.73 891.47 430.44 891.47 430.44L891.48 430.43Z" stroke="#00BDFF" stroke-width="4" stroke-miterlimit="10"/>
<path d="M71.32 570.78C71.32 570.78 78.97 579.05 54.74 550.53C30.51 522.01 61.16 435.76 61.16 435.76C61.16 435.76 78.88 430.93 116.22 405.58L153.55 380.23" stroke="#00BDFF" stroke-miterlimit="10"/>
<path d="M1173.95 319.04L1191.77 358.76C1076.28 324.54 797.79 316.94 797.79 316.94C820.6 326.44 831.53 339.28 831.53 339.28C728.88 316.47 634.3 339.28 634.3 339.28C634.3 328.35 672.32 316.94 672.32 316.94C561.35 319.01 371 337.47 371 337.47" stroke="#00BDFF" stroke-width="4" stroke-miterlimit="10"/>
<path d="M1191.77 358.76L1244.52 382.09H1256.64C1256.64 382.09 1340.05 435.75 1358.58 437.89C1358.58 437.89 1397.79 495.63 1386.38 531.63C1374.97 567.63 1327.21 608.26 1327.21 608.26L1366.42 646.04L1331.49 698.08C1285.87 674.56 863.45 723.74 863.45 723.74" stroke="#00BDFF" stroke-width="4" stroke-miterlimit="10"/>
<path d="M253.76 313.07L242.94 333.42" stroke="#00BDFF" stroke-miterlimit="10"/>
<path d="M525.95 624.67C525.95 624.67 595.1 635.36 605.08 787.2C615.06 939.04 610.66 1079.52 610.66 1079.52" stroke="#00BDFF" stroke-width="6" stroke-miterlimit="10"/>
<path d="M848.86 1079.52C848.86 1079.52 844.46 939.04 854.44 787.2C864.42 635.36 933.57 624.67 933.57 624.67L1215.29 566.97" stroke="#00BDFF" stroke-width="6" stroke-miterlimit="10"/>
<path d="M857.43 750.13C857.43 745.85 878.82 608.27 878.82 608.27C878.82 608.27 873.83 596.85 925.16 591.15C976.49 585.45 1184.65 555.01 1184.65 555.01C1184.65 555.01 1206.04 559.71 1215.3 566.97" stroke="#00BDFF" stroke-width="6" stroke-miterlimit="10"/>
<path d="M884.83 667.36C884.83 667.36 1275.63 618.31 1319.37 634.65V611.13C1319.37 611.13 1248.08 581.19 1225.98 579.05" stroke="#00BDFF" stroke-width="4" stroke-miterlimit="10"/>
<path d="M1219.93 520.59L1227.77 552.31C1227.77 552.31 1230.27 561.67 1245.59 566.97C1260.92 572.27 1286.94 584.39 1286.94 584.39C1286.94 584.39 1298.35 589.02 1308.68 579.04C1319.02 569.06 1339.33 539.52 1339.33 539.52C1339.33 539.52 1346.82 531.28 1345.39 518.09C1343.96 504.9 1326.86 432.55 1326.86 432.55C1326.86 432.55 1324.72 425.42 1309.39 424.71C1294.06 424 1268.4 427.21 1268.4 427.21C1268.4 427.21 1251.65 429.71 1243.45 456.44C1235.25 483.17 1219.93 520.6 1219.93 520.6V520.59Z" stroke="#00BDFF" stroke-width="6" stroke-miterlimit="10"/>
<path d="M1224.98 519.34L1232.19 548.51C1232.19 548.51 1234.48 557.12 1248.58 561.99C1262.67 566.86 1286.6 578.01 1286.6 578.01C1286.6 578.01 1297.09 582.27 1306.59 573.09C1316.09 563.91 1334.78 536.74 1334.78 536.74C1334.78 536.74 1341.66 529.16 1340.35 517.04C1339.04 504.91 1323.31 438.37 1323.31 438.37C1323.31 438.37 1321.34 431.81 1307.25 431.16C1293.16 430.5 1269.56 433.45 1269.56 433.45C1269.56 433.45 1254.15 435.74 1246.62 460.33C1239.08 484.91 1224.99 519.33 1224.99 519.33L1224.98 519.34Z" stroke="#00BDFF" stroke-width="1.5" stroke-miterlimit="10"/>
<path d="M1237.39 531.64L1242.38 547.68C1242.38 547.68 1243.81 553.03 1253.07 557.3C1262.34 561.58 1290.5 572.27 1290.5 572.27C1290.5 572.27 1299.41 572.72 1302.98 566.97C1306.54 561.22 1322.94 539.52 1322.94 539.52C1322.94 539.52 1323.65 536.63 1311.18 535.2C1298.7 533.77 1237.4 531.64 1237.4 531.64H1237.39Z" stroke="#00BDFF" stroke-miterlimit="10"/>
<path d="M1268.05 447.87C1268.05 447.87 1255.34 446.36 1268.05 439.32C1280.76 432.28 1312.6 433.62 1312.6 433.62L1319.37 450.37L1268.04 447.87H1268.05Z" stroke="#00BDFF" stroke-miterlimit="10"/>
<path d="M1252.72 468.9C1252.72 468.9 1254.5 456.42 1272.32 457.14C1290.14 457.86 1294.42 458.57 1294.42 458.57C1294.42 458.57 1300.12 456.79 1302.62 468.91C1305.12 481.03 1307.97 496.36 1307.97 496.36C1307.97 496.36 1307.61 503.13 1314.03 503.13H1322.95C1322.95 503.13 1328.65 501.53 1329.36 509.46C1330.07 517.39 1331.87 520.95 1322.95 520.95C1314.03 520.95 1248.09 517.74 1248.09 517.74C1248.09 517.74 1233.12 519.17 1237.4 507.05C1241.68 494.93 1252.73 468.91 1252.73 468.91L1252.72 468.9Z" stroke="#00BDFF" stroke-miterlimit="10"/>
<path d="M1319 460.104L1314.77 460.775C1312.25 461.176 1310.52 463.548 1310.93 466.074L1315.17 492.819C1315.57 495.344 1317.94 497.066 1320.47 496.666L1324.7 495.995C1327.22 495.594 1328.94 493.221 1328.54 490.696L1324.3 463.951C1323.9 461.425 1321.52 459.703 1319 460.104Z" stroke="#00BDFF" stroke-miterlimit="10"/>
<path d="M1265.79 457.11C1265.79 457.49 1264.48 465.92 1264.48 465.92L1265.49 466.19C1266.77 466.53 1267.54 467.9 1267.21 469.25L1259.29 501.56C1259.11 502.29 1258.72 502.95 1258.18 503.43L1256.05 505.34L1252.49 518.3" stroke="#00BDFF" stroke-width="2" stroke-miterlimit="10"/>
<path d="M1278.74 457.73L1279.33 468.07" stroke="#00BDFF" stroke-width="2" stroke-miterlimit="10"/>
<path d="M1281.12 493.02L1279.04 502.41L1275.41 505.03L1273.39 518.3" stroke="#00BDFF" stroke-width="2" stroke-miterlimit="10"/>
<path d="M1267.29 494.33L1268.05 496.94C1268.05 496.94 1269.83 494.8 1275.65 491.71C1281.47 488.62 1281.12 493.02 1281.12 493.02C1281.12 493.02 1284.87 490.73 1285.15 489.03M1267.29 494.33L1278.74 487.2C1278.74 487.2 1280.88 486.31 1284.21 487.71C1284.99 488.04 1285.24 488.51 1285.15 489.03M1267.29 494.33L1268.29 476.15L1279.34 468.07C1279.34 468.07 1284.33 465.22 1286.23 468.07C1288.13 470.92 1285.15 489.03 1285.15 489.03" stroke="#00BDFF" stroke-width="2" stroke-miterlimit="10"/>
<path d="M1292.29 458.32L1293.12 468.07C1293.12 468.07 1293.71 469.5 1294.66 469.5H1294.99C1296.13 469.5 1297.06 470.41 1297.09 471.55L1297.85 502.81C1297.86 503.32 1297.69 503.82 1297.36 504.21L1295.57 506.34C1295.25 506.72 1295.08 507.2 1295.08 507.69V519.92" stroke="#00BDFF" stroke-width="2" stroke-miterlimit="10"/>
<path d="M534.98 570.78C534.98 570.78 603.42 584.51 607.22 633.94C610.63 678.25 617.09 862.71 618.39 900.45C618.54 904.81 620.28 908.96 623.28 912.13C625.86 914.85 629.23 916.7 632.91 917.4C654.71 921.54 735.53 934.55 821.87 918.97C825.26 918.36 828.41 916.81 830.94 914.47L831.65 913.81C835.2 910.52 837.27 905.93 837.38 901.09C838.19 863.94 842.91 699.23 864.25 621.34C865.96 615.09 870.92 610.25 877.21 608.69L878.82 608.29" stroke="#00BDFF" stroke-width="6" stroke-miterlimit="10"/>
<path d="M708.02 751.79C708.02 751.79 673.28 751.31 669.47 778.4C665.66 805.49 660.92 868.7 660.92 868.7C660.92 868.7 659.07 884.86 684.47 888.66C709.87 892.46 787.34 888.66 787.34 888.66C787.34 888.66 813.48 884.86 813 865.37C812.52 845.88 805.87 812.14 799.22 769.37C799.22 769.37 792.85 750.36 762.29 751.79" stroke="#00BDFF" stroke-width="6" stroke-miterlimit="10"/>
<path d="M735.15 799.79C750.134 799.79 762.28 782.768 762.28 761.77C762.28 740.772 750.134 723.75 735.15 723.75C720.167 723.75 708.02 740.772 708.02 761.77C708.02 782.768 720.167 799.79 735.15 799.79Z" stroke="#00BDFF" stroke-width="4" stroke-miterlimit="10"/>
<path d="M717.23 790.76C717.23 790.76 712.72 799.66 716.04 806.72C719.36 813.78 723.8 816.66 723.8 816.66H738.14C738.14 816.66 750.95 813.62 747.26 795.79" stroke="#00BDFF" stroke-miterlimit="10"/>
<path d="M714.82 798.61C715.83 800.45 717.67 811.2 730.74 811.2C743.81 811.2 747.94 800.42 747.94 800.42" stroke="#00BDFF" stroke-width="2" stroke-miterlimit="10"/>
<path d="M716.05 806.72L688.96 834.01" stroke="#00BDFF" stroke-width="4" stroke-miterlimit="10"/>
<path d="M747.94 804.9C747.94 804.9 767.4 840.66 778.08 841.61" stroke="#00BDFF" stroke-width="4" stroke-miterlimit="10"/>
<path d="M708.02 746.21C708.02 746.21 666.79 745.85 662.57 775.93C658.35 806.01 653.07 876.19 653.07 876.19C653.07 876.19 651.02 894.13 679.22 898.35C707.42 902.57 793.43 898.35 793.43 898.35C793.43 898.35 822.45 894.13 821.92 872.49C821.39 850.86 814.01 813.39 806.62 765.9C806.62 765.9 793.86 744.71 759.93 746.29" stroke="#00BDFF" stroke-miterlimit="10"/>
<path d="M611.62 937.38C611.62 937.38 615.29 923.3 632.4 926.42C649.51 929.54 693.71 936.19 693.71 936.19C693.71 936.19 712.24 934.76 712.24 974.21C712.24 1013.66 714.69 1082.09 714.69 1082.09" stroke="#00BDFF" stroke-width="6" stroke-miterlimit="10"/>
<path d="M619.57 1079.07V961.55C619.57 956.2 623.61 951.87 628.6 951.87H640.48C645.47 951.87 649.51 956.21 649.51 961.55V1079.07" stroke="#00BDFF" stroke-width="4" stroke-miterlimit="10"/>
<path d="M643.57 964.29C643.57 959.303 639.527 955.26 634.54 955.26C629.553 955.26 625.51 959.303 625.51 964.29V981.02C625.51 986.007 629.553 990.05 634.54 990.05C639.527 990.05 643.57 986.007 643.57 981.02V964.29Z" stroke="#00BDFF" stroke-width="1.5" stroke-miterlimit="10"/>
<path d="M830.11 1079.52L821.93 1047.5C829.44 1035.24 828.21 1026.59 828.21 1026.59C828.21 1008.16 805.38 993.22 777.22 993.22C749.06 993.22 726.23 1008.16 726.23 1026.59C726.23 1034.51 730.44 1041.78 737.48 1047.5L736.95 1079.08" stroke="#00BDFF" stroke-width="6" stroke-miterlimit="10"/>
<path d="M765.21 657.99H708.71C706.694 657.99 705.06 659.624 705.06 661.64V678.04C705.06 680.056 706.694 681.69 708.71 681.69H765.21C767.226 681.69 768.86 680.056 768.86 678.04V661.64C768.86 659.624 767.226 657.99 765.21 657.99Z" stroke="#00BDFF" stroke-miterlimit="10"/>
<path d="M813.15 686.89C822.567 686.89 830.2 679.256 830.2 669.84C830.2 660.424 822.567 652.79 813.15 652.79C803.734 652.79 796.1 660.424 796.1 669.84C796.1 679.256 803.734 686.89 813.15 686.89Z" stroke="#00BDFF" stroke-width="4" stroke-miterlimit="10"/>
<path d="M660.89 687.38C670.306 687.38 677.94 679.746 677.94 670.33C677.94 660.914 670.306 653.28 660.89 653.28C651.473 653.28 643.84 660.914 643.84 670.33C643.84 679.746 651.473 687.38 660.89 687.38Z" stroke="#00BDFF" stroke-width="4" stroke-miterlimit="10"/>
<path d="M854.34 133.02C867.58 131.04 878.58 122.17 878.58 108.78V63.63C878.58 50.24 867.38 42.43 854.34 39.39C733.63 11.23 586.78 39.39 586.78 39.39C573.35 42.6 562.54 50.24 562.54 63.63V108.78C562.54 122.17 573.39 133.02 586.78 133.02C586.78 133.02 788.52 142.88 854.34 133.02Z" stroke="#00BDFF" stroke-width="4" stroke-miterlimit="10"/>
<path d="M576.12 635.72C581.289 635.72 585.48 630.612 585.48 624.31C585.48 618.008 581.289 612.9 576.12 612.9C570.95 612.9 566.76 618.008 566.76 624.31C566.76 630.612 570.95 635.72 576.12 635.72Z" stroke="#00BDFF" stroke-width="2" stroke-miterlimit="10"/>
<path d="M576.47 638.36C582.838 638.36 588 632.07 588 624.31C588 616.55 582.838 610.26 576.47 610.26C570.102 610.26 564.94 616.55 564.94 624.31C564.94 632.07 570.102 638.36 576.47 638.36Z" stroke="#00BDFF" stroke-width="2" stroke-miterlimit="10"/>
<path d="M660.89 681.83C667.241 681.83 672.39 676.681 672.39 670.33C672.39 663.979 667.241 658.83 660.89 658.83C654.539 658.83 649.39 663.979 649.39 670.33C649.39 676.681 654.539 681.83 660.89 681.83Z" stroke="#00BDFF" stroke-width="1.5" stroke-miterlimit="10"/>
<path d="M813 681.34C819.351 681.34 824.5 676.191 824.5 669.84C824.5 663.489 819.351 658.34 813 658.34C806.649 658.34 801.5 663.489 801.5 669.84C801.5 676.191 806.649 681.34 813 681.34Z" stroke="#00BDFF" stroke-width="1.5" stroke-miterlimit="10"/>
<path d="M824.99 1079.07L816.58 1046.13C823.17 1035.37 822.09 1027.78 822.09 1027.78C822.09 1011.61 802.05 998.5 777.34 998.5C752.63 998.5 732.59 1011.61 732.59 1027.78C732.59 1034.73 736.29 1041.11 742.46 1046.13L742.31 1079.65" stroke="#00BDFF" stroke-width="1.5" stroke-miterlimit="10"/>
<path d="M723.52 727.42L688.18 727.56C678.3 727.56 669.07 722.66 663.54 714.48L662.84 713.45C660.61 710.15 662.97 705.7 666.96 705.7H807.21C810.67 705.7 812.78 709.5 810.95 712.43L809.78 714.31C804.64 722.55 795.62 727.56 785.91 727.56H747" stroke="#00BDFF" stroke-width="4" stroke-miterlimit="10"/>
<path d="M0.759766 1070.21C0.759766 1070.21 106.87 946.17 170.98 940.47C170.98 940.47 312.8 903.1 503.14 926.42C503.14 926.42 547.41 927.95 564.48 1015.48C564.48 1015.48 568.79 1056.58 564.48 1079.08" stroke="#00BDFF" stroke-width="4" stroke-miterlimit="10"/>
<path d="M526.9 937.38C526.9 937.38 586.54 984.33 580.13 1079.07" stroke="#00BDFF" stroke-width="4" stroke-miterlimit="10"/>
<path d="M1423.1 1079.48C1423.1 1079.48 1319.14 946.17 1259.54 940.47C1259.54 940.47 1127.73 903.1 950.82 926.42C950.82 926.42 909.67 927.95 893.8 1015.48C893.8 1015.48 889.79 1056.58 893.8 1079.08" stroke="#00BDFF" stroke-width="4" stroke-miterlimit="10"/>
<path d="M928.74 937.38C928.74 937.38 873.31 984.33 879.27 1079.07" stroke="#00BDFF" stroke-width="4" stroke-miterlimit="10"/>
<path d="M848.81 128.1C861.5 126.3 872.05 118.27 872.05 106.15V65.26C872.05 53.14 861.31 46.06 848.81 43.31C733.06 17.81 592.26 43.31 592.26 43.31C579.39 46.22 569.02 53.14 569.02 65.26V106.15C569.02 118.27 579.42 128.1 592.26 128.1C592.26 128.1 785.7 137.03 848.81 128.1Z" stroke="#00BDFF" stroke-miterlimit="10"/>
<path d="M663.18 0.579987L656.87 30.28" stroke="#00BDFF" stroke-width="1.5" stroke-miterlimit="10"/>
<path d="M785.43 0.579987L791.42 29.51" stroke="#00BDFF" stroke-width="1.5" stroke-miterlimit="10"/>
</g>
<defs>
<clipPath id="clip0_1838_599">
<rect width="1447.21" height="1081.64" fill="white" transform="translate(0 0.5)"/>
</clipPath>
</defs>
</svg>
