<svg width="1445" height="1084" viewBox="0 0 1445 1084" fill="none" xmlns="http://www.w3.org/2000/svg">
<g clip-path="url(#clip0_1838_682)">
<path d="M745.46 472.1L824.98 363.29C825.88 362.05 826.89 360.9 827.93 359.78C830.39 357.15 835.08 349.93 826.73 338.79C822.68 333.4 820.48 327.18 819.29 321.55C817.31 312.1 819.26 302.27 824.45 294.14C838.5 272.15 876.07 220.31 936.51 186.24C936.51 186.24 948.15 178.4 938.65 173.65C929.15 168.9 863.09 140.86 863.09 140.86L811.76 120.42L816.51 111.87C816.51 111.87 855.96 95.71 951.96 115.2C951.96 115.2 1028 103.32 1118.77 118.53L1228.08 130.81" stroke="#00BDFF" stroke-width="3" stroke-miterlimit="10"/>
<path d="M833.28 346.82C833.28 346.82 880 402.14 937.64 389.57C940.02 389.05 941.95 387.57 943.92 386.14C945.2 385.22 957.7 387.88 1026.21 415.43C1124.59 454.99 1266.8 506.32 1273.22 526.64" stroke="#00BDFF" stroke-width="4" stroke-miterlimit="10"/>
<path d="M839.539 355.9L815.21 392.39C815.21 392.39 808.71 406.55 807.02 425.76C805.33 444.96 803.17 449.52 818.34 467.53C833.52 485.53 844.12 494.41 844.12 494.41C844.12 494.41 852.78 498.2 859.52 496.52" stroke="#00BDFF" stroke-miterlimit="10"/>
<path d="M927.6 426.78C927.6 426.78 944.35 413.78 973.34 426.78C1002.33 439.78 1226.65 537.69 1226.65 537.69C1226.65 537.69 1251.84 546.72 1292.23 611.12C1292.23 611.12 1002.45 499.91 969.3 492.43C936.15 484.94 936.51 501.16 936.51 501.16L822.81 611.12H751.17L927.61 426.79L924.29 391.19" stroke="#00BDFF" stroke-width="6" stroke-miterlimit="10"/>
<path d="M869.26 238.29L830.9 288.83C830.9 288.83 815.83 311.46 830.9 327.62C845.97 343.78 869.26 360.89 869.26 360.89C869.26 360.89 904.19 385.13 932.11 375.62L1050.87 308.06L1135.4 265.84L1226.65 228.3C1226.65 228.3 1258.49 220.7 1262.77 197.41C1267.05 174.12 1266.1 177.45 1266.1 177.45C1266.1 177.45 1128.75 217.85 1108.32 234.95C1108.32 234.95 1094.11 241 1073.15 242.55C1073.15 242.55 940.02 303.54 882.04 368.17" stroke="#00BDFF" stroke-width="4" stroke-miterlimit="10"/>
<path d="M1235.2 187.42C1200.03 163.66 1125.42 144.65 1106.41 138.47C1087.4 132.29 1106.41 152.73 1106.41 152.73L1104.98 210.71L1036.07 200.73C1036.07 200.73 983.79 195.03 970.01 207.38L1045.19 241.12C1045.19 241.12 1062.21 249.67 1067.44 245.4" stroke="#00BDFF" stroke-miterlimit="10"/>
<path d="M1096.8 141.45C1096.8 141.45 917.28 157 830.9 327.62" stroke="#00BDFF" stroke-width="4" stroke-miterlimit="10"/>
<path d="M993.31 217.84C996.39 216.89 1060.79 217.84 1060.79 217.84C1060.79 217.84 1083.13 217.84 1100.47 224.73C1117.82 231.62 1115.43 230.38 1115.43 230.38" stroke="#00BDFF" stroke-miterlimit="10"/>
<path d="M1014.21 209.28L1081.27 212.64C1084.2 212.79 1087.1 213.16 1089.97 213.76C1095.19 214.85 1104.05 216.92 1113.06 219.97L1127.13 224.72" stroke="#00BDFF" stroke-width="1.5" stroke-miterlimit="10"/>
<path d="M1099.4 137.31L1102.61 133.48C1102.61 133.48 1214.17 124.57 1287.6 139.18C1361.03 153.79 1399.88 168.41 1399.88 168.41L1419.48 186.23C1419.48 186.23 1419.48 191.93 1404.51 198.35C1389.54 204.77 1377.42 209.28 1377.42 209.28C1377.42 209.28 1364.94 216.88 1378.49 224.73C1392.03 232.57 1440.19 257.52 1440.19 257.52" stroke="#00BDFF" stroke-width="3" stroke-miterlimit="10"/>
<path d="M1357.1 159.86L1266.09 177.44" stroke="#00BDFF" stroke-width="4" stroke-miterlimit="10"/>
<path d="M1107.53 133.13C1107.53 133.13 1200.52 157.2 1253.68 181.16" stroke="#00BDFF" stroke-width="1.5" stroke-miterlimit="10"/>
<path d="M838.107 405.305C840.326 400.839 839.864 396.095 837.074 394.709C834.284 393.323 830.224 395.82 828.005 400.286C825.786 404.752 826.249 409.497 829.038 410.883C831.828 412.268 835.888 409.771 838.107 405.305Z" stroke="#00BDFF" stroke-width="1" stroke-miterlimit="10"/>
<path d="M889.63 454.492C891.488 448.778 890.594 443.364 887.632 442.401C884.67 441.437 880.762 445.288 878.903 451.002C877.044 456.716 877.938 462.13 880.9 463.093C883.863 464.057 887.771 460.206 889.63 454.492Z" stroke="#00BDFF" stroke-width="1" stroke-miterlimit="10"/>
<path d="M847.76 391.18V392.79L889.64 433.6L890.12 431.69L847.76 391.18Z" stroke="#00BDFF" stroke-width="1" stroke-miterlimit="10"/>
<path d="M859.1 411.23L854.86 421.95C854.32 423.31 854.58 424.85 855.53 425.96L870.03 440.37C871.65 442.27 872.75 442.33 873.97 440.15L879.04 431.07C880.13 429.11 879.73 426.66 878.07 425.15L861.97 410.56C861.04 409.72 859.57 410.07 859.11 411.23H859.1Z" stroke="#00BDFF" stroke-width="1" stroke-miterlimit="10"/>
<path d="M837.1 394.74L840.74 396.87C842.69 398.02 843.9 400.14 843.79 402.4C843.67 404.84 843.06 407.99 841.02 410.4C838.81 413.02 835.02 413.69 831.91 412.23L829.07 410.9" stroke="#00BDFF" stroke-width="1" stroke-miterlimit="10"/>
<path d="M887.61 442.38L891.83 443.97C894.36 444.93 896.07 447.33 896.11 450.03C896.16 453.74 895.28 458.96 890.89 462.98C889.16 464.56 886.66 465.01 884.44 464.26L880.89 463.07" stroke="#00BDFF" stroke-width="1" stroke-miterlimit="10"/>
<path d="M836.662 404.936C838.631 401.526 838.556 397.797 836.494 396.607C834.433 395.417 831.166 397.216 829.197 400.626C827.228 404.037 827.303 407.766 829.364 408.956C831.426 410.146 834.693 408.347 836.662 404.936Z" stroke="#00BDFF" stroke-miterlimit="10"/>
<path d="M888.403 453.968C889.937 449.252 889.346 444.832 887.082 444.095C884.819 443.359 881.74 446.585 880.206 451.302C878.671 456.018 879.263 460.438 881.526 461.174C883.79 461.911 886.869 458.684 888.403 453.968Z" stroke="#00BDFF" stroke-miterlimit="10"/>
<path d="M830.38 396.95L841.52 359.46L844.55 379.6L912.63 440.73" stroke="#00BDFF" stroke-width="1" stroke-miterlimit="10"/>
<path d="M826.9 410.1L822.44 436.73C822.44 436.73 818.88 446.97 826.9 455.88C834.92 464.79 857.2 488.32 857.2 488.32L863.34 493.91" stroke="#00BDFF" stroke-width="1" stroke-miterlimit="10"/>
<path d="M736.33 455.13C736.87 454.3 737.48 453.53 738.06 452.73C738.81 451.7 739.6 449.47 737.98 445.19C735.48 438.6 734.95 426.42 734.95 426.42C734.95 426.42 736.91 417.2 725.5 412.39C714.09 407.58 703.22 418.27 703.22 418.27C703.22 418.27 689.5 429.5 694.13 443.58C698.76 457.66 709.46 467.1 709.46 467.1C709.46 467.1 711.71 469.61 716.13 469.43C717.6 469.37 719.32 469.02 721.27 468.17C728.01 465.24 733.82 459.02 736.34 455.12L736.33 455.13Z" stroke="#00BDFF" stroke-width="4" stroke-miterlimit="10"/>
<path d="M716.05 469.31L720.19 475.73C720.19 475.73 721.58 478.05 724.78 477.33C727.14 476.81 733.66 472.26 736.95 469.88C738.94 468.45 740.46 466.41 741.07 464.04C741.49 462.39 741.53 460.51 740.46 458.8C737.79 454.52 737.1 454.01 737.1 454.01" stroke="#00BDFF" stroke-width="4" stroke-miterlimit="10"/>
<path d="M725.94 477.12L730.96 484.57C730.96 484.57 742.16 484.6 742.7 475.32L738.69 468.71" stroke="#00BDFF" stroke-width="4" stroke-miterlimit="10"/>
<path d="M714.27 412.21C714.27 412.21 722.81 411.95 721.26 416.13C719.71 420.31 709.55 435.82 709.55 435.82C709.55 435.82 702.33 447.94 706.43 456.05C710.53 464.16 707.94 465.76 707.94 465.76" stroke="#00BDFF" stroke-width="1" stroke-miterlimit="10"/>
<path d="M727.82 479.91C727.82 479.91 726.3 483.13 727.41 485.63C727.89 486.71 728.86 487.66 730.67 488.14C736.64 489.74 742.34 486.27 742.34 486.27C742.34 486.27 749.47 481.9 748.76 476.65C748.05 471.4 740.75 472.11 740.75 472.11" stroke="#00BDFF" stroke-width="4" stroke-miterlimit="10"/>
<path d="M727.41 485.62L730.4 493.9C730.4 493.9 739.04 498.46 746.17 492.49C753.3 486.52 752.94 481.62 752.94 481.62L748.04 474.67" stroke="#00BDFF" stroke-width="4" stroke-miterlimit="10"/>
<path d="M751.87 485.63C751.87 485.63 752.94 489.92 756.15 493.37C759.36 496.82 771.83 503.47 771.83 503.47C771.83 503.47 797.73 515.59 798.8 518.92" stroke="#00BDFF" stroke-width="4" stroke-miterlimit="10"/>
<path d="M730.4 493.91L735 515.58C735 515.58 735.77 517.36 734.32 520.21" stroke="#00BDFF" stroke-width="4" stroke-miterlimit="10"/>
<path d="M752.94 481.63C752.94 481.63 754.72 484.33 757.93 484.57C761.14 484.81 762.09 482.79 766.96 486.47C771.83 490.15 802.72 507.06 802.72 507.06" stroke="#00BDFF" stroke-width="4" stroke-miterlimit="10"/>
<path d="M730.4 496.94L711.24 518.91C711.24 518.91 710.82 519.36 710.27 520.15C708.61 522.52 705.71 528 709.1 533.88C713.61 541.72 730.4 569.29 730.4 569.29C730.4 569.29 737.86 583.31 752.95 570.24C768.04 557.17 823.88 514.16 823.88 514.16C823.88 514.16 836.17 504.79 830.38 493.91C824.59 483.03 810.33 467.11 810.33 467.11C810.33 467.11 804.63 462.12 797.02 461.64H793.22C793.22 461.64 802.72 464.19 812.71 474.68C822.69 485.17 826.25 498.24 826.25 498.24C826.25 498.24 828.86 503.23 817.22 512.5C805.58 521.77 769.73 550.76 769.73 550.76L748.81 567.39C748.81 567.39 741.01 574.76 734.32 564.54C729.16 556.65 717.94 537.16 713.08 528.68C711.53 525.98 711.3 522.72 712.44 519.82C712.7 519.17 715.1 513.54 713.3 517.73" stroke="#00BDFF" stroke-miterlimit="10"/>
<path d="M752.95 480.31C752.95 480.31 777.54 462.83 789.9 461.64" stroke="#00BDFF" stroke-width="1.5" stroke-miterlimit="10"/>
<path d="M831.92 504.18C831.92 504.18 825.36 533.05 769.72 582.95C769.72 582.95 753.15 602.91 737.9 585.8C722.65 568.69 713.31 554.08 713.31 554.08C713.31 554.08 702.62 542.01 707.53 530.91" stroke="#00BDFF" stroke-width="4" stroke-miterlimit="10"/>
<path d="M487.16 583.3C487.16 583.3 697.93 582.44 705.17 560.96C712.41 539.48 708.14 552.08 708.14 552.08" stroke="#00BDFF" stroke-width="6" stroke-miterlimit="10"/>
<path d="M496.67 637.96C496.67 637.96 741.44 638.91 749.74 611.11" stroke="#00BDFF" stroke-width="4" stroke-miterlimit="10"/>
<path d="M822.81 611.11L795.36 641.05" stroke="#00BDFF" stroke-width="4" stroke-miterlimit="10"/>
<path d="M1161.78 209.28L1171.04 163.42L1214.1 175.66" stroke="#00BDFF" stroke-miterlimit="10"/>
<path d="M1177.7 237.8C1149.9 223.3 1140.39 253.01 1140.39 253.01L1120.9 248.5C1120.9 248.5 1141.69 210.96 1171.75 224.74L1180.6 237.36L1177.69 237.81L1177.7 237.8Z" stroke="#00BDFF" stroke-miterlimit="10"/>
<path d="M1129.46 236.14L1114.24 246.54C1112.99 247.4 1113.45 249.34 1114.95 249.55L1140.39 253.01L1180.6 237.35C1180.6 237.35 1191 227.45 1186.01 217.42L1161.77 221.69" stroke="#00BDFF" stroke-miterlimit="10"/>
<path d="M1441.26 466.39L1294.61 512.49C1294.61 512.49 1258.02 519.62 1276.55 560.01C1295.08 600.41 1331.68 671.69 1331.68 671.69L1352.12 619.41C1352.12 619.41 1361.15 604.68 1377.31 598.5C1393.47 592.32 1441.27 569.03 1441.27 569.03" stroke="#00BDFF" stroke-width="4" stroke-miterlimit="10"/>
<path d="M936.51 501.14C936.51 501.14 957.18 490.67 1075.52 565.86C1193.86 641.05 1342.13 760.09 1342.13 760.09" stroke="#00BDFF" stroke-width="4" stroke-miterlimit="10"/>
<path d="M1292.23 611.11L1356.28 735.86C1356.28 735.86 1363.51 647.53 1410.56 631.18C1457.61 614.82 1441.25 620.77 1441.25 620.77" stroke="#00BDFF" stroke-width="4" stroke-miterlimit="10"/>
<path d="M1439.8 475.3L1292.24 519.85C1292.24 519.85 1272.64 526.62 1280.83 549.08C1289.03 571.54 1334.42 664.68 1334.42 664.68" stroke="#00BDFF" stroke-width="4" stroke-miterlimit="10"/>
<path d="M895.66 214.23C895.66 214.23 889.98 172.46 895.66 166.28C895.66 166.28 907.52 174.83 910.37 200.74" stroke="#00BDFF" stroke-miterlimit="10"/>
<path d="M936.98 183.86C936.5 182.91 939.12 180.68 932.11 177.28C925.1 173.88 849.54 137.07 835.52 135.75L825.57 125.91" stroke="#00BDFF" stroke-width="1" stroke-miterlimit="10"/>
<path d="M895.66 166.27L932.11 177.28" stroke="#00BDFF" stroke-width="1.5" stroke-miterlimit="10"/>
<path d="M825.57 135.75L849.39 139.91" stroke="#00BDFF" stroke-width="1.5" stroke-miterlimit="10"/>
<path d="M892.909 201.2L864.27 187.19H882.96L892.909 160.57L896.83 162.23V164.37" stroke="#00BDFF" stroke-width="1.5" stroke-miterlimit="10"/>
<path d="M883.76 187.19L893.13 191.95" stroke="#00BDFF" stroke-width="1" stroke-miterlimit="10"/>
<path d="M869.97 224.73L838.37 219.98C838.37 219.98 809.62 186 812.47 154.16C814.32 133.46 824.01 134.31 830.56 137.43C833.91 139.03 836.31 140.2 839.2 142.52C843.46 145.93 854.93 159.33 860.47 177.29C870.38 209.47 864.27 223.95 864.27 223.95" stroke="#00BDFF" stroke-miterlimit="10"/>
<path d="M807.95 228.29L827.91 219.02C827.91 219.02 829.34 217.83 842.64 223.65C855.95 229.47 866.13 240.16 866.13 240.16" stroke="#00BDFF" stroke-miterlimit="10"/>
<path d="M815.32 236.61C815.32 236.61 815.08 230.91 821.26 227.58C827.44 224.25 833.28 225.68 833.28 225.68C833.28 225.68 845.35 229.96 862.78 245.05" stroke="#00BDFF" stroke-miterlimit="10"/>
<path d="M811.28 236.21L837.04 241.18L856.01 253.5" stroke="#00BDFF" stroke-width="1" stroke-miterlimit="10"/>
<path d="M771.05 207.73L773.97 212.61L772.47 214.35C769.94 217.28 768.7 221.11 769.05 224.96L769.46 229.55L777.54 232.33C777.54 232.33 773.87 235.53 769.85 235.9C766.85 236.18 763.65 234.89 761.62 229.54C756.87 217.01 772.79 206.42 772.79 206.42L780.63 208.56C780.63 208.56 785.14 215.45 782.29 224.72C782.29 224.72 788.6 242.01 782.44 256.98C782.44 256.98 775.57 265.36 767.55 256.98C759.53 248.6 771.11 241.65 771.11 241.65" stroke="#00BDFF" stroke-width="1.5" stroke-miterlimit="10"/>
<path d="M773.97 212.61L779.68 214.23L782.44 212.88" stroke="#00BDFF" stroke-width="1" stroke-miterlimit="10"/>
<path d="M782.29 224.73L777.54 232.33" stroke="#00BDFF" stroke-width="1" stroke-miterlimit="10"/>
<path d="M769.85 235.91C769.85 235.91 776.29 241.84 773.98 252" stroke="#00BDFF" stroke-width="0.25" stroke-miterlimit="10"/>
<path d="M763 232.33C763 232.33 732.16 318.11 709.58 309.32C698.14 304.86 732.63 335.46 732.63 335.46L770.65 353.52C804.15 330.47 811.28 268.21 811.28 268.21C811.28 268.21 813.89 240.88 805.83 224.72C797.77 208.56 753.77 191.94 753.77 191.94C753.77 191.94 767.4 204.96 765.18 210.93" stroke="#00BDFF" stroke-width="4" stroke-miterlimit="10"/>
<path d="M739.28 180.89L745.46 185.29C745.46 185.29 760.08 199.55 760.73 204.78C761.38 210.01 762.73 217.35 762.73 217.35" stroke="#00BDFF" stroke-width="4" stroke-miterlimit="10"/>
<path d="M760.73 228.53C760.73 228.53 741.42 299.82 714.57 305.76C687.72 311.7 687.92 307.34 687.92 307.34" stroke="#00BDFF" stroke-width="4" stroke-miterlimit="10"/>
<path d="M760.73 204.77L734.17 206.32" stroke="#00BDFF" stroke-width="4" stroke-miterlimit="10"/>
<path d="M711.48 173.4C711.48 173.4 645.66 147.5 642.81 255.62C642.81 255.62 642.57 267.52 648.28 272.74C653.99 277.96 655.88 274.87 655.88 274.87C655.88 274.87 676.17 221.35 688.46 213.25C689.33 212.68 690.21 212.13 691.03 211.49C693.44 209.63 698.51 205.99 702.69 204.77" stroke="#00BDFF" stroke-miterlimit="10"/>
<path d="M679.86 173.32C679.86 173.32 660.39 167.13 652.55 177.28C644.71 187.43 642.81 189.57 642.81 189.57L650.41 207.31" stroke="#00BDFF" stroke-width="1.5" stroke-miterlimit="10"/>
<path d="M665.62 171.69C665.62 171.69 656.35 167.75 663.01 153.97C663.01 153.97 708.04 62.91 718.73 87.15C729.42 111.39 704.83 201.21 704.83 201.21C704.83 201.21 659.56 319.9 629.98 319.55C629.98 319.55 618.93 312.78 622.14 302.08C625.35 291.38 656 286.04 656 286.04L661.34 288.84" stroke="#00BDFF" stroke-width="4" stroke-miterlimit="10"/>
<path d="M648.27 272.74C648.27 272.74 657.719 285.33 660.599 284.26C663.479 283.19 670.25 265.37 670.25 265.37C670.25 265.37 678.829 246.31 684.419 248.45" stroke="#00BDFF" stroke-width="1.5" stroke-miterlimit="10"/>
<path d="M642.81 255.62L631.4 260.71C631.4 260.71 625.7 260.73 627.12 252C628.54 243.27 638.29 210.95 638.29 210.95C641.85 199.54 647.38 200.26 647.38 200.26" stroke="#00BDFF" stroke-width="1.5" stroke-miterlimit="10"/>
<path d="M731.111 218.059C756.974 138.555 754.046 66.3321 724.573 56.744C695.099 47.156 650.239 103.834 624.376 183.338C598.513 262.842 601.44 335.065 630.914 344.653C660.388 354.241 705.247 297.563 731.111 218.059Z" stroke="#00BDFF" stroke-width="4" stroke-miterlimit="10"/>
<path d="M770.65 353.52L815.32 376.5" stroke="#00BDFF" stroke-miterlimit="10"/>
<path d="M689.81 596.92C697.779 596.92 704.24 593.647 704.24 589.61C704.24 585.573 697.779 582.3 689.81 582.3C681.84 582.3 675.38 585.573 675.38 589.61C675.38 593.647 681.84 596.92 689.81 596.92Z" stroke="#00BDFF" stroke-width="4" stroke-miterlimit="10"/>
<path d="M675.1 589.62L675.32 594.03C675.55 598.68 678.73 602.69 683.24 603.86C687.75 605.03 694.12 605.44 699.89 601.88C702.61 600.2 704.24 597.22 704.24 594.03V589.62" stroke="#00BDFF" stroke-width="1.5" stroke-miterlimit="10"/>
<path d="M668.79 578.05L695.17 574.75C696.91 574.53 698.61 575.4 699.46 576.93L716.42 607.55C717.71 609.89 716.3 612.8 713.66 613.23L685.27 617.85C682.62 618.28 680.02 616.85 678.97 614.37L665.78 583.26C664.8 580.96 666.3 578.35 668.78 578.04L668.79 578.05Z" stroke="#00BDFF" stroke-width="1.5" stroke-miterlimit="10"/>
<path d="M605.12 620.43C611.23 622.46 618.51 623.64 626.32 623.64C647.95 623.64 665.49 614.61 665.49 603.47C665.49 592.33 647.96 583.3 626.32 583.3C615.12 583.3 605.02 585.72 597.88 589.6L565.33 593.69C559.26 591.7 552.04 590.54 544.3 590.54C522.67 590.54 505.13 599.57 505.13 610.71C505.13 621.85 522.66 630.88 544.3 630.88C556.97 630.88 568.24 627.78 575.4 622.97L605.13 620.42L605.12 620.43Z" stroke="#00BDFF" stroke-width="4" stroke-miterlimit="10"/>
<path d="M604.76 621.42C610.67 623.16 617.7 624.17 625.25 624.17C646.16 624.17 663.12 616.44 663.12 606.89C663.12 597.34 646.17 589.61 625.25 589.61C614.42 589.61 604.65 591.68 597.75 595.01L566.27 598.52C560.4 596.81 553.42 595.82 545.94 595.82C525.03 595.82 508.07 603.55 508.07 613.1C508.07 622.65 525.02 630.38 545.94 630.38C558.2 630.38 569.09 627.72 576.01 623.61L604.75 621.43L604.76 621.42Z" stroke="#00BDFF" stroke-width="1.5" stroke-miterlimit="10"/>
<path d="M946.25 502.27C946.25 502.27 1391.64 902.67 1441.26 899.82C1441.26 899.82 1368.51 823.54 1347.83 785.76C1327.16 747.98 1372.78 725.88 1372.78 725.88C1372.78 725.88 1392.11 844.93 1441.26 870.59" stroke="#00BDFF" stroke-width="4" stroke-miterlimit="10"/>
<path d="M49.6999 248.27C49.6999 248.27 24.0399 203.53 49.6999 181.16C75.3599 158.79 79.6399 154.88 79.6399 154.88C79.6399 154.88 110.65 145.49 142.73 189.56C164.12 218.94 185.98 228.7 198.18 231.95C205.9 234 213.19 237.44 219.55 242.26C259.74 272.75 390.65 374.8 389.74 410.09C388.67 451.77 380.12 481.62 380.12 481.62" stroke="#00BDFF" stroke-width="6" stroke-miterlimit="10"/>
<path d="M400.43 500.65C400.43 500.65 534.78 374.62 661.33 436.73C661.33 436.73 706.64 473.49 713.31 507.07" stroke="#00BDFF" stroke-width="4" stroke-miterlimit="10"/>
<path d="M6.25977 243.95C6.25977 243.95 75.0098 230.43 177.67 340.57C177.67 340.57 236.48 394.02 281.39 412.21C326.3 430.4 377.63 473.7 377.63 473.7L492.16 607.1C492.16 607.1 526.26 645.33 468.52 777.92C468.52 777.92 609.8 629.47 753.25 639.75C763.09 640.46 772.95 640.89 782.81 641.02C809.13 641.37 858.47 643.72 876.5 656.02C894.94 668.6 976.09 784.58 1017.79 845.17C1043.74 882.87 1031.98 934.76 992.22 957.43C987.02 960.39 981.3 963.3 975.01 966.12L647.8 1081.64" stroke="#00BDFF" stroke-width="8" stroke-miterlimit="10"/>
<path d="M1.25977 630.89C1.25977 630.89 67.1798 684.41 96.0898 688.03C125 691.65 286.45 801.28 286.45 801.28C286.45 801.28 553.78 1003.69 556.86 1032.61C559.94 1061.53 546.69 1081.65 546.69 1081.65" stroke="#00BDFF" stroke-width="8" stroke-miterlimit="10"/>
<path d="M176.82 342.54C176.82 342.54 204.53 447.93 341.88 579.37C479.23 710.81 450.98 856.26 450.98 856.26" stroke="#00BDFF" stroke-width="4" stroke-miterlimit="10"/>
<path d="M29.4302 652.2C29.4302 652.2 112.96 610.92 218.99 695.25C325.02 779.58 503.33 891.64 537.06 947.06C570.79 1002.48 556.87 1050.06 556.87 1050.06" stroke="#00BDFF" stroke-width="6" stroke-miterlimit="10"/>
<path d="M1.25977 440.3C1.25977 440.3 122.6 546.23 150.31 548.46C178.02 550.69 187.66 517.87 176.82 493.92C165.98 469.97 94.0898 310.5 29.4298 260.71" stroke="#00BDFF" stroke-width="4" stroke-miterlimit="10"/>
<path d="M1.25977 272.74C1.25977 272.74 25.9998 244.2 92.9798 272.74" stroke="#00BDFF" stroke-width="4" stroke-miterlimit="10"/>
<path d="M453.38 838.63L871.5 662.53" stroke="#00BDFF" stroke-width="4" stroke-miterlimit="10"/>
<path d="M563.56 1050.06C563.56 1050.06 1008.93 869.95 1026.61 874.77" stroke="#00BDFF" stroke-width="4" stroke-miterlimit="10"/>
<path d="M904.52 690.44L830.08 735.86C830.08 735.86 781.02 760.32 807.23 803.69C833.44 847.06 852.03 846.08 852.03 846.08L1017.8 845.17" stroke="#00BDFF" stroke-width="4" stroke-miterlimit="10"/>
<path d="M1026.61 856.26C1026.61 856.26 1089.66 925.37 1026.61 1008.5L871.5 1081.63" stroke="#00BDFF" stroke-width="4" stroke-miterlimit="10"/>
<path d="M1026.61 1008.51L1033.46 1081.07" stroke="#00BDFF" stroke-width="4" stroke-miterlimit="10"/>
<path d="M1166.98 695.26C1166.98 695.26 1190.43 808.44 1026.61 856.27" stroke="#00BDFF" stroke-width="8" stroke-miterlimit="10"/>
<path d="M87.4798 154.29C87.4798 154.29 52.0798 140.22 6.25977 163.27" stroke="#00BDFF" stroke-miterlimit="10"/>
<path d="M211.52 1.64L266.41 125.91H647.38" stroke="#00BDFF" stroke-width="4" stroke-miterlimit="10"/>
<path d="M677.72 126.59H719.98" stroke="#00BDFF" stroke-width="4" stroke-miterlimit="10"/>
<path d="M751 126.59L774.47 125.91L762.72 34.39C762.72 34.39 762.73 17.99 735.2 5.16" stroke="#00BDFF" stroke-width="4" stroke-miterlimit="10"/>
<path d="M747.45 5.17C747.45 5.17 884.04 86.93 895.66 105.57" stroke="#00BDFF" stroke-width="6" stroke-miterlimit="10"/>
<path d="M871.5 1.64C871.5 1.64 973.01 88.35 1150.44 105.57C1327.87 122.79 1444.01 154.89 1444.01 154.89" stroke="#00BDFF" stroke-width="6" stroke-miterlimit="10"/>
<path d="M538.01 639.15V647.7L576.98 657.2L575.07 646.51L538.01 639.15Z" stroke="#00BDFF" stroke-width="1" stroke-miterlimit="10"/>
<path d="M547.04 708.29L513.3 699.74L538.01 647.7" stroke="#00BDFF" stroke-width="1" stroke-miterlimit="10"/>
<path d="M576.98 657.2L560.94 702.41" stroke="#00BDFF" stroke-width="1" stroke-miterlimit="10"/>
<path d="M538.01 639.15L514.49 688.1L513.3 699.74" stroke="#00BDFF" stroke-width="1" stroke-miterlimit="10"/>
</g>
<defs>
<clipPath id="clip0_1838_682">
<rect width="1445.01" height="1083.03" fill="white" transform="translate(0 0.5)"/>
</clipPath>
</defs>
</svg>
