<svg width="1439" height="1108" viewBox="0 0 1439 1108" fill="none" xmlns="http://www.w3.org/2000/svg">
<g clip-path="url(#clip0_1838_867)">
<path d="M992.32 857.08C991.91 857.22 991.04 868.98 989.84 875.44C981.67 919.3 958.11 1087.5 958.11 1087.5" stroke="#00BDFF" stroke-width="2.5" stroke-miterlimit="10"/>
<path d="M988.84 874.43C977.77 862.67 955.62 856.25 955.62 856.25L651.07 754.67C651.07 754.67 634.68 751.41 624.49 754.67" stroke="#00BDFF" stroke-miterlimit="10"/>
<path d="M975.22 1103.53C960.52 1088.24 931.13 1079.9 931.13 1079.9L527.01 947.85C527.01 947.85 505.26 943.61 491.74 947.85" stroke="#00BDFF" stroke-miterlimit="10"/>
<path d="M803.36 803.26L714.31 1010.51" stroke="#00BDFF" stroke-miterlimit="10"/>
<path d="M604.51 782.44C604.51 782.44 628.809 766.03 674.419 796.85C678.819 799.82 683.439 802.47 688.039 805.12C694.799 809.01 704.219 820.46 683.289 852.24C654.419 896.08 637.03 893.94 637.03 893.94C637.03 893.94 569.67 886.39 515.27 909.95" stroke="#00BDFF" stroke-miterlimit="10"/>
<path d="M573.16 1103.53C573.16 1103.53 486.97 1088.42 477.99 1035.09L469.01 981.77" stroke="#00BDFF" stroke-width="6" stroke-miterlimit="10"/>
<path d="M1316.32 306.9C1316.32 306.9 1302.42 310.11 1238.26 403.14C1174.1 496.17 1098.18 623.42 1098.18 623.42C1098.18 623.42 1035.09 699.99 1037.23 844.02C1037.23 844.02 1037.23 867.22 1048.99 885.4C1048.99 885.4 977.35 853.32 975.21 843.7C973.07 834.08 970.93 821.24 959.17 812.69C947.41 804.14 808.4 743.19 808.4 743.19C808.4 743.19 710.02 702.56 669.39 717.53C628.76 732.5 594.54 799.81 594.54 799.81L473.71 967.74C473.71 967.74 463.02 984.85 473.71 994.47C484.4 1004.09 494.03 1019.06 506.86 1023.34C519.69 1027.62 521.83 1038.31 596.68 1035.1C671.53 1031.89 814.82 1105.71 814.82 1105.71" stroke="#00BDFF" stroke-width="6" stroke-miterlimit="10"/>
<path d="M1049 885.4C1049 885.4 1081.08 945.97 1056.49 1024.75C1056.49 1024.75 1072.53 996.6 1083.22 996.6C1093.91 996.6 1345.2 677.95 1345.2 677.95" stroke="#00BDFF" stroke-width="6" stroke-miterlimit="10"/>
<path d="M1032.96 1105.71C1032.96 1105.71 1054.35 1084.28 1086.43 1055.41C1118.51 1026.54 1176.25 1077.87 1176.25 1077.87C1176.25 1077.87 1122.78 1041.51 1094.98 1068.25C1067.18 1094.98 1059.69 1105.72 1059.69 1105.72" stroke="#00BDFF" stroke-width="6" stroke-miterlimit="10"/>
<path d="M1086.42 1055.42C1086.42 1055.42 1067.17 1056.49 1054.34 1035.1" stroke="#00BDFF" stroke-width="6" stroke-miterlimit="10"/>
<path d="M1316.32 337.91C1316.32 337.91 1262.85 392.44 1296 434.15C1329.15 475.85 1331.29 480.13 1331.29 480.13" stroke="#00BDFF" stroke-width="6" stroke-miterlimit="10"/>
<path d="M1275.55 27.89C1275.55 27.89 1388.9 711.63 1333.29 874.43C1277.69 1037.23 1150.44 1105.71 1150.44 1105.71" stroke="#00BDFF" stroke-width="6" stroke-miterlimit="10"/>
<path d="M1313.12 291.93C1313.12 291.93 1278.9 342.19 1263.93 343.26C1257.28 343.74 1253.7 339.46 1251.77 334.56C1249.21 328.05 1249.82 320.73 1253.07 314.54C1262.89 295.85 1290.83 244.47 1306.12 235.05" stroke="#00BDFF" stroke-width="4" stroke-miterlimit="10"/>
<path d="M1258.58 343.29C1258.58 343.29 1223.29 341.12 1222.22 306.9C1221.15 272.68 1278.88 210.66 1278.88 210.66C1278.88 210.66 1286.13 200.92 1301.76 203.12" stroke="#00BDFF" stroke-miterlimit="10"/>
<path d="M1298 176.16L1289.7 173.98C1279.8 171.38 1269.27 173.46 1261.09 179.61C1236.14 198.37 1187.28 240.93 1208.33 273.05C1208.33 273.05 1211.71 282.66 1227.13 285.16" stroke="#00BDFF" stroke-width="4" stroke-miterlimit="10"/>
<path d="M1298 187.17C1298 187.17 1293.87 181.84 1269.28 203.75C1244.69 225.67 1222.22 247.18 1222.22 247.18C1222.22 247.18 1206.87 267.15 1213.68 278.14" stroke="#00BDFF" stroke-miterlimit="10"/>
<path d="M1208.82 235.05C1208.82 235.05 1049 438.43 1049 561.4C1049 561.4 1075.62 576.82 1064.76 605.57" stroke="#00BDFF" stroke-width="4" stroke-miterlimit="10"/>
<path d="M1227.56 326.15C1227.56 326.15 1041.52 593.34 1044.72 682.23C1044.72 682.23 1048.56 753.25 1040.22 784.04" stroke="#00BDFF" stroke-width="4" stroke-miterlimit="10"/>
<path d="M1049 561.4C1049 561.4 834.07 476.92 790.23 514.35L657.64 706.31C657.64 706.31 646.76 720.76 648.46 729.83" stroke="#00BDFF" stroke-width="4" stroke-miterlimit="10"/>
<path d="M719.11 617.3C719.11 617.3 736.76 603.7 769.91 617.3C803.06 630.9 1045.13 691.83 1045.13 691.83" stroke="#00BDFF" stroke-width="4" stroke-miterlimit="10"/>
<path d="M485.47 803.26L521.08 762.42C521.08 762.42 516.48 687.57 541.07 645.87C565.66 604.17 541.07 565.71 541.07 565.71L525.31 540.86C519.91 532.35 508.39 530.29 500.37 536.39L476.65 554.46C472.26 557.8 470.99 563.86 473.67 568.68C483.16 585.76 503.64 624.16 503.64 637.31C503.64 654.42 485.46 711.12 483.32 729.82C481.18 748.52 485.46 803.25 485.46 803.25L469 820.16L463.01 762.42C463.01 762.42 457.89 746.42 469 706.3C480.11 666.18 482.25 660.83 482.25 660.83C482.25 660.83 495.08 633.69 472.63 605.56L453.16 581.17C451.24 578.76 448.49 577.13 445.45 576.6L389.22 566.79L381.91 565.7" stroke="#00BDFF" stroke-width="4" stroke-miterlimit="10"/>
<path d="M384.22 286.11L355.91 272.33C355.91 272.33 334.52 263.95 323.83 266.63" stroke="#00BDFF" stroke-width="4" stroke-miterlimit="10"/>
<path d="M515.28 532.87L390.31 508.52" stroke="#00BDFF" stroke-width="4" stroke-miterlimit="10"/>
<path d="M334.84 784.04L469.02 820.17L466.97 874.44L521.08 808.41C521.08 808.41 517.13 752.81 521.08 762.43" stroke="#00BDFF" stroke-width="4" stroke-miterlimit="10"/>
<path d="M524.29 561.07L497.61 582.12C494.57 584.52 493.72 588.75 495.56 592.15C500.68 601.6 509.74 620.58 507.93 633.76C506.58 643.57 505.03 653.47 503.89 660.52C503.31 664.1 507.4 666.56 510.29 664.37L535.71 645.12C538 643.38 539.82 641.09 540.95 638.45C544.96 629.08 552.73 605.37 542.51 579.95L534.8 563.56C532.91 559.55 527.78 558.34 524.29 561.08V561.07Z" stroke="#00BDFF" stroke-miterlimit="10"/>
<path d="M515.28 569.24C516.91 574.26 546.78 608.03 527.2 651.55" stroke="#00BDFF" stroke-miterlimit="10"/>
<path d="M508.22 572.68C508.22 572.68 537.99 607.06 520.14 657.27" stroke="#00BDFF" stroke-miterlimit="10"/>
<path d="M153.28 304.58C153.28 304.58 67.9098 329.71 36.0098 375.87" stroke="#00BDFF" stroke-width="4" stroke-miterlimit="10"/>
<path d="M338.92 617.3C338.92 617.3 339.62 625.41 340.29 637.77C342.04 670.1 343.58 731.52 331.79 753.22C331.79 753.22 162.67 890.79 154.01 909.95L140.1 784.03L136.7 753.22C136.7 753.22 237.05 728.46 338.93 617.3H338.92Z" stroke="#00BDFF" stroke-miterlimit="10"/>
<path d="M341.49 644.45C341.49 644.45 201.38 768.01 139.75 780.85" stroke="#00BDFF" stroke-miterlimit="10"/>
<path d="M136.7 753.22C136.7 753.22 111.74 704.32 122.44 676.52C129.69 657.68 150.27 604.9 162.79 572.83C169.39 555.91 182.1 541.67 198.74 532.55C231.36 514.66 287.36 485.16 322.21 473.57C328.51 471.47 334.9 476.49 333.8 482.65C330.18 502.77 326.19 546.56 338.94 617.3" stroke="#00BDFF" stroke-miterlimit="10"/>
<path d="M662.2 416.35C662.2 416.35 661.14 420.88 659.4 427.76C654.86 445.74 645.7 479.77 638.84 490.76C638.84 490.76 567.61 552.59 562.07 562.44L577.68 491.79L581.5 474.5C581.5 474.5 614.87 469.2 662.2 416.35Z" stroke="#00BDFF" stroke-miterlimit="10"/>
<path d="M658.71 431.54C658.71 431.54 598.2 488.05 578.07 490" stroke="#00BDFF" stroke-miterlimit="10"/>
<path d="M581.5 474.5C581.5 474.5 581.81 445.43 589.3 430.98C594.38 421.19 608.68 393.78 617.38 377.12C621.97 368.33 627.93 361.54 634.25 357.89C646.64 350.74 667.71 339.12 679.77 335.63C681.95 335 683.04 338.3 681.76 341.6C677.55 352.4 669.53 376.24 662.21 416.33" stroke="#00BDFF" stroke-miterlimit="10"/>
<path d="M109.99 420.31L36.0098 395.65" stroke="#00BDFF" stroke-miterlimit="10"/>
<path d="M190.58 285.16C212.92 281.36 214.1 302.03 214.1 302.03L189.86 309.63M189.86 309.63L187.96 300.84C187.96 300.84 163.72 284.44 153.27 297.75V305.59L189.86 309.63Z" stroke="#00BDFF" stroke-miterlimit="10"/>
<path d="M159.86 293.24L174.66 288.73C174.66 288.73 186.3 293.01 190.11 287.54C193.91 282.07 181.08 240.25 181.08 240.25" stroke="#00BDFF" stroke-miterlimit="10"/>
<path d="M163.26 238.35C163.26 238.35 174.9 280.65 174.67 288.73" stroke="#00BDFF" stroke-miterlimit="10"/>
<path d="M207.63 288.72L272.68 276.1V270.42C284.44 260.2 304.88 273.03 304.88 273.03V279.21L325.08 274.46C325.08 274.46 324.6 259.49 304.88 259.01" stroke="#00BDFF" stroke-width="4" stroke-miterlimit="10"/>
<path d="M304.88 279.22L272.68 276.1" stroke="#00BDFF" stroke-miterlimit="10"/>
<path d="M299.89 219.34L304.88 261.87C304.88 261.87 298.94 267.81 291.81 261.87L286.34 222.42" stroke="#00BDFF" stroke-miterlimit="10"/>
<path d="M276.74 267.89C276.74 267.89 282.3 262.83 291.81 261.88" stroke="#00BDFF" stroke-miterlimit="10"/>
<path d="M180.84 26.38C180.84 26.38 217.42 203.89 190.81 238.35C190.81 238.35 94.8202 237.64 80.0902 222.9C80.0902 222.9 28.2902 208.16 59.6502 26.38" stroke="#00BDFF" stroke-width="4" stroke-miterlimit="10"/>
<path d="M307.26 25.71L337.68 143.53C337.68 143.53 364.29 210.06 302.51 219.33L190.82 238.34" stroke="#00BDFF" stroke-width="4" stroke-miterlimit="10"/>
<path d="M530.94 549.73C537.15 513.86 552.01 489.39 552.01 489.39C552.01 489.39 604.17 407.05 611.3 344.32C612.38 334.77 613.78 326.48 615.38 319.28C624.25 279.18 639.11 273.03 639.11 273.03C639.11 273.03 676.89 252 696.85 249.15C716.81 246.3 711.11 289.43 711.11 289.43C711.11 289.43 701.49 337.55 667.62 416.68C633.76 495.81 625.2 571.02 625.2 571.02L547.57 632.11" stroke="#00BDFF" stroke-width="4" stroke-miterlimit="10"/>
<path d="M562.46 297.28L615.37 319.29" stroke="#00BDFF" stroke-miterlimit="10"/>
<path d="M702.82 249.9L681.16 239.53" stroke="#00BDFF" stroke-width="4" stroke-miterlimit="10"/>
<path d="M613.79 253.79C613.79 253.79 575.34 260.21 530.94 347.53C530.94 347.53 521.21 359.71 507.65 369.25C498.55 375.66 490.37 383.29 483.12 391.74C457.67 421.4 407.72 483.48 409.26 512.21" stroke="#00BDFF" stroke-width="4" stroke-miterlimit="10"/>
<path d="M673.08 241.91C662.86 232.52 653 237.4 653 237.4L652.17 242.51C660.84 242.51 672.25 245.96 672.25 245.96L681.16 244.73V241.09C682.11 235.98 672.25 232.77 672.25 232.77C672.25 232.77 670.11 238.71 663.81 234.97L665.47 193.8" stroke="#00BDFF" stroke-miterlimit="10"/>
<path d="M662.86 232.52L653 237.4" stroke="#00BDFF" stroke-miterlimit="10"/>
<path d="M674.62 191.89L672.25 232.76" stroke="#00BDFF" stroke-miterlimit="10"/>
<path d="M636.01 197.83L635.18 245.95" stroke="#00BDFF" stroke-miterlimit="10"/>
<path d="M625.43 196.05L623.53 246.54" stroke="#00BDFF" stroke-miterlimit="10"/>
<path d="M636.72 254.27V258.43L614.38 256.35L615.37 250.47C615.37 250.47 630.19 245.24 636.72 254.27Z" stroke="#00BDFF" stroke-miterlimit="10"/>
<path d="M636.72 258.43L647.29 255.34V251.18C647.29 251.18 642.42 244.44 635.59 244.72" stroke="#00BDFF" stroke-miterlimit="10"/>
<path d="M623.53 244.72L615.37 250.47" stroke="#00BDFF" stroke-miterlimit="10"/>
<path d="M672.25 26.38C672.25 26.38 701.68 32.09 702.83 75.57C703.98 119.06 702.83 171.81 702.83 171.81C702.83 171.81 694.71 186.31 672.25 191.89C649.79 197.47 645.87 197.83 645.87 197.83C645.87 197.83 663.1 184.29 662.86 161.83C662.62 139.37 666.69 66.66 666.69 66.66C666.69 66.66 664.76 29.23 643.01 31.73C621.27 34.23 608.08 37.79 596.67 57.39C585.26 76.99 572.43 120.84 572.43 120.84C572.43 120.84 558.17 172.17 582.05 183.22C605.93 194.27 644.07 197.83 644.07 197.83" stroke="#00BDFF" stroke-width="4" stroke-miterlimit="10"/>
<path d="M624.48 26.38C624.48 26.38 587.41 34.81 574.58 113.82" stroke="#00BDFF" stroke-miterlimit="10"/>
<path d="M703.21 640.32L631.9 628.33" stroke="#00BDFF" stroke-width="6" stroke-miterlimit="10"/>
<path d="M398.15 813.83L396.19 815.07L391.73 817.88L389.59 815.86L341.49 806.08L337.19 805.21L334.83 806.64L341.49 798.8L399.92 811.28V813.85L415.25 860.82L466.96 871.87C466.96 871.87 474.12 873.65 466.96 881.85C459.8 890.05 448.4 905.02 448.4 905.02C448.4 905.02 445.55 911.37 434.86 909.98C424.17 908.59 351.45 888.63 351.45 888.63L328.99 864.75C328.99 864.75 326.49 862.25 326.85 856.91C327.21 851.56 328.92 846.93 326.82 842.3C324.72 837.67 322.22 839.09 322.22 832.32C322.22 825.55 326.14 821.98 326.14 821.98L384.6 835.88L379.97 841.58L381.92 846.93L394.22 836.95L398.5 817.9" stroke="#00BDFF" stroke-width="4" stroke-miterlimit="10"/>
<path d="M341.49 806.07V820.17L334.84 824.02" stroke="#00BDFF" stroke-miterlimit="10"/>
<path d="M322.23 836.21L274.35 826.22" stroke="#00BDFF" stroke-miterlimit="10"/>
<path d="M334.84 804.13C334.35 804.13 335.82 804.13 335.33 804.13C334.84 804.13 312.41 798.78 312.41 798.78" stroke="#00BDFF" stroke-miterlimit="10"/>
<path d="M341.49 815.04L303.69 806.07" stroke="#00BDFF" stroke-miterlimit="10"/>
<path d="M322.59 826.22L285.49 817.87" stroke="#00BDFF" stroke-miterlimit="10"/>
<path d="M351.45 888.6L231.43 861.16" stroke="#00BDFF" stroke-width="4" stroke-miterlimit="10"/>
<path d="M1120.88 26.38L1136.09 117.39L1114.23 212.32L726.43 229.01L723.58 48.47C723.58 48.47 725.48 28.11 732.61 25.7" stroke="#00BDFF" stroke-width="6" stroke-miterlimit="10"/>
<path d="M461.71 25.71C458.86 26.62 356.68 60.36 325.08 84.6" stroke="#00BDFF" stroke-width="6" stroke-miterlimit="10"/>
<path d="M623.53 232.28L302.54 241.92" stroke="#00BDFF" stroke-width="6" stroke-miterlimit="10"/>
<path d="M1233.99 27.89L1254.96 172.89L1261.08 179.61" stroke="#00BDFF" stroke-width="6" stroke-miterlimit="10"/>
<path d="M513.86 580.93L496.41 593.72" stroke="#00BDFF" stroke-miterlimit="10"/>
<path d="M517.04 590.03L500.96 603.08" stroke="#00BDFF" stroke-miterlimit="10"/>
<path d="M521.08 600.49L505.13 612.39" stroke="#00BDFF" stroke-miterlimit="10"/>
<path d="M524.56 612.39L507.75 624.73" stroke="#00BDFF" stroke-miterlimit="10"/>
<path d="M525.85 628.81L507.75 642.78" stroke="#00BDFF" stroke-miterlimit="10"/>
<path d="M523.73 644.73L504.41 657.28" stroke="#00BDFF" stroke-miterlimit="10"/>
<path d="M535.81 565.71L521.08 576.96" stroke="#00BDFF" stroke-miterlimit="10"/>
<path d="M539.52 573.6L524.56 585.27" stroke="#00BDFF" stroke-miterlimit="10"/>
<path d="M544.66 586.15L529.41 596.56" stroke="#00BDFF" stroke-miterlimit="10"/>
<path d="M546.9 596.56L532.04 606.44" stroke="#00BDFF" stroke-miterlimit="10"/>
<path d="M546.9 611.26L533.83 621.4" stroke="#00BDFF" stroke-miterlimit="10"/>
<path d="M544.07 629.75L530.94 641.48" stroke="#00BDFF" stroke-miterlimit="10"/>
<path d="M129.39 969.87C225.63 840.48 365.71 765.63 365.71 765.63C365.71 765.63 378.54 690.78 379.61 605.57C380.68 520.36 409.55 429.87 409.55 429.87C409.55 429.87 422.38 386.03 409.55 326.15C396.72 266.27 351.81 285.16 351.81 285.16L245.95 312.25L182.86 332.57C182.86 332.57 104.8 361.44 104.8 463.03C104.8 564.61 69.51 651.56 69.51 651.56L57.75 657.29L94.64 1000.89L129.39 969.88V969.87Z" stroke="#00BDFF" stroke-width="4" stroke-miterlimit="10"/>
</g>
<defs>
<clipPath id="clip0_1838_867">
<rect width="1438.22" height="1107.05" fill="white"/>
</clipPath>
</defs>
</svg>
