<svg width="1316" height="1084" viewBox="0 0 1316 1084" fill="none" xmlns="http://www.w3.org/2000/svg">
<path d="M357.89 833.08C358.3 833.22 359.17 844.98 360.37 851.44C368.54 895.3 392.1 1063.5 392.1 1063.5" stroke="#00BDFF" stroke-width="4.5" stroke-miterlimit="10"/>
<path d="M361.38 850.43C372.45 838.67 394.6 832.25 394.6 832.25L699.15 730.67C699.15 730.67 715.54 727.41 725.73 730.67" stroke="#00BDFF" stroke-miterlimit="10"/>
<path d="M375 1079.53C389.7 1064.24 419.09 1055.9 419.09 1055.9L823.21 923.85C823.21 923.85 844.96 919.61 858.48 923.85" stroke="#00BDFF" stroke-miterlimit="10"/>
<path d="M546.86 779.26L635.91 986.51" stroke="#00BDFF" stroke-miterlimit="10"/>
<path d="M745.7 758.44C745.7 758.44 721.4 742.03 675.79 772.85C671.39 775.82 666.77 778.47 662.17 781.12C655.41 785.01 645.99 796.46 666.92 828.24C695.79 872.08 713.18 869.94 713.18 869.94C713.18 869.94 780.54 862.39 834.94 885.95" stroke="#00BDFF" stroke-miterlimit="10"/>
<path d="M777.06 1079.53C777.06 1079.53 863.25 1064.42 872.23 1011.09L881.21 957.77" stroke="#00BDFF" stroke-width="6" stroke-miterlimit="10"/>
<path d="M33.8896 282.9C33.8896 282.9 47.7896 286.11 111.95 379.14C176.11 472.17 252.03 599.42 252.03 599.42C252.03 599.42 315.12 675.99 312.98 820.02C312.98 820.02 312.98 843.22 301.22 861.4C301.22 861.4 372.86 829.32 375 819.7C377.14 810.08 379.28 797.24 391.04 788.69C402.8 780.14 541.81 719.19 541.81 719.19C541.81 719.19 640.19 678.56 680.82 693.53C721.45 708.5 755.67 775.81 755.67 775.81L876.5 943.74C876.5 943.74 887.19 960.85 876.5 970.47C865.81 980.09 856.18 995.06 843.35 999.34C830.52 1003.62 828.38 1014.31 753.53 1011.1C678.68 1007.89 535.39 1081.71 535.39 1081.71" stroke="#00BDFF" stroke-width="6" stroke-miterlimit="10"/>
<path d="M301.22 861.4C301.22 861.4 269.14 921.97 293.73 1000.75C293.73 1000.75 277.69 972.6 267 972.6C256.31 972.6 5.01953 653.95 5.01953 653.95" stroke="#00BDFF" stroke-width="6" stroke-miterlimit="10"/>
<path d="M317.26 1081.71C317.26 1081.71 295.87 1060.28 263.79 1031.41C231.71 1002.54 173.97 1053.87 173.97 1053.87C173.97 1053.87 227.44 1017.51 255.24 1044.25C283.04 1070.99 290.53 1081.72 290.53 1081.72" stroke="#00BDFF" stroke-width="6" stroke-miterlimit="10"/>
<path d="M263.79 1031.42C263.79 1031.42 283.04 1032.49 295.87 1011.1" stroke="#00BDFF" stroke-width="6" stroke-miterlimit="10"/>
<path d="M33.8899 313.91C33.8899 313.91 87.3599 368.44 54.2099 410.15C21.0599 451.86 18.9199 456.13 18.9199 456.13" stroke="#00BDFF" stroke-width="6" stroke-miterlimit="10"/>
<path d="M74.6695 3.89001C74.6695 3.89001 -38.6805 687.63 16.9295 850.43C72.5395 1013.23 199.78 1081.71 199.78 1081.71" stroke="#00BDFF" stroke-width="6" stroke-miterlimit="10"/>
<path d="M37.0996 267.93C37.0996 267.93 71.3196 318.19 86.2896 319.26C92.9396 319.74 96.5196 315.46 98.4496 310.56C101.01 304.05 100.4 296.73 97.1496 290.54C87.3296 271.85 59.3896 220.47 44.0996 211.05" stroke="#00BDFF" stroke-width="4" stroke-miterlimit="10"/>
<path d="M91.64 319.29C91.64 319.29 126.93 317.12 128 282.9C129.07 248.68 71.34 186.66 71.34 186.66C71.34 186.66 64.09 176.92 48.46 179.12" stroke="#00BDFF" stroke-miterlimit="10"/>
<path d="M52.2197 152.16L60.5197 149.98C70.4197 147.38 80.9497 149.46 89.1297 155.61C114.08 174.37 162.94 216.93 141.89 249.05C141.89 249.05 138.51 258.66 123.09 261.16" stroke="#00BDFF" stroke-width="4" stroke-miterlimit="10"/>
<path d="M52.2197 163.17C52.2197 163.17 56.3497 157.84 80.9397 179.75C105.53 201.67 128 223.18 128 223.18C128 223.18 143.35 243.15 136.54 254.14" stroke="#00BDFF" stroke-miterlimit="10"/>
<path d="M141.4 211.05C141.4 211.05 301.22 414.43 301.22 537.4C301.22 537.4 274.6 552.82 285.46 581.57" stroke="#00BDFF" stroke-width="4" stroke-miterlimit="10"/>
<path d="M122.66 302.15C122.66 302.15 308.7 569.34 305.5 658.23C305.5 658.23 301.66 729.25 310 760.04" stroke="#00BDFF" stroke-width="4" stroke-miterlimit="10"/>
<path d="M301.22 537.4C301.22 537.4 516.15 452.92 559.99 490.35L692.58 682.31C692.58 682.31 703.46 696.76 701.76 705.83" stroke="#00BDFF" stroke-width="4" stroke-miterlimit="10"/>
<path d="M631.11 593.3C631.11 593.3 613.46 579.7 580.31 593.3C547.16 606.9 305.09 667.83 305.09 667.83" stroke="#00BDFF" stroke-width="4" stroke-miterlimit="10"/>
<path d="M864.74 779.26L829.13 738.42C829.13 738.42 833.73 663.57 809.14 621.87C784.55 580.17 809.14 541.71 809.14 541.71L824.9 516.86C830.3 508.35 841.82 506.29 849.84 512.39L873.56 530.46C877.95 533.8 879.22 539.86 876.54 544.68C867.05 561.76 846.57 600.16 846.57 613.31C846.57 630.42 864.75 687.12 866.89 705.82C869.03 724.52 864.75 779.25 864.75 779.25L881.21 796.16L887.2 738.42C887.2 738.42 892.32 722.42 881.21 682.3C870.1 642.18 867.96 636.83 867.96 636.83C867.96 636.83 855.13 609.69 877.58 581.56L897.05 557.17C898.97 554.76 901.72 553.13 904.76 552.6L960.99 542.79L968.3 541.7" stroke="#00BDFF" stroke-width="4" stroke-miterlimit="10"/>
<path d="M966 262.11L994.31 248.33C994.31 248.33 1015.7 239.95 1026.39 242.63" stroke="#00BDFF" stroke-width="4" stroke-miterlimit="10"/>
<path d="M834.94 508.87L959.91 484.52" stroke="#00BDFF" stroke-width="4" stroke-miterlimit="10"/>
<path d="M1015.38 760.04L881.2 796.17L883.25 850.44L829.14 784.41C829.14 784.41 833.09 728.81 829.14 738.43" stroke="#00BDFF" stroke-width="4" stroke-miterlimit="10"/>
<path d="M825.93 537.07L852.61 558.12C855.65 560.52 856.5 564.75 854.66 568.15C849.54 577.6 840.48 596.58 842.29 609.76C843.64 619.57 845.19 629.47 846.33 636.52C846.91 640.1 842.82 642.56 839.93 640.37L814.51 621.12C812.22 619.38 810.4 617.09 809.27 614.45C805.26 605.08 797.49 581.37 807.71 555.95L815.42 539.56C817.31 535.55 822.44 534.34 825.93 537.08V537.07Z" stroke="#00BDFF" stroke-miterlimit="10"/>
<path d="M834.94 545.24C833.31 550.26 803.44 584.03 823.02 627.55" stroke="#00BDFF" stroke-miterlimit="10"/>
<path d="M841.99 548.68C841.99 548.68 812.22 583.06 830.07 633.27" stroke="#00BDFF" stroke-miterlimit="10"/>
<path d="M1196.94 280.58C1196.94 280.58 1282.31 305.71 1314.21 351.87" stroke="#00BDFF" stroke-width="4" stroke-miterlimit="10"/>
<path d="M1011.29 593.3C1011.29 593.3 1010.59 601.41 1009.92 613.77C1008.17 646.1 1006.63 707.52 1018.42 729.22C1018.42 729.22 1187.54 866.79 1196.2 885.95L1210.11 760.03L1213.51 729.22C1213.51 729.22 1113.16 704.46 1011.28 593.3H1011.29Z" stroke="#00BDFF" stroke-miterlimit="10"/>
<path d="M1008.72 620.45C1008.72 620.45 1148.83 744.01 1210.46 756.85" stroke="#00BDFF" stroke-miterlimit="10"/>
<path d="M1213.52 729.22C1213.52 729.22 1238.48 680.32 1227.78 652.52C1220.53 633.68 1199.95 580.9 1187.43 548.83C1180.83 531.91 1168.12 517.67 1151.48 508.55C1118.86 490.66 1062.86 461.16 1028.01 449.57C1021.71 447.47 1015.32 452.49 1016.42 458.65C1020.04 478.77 1024.03 522.56 1011.28 593.3" stroke="#00BDFF" stroke-miterlimit="10"/>
<path d="M688.01 392.35C688.01 392.35 689.07 396.88 690.81 403.76C695.35 421.74 704.51 455.77 711.37 466.76C711.37 466.76 782.6 528.59 788.14 538.44L772.53 467.79L768.71 450.5C768.71 450.5 735.34 445.2 688.01 392.35Z" stroke="#00BDFF" stroke-miterlimit="10"/>
<path d="M691.5 407.54C691.5 407.54 752.01 464.05 772.14 466" stroke="#00BDFF" stroke-miterlimit="10"/>
<path d="M768.72 450.5C768.72 450.5 768.41 421.43 760.92 406.98C755.84 397.19 741.54 369.78 732.84 353.12C728.25 344.33 722.29 337.54 715.97 333.89C703.58 326.74 682.51 315.12 670.45 311.63C668.27 311 667.18 314.3 668.46 317.6C672.67 328.4 680.69 352.24 688.01 392.33" stroke="#00BDFF" stroke-miterlimit="10"/>
<path d="M1240.23 396.31L1314.21 371.65" stroke="#00BDFF" stroke-miterlimit="10"/>
<path d="M1159.64 261.16C1137.3 257.36 1136.12 278.03 1136.12 278.03L1160.36 285.63M1160.36 285.63L1162.26 276.84C1162.26 276.84 1186.5 260.44 1196.95 273.75V281.59L1160.36 285.63Z" stroke="#00BDFF" stroke-miterlimit="10"/>
<path d="M1190.36 269.24L1175.56 264.73C1175.56 264.73 1163.92 269.01 1160.11 263.54C1156.31 258.07 1169.14 216.25 1169.14 216.25" stroke="#00BDFF" stroke-miterlimit="10"/>
<path d="M1186.96 214.35C1186.96 214.35 1175.32 256.65 1175.55 264.73" stroke="#00BDFF" stroke-miterlimit="10"/>
<path d="M1142.59 264.72L1077.54 252.1V246.42C1065.78 236.2 1045.34 249.03 1045.34 249.03V255.21L1025.14 250.46C1025.14 250.46 1025.62 235.49 1045.34 235.01" stroke="#00BDFF" stroke-width="4" stroke-miterlimit="10"/>
<path d="M1045.34 255.22L1077.54 252.1" stroke="#00BDFF" stroke-miterlimit="10"/>
<path d="M1050.33 195.34L1045.34 237.87C1045.34 237.87 1051.28 243.81 1058.41 237.87L1063.88 198.42" stroke="#00BDFF" stroke-miterlimit="10"/>
<path d="M1073.48 243.89C1073.48 243.89 1067.92 238.83 1058.41 237.88" stroke="#00BDFF" stroke-miterlimit="10"/>
<path d="M1169.38 2.38C1169.38 2.38 1132.8 179.89 1159.41 214.35C1159.41 214.35 1255.4 213.64 1270.13 198.9C1270.13 198.9 1321.93 184.16 1290.57 2.38" stroke="#00BDFF" stroke-width="4" stroke-miterlimit="10"/>
<path d="M1042.96 1.70996L1012.54 119.53C1012.54 119.53 985.93 186.06 1047.71 195.33L1159.4 214.34" stroke="#00BDFF" stroke-width="4" stroke-miterlimit="10"/>
<path d="M819.28 525.73C813.07 489.86 798.21 465.39 798.21 465.39C798.21 465.39 746.05 383.05 738.92 320.32C737.84 310.77 736.44 302.48 734.84 295.28C725.97 255.18 711.11 249.03 711.11 249.03C711.11 249.03 673.33 228 653.37 225.15C633.41 222.3 639.11 265.43 639.11 265.43C639.11 265.43 648.73 313.55 682.6 392.68C716.46 471.81 725.02 547.02 725.02 547.02L802.65 608.11" stroke="#00BDFF" stroke-width="4" stroke-miterlimit="10"/>
<path d="M787.75 273.28L734.85 295.29" stroke="#00BDFF" stroke-miterlimit="10"/>
<path d="M647.4 225.9L669.06 215.53" stroke="#00BDFF" stroke-width="4" stroke-miterlimit="10"/>
<path d="M736.43 229.79C736.43 229.79 774.88 236.21 819.28 323.53C819.28 323.53 829.01 335.71 842.57 345.25C851.67 351.66 859.85 359.29 867.1 367.74C892.55 397.4 942.5 459.48 940.96 488.21" stroke="#00BDFF" stroke-width="4" stroke-miterlimit="10"/>
<path d="M677.14 217.91C687.36 208.52 697.22 213.4 697.22 213.4L698.05 218.51C689.38 218.51 677.97 221.96 677.97 221.96L669.06 220.73V217.09C668.11 211.98 677.97 208.77 677.97 208.77C677.97 208.77 680.11 214.71 686.41 210.97L684.75 169.8" stroke="#00BDFF" stroke-miterlimit="10"/>
<path d="M687.36 208.52L697.22 213.4" stroke="#00BDFF" stroke-miterlimit="10"/>
<path d="M675.6 167.89L677.97 208.76" stroke="#00BDFF" stroke-miterlimit="10"/>
<path d="M714.21 173.83L715.04 221.95" stroke="#00BDFF" stroke-miterlimit="10"/>
<path d="M724.78 172.05L726.69 222.54" stroke="#00BDFF" stroke-miterlimit="10"/>
<path d="M713.5 230.27V234.43L735.84 232.35L734.85 226.47C734.85 226.47 720.03 221.24 713.5 230.27Z" stroke="#00BDFF" stroke-miterlimit="10"/>
<path d="M713.5 234.43L702.93 231.34V227.18C702.93 227.18 707.8 220.44 714.63 220.72" stroke="#00BDFF" stroke-miterlimit="10"/>
<path d="M726.69 220.72L734.85 226.47" stroke="#00BDFF" stroke-miterlimit="10"/>
<path d="M677.97 2.38C677.97 2.38 648.54 8.09001 647.39 51.57C646.24 95.05 647.39 147.81 647.39 147.81C647.39 147.81 655.51 162.31 677.97 167.89C700.43 173.47 704.35 173.83 704.35 173.83C704.35 173.83 687.12 160.29 687.36 137.83C687.6 115.37 683.53 42.66 683.53 42.66C683.53 42.66 685.46 5.23001 707.21 7.73001C728.96 10.23 742.14 13.79 753.55 33.39C764.96 52.99 777.79 96.84 777.79 96.84C777.79 96.84 792.05 148.17 768.17 159.22C744.29 170.27 706.15 173.83 706.15 173.83" stroke="#00BDFF" stroke-width="4" stroke-miterlimit="10"/>
<path d="M725.73 2.38C725.73 2.38 762.8 10.81 775.63 89.82" stroke="#00BDFF" stroke-miterlimit="10"/>
<path d="M647.01 616.32L718.32 604.33" stroke="#00BDFF" stroke-width="6" stroke-miterlimit="10"/>
<path d="M952.07 789.83L954.03 791.07L958.49 793.88L960.63 791.86L1008.73 782.08L1013.03 781.21L1015.39 782.64L1008.73 774.8L950.3 787.28V789.85L934.97 836.82L883.26 847.87C883.26 847.87 876.1 849.65 883.26 857.85C890.42 866.05 901.82 881.02 901.82 881.02C901.82 881.02 904.67 887.37 915.36 885.98C926.05 884.59 998.77 864.63 998.77 864.63L1021.23 840.75C1021.23 840.75 1023.73 838.25 1023.37 832.91C1023.01 827.56 1021.3 822.93 1023.4 818.3C1025.5 813.67 1028 815.09 1028 808.32C1028 801.55 1024.08 797.98 1024.08 797.98L965.62 811.88L970.25 817.58L968.3 822.93L956 812.95L951.72 793.9" stroke="#00BDFF" stroke-width="4" stroke-miterlimit="10"/>
<path d="M1008.72 782.07V796.17L1015.38 800.02" stroke="#00BDFF" stroke-miterlimit="10"/>
<path d="M1027.99 812.21L1075.87 802.22" stroke="#00BDFF" stroke-miterlimit="10"/>
<path d="M1015.38 780.13C1015.87 780.13 1014.4 780.13 1014.89 780.13C1015.38 780.13 1037.81 774.78 1037.81 774.78" stroke="#00BDFF" stroke-miterlimit="10"/>
<path d="M1008.72 791.04L1046.53 782.07" stroke="#00BDFF" stroke-miterlimit="10"/>
<path d="M1027.62 802.22L1064.73 793.87" stroke="#00BDFF" stroke-miterlimit="10"/>
<path d="M998.76 864.6L1118.79 837.16" stroke="#00BDFF" stroke-width="4" stroke-miterlimit="10"/>
<path d="M229.34 2.37995L214.13 93.39L235.99 188.32L623.79 205.01L626.64 24.47C626.64 24.47 624.74 4.10995 617.61 1.69995" stroke="#00BDFF" stroke-width="6" stroke-miterlimit="10"/>
<path d="M888.51 1.70996C891.36 2.61996 993.54 36.36 1025.14 60.6" stroke="#00BDFF" stroke-width="6" stroke-miterlimit="10"/>
<path d="M726.69 208.28L1047.68 217.92" stroke="#00BDFF" stroke-width="6" stroke-miterlimit="10"/>
<path d="M116.23 3.89001L95.2599 148.89L89.1299 155.61" stroke="#00BDFF" stroke-width="6" stroke-miterlimit="10"/>
<path d="M836.36 556.93L853.81 569.72" stroke="#00BDFF" stroke-miterlimit="10"/>
<path d="M833.18 566.03L849.26 579.08" stroke="#00BDFF" stroke-miterlimit="10"/>
<path d="M829.14 576.49L845.08 588.39" stroke="#00BDFF" stroke-miterlimit="10"/>
<path d="M825.66 588.39L842.47 600.73" stroke="#00BDFF" stroke-miterlimit="10"/>
<path d="M824.37 604.81L842.47 618.78" stroke="#00BDFF" stroke-miterlimit="10"/>
<path d="M826.49 620.73L845.81 633.28" stroke="#00BDFF" stroke-miterlimit="10"/>
<path d="M814.41 541.71L829.14 552.96" stroke="#00BDFF" stroke-miterlimit="10"/>
<path d="M810.7 549.6L825.66 561.27" stroke="#00BDFF" stroke-miterlimit="10"/>
<path d="M805.55 562.15L820.81 572.56" stroke="#00BDFF" stroke-miterlimit="10"/>
<path d="M803.32 572.56L818.18 582.44" stroke="#00BDFF" stroke-miterlimit="10"/>
<path d="M803.32 587.26L816.38 597.4" stroke="#00BDFF" stroke-miterlimit="10"/>
<path d="M806.15 605.75L819.28 617.48" stroke="#00BDFF" stroke-miterlimit="10"/>
<path d="M1220.82 945.87C1124.58 816.48 984.5 741.63 984.5 741.63C984.5 741.63 971.67 666.78 970.6 581.57C969.53 496.36 940.66 405.87 940.66 405.87C940.66 405.87 927.83 362.03 940.66 302.15C953.49 242.27 998.4 261.16 998.4 261.16L1104.26 288.25L1167.35 308.57C1167.35 308.57 1245.41 337.44 1245.41 439.03C1245.41 540.62 1280.7 627.56 1280.7 627.56L1292.46 633.29L1255.57 976.89L1220.82 945.88V945.87Z" stroke="#00BDFF" stroke-width="4" stroke-miterlimit="10"/>
</svg>
