<svg width="1440" height="949" viewBox="0 0 1440 949" fill="none" xmlns="http://www.w3.org/2000/svg">
<path d="M705.37 854.2C865.853 854.2 995.95 724.103 995.95 563.62C995.95 403.137 865.853 273.04 705.37 273.04C544.887 273.04 414.79 403.137 414.79 563.62C414.79 724.103 544.887 854.2 705.37 854.2Z" stroke="#00BDFF" stroke-width="6" stroke-miterlimit="10"/>
<path d="M942.99 687.92C898.86 773.69 809.47 832.36 706.37 832.36L730.35 662.27C730.35 662.27 731.3 617.36 771.93 631.26C812.56 645.16 942.98 687.92 942.98 687.92H942.99Z" stroke="#00BDFF" stroke-width="4" stroke-miterlimit="10"/>
<path d="M957.83 653.19C967.21 626 972.3 596.81 972.3 566.43C972.3 495.31 944.38 430.71 898.9 382.99L798.67 518.09C798.67 518.09 765.52 549.12 798.67 565.59C831.82 582.07 957.83 653.19 957.83 653.19Z" stroke="#00BDFF" stroke-width="4" stroke-miterlimit="10"/>
<path d="M869.14 356.11C824.16 321.25 767.69 300.49 706.37 300.49C665.25 300.49 626.32 309.82 591.56 326.48L692.81 468.71C692.81 468.71 710.99 501.86 748.41 468.71C785.83 435.56 869.14 356.1 869.14 356.1V356.11Z" stroke="#00BDFF" stroke-width="4" stroke-miterlimit="10"/>
<path d="M557.05 346.35C486.67 394.19 440.45 474.91 440.45 566.43C440.45 579.52 440.27 583.61 442.1 596.19L619.03 547.85C619.03 547.85 648.97 533.95 632.93 502.94C616.89 471.93 557.05 346.35 557.05 346.35Z" stroke="#00BDFF" stroke-width="4" stroke-miterlimit="10"/>
<path d="M663.1 828.85C562.26 812.35 480.49 739.12 451.63 643.01L626.5 617.35C626.5 617.35 663.33 607.73 663.09 662.26C662.85 716.79 663.09 828.85 663.09 828.85H663.1Z" stroke="#00BDFF" stroke-width="4" stroke-miterlimit="10"/>
<path d="M707.34 599.18C725.891 599.18 740.93 584.141 740.93 565.59C740.93 547.039 725.891 532 707.34 532C688.789 532 673.75 547.039 673.75 565.59C673.75 584.141 688.789 599.18 707.34 599.18Z" stroke="#00BDFF" stroke-width="6" stroke-miterlimit="10"/>
<path d="M677.01 523.4C684.687 523.4 690.91 517.177 690.91 509.5C690.91 501.823 684.687 495.6 677.01 495.6C669.333 495.6 663.11 501.823 663.11 509.5C663.11 517.177 669.333 523.4 677.01 523.4Z" stroke="#00BDFF" stroke-width="8" stroke-miterlimit="10"/>
<path d="M750 531.99C757.677 531.99 763.9 525.767 763.9 518.09C763.9 510.413 757.677 504.19 750 504.19C742.323 504.19 736.1 510.413 736.1 518.09C736.1 525.767 742.323 531.99 750 531.99Z" stroke="#00BDFF" stroke-width="8" stroke-miterlimit="10"/>
<path d="M762.43 601.68C770.107 601.68 776.33 595.457 776.33 587.78C776.33 580.103 770.107 573.88 762.43 573.88C754.753 573.88 748.53 580.103 748.53 587.78C748.53 595.457 754.753 601.68 762.43 601.68Z" stroke="#00BDFF" stroke-width="8" stroke-miterlimit="10"/>
<path d="M702.1 637.56C709.777 637.56 716 631.337 716 623.66C716 615.983 709.777 609.76 702.1 609.76C694.423 609.76 688.2 615.983 688.2 623.66C688.2 631.337 694.423 637.56 702.1 637.56Z" stroke="#00BDFF" stroke-width="8" stroke-miterlimit="10"/>
<path d="M649.2 591.42C656.877 591.42 663.1 585.197 663.1 577.52C663.1 569.843 656.877 563.62 649.2 563.62C641.523 563.62 635.3 569.843 635.3 577.52C635.3 585.197 641.523 591.42 649.2 591.42Z" stroke="#00BDFF" stroke-width="8" stroke-miterlimit="10"/>
<path d="M559.81 319.52L567.13 315.14C569.38 313.79 572.27 314.53 573.64 316.8L669.45 475.11C672.55 480.24 670.97 486.97 665.92 490.1L661.7 492.71C656.37 496.01 649.44 494.11 646.43 488.53L558.31 325.03C557.26 323.08 557.92 320.64 559.8 319.52H559.81Z" stroke="#00BDFF" stroke-width="6" stroke-miterlimit="10"/>
<path d="M432.95 630.2L431.04 621.88C430.45 619.33 432.04 616.8 434.62 616.2L614.76 573.85C620.6 572.48 626.51 576.06 627.93 581.82L629.11 586.64C630.6 592.72 626.66 598.74 620.43 599.88L437.73 633.32C435.56 633.72 433.43 632.34 432.94 630.21L432.95 630.2Z" stroke="#00BDFF" stroke-width="6" stroke-miterlimit="10"/>
<path d="M686.22 846.38L677.7 845.85C675.08 845.69 673.12 843.45 673.27 840.8L683.91 656.06C684.25 650.07 689.37 645.42 695.3 645.7L700.26 645.94C706.52 646.24 711.16 651.73 710.48 658.03L690.56 842.69C690.32 844.89 688.39 846.53 686.21 846.39L686.22 846.38Z" stroke="#00BDFF" stroke-width="6" stroke-miterlimit="10"/>
<path d="M967.17 671.69L964.04 679.63C963.08 682.07 960.34 683.25 957.87 682.29L785.4 615.22C779.81 613.05 776.96 606.74 779.06 601.19L780.81 596.55C783.02 590.69 789.68 587.96 795.46 590.55L964.99 666.41C967.01 667.31 967.98 669.65 967.17 671.69Z" stroke="#00BDFF" stroke-width="6" stroke-miterlimit="10"/>
<path d="M891.81 353.24L898.09 358.76C900.02 360.45 900.22 363.37 898.55 365.34L781.52 502.6C777.73 507.05 771.02 507.6 766.6 503.83L762.9 500.68C758.23 496.7 757.87 489.65 762.1 485.16L886.26 353.52C887.74 351.95 890.2 351.83 891.81 353.24Z" stroke="#00BDFF" stroke-width="6" stroke-miterlimit="10"/>
<path d="M703.09 945.64C919.829 945.64 1095.53 769.939 1095.53 553.2C1095.53 336.461 919.829 160.76 703.09 160.76C486.351 160.76 310.65 336.461 310.65 553.2C310.65 769.939 486.351 945.64 703.09 945.64Z" stroke="#00BDFF" stroke-width="5" stroke-miterlimit="10"/>
<path d="M1073.68 682.62L1080.97 712.52C1080.97 712.52 1105.56 739.25 1129.09 746.03C1152.62 752.81 1151.55 746.03 1151.55 746.03C1144.06 730.35 1199.67 676.17 1199.67 676.17C1199.67 676.17 1212.5 645.16 1212.5 636.1C1212.5 627.04 1203.95 623.66 1203.95 623.66L1160 616.7C1167.08 584.46 1170.8 550.98 1170.8 516.64C1170.8 258.08 959.48 48.48 698.8 48.48C438.12 48.48 226.8 258.08 226.8 516.64C226.8 564.14 233.93 609.99 247.19 653.19C247.19 653.19 130.36 645.69 15.9399 591.43" stroke="#00BDFF" stroke-width="8" stroke-miterlimit="10"/>
<path d="M1159.99 616.7L1159.46 722.78" stroke="#00BDFF" stroke-width="4" stroke-miterlimit="10"/>
<path d="M15.6302 592.43C15.6302 592.43 23.8202 557.8 1.49023 533.01" stroke="#00BDFF" stroke-width="8" stroke-miterlimit="10"/>
<path d="M3.08984 511.53C3.08984 511.53 201.99 512.84 220.17 495.59" stroke="#00BDFF" stroke-width="4" stroke-miterlimit="10"/>
<path d="M1174 475.66L1203.94 470.86C1199.66 223.85 1025.37 106.23 1025.37 106.23C1025.37 106.23 831.83 -61.65 511.03 28.17C190.24 117.99 183.82 495.6 183.82 495.6" stroke="#00BDFF" stroke-width="4" stroke-miterlimit="10"/>
<path d="M261.66 302.75C269.176 302.75 275.27 296.657 275.27 289.14C275.27 281.623 269.176 275.53 261.66 275.53C254.143 275.53 248.05 281.623 248.05 289.14C248.05 296.657 254.143 302.75 261.66 302.75Z" stroke="#00BDFF" stroke-miterlimit="10"/>
<path d="M663.11 40.73C670.627 40.73 676.72 34.6366 676.72 27.12C676.72 19.6034 670.627 13.51 663.11 13.51C655.593 13.51 649.5 19.6034 649.5 27.12C649.5 34.6366 655.593 40.73 663.11 40.73Z" stroke="#00BDFF" stroke-miterlimit="10"/>
<path d="M1139.85 308.32C1147.37 308.32 1153.46 302.227 1153.46 294.71C1153.46 287.193 1147.37 281.1 1139.85 281.1C1132.33 281.1 1126.24 287.193 1126.24 294.71C1126.24 302.227 1132.33 308.32 1139.85 308.32Z" stroke="#00BDFF" stroke-miterlimit="10"/>
<path d="M248.69 653.95C248.69 653.95 263.16 693.19 275.35 685.2C287.54 677.21 321.05 650.51 321.05 650.51" stroke="#00BDFF" stroke-width="4" stroke-miterlimit="10"/>
<path d="M1199.66 676.17L1439.19 668.39" stroke="#00BDFF" stroke-width="8" stroke-miterlimit="10"/>
</svg>
