<svg width="575" height="498" viewBox="0 0 575 498" fill="none" xmlns="http://www.w3.org/2000/svg">
<path d="M100.1 33.02C100.1 33.02 124.19 27.92 151.41 27.92C176.89 27.92 401.65 31.4 430.2 31.84C431.94 31.87 433.68 31.85 435.42 31.8C443.73 31.52 472.6 31.03 479.38 37.56" stroke="#00BDFF" stroke-miterlimit="10"/>
<path d="M557.04 196.29L558.46 199.12C557.89 232 567.81 264.03 567.81 264.03C567.81 264.03 576.6 304 572.91 340C569.22 376 572.91 395.56 572.91 395.56V398.39C572.91 398.39 567.24 412.85 562.42 417.95C557.6 423.05 515.65 422.2 515.65 422.2C515.65 422.2 509.98 410.01 493.26 385.35C476.54 360.69 455.28 362.96 455.28 362.96L384.41 364.09C384.41 364.09 139.21 368.91 124.47 367.49C109.73 366.07 74.0099 425.88 74.0099 425.88L16.7499 423.9L4.83988 404.06C4.83988 404.06 3.41983 397.54 5.40983 389.6C6.78983 384.09 4.19984 354.12 2.48984 336.31C0.779844 318.5 0.679866 299.06 2.69987 280.53C7.66987 234.89 21.8498 212.14 21.8498 212.14L24.9698 182.94L26.3899 181.52" stroke="#00BDFF" stroke-width="4" stroke-miterlimit="10"/>
<path d="M535.5 133.65V131.67C535.5 131.67 528.98 123.73 522.18 120.05C515.38 116.36 503.47 86.6 503.47 86.6L472.29 19.99C472.29 19.99 466.34 11.49 447.63 9.50002C428.92 7.52002 363.16 2.98 363.16 2.98C363.16 2.98 188.83 -2.41001 147.16 6.09999C105.49 14.61 104.07 20.27 104.07 20.27L91.0299 43.51C91.0299 43.51 68.6399 112.96 52.1999 123.45C35.7599 133.94 41.4299 131.67 41.4299 131.67" stroke="#00BDFF" stroke-width="4" stroke-miterlimit="10"/>
<path d="M127.03 369.87C127.03 369.87 138.75 381.59 155.75 382.34C172.75 383.09 435.44 380.07 435.44 380.07C435.44 380.07 456.23 380.83 464.16 369.87C472.09 358.91 468.2 364.99 468.2 364.99" stroke="#00BDFF" stroke-width="1" stroke-miterlimit="10"/>
<path d="M74.02 425.9C74.02 425.9 103.97 421.84 112.29 425.9C120.61 429.96 122.49 429.96 122.49 429.96C122.49 429.96 122.49 405.77 144.03 407.66C165.57 409.55 171.24 429.96 171.24 429.96L187.11 425.9L410.1 424.29C410.1 424.29 417.28 428.45 421.44 428.07C421.44 428.07 433.91 402.75 451.68 405.77C469.45 408.79 469.15 425.9 469.15 425.9C469.15 425.9 476.25 420.51 481.92 421.27C487.59 422.03 502.33 426.37 504.98 425.9C507.63 425.43 515.66 422.21 515.66 422.21" stroke="#00BDFF" stroke-width="4" stroke-miterlimit="10"/>
<path d="M476.64 35.76L504.6 105.3C506.02 109.55 502.41 112.33 499.51 113.81C497.47 114.85 495.48 115.97 493.58 117.26C473.43 130.91 403.68 140.83 403.68 140.83H319.02C319.02 140.83 213.95 140.83 173.89 138.18C133.83 135.53 79.78 104.92 79.78 104.92C79.78 104.92 104.72 39.16 103.21 32.73" stroke="#00BDFF" stroke-width="4" stroke-miterlimit="10"/>
<path d="M234.46 27.91C234.46 27.91 236.44 14.59 250.33 14.3C264.22 14.01 344.72 16 344.72 16C344.72 16 354.36 14.58 359.18 30.74" stroke="#00BDFF" stroke-width="4" stroke-miterlimit="10"/>
<path d="M83.2198 106.8C83.2198 106.8 70.8999 129.11 70.8999 137.05" stroke="#00BDFF" stroke-width="1.5" stroke-miterlimit="10"/>
<path d="M70.8999 196.57V303.72L83.2198 338.87" stroke="#00BDFF" stroke-miterlimit="10"/>
<path d="M508.57 106.8C508.57 106.8 519.91 126.84 521.04 137.05" stroke="#00BDFF" stroke-width="1.5" stroke-miterlimit="10"/>
<path d="M523.31 196.57V278.78V300.32L514.81 335.47" stroke="#00BDFF" stroke-miterlimit="10"/>
<path d="M83.22 338.87L514.81 335.47" stroke="#00BDFF" stroke-width="6" stroke-miterlimit="10"/>
<path d="M515.66 331.96C519.35 330.94 528.42 341.71 535.5 342.28C542.58 342.85 565.26 338.88 565.26 338.88" stroke="#00BDFF" stroke-width="1.5" stroke-miterlimit="10"/>
<path d="M77.0601 335.47C77.0601 335.47 62.9601 346.81 49.9201 345.11C36.8801 343.41 13.6401 335.47 13.6401 335.47" stroke="#00BDFF" stroke-width="1.5" stroke-miterlimit="10"/>
<path d="M107.75 362.31C104.3 362.31 42.8601 360.73 24.5901 357.15C22.8101 356.8 21.2901 358.46 21.7701 360.21L26.35 376.84C26.91 378.88 28.4901 380.48 30.5201 381.07C37.8401 383.19 55.3601 387.72 62.0101 384.61L79.9601 362.31" stroke="#00BDFF" stroke-width="4" stroke-miterlimit="10"/>
<path d="M24.04 351.54C24.04 351.54 50.6901 359.85 113.99 358.53" stroke="#00BDFF" stroke-width="1.5" stroke-miterlimit="10"/>
<path d="M491.38 359.47C492.93 359.3 550.17 358 564.32 353.81C565.54 353.45 566.68 354.54 566.39 355.77L563.05 370.07C562.01 374.5 558.67 378.04 554.28 379.27C549.89 380.5 542.62 381.65 532.01 381.39L515.66 359.47" stroke="#00BDFF" stroke-width="4" stroke-miterlimit="10"/>
<path d="M485.14 354.94C485.14 354.94 551.65 355.14 562.05 350.03" stroke="#00BDFF" stroke-width="1.5" stroke-miterlimit="10"/>
<path d="M5.84995 408.75C5.84995 408.75 -0.530008 482.73 21.02 491.52C42.57 500.31 85.08 493.5 85.08 493.5C85.08 493.5 89.05 494.21 92.02 479.75C95 465.29 97.4099 444.6 97.4099 444.6L100.24 424.76" stroke="#00BDFF" stroke-width="4" stroke-miterlimit="10"/>
<path d="M568.84 408.75C568.84 408.75 575.22 482.73 553.67 491.52C532.13 500.31 489.61 493.5 489.61 493.5C489.61 493.5 485.64 494.21 482.67 479.75C479.7 465.29 477.28 444.6 477.28 444.6L474.45 424.76" stroke="#00BDFF" stroke-width="4" stroke-miterlimit="10"/>
<path d="M438.84 211.03C422.12 188.35 396.89 186.09 396.89 186.09C396.89 186.09 215.47 188.64 198.18 188.77C180.89 188.9 160.76 211.04 160.76 211.04H438.84V211.03Z" stroke="#00BDFF" stroke-width="4" stroke-miterlimit="10"/>
<path d="M72.8901 281.9L523.31 278.78" stroke="#00BDFF" stroke-width="1.5" stroke-miterlimit="10"/>
<path d="M538.81 133.65L447.35 160.86C447.35 160.86 437.33 165.4 447.35 172.39C457.37 179.38 475.32 190.53 475.32 190.53C475.32 190.53 480.04 195.25 501.02 195.07C522 194.89 555.63 196.58 555.63 196.58C555.63 196.58 557.52 195.82 558.46 191.29C559.4 186.76 559.4 163.7 559.4 163.7C559.4 163.7 550.05 138.28 542.77 134.98C535.49 131.68 538.8 133.66 538.8 133.66L538.81 133.65Z" stroke="#00BDFF" stroke-width="6" stroke-miterlimit="10"/>
<path d="M47.72 130.38L148.76 160.44C148.76 160.44 159.82 165.45 148.76 173.17C137.7 180.89 117.86 193.21 117.86 193.21C117.86 193.21 112.64 198.43 89.47 198.22C66.3 198.01 29.14 199.89 29.14 199.89C29.14 199.89 27.05 199.05 26.01 194.04C24.97 189.03 24.97 163.56 24.97 163.56C24.97 163.56 35.3 135.48 43.34 131.83C51.38 128.18 47.72 130.37 47.72 130.37V130.38Z" stroke="#00BDFF" stroke-width="6" stroke-miterlimit="10"/>
</svg>
