<svg width="406" height="257" viewBox="0 0 406 257" fill="none" xmlns="http://www.w3.org/2000/svg">
<path d="M404.08 126.29C403.51 102.76 396.43 105.31 394.73 105.43C385.98 106.04 379.14 152.08 379.14 152.08L381.69 156.9L379.14 158.03C378.29 164.55 371.77 165.53 371.77 165.53C363.55 165.37 296.94 195.73 296.94 195.73C296.94 195.73 300.91 189.49 296.94 181.27C296.94 181.27 300.34 148.96 290.42 137.9C280.5 126.84 266.33 144.14 266.33 144.14C266.33 144.14 249.32 165.12 245.64 195.73C245.64 195.73 243.71 205.08 244.11 210.47L239.69 221.53H170.24C170.24 221.53 165.42 216.14 156.07 221.53C156.07 221.53 141.05 205.09 130.27 210.47C130.27 210.47 127.72 211.6 128 215.57L46.6501 206.92L42.4001 208.2C42.4001 208.2 38.7801 205.7 34.7201 203.12C30.6601 200.54 25.9701 197.79 24.2601 197.57C20.8601 197.14 21.5701 198.56 21.5701 198.56C21.5701 198.56 22.9901 201.39 25.6801 203.8" stroke="#00BDFF" stroke-miterlimit="10"/>
<path d="M35.8901 203.97L25.1801 203.82" stroke="#00BDFF" stroke-width="1.5" stroke-miterlimit="10"/>
<path d="M21.02 60.72C20.74 64.78 23.95 67.05 23.95 67.05C34.72 76.69 44.93 75.18 44.93 75.18L88.39 76.5C126.37 78.39 141.11 73.29 141.11 73.29C197.8 57.79 195.35 52.12 195.35 52.12C195.35 52.12 205.37 15.84 202.53 11.3C199.69 6.76004 192.14 5.44004 192.14 5.44004C192.14 5.44004 117.21 -3.43997 49.18 14.23C45.04 15.3 46.35 21.6 46.35 21.6L21.03 60.72L12.05 69.89V72.54C10.92 73.01 9.78 74.71 9.59 75.28C9.4 75.85 5.61996 85.2 5.61996 85.2L6.74997 97.39L7.68997 99L6.55997 101.27L7.12997 117.99L6.85001 133.39C6.85001 133.39 6.00001 134.62 2.79001 141.42C-0.419991 148.22 2.79001 151.25 2.79001 151.25L3.35995 163.44L2.69998 164.95C2.69998 164.95 3.55001 167.41 2.04001 168.98C0.530009 170.55 2.04001 172.04 2.04001 172.04L4.97 173.36C4.75 174.02 5.93996 177.65 6.48996 179.28C6.66996 179.8 6.68997 180.36 6.55997 180.9L5.18997 186.47C5.04997 187.04 5.09999 187.64 5.32999 188.18L8.94998 196.7C11.69 202.18 12.35 201.24 12.35 201.24L24.05 202.18" stroke="#00BDFF" stroke-width="1.5" stroke-miterlimit="10"/>
<path d="M6.12994 162.43L163.87 177.52C166.05 177.73 168.09 176.42 168.82 174.36L171.93 165.53C171.36 162.54 171.93 160.02 171.93 160.02C171.93 160.02 175.71 149.82 176.47 149.25C177.23 148.68 178.93 141.31 178.93 141.31L181.01 108.19L182.14 105.03C181.57 89.72 183.84 75.74 183.84 75.74L184.78 71.77L189.2 57.04" stroke="#00BDFF" stroke-miterlimit="10"/>
<path d="M12.3199 73.28C12.3199 73.28 8.31992 74.22 27.1299 85.56C27.1299 85.56 29.7299 88.02 23.9299 92.93C18.1299 97.84 16.7299 99.73 16.7299 99.73H7.32993" stroke="#00BDFF" stroke-miterlimit="10"/>
<path d="M8.45996 99.74V128.28C8.45996 128.28 8.21995 133.67 6.94995 137.63C5.67995 141.59 3.54996 144.01 3.82996 147.13C4.10996 150.25 6.12994 162.44 6.12994 162.44" stroke="#00BDFF" stroke-width="1" stroke-miterlimit="10"/>
<path d="M168.15 175.6L178.58 180.1C179.68 180.57 180.86 180.83 182.05 180.85C187.59 180.95 204.27 181.12 210.85 179.87C218.79 178.36 250.13 175.61 250.13 175.61" stroke="#00BDFF" stroke-width="1.5" stroke-miterlimit="10"/>
<path d="M176.46 149.25C175.61 149.25 11.2 141.03 6.94995 137.63" stroke="#00BDFF" stroke-width="0.5" stroke-miterlimit="10"/>
<path d="M132.52 113.68L31.21 109.51C30.13 109.47 29.39 108.41 29.72 107.38C30.52 104.87 32.4499 100.69 36.7499 98.45C37.3899 98.12 38.0899 97.94 38.7999 97.91C43.9499 97.74 68.36 96.98 75.83 97.23C84.19 97.51 113.11 99.73 113.11 99.73C113.11 99.73 121.05 100.2 128.98 107.15C136.91 114.1 132.52 113.67 132.52 113.67V113.68Z" stroke="#00BDFF" stroke-width="1" stroke-miterlimit="10"/>
<path d="M73.1101 109.11C67.7198 109.11 63.3502 107.203 63.3502 104.85C63.3502 102.497 67.7198 100.59 73.1101 100.59C78.5004 100.59 82.8701 102.497 82.8701 104.85C82.8701 107.203 78.5004 109.11 73.1101 109.11Z" stroke="#00BDFF" stroke-width="1" stroke-miterlimit="10"/>
<path d="M177.97 221.54C177.97 221.54 156.43 204.44 149.43 196.69C142.43 188.94 138.28 193.48 138.28 193.48C138.28 193.48 135.26 197.64 129.97 197.26C124.68 196.88 44.1699 189.13 44.1699 189.13L24.14 186.11C24.14 186.11 18.86 184.35 15.41 180.12C14.38 178.86 12.3999 178.83 11.4199 180.13C10.5799 181.24 9.85997 182.98 9.77997 185.73C9.58997 192.53 9.69995 198.16 9.69995 198.16" stroke="#00BDFF" stroke-miterlimit="10"/>
<path d="M151.13 189.31C151.13 189.31 196.67 189.14 214.43 187.83C215.62 187.74 216.47 188.96 215.98 190.04L212.55 197.62C212.55 197.62 211.23 201.21 207.07 201.21C202.91 201.21 181.94 202.15 181.94 202.15L168.16 190.06" stroke="#00BDFF" stroke-miterlimit="10"/>
<path d="M4.9601 173.35L7.30007 173.7C8.43007 173.87 9.01006 175.13 8.42006 176.1L6.49007 179.26" stroke="#00BDFF" stroke-width="1" stroke-miterlimit="10"/>
<path d="M202.45 20.67C202.45 20.67 189.49 16.87 152.36 17.44C115.23 18.01 46.34 21.6 46.34 21.6" stroke="#00BDFF" stroke-width="1" stroke-miterlimit="10"/>
<path d="M129.57 18.18L126.29 14.04C125.9 13.59 125.68 13.1 125.03 12.63C124.5 12.25 123.53 11.21 119.37 11.21C113.54 11.21 89.8401 12.61 86.8101 12.79C86.6101 12.8 86.4101 12.8 86.2101 12.79C85.2101 12.75 81.7801 12.76 80.8201 14.69C79.6901 16.96 77.7001 20.56 77.7001 20.56" stroke="#00BDFF" stroke-width="1.5" stroke-miterlimit="10"/>
<path d="M118.91 3.21C118.91 3.21 242.64 -3.25001 292.53 6.38999C292.53 6.38999 305 9.37 311.38 11.21" stroke="#00BDFF" stroke-width="0.5" stroke-miterlimit="10"/>
<path d="M202.53 11.3C202.53 11.3 263.76 -3.72001 316.77 13.85C316.77 13.85 331.01 18.99 341.71 29.06C352.41 39.13 367.22 57.14 367.22 57.14" stroke="#00BDFF" stroke-miterlimit="10"/>
<path d="M358.44 51.46L364.11 73.29L330.38 70.46C330.38 70.46 316.92 26.94 313.57 19.89C313.46 19.66 313.59 19.39 313.84 19.34C316.07 18.81 326.96 18.74 358.45 51.47L358.44 51.46Z" stroke="#00BDFF" stroke-width="1" stroke-miterlimit="10"/>
<path d="M380.52 76.12C380.52 76.12 296.05 69.6 264.58 64.21C264.58 64.21 247.86 61.94 239.35 52.3C230.84 42.66 217.81 27.36 217.81 27.36C217.81 27.36 213.84 21.69 219.51 20.56C219.51 20.56 261.89 11.63 283.15 11.91C283.15 11.91 311.35 10.78 329.5 20.13" stroke="#00BDFF" stroke-width="1" stroke-miterlimit="10"/>
<path d="M181.94 105.55L215.43 106.17C215.43 106.17 220.39 99.93 223.23 94.26C226.07 88.59 233.29 85.9 238.25 84.91C243.21 83.92 242.93 82.78 244.49 77.68C246.05 72.58 244.49 71.87 244.49 71.87C244.49 71.87 208.78 71.31 184.08 74.7" stroke="#00BDFF" stroke-miterlimit="10"/>
<path d="M183.4 74.7C183.4 74.7 135.49 84.53 136.2 88.9C136.2 88.9 133.08 89.72 145.13 98.37C157.18 107.02 181.94 105.55 181.94 105.55" stroke="#00BDFF" stroke-miterlimit="10"/>
<path d="M243.66 175.6C243.66 175.6 258.09 125.44 281.05 126.01C304.01 126.58 298.91 178.26 298.91 178.26L302.88 187.84L301.94 193.48" stroke="#00BDFF" stroke-width="1" stroke-miterlimit="10"/>
<path d="M380.36 144.78L297.37 163.42" stroke="#00BDFF" stroke-width="1" stroke-miterlimit="10"/>
<path d="M367.23 58.54C367.23 58.54 367.32 71.2 368.65 74.04L384.52 72.43C384.52 72.43 387.45 71.67 388.87 67.8C390.29 63.93 390.29 60.15 390.29 60.15C390.29 60.15 382.35 54.95 370.64 56.09C370.64 56.09 366.67 56.47 367.24 58.55L367.23 58.54Z" stroke="#00BDFF" stroke-width="1" stroke-miterlimit="10"/>
<path d="M368.93 57.98C368.93 57.98 368.36 68.18 370.06 72.34L380.36 71.68C380.36 71.68 385.08 71.59 386.22 67.24C387.36 62.89 387.92 60.81 387.92 60.81C387.92 60.81 383.95 57.79 377.72 57.6C371.49 57.41 368.93 57.98 368.93 57.98Z" stroke="#00BDFF" stroke-width="0.5" stroke-miterlimit="10"/>
<path d="M377.72 73.12C377.72 73.12 383.11 79.14 389.34 79.99C395.57 80.84 397.84 83.86 397.84 83.86C397.84 83.86 402.56 93.49 404.08 105.64C404.08 105.64 398.34 94.95 391.7 102.68C385.06 110.41 377.21 143.44 377.21 143.44L373.59 152.65L376.01 158.32L371.77 164.93" stroke="#00BDFF" stroke-width="1" stroke-miterlimit="10"/>
<path d="M404.08 126.29C404.74 124.21 404.69 103.96 403.93 104.53" stroke="#00BDFF" stroke-width="1" stroke-miterlimit="10"/>
<path d="M303.16 17.3C303.16 17.3 318.75 59.11 318.75 68.47C318.75 68.47 278.36 64.22 277.36 64.08L266.3 17.31C266.3 17.31 288.55 14.05 303.15 17.31L303.16 17.3Z" stroke="#00BDFF" stroke-width="1" stroke-miterlimit="10"/>
<path d="M259.92 17.38C259.92 17.38 266.31 47.63 265.61 62.37C265.61 62.37 244.21 58.97 236.55 50.18C228.89 41.39 218.69 28.49 218.69 28.49C218.69 28.49 216.14 26.08 220.53 24.8C224.92 23.52 257.92 16.46 259.92 17.37V17.38Z" stroke="#00BDFF" stroke-width="1" stroke-miterlimit="10"/>
<path d="M306.28 14.18L307.27 15.85C307.27 15.85 320.59 41.96 324.99 69.17" stroke="#00BDFF" stroke-width="0.5" stroke-miterlimit="10"/>
<path d="M271.316 243.288C261.582 242.594 254.93 224.654 256.459 203.219C257.988 181.784 267.119 164.971 276.853 165.665C286.587 166.359 293.239 184.299 291.71 205.734C290.181 227.169 281.05 243.982 271.316 243.288Z" stroke="#00BDFF" stroke-width="0.5" stroke-miterlimit="10"/>
<path d="M392.096 172.282C387.193 171.933 384.021 160.395 385.011 146.513C386.002 132.631 390.779 121.66 395.682 122.01C400.585 122.36 403.757 133.897 402.766 147.779C401.776 161.662 396.999 172.632 392.096 172.282Z" stroke="#00BDFF" stroke-width="0.5" stroke-miterlimit="10"/>
<path d="M268.056 256.128C255.149 255.207 246.329 231.418 248.357 202.992C250.384 174.566 262.491 152.269 275.399 153.19C288.306 154.11 297.126 177.9 295.098 206.326C293.07 234.752 280.963 257.049 268.056 256.128Z" stroke="#00BDFF" stroke-width="1.5" stroke-miterlimit="10"/>
<path d="M380.52 158.04C381.32 170.99 385.06 180.42 390.19 180.78C396.83 181.25 403.29 166.41 404.63 147.62C405.97 128.83 401.68 113.22 395.04 112.75C392.03 112.53 389.05 115.48 386.57 120.52" stroke="#00BDFF" stroke-width="1" stroke-miterlimit="10"/>
<path d="M389.81 180.96L369.59 179.11C369.59 179.11 364.59 177.5 362.13 168.15" stroke="#00BDFF" stroke-width="0.5" stroke-miterlimit="10"/>
<path d="M267.24 256.29L236.36 254.04C236.36 254.04 217.56 245.91 217.84 221.54" stroke="#00BDFF" stroke-width="1" stroke-miterlimit="10"/>
<path d="M103.85 213.02C97.3501 221.75 85.7401 227.56 72.5001 227.56C55.3901 227.56 41.0001 217.85 36.8401 204.69" stroke="#00BDFF" stroke-width="1.5" stroke-miterlimit="10"/>
<path d="M270.14 65.5C270.14 65.5 275.11 68.46 276.24 79.8C277.37 91.14 275.96 102.76 281.34 110.13C286.72 117.5 284.88 126 284.88 126" stroke="#00BDFF" stroke-width="1" stroke-miterlimit="10"/>
<path d="M327.54 72.9C327.54 72.9 333.21 76.4 336.61 87.74V154.1L334.34 178.26" stroke="#00BDFF" stroke-width="0.5" stroke-miterlimit="10"/>
<path d="M370.35 75.53C370.35 75.53 388.12 90.01 375.97 143.44" stroke="#00BDFF" stroke-width="0.5" stroke-miterlimit="10"/>
<path d="M47.1568 112.762L110.135 114.774C111.912 114.831 113.307 116.318 113.25 118.096L112.752 133.678C112.696 135.455 111.209 136.85 109.431 136.793L46.4533 134.781C44.6759 134.724 43.281 133.237 43.3378 131.46L43.8356 115.878C43.8924 114.1 45.3794 112.705 47.1568 112.762Z" stroke="#00BDFF" stroke-width="1.5" stroke-miterlimit="10"/>
<path d="M273.792 208.566C272.768 208.493 272.068 206.603 272.229 204.344C272.39 202.086 273.351 200.314 274.376 200.387C275.401 200.46 276.101 202.35 275.939 204.609C275.778 206.868 274.817 208.639 273.792 208.566Z" stroke="#00BDFF" stroke-width="0.5" stroke-miterlimit="10"/>
<path d="M393.617 150.955C392.736 150.892 392.134 149.265 392.272 147.32C392.411 145.376 393.238 143.85 394.119 143.913C395.001 143.976 395.603 145.603 395.464 147.548C395.325 149.493 394.498 151.018 393.617 150.955Z" stroke="#00BDFF" stroke-width="0.5" stroke-miterlimit="10"/>
</svg>
