<svg width="405" height="257" viewBox="0 0 405 257" fill="none" xmlns="http://www.w3.org/2000/svg">
<path d="M1.67999 126.29C2.24999 102.76 9.33 105.31 11.03 105.43C19.78 106.04 26.62 152.08 26.62 152.08L24.07 156.9L26.62 158.03C27.47 164.55 33.99 165.53 33.99 165.53C42.21 165.37 108.82 195.73 108.82 195.73C108.82 195.73 104.85 189.49 108.82 181.27C108.82 181.27 105.42 148.96 115.34 137.9C125.26 126.84 139.43 144.14 139.43 144.14C139.43 144.14 156.44 165.12 160.12 195.73C160.12 195.73 162.05 205.08 161.65 210.47L166.07 221.53H235.52C235.52 221.53 240.34 216.14 249.69 221.53C249.69 221.53 264.71 205.09 275.49 210.47C275.49 210.47 278.04 211.6 277.76 215.57L359.11 206.92L363.36 208.2C363.36 208.2 366.98 205.7 371.04 203.12C375.1 200.54 379.79 197.79 381.5 197.57C384.9 197.14 384.19 198.56 384.19 198.56C384.19 198.56 382.77 201.39 380.08 203.8" stroke="#00BDFF" stroke-miterlimit="10"/>
<path d="M369.87 203.97L380.58 203.82" stroke="#00BDFF" stroke-width="1.5" stroke-miterlimit="10"/>
<path d="M384.74 60.72C385.02 64.78 381.81 67.05 381.81 67.05C371.04 76.69 360.83 75.18 360.83 75.18L317.37 76.5C279.39 78.39 264.65 73.29 264.65 73.29C207.96 57.79 210.41 52.12 210.41 52.12C210.41 52.12 200.39 15.84 203.23 11.3C206.07 6.76001 213.62 5.44001 213.62 5.44001C213.62 5.44001 288.55 -3.44 356.58 14.23C360.72 15.3 359.41 21.6 359.41 21.6L384.73 60.72L393.71 69.89V72.54C394.84 73.01 395.98 74.71 396.17 75.28C396.36 75.85 400.14 85.2 400.14 85.2L399.01 97.39L398.07 99L399.2 101.27L398.63 117.99L398.91 133.39C398.91 133.39 399.76 134.62 402.97 141.42C406.18 148.22 402.97 151.25 402.97 151.25L402.4 163.44L403.06 164.95C403.06 164.95 402.21 167.41 403.72 168.98C405.23 170.55 403.72 172.04 403.72 172.04L400.79 173.36C401.01 174.02 399.82 177.65 399.27 179.28C399.09 179.8 399.07 180.36 399.2 180.9L400.57 186.47C400.71 187.04 400.66 187.64 400.43 188.18L396.81 196.7C394.07 202.18 393.41 201.24 393.41 201.24L381.71 202.18" stroke="#00BDFF" stroke-width="1.5" stroke-miterlimit="10"/>
<path d="M399.63 162.43L241.89 177.52C239.71 177.73 237.67 176.42 236.94 174.36L233.83 165.53C234.4 162.54 233.83 160.02 233.83 160.02C233.83 160.02 230.05 149.82 229.29 149.25C228.53 148.68 226.83 141.31 226.83 141.31L224.75 108.19L223.62 105.03C224.19 89.72 221.92 75.74 221.92 75.74L220.98 71.77L216.56 57.04" stroke="#00BDFF" stroke-miterlimit="10"/>
<path d="M393.44 73.28C393.44 73.28 397.44 74.22 378.63 85.56C378.63 85.56 376.03 88.02 381.83 92.93C387.63 97.84 389.03 99.73 389.03 99.73H398.43" stroke="#00BDFF" stroke-miterlimit="10"/>
<path d="M397.3 99.74V128.28C397.3 128.28 397.54 133.67 398.81 137.63C400.08 141.59 402.21 144.01 401.93 147.13C401.65 150.25 399.63 162.44 399.63 162.44" stroke="#00BDFF" stroke-width="1" stroke-miterlimit="10"/>
<path d="M237.61 175.6L227.18 180.1C226.08 180.57 224.9 180.83 223.71 180.85C218.17 180.95 201.49 181.12 194.91 179.87C186.97 178.36 155.63 175.61 155.63 175.61" stroke="#00BDFF" stroke-width="1.5" stroke-miterlimit="10"/>
<path d="M229.3 149.25C230.15 149.25 394.56 141.03 398.81 137.63" stroke="#00BDFF" stroke-width="0.5" stroke-miterlimit="10"/>
<path d="M273.24 113.68L374.55 109.51C375.63 109.47 376.37 108.41 376.04 107.38C375.24 104.87 373.31 100.69 369.01 98.45C368.37 98.12 367.67 97.94 366.96 97.91C361.81 97.74 337.4 96.98 329.93 97.23C321.57 97.51 292.65 99.73 292.65 99.73C292.65 99.73 284.71 100.2 276.78 107.15C268.85 114.1 273.24 113.67 273.24 113.67V113.68Z" stroke="#00BDFF" stroke-width="1" stroke-miterlimit="10"/>
<path d="M332.65 109.11C338.04 109.11 342.41 107.203 342.41 104.85C342.41 102.497 338.04 100.59 332.65 100.59C327.26 100.59 322.89 102.497 322.89 104.85C322.89 107.203 327.26 109.11 332.65 109.11Z" stroke="#00BDFF" stroke-width="1" stroke-miterlimit="10"/>
<path d="M227.79 221.54C227.79 221.54 249.33 204.44 256.33 196.69C263.33 188.94 267.48 193.48 267.48 193.48C267.48 193.48 270.5 197.64 275.79 197.26C281.08 196.88 361.59 189.13 361.59 189.13L381.62 186.11C381.62 186.11 386.9 184.35 390.35 180.12C391.38 178.86 393.36 178.83 394.34 180.13C395.18 181.24 395.9 182.98 395.98 185.73C396.17 192.53 396.06 198.16 396.06 198.16" stroke="#00BDFF" stroke-miterlimit="10"/>
<path d="M254.63 189.31C254.63 189.31 209.09 189.14 191.33 187.83C190.14 187.74 189.29 188.96 189.78 190.04L193.21 197.62C193.21 197.62 194.53 201.21 198.69 201.21C202.85 201.21 223.82 202.15 223.82 202.15L237.6 190.06" stroke="#00BDFF" stroke-miterlimit="10"/>
<path d="M400.8 173.35L398.46 173.7C397.33 173.87 396.75 175.13 397.34 176.1L399.27 179.26" stroke="#00BDFF" stroke-width="1" stroke-miterlimit="10"/>
<path d="M203.31 20.67C203.31 20.67 216.27 16.87 253.4 17.44C290.53 18.01 359.42 21.6 359.42 21.6" stroke="#00BDFF" stroke-width="1" stroke-miterlimit="10"/>
<path d="M276.19 18.18L279.47 14.04C279.86 13.59 280.08 13.1 280.73 12.63C281.26 12.25 282.23 11.21 286.39 11.21C292.22 11.21 315.92 12.61 318.95 12.79C319.15 12.8 319.35 12.8 319.55 12.79C320.55 12.75 323.98 12.76 324.94 14.69C326.07 16.96 328.06 20.56 328.06 20.56" stroke="#00BDFF" stroke-width="1.5" stroke-miterlimit="10"/>
<path d="M286.85 3.21C286.85 3.21 163.12 -3.25001 113.23 6.38999C113.23 6.38999 100.76 9.37 94.38 11.21" stroke="#00BDFF" stroke-width="0.5" stroke-miterlimit="10"/>
<path d="M203.23 11.3C203.23 11.3 142 -3.72001 88.99 13.85C88.99 13.85 74.75 18.99 64.05 29.06C53.35 39.13 38.54 57.14 38.54 57.14" stroke="#00BDFF" stroke-miterlimit="10"/>
<path d="M47.32 51.46L41.65 73.29L75.38 70.46C75.38 70.46 88.84 26.94 92.19 19.89C92.3 19.66 92.17 19.39 91.92 19.34C89.69 18.81 78.8 18.74 47.31 51.47L47.32 51.46Z" stroke="#00BDFF" stroke-width="1" stroke-miterlimit="10"/>
<path d="M25.24 76.12C25.24 76.12 109.71 69.6 141.18 64.21C141.18 64.21 157.9 61.94 166.41 52.3C174.92 42.66 187.95 27.36 187.95 27.36C187.95 27.36 191.92 21.69 186.25 20.56C186.25 20.56 143.87 11.63 122.61 11.91C122.61 11.91 94.41 10.78 76.26 20.13" stroke="#00BDFF" stroke-width="1" stroke-miterlimit="10"/>
<mask id="path-20-inside-1_1838_90" fill="white">
<path d="M220.66 74.7C220.66 74.7 187.44 69.31 162.1 71.72Z"/>
</mask>
<path d="M220.66 74.7C220.82 73.7129 220.82 73.7129 220.82 73.7128C220.819 73.7128 220.819 73.7127 220.818 73.7126C220.817 73.7124 220.815 73.7122 220.813 73.7118C220.809 73.7111 220.803 73.7101 220.794 73.7088C220.778 73.7061 220.753 73.7022 220.721 73.697C220.656 73.6868 220.561 73.6716 220.435 73.652C220.183 73.6128 219.812 73.5557 219.33 73.484C218.368 73.3407 216.966 73.1388 215.205 72.9042C211.684 72.4352 206.726 71.835 200.973 71.3104C189.48 70.2623 174.768 69.5107 162.005 70.7245L162.195 72.7155C174.772 71.5193 189.34 72.2578 200.792 73.3021C206.511 73.8238 211.442 74.4205 214.941 74.8867C216.691 75.1198 218.082 75.3202 219.036 75.4622C219.512 75.5332 219.879 75.5896 220.127 75.6281C220.25 75.6474 220.344 75.6622 220.407 75.6722C220.438 75.6772 220.462 75.6809 220.477 75.6834C220.485 75.6847 220.491 75.6856 220.494 75.6862C220.496 75.6865 220.498 75.6868 220.499 75.6869C220.499 75.687 220.499 75.687 220.5 75.6871C220.5 75.6871 220.5 75.6871 220.66 74.7Z" fill="#00BDFF" mask="url(#path-20-inside-1_1838_90)"/>
<path d="M223.82 105.55L190.33 106.17C190.33 106.17 185.37 99.93 182.53 94.26C179.69 88.59 172.47 85.9 167.51 84.91C162.55 83.92 162.83 82.78 161.27 77.68C159.71 72.58 161.27 71.87 161.27 71.87C161.27 71.87 196.98 71.31 221.68 74.7" stroke="#00BDFF" stroke-miterlimit="10"/>
<path d="M222.36 74.7C222.36 74.7 270.27 84.53 269.56 88.9C269.56 88.9 272.68 89.72 260.63 98.37C248.58 107.02 223.82 105.55 223.82 105.55" stroke="#00BDFF" stroke-miterlimit="10"/>
<path d="M162.1 175.6C162.1 175.6 147.67 125.44 124.71 126.01C101.75 126.58 106.85 178.26 106.85 178.26L102.88 187.84L103.82 193.48" stroke="#00BDFF" stroke-width="1" stroke-miterlimit="10"/>
<path d="M25.4 144.78L108.39 163.42" stroke="#00BDFF" stroke-width="1" stroke-miterlimit="10"/>
<path d="M38.53 58.54C38.53 58.54 38.44 71.2 37.11 74.04L21.24 72.43C21.24 72.43 18.31 71.67 16.89 67.8C15.47 63.93 15.47 60.15 15.47 60.15C15.47 60.15 23.41 54.95 35.12 56.09C35.12 56.09 39.09 56.47 38.52 58.55L38.53 58.54Z" stroke="#00BDFF" stroke-width="1" stroke-miterlimit="10"/>
<path d="M36.83 57.98C36.83 57.98 37.4 68.18 35.7 72.34L25.4 71.68C25.4 71.68 20.68 71.59 19.54 67.24C18.4 62.89 17.84 60.81 17.84 60.81C17.84 60.81 21.81 57.79 28.04 57.6C34.27 57.41 36.83 57.98 36.83 57.98Z" stroke="#00BDFF" stroke-width="0.5" stroke-miterlimit="10"/>
<path d="M28.04 73.12C28.04 73.12 22.65 79.14 16.42 79.99C10.19 80.84 7.92001 83.86 7.92001 83.86C7.92001 83.86 3.19999 93.49 1.67999 105.64C1.67999 105.64 7.42 94.95 14.06 102.68C20.7 110.41 28.55 143.44 28.55 143.44L32.17 152.65L29.75 158.32L33.99 164.93" stroke="#00BDFF" stroke-width="1" stroke-miterlimit="10"/>
<path d="M1.67999 126.29C1.01999 124.21 1.06999 103.96 1.82999 104.53" stroke="#00BDFF" stroke-width="1" stroke-miterlimit="10"/>
<path d="M102.6 17.3C102.6 17.3 87.01 59.11 87.01 68.47C87.01 68.47 127.4 64.22 128.4 64.08L139.46 17.31C139.46 17.31 117.21 14.05 102.61 17.31L102.6 17.3Z" stroke="#00BDFF" stroke-width="1" stroke-miterlimit="10"/>
<path d="M145.84 17.38C145.84 17.38 139.45 47.63 140.15 62.37C140.15 62.37 161.55 58.97 169.21 50.18C176.87 41.39 187.07 28.49 187.07 28.49C187.07 28.49 189.62 26.08 185.23 24.8C180.84 23.52 147.84 16.46 145.84 17.37V17.38Z" stroke="#00BDFF" stroke-width="1" stroke-miterlimit="10"/>
<path d="M99.48 14.18L98.49 15.85C98.49 15.85 85.17 41.96 80.77 69.17" stroke="#00BDFF" stroke-width="0.5" stroke-miterlimit="10"/>
<path d="M134.444 243.288C144.178 242.594 150.83 224.654 149.301 203.219C147.772 181.784 138.641 164.971 128.907 165.665C119.173 166.359 112.522 184.299 114.051 205.734C115.579 227.169 124.71 243.982 134.444 243.288Z" stroke="#00BDFF" stroke-width="0.5" stroke-miterlimit="10"/>
<path d="M13.6641 172.282C18.567 171.933 21.7388 160.395 20.7486 146.513C19.7583 132.631 14.981 121.66 10.0782 122.01C5.17528 122.36 2.00342 133.897 2.99365 147.779C3.98387 161.662 8.7612 172.632 13.6641 172.282Z" stroke="#00BDFF" stroke-width="0.5" stroke-miterlimit="10"/>
<path d="M137.704 256.128C150.611 255.207 159.431 231.418 157.403 202.992C155.376 174.566 143.269 152.269 130.361 153.19C117.454 154.11 108.634 177.9 110.662 206.326C112.69 234.752 124.797 257.049 137.704 256.128Z" stroke="#00BDFF" stroke-width="1.5" stroke-miterlimit="10"/>
<path d="M25.24 158.04C24.44 170.99 20.7001 180.42 15.5701 180.78C8.93005 181.25 2.47005 166.41 1.13005 147.62C-0.209952 128.83 4.08004 113.22 10.72 112.75C13.73 112.53 16.71 115.48 19.19 120.52" stroke="#00BDFF" stroke-width="1" stroke-miterlimit="10"/>
<path d="M15.95 180.96L36.17 179.11C36.17 179.11 41.17 177.5 43.63 168.15" stroke="#00BDFF" stroke-width="0.5" stroke-miterlimit="10"/>
<path d="M138.52 256.29L169.4 254.04C169.4 254.04 188.2 245.91 187.92 221.54" stroke="#00BDFF" stroke-width="1" stroke-miterlimit="10"/>
<path d="M301.91 213.02C308.41 221.75 320.02 227.56 333.26 227.56C350.37 227.56 364.76 217.85 368.92 204.69" stroke="#00BDFF" stroke-width="1.5" stroke-miterlimit="10"/>
<path d="M135.62 65.5C135.62 65.5 130.65 68.46 129.52 79.8C128.39 91.14 129.8 102.76 124.42 110.13C119.04 117.5 120.88 126 120.88 126" stroke="#00BDFF" stroke-width="1" stroke-miterlimit="10"/>
<path d="M78.22 72.9C78.22 72.9 72.55 76.4 69.15 87.74V154.1L71.42 178.26" stroke="#00BDFF" stroke-width="0.5" stroke-miterlimit="10"/>
<path d="M35.41 75.53C35.41 75.53 17.64 90.01 29.79 143.44" stroke="#00BDFF" stroke-width="0.5" stroke-miterlimit="10"/>
<path d="M358.603 112.762L295.625 114.774C293.848 114.831 292.453 116.318 292.51 118.096L293.008 133.678C293.064 135.455 294.551 136.85 296.329 136.793L359.307 134.781C361.084 134.724 362.479 133.237 362.422 131.46L361.924 115.878C361.868 114.1 360.381 112.705 358.603 112.762Z" stroke="#00BDFF" stroke-width="1.5" stroke-miterlimit="10"/>
<path d="M131.967 208.566C132.992 208.493 133.692 206.603 133.531 204.344C133.37 202.086 132.409 200.314 131.384 200.387C130.359 200.46 129.659 202.35 129.82 204.609C129.982 206.868 130.943 208.639 131.967 208.566Z" stroke="#00BDFF" stroke-width="0.5" stroke-miterlimit="10"/>
<path d="M12.1428 150.955C13.0242 150.892 13.6263 149.265 13.4876 147.32C13.3489 145.376 12.5219 143.85 11.6405 143.913C10.7591 143.976 10.157 145.603 10.2957 147.548C10.4344 149.493 11.2614 151.018 12.1428 150.955Z" stroke="#00BDFF" stroke-width="0.5" stroke-miterlimit="10"/>
</svg>
