<svg width="736" height="461" viewBox="0 0 736 461" fill="none" xmlns="http://www.w3.org/2000/svg">
<path d="M220.09 410.78C209.26 414.59 198.19 412.98 198.19 412.98L147.54 403.51C147.54 403.51 35.66 380.38 30.37 378.72C25.08 377.06 23.44 373.12 23.44 373.12C21.69 371.77 20.09 370.38 18.65 368.96C-3.06002 347.75 8.18999 320.78 8.18999 320.78C8.18999 320.78 2.12 303.88 1.14 269.43C1.14 269.43 0.159974 265.49 3.26997 260.9C6.38997 256.31 2.77998 250.56 2.77998 250.56C2.77998 250.56 -0.0100279 235.8 9.82997 223.49C9.82997 223.49 5.96998 204.3 19.84 187.56C19.84 187.56 27.8 182.15 52.16 172.06L127.46 137.36L164.37 122.6C164.37 122.6 173.05 118.32 189.47 103.41C208.17 86.43 294.55 30.32 294.55 30.32C294.55 30.32 338.11 9.39998 424.73 3.98998C424.73 3.98998 558.35 -7.08002 632.18 9.64998C632.18 9.64998 664.42 15.72 686.07 30.9L690.5 39.92C690.5 39.92 701.08 53.21 709.2 82.49C709.2 82.49 716.4 88.87 719.86 92.73C721.01 94.02 721.75 95.02 721.67 95.42C721.34 97.01 726.1 95.88 732.66 110.31C732.66 110.31 728.39 159.68 732.66 170.67C736.93 181.66 734.14 210.04 734.14 210.04" stroke="#00BDFF" stroke-width="1.5" stroke-miterlimit="10"/>
<path d="M8.17004 320.79C8.17004 320.79 5.80004 344.58 12.2 349.66" stroke="#00BDFF" stroke-width="2" stroke-miterlimit="10"/>
<path d="M12.2 349.66C12.2 349.66 18.67 339.16 19.82 331.78L11.1 271.74L4.55997 269.44C4.55997 269.44 2.63997 269.48 1.21997 272.58" stroke="#00BDFF" stroke-width="1.5" stroke-miterlimit="10"/>
<path d="M26.88 328.82L15.89 273.04C15.89 273.04 22.2 274.15 32.7 275.89C66.5 281.5 143.74 293.73 193.9 296.94C194.17 296.96 194.45 296.97 194.72 296.99L194.45 296.97C194.45 296.97 198.66 297.48 197.18 300.92C195.7 304.36 180.45 363.1 180.45 363.1C180.45 363.1 176.35 374.75 163.88 372.29C151.41 369.83 42.48 349.65 42.48 349.65C42.48 349.65 32.76 348.35 29.52 337.02C26.28 325.69 26.9 328.82 26.9 328.82H26.88Z" stroke="#00BDFF" stroke-width="2" stroke-miterlimit="10"/>
<path d="M34.79 313.59L37.71 325.54L29.88 327.34C29.88 327.34 31.32 331.61 35.42 331.61L168.55 352.69C168.55 352.69 179.62 353.67 183.56 351.71" stroke="#00BDFF" stroke-width="2" stroke-miterlimit="10"/>
<path d="M39.82 332.31C39.82 332.31 44.43 343.26 51.48 345.56C58.53 347.86 168.29 366.89 168.29 366.89C168.29 366.89 176.47 367.37 179.93 364.26" stroke="#00BDFF" stroke-width="2" stroke-miterlimit="10"/>
<path d="M29.87 275.43C29.87 275.43 28.68 276.82 28.68 279.45C28.68 282.08 29.87 287.27 29.87 287.27L22.12 290.44C22.12 290.44 21.63 292.74 23.43 293.39C25.23 294.04 162.65 319.71 192.54 317.21" stroke="#00BDFF" stroke-width="2" stroke-miterlimit="10"/>
<path d="M29.87 287.26C29.87 287.26 141.29 311.16 194.44 310.23" stroke="#00BDFF" stroke-width="2" stroke-miterlimit="10"/>
<path d="M31.47 295.19L33.44 306.51L26.3 309.06C26.3 309.06 26.3 310.37 27.78 312.09C27.78 312.09 136.32 335.96 187.74 335.22" stroke="#00BDFF" stroke-width="2" stroke-miterlimit="10"/>
<path d="M189.21 328.82C189.21 328.82 88.81 322.84 33.44 306.51" stroke="#00BDFF" stroke-width="2" stroke-miterlimit="10"/>
<path d="M184.25 347.03C184.25 347.03 70.46 334.45 37.71 325.54" stroke="#00BDFF" stroke-width="2" stroke-miterlimit="10"/>
<path d="M19.82 370.08L35.65 360.32C35.65 360.32 36.88 357.37 45.49 359.09C54.1 360.81 169.52 383.21 169.52 383.21C169.52 383.21 182.56 384.93 186.5 390.35C190.44 395.76 199.79 403.39 199.79 403.39C199.79 403.39 209.14 410.53 215.54 410.77C221.09 410.98 271.93 407.68 285.38 406.8C287.57 406.66 289.72 406.39 291.87 406C308.95 402.88 388.27 388.18 404.41 381.27C408.59 379.48 412.88 377.96 417.19 376.53L417.82 376.32C417.82 376.32 414.87 398.71 417.82 407.08C417.82 407.08 364.42 425.29 305.61 423.57C305.61 423.57 287.31 421.17 268.85 407.87" stroke="#00BDFF" stroke-width="1.5" stroke-miterlimit="10"/>
<path d="M66.29 364.14C66.29 364.14 64.57 372.51 62.11 374.48" stroke="#00BDFF" stroke-width="2" stroke-miterlimit="10"/>
<path d="M74.41 366.91C74.41 366.91 74.41 369.67 75.89 370.53C77.37 371.39 103.82 376.44 103.82 376.44" stroke="#00BDFF" stroke-width="2" stroke-miterlimit="10"/>
<path d="M105.79 371.68L101.73 382.47" stroke="#00BDFF" stroke-width="2" stroke-miterlimit="10"/>
<path d="M147.54 378.94L144.55 389.36" stroke="#00BDFF" stroke-width="2" stroke-miterlimit="10"/>
<path d="M113.05 373.86L114.4 378.78C114.89 379.03 146.27 383.58 146.27 383.58" stroke="#00BDFF" stroke-width="2" stroke-miterlimit="10"/>
<path d="M28.34 364.83C28.34 364.83 38.61 363.31 47.84 364.83C57.07 366.35 58.18 366.35 58.18 366.35L65.26 368.13" stroke="#00BDFF" stroke-width="2" stroke-miterlimit="10"/>
<path d="M154.94 380.38L157.1 385.3L186.02 389.75" stroke="#00BDFF" stroke-width="2" stroke-miterlimit="10"/>
<path d="M304.42 423.37C304.42 423.37 323 432.02 202.58 413.32" stroke="#00BDFF" stroke-width="2" stroke-miterlimit="10"/>
<path d="M273.61 223.01C273.61 223.01 257.12 242.2 254.66 260.91C254.66 260.91 336.36 268.78 397.39 241.96C397.39 241.96 426.43 208.74 435.04 186.84L431.17 181.34" stroke="#00BDFF" stroke-miterlimit="10"/>
<path d="M206.19 298.76C206.19 298.76 288.38 290.19 336.37 347.03C336.37 347.03 335.14 357.37 321.36 368.69C321.36 368.69 297.98 375.58 224.4 376.32" stroke="#00BDFF" stroke-width="1.5" stroke-miterlimit="10"/>
<path d="M210.13 352.94L214.56 339.65" stroke="#00BDFF" stroke-width="1.5" stroke-miterlimit="10"/>
<path d="M216.65 333.26L219.97 319.23" stroke="#00BDFF" stroke-width="1.5" stroke-miterlimit="10"/>
<path d="M221.69 313.59L226.37 298.49" stroke="#00BDFF" stroke-width="1.5" stroke-miterlimit="10"/>
<path d="M329.59 339.65H325.05C316.68 339.4 296.75 344.57 296.75 344.57C281.99 353.68 273.13 355.4 273.13 355.4L210.13 358.55C212.34 372.04 224.4 376.32 224.4 376.32" stroke="#00BDFF" stroke-width="1.5" stroke-miterlimit="10"/>
<path d="M313.23 326.25L214.55 333.27C214.55 333.27 204.21 336.7 212.34 338.67C220.46 340.64 256.14 337.31 256.14 337.31L317.17 332.31L320.83 331.68" stroke="#00BDFF" stroke-width="2" stroke-miterlimit="10"/>
<path d="M294.55 314.91L216.65 319.23C216.65 319.23 210.62 316.61 217.51 315.21C224.4 313.82 256.88 312.34 256.88 312.34L283.58 310.13" stroke="#00BDFF" stroke-width="2" stroke-miterlimit="10"/>
<path d="M210.13 358.55C210.13 358.55 202.99 358.11 204.22 355.89C205.45 353.67 216.65 352.94 216.65 352.94L273.62 349.61C273.62 349.61 271.64 350.31 294.55 339.65L324.96 335.24" stroke="#00BDFF" stroke-width="2" stroke-miterlimit="10"/>
<path d="M29.87 209.04L26.3 227.2C26.3 227.2 24.09 233.77 31.63 235.86C39.18 237.95 111.32 247.46 111.32 247.46L192.54 253.04H204.08C204.08 253.04 213.04 252.38 218.31 247.13C223.58 241.88 234.74 227.2 234.74 227.2" stroke="#00BDFF" stroke-width="1.5" stroke-miterlimit="10"/>
<path d="M455.22 133.68C455.22 133.68 490.66 122.11 500.5 102.92C510.34 83.73 539.87 35.99 539.87 35.99C539.87 35.99 549.22 24.18 537.41 22.7C527.44 21.45 435.83 19.51 407.45 18.93C401.91 18.82 396.37 19.07 390.86 19.7L301.17 29.84C301.17 29.84 286.16 37.96 271.27 47.8C256.38 57.64 221.44 82.74 221.44 82.74L166.81 125.07C166.81 125.07 163.36 132.45 175.42 133.19C187.48 133.93 276.56 136.39 276.56 136.39L396.65 142.3C396.65 142.3 444.39 136.89 455.22 133.69L468.51 134.67C468.51 134.67 471.22 152.63 471.22 161C471.22 169.37 464.58 170.84 464.58 170.84L430.13 181.67C374.76 185.36 281.25 220.55 281.25 220.55L242.12 227.19L197.48 224.73C95.75 220.55 18.67 207.26 18.67 207.26C18.67 207.26 28.27 185.36 52.14 172.07" stroke="#00BDFF" stroke-width="1.5" stroke-miterlimit="10"/>
<path d="M417.82 376.32C417.82 376.32 444.07 271.41 473.93 255.66C498.57 242.66 511.37 252.23 515.09 255.98C515.8 256.7 516.4 257.49 516.89 258.37C519.98 263.83 532.95 290.24 524.63 336.64C524.32 338.39 524.39 340.19 524.88 341.89L528.73 355.24C529.16 356.73 529.28 358.29 529.09 359.83L526.96 376.8C526.36 381.59 522.84 385.58 518.11 386.54C518.04 386.55 517.97 386.57 517.9 386.58" stroke="#00BDFF" stroke-width="2" stroke-miterlimit="10"/>
<path d="M528.65 363.27C528.65 363.27 631.42 302.91 657.99 293.39L684.57 283.87L686.87 269.76L684.57 256.96C684.57 256.96 704.58 183.79 719.02 181.33C733.46 178.87 734.11 210.04 734.11 210.04L731.49 238.59L730.83 249.05" stroke="#00BDFF" stroke-width="1.5" stroke-miterlimit="10"/>
<path d="M607.47 125.73L623.22 120.48C623.22 120.48 662.26 106.04 684.9 93.58C707.54 81.11 691.79 44.69 691.79 44.69L680.31 36.49C680.31 36.49 638.97 17.13 601.89 15.49C564.81 13.85 553 40.1 553 40.1L522.04 100.4L496.23 150.67C496.23 150.67 493.28 158.22 505.42 155.59C517.56 152.97 562.84 140.17 562.84 140.17" stroke="#00BDFF" stroke-width="2" stroke-miterlimit="10"/>
<path d="M522.04 100.39L523.14 108.33C523.14 108.33 529.7 134.25 526.75 144.42L528.65 149.62C528.65 149.62 538.23 196.92 537.25 212.67C536.27 228.42 537.32 311.76 537.32 311.76V334.73L544.88 353.82" stroke="#00BDFF" stroke-width="0.5" stroke-miterlimit="10"/>
<path d="M540.37 129.01C539.63 128.27 541.6 107.6 541.6 107.6C541.6 107.6 554.4 89.64 600.17 103.91L609.28 107.36C609.28 107.36 611.25 128.28 598.94 134.43C586.64 140.58 551.94 139.6 551.94 139.6C551.94 139.6 545.43 139.8 543.39 145.6" stroke="#00BDFF" stroke-width="2" stroke-miterlimit="10"/>
<path d="M607.47 125.73C605.17 130.32 549.97 130.49 549.97 130.49C538.4 133.94 533.47 130.49 533.47 130.49" stroke="#00BDFF" stroke-width="0.5" stroke-miterlimit="10"/>
<path d="M608.95 117.04C608.95 117.04 578.51 120.89 573.59 121.99C568.67 123.09 568.67 127.28 568.67 127.28C568.67 127.28 596.64 127.27 607.47 123.58" stroke="#00BDFF" stroke-width="2" stroke-miterlimit="10"/>
<path d="M504.44 148.36L534.95 84.38L549.71 56.16C549.71 56.16 558.98 27.94 588.8 24.01L599.26 22.04C599.26 22.04 619.6 101.13 615.67 117.04" stroke="#00BDFF" stroke-width="2" stroke-miterlimit="10"/>
<path d="M608.95 120.15C608.95 120.15 677.93 94.69 686.21 88.98C694.49 83.26 692.12 68.31 692.12 68.31L690.48 48.3C690.48 48.3 692.1 43.84 657.34 30.91C636.98 23.34 620.55 21.6 610.43 21.45C603.27 21.35 599.27 22.05 599.27 22.05" stroke="#00BDFF" stroke-width="2" stroke-miterlimit="10"/>
<path d="M606.11 22.04C606.11 22.04 630.75 89.41 627.93 113.03" stroke="#00BDFF" stroke-width="0.5" stroke-miterlimit="10"/>
<path d="M611.23 22.04C611.23 22.04 637.9 86.69 635.08 110.31" stroke="#00BDFF" stroke-width="0.5" stroke-miterlimit="10"/>
<path d="M650.77 28.61C650.77 28.61 670.83 73.01 672.62 95.43" stroke="#00BDFF" stroke-width="0.5" stroke-miterlimit="10"/>
<path d="M657.34 30.9C657.34 30.9 679.85 76.13 679.92 92.23" stroke="#00BDFF" stroke-width="0.5" stroke-miterlimit="10"/>
<path d="M129.22 233.178C129.708 228.72 121.457 224.159 110.789 222.991C100.122 221.822 91.0791 224.489 90.5909 228.947C90.1027 233.405 98.3543 237.966 109.021 239.134C119.689 240.302 128.732 237.636 129.22 233.178Z" stroke="#00BDFF" stroke-width="2" stroke-miterlimit="10"/>
<path d="M719.84 92.74L719.35 96.52L715.91 97.61C714.67 98 714.14 99.47 714.85 100.57L720.35 109.07C720.87 109.88 721.63 110.52 722.52 110.89L727.27 112.91C728.97 113.63 730.16 115.2 730.4 117.03L731.55 125.72" stroke="#00BDFF" stroke-width="2" stroke-miterlimit="10"/>
<path d="M529.17 192.13V189.1C529.17 188.19 528.25 187.56 527.41 187.91C523.68 189.42 515.2 193.04 513.67 195.33C513.67 195.33 511.46 198.28 514.9 198.65L529.17 192.13Z" stroke="#00BDFF" stroke-width="0.5" stroke-miterlimit="10"/>
<path d="M532.62 193.11L535.08 191.51L534.1 189.91L532.01 190.4L530.01 185.97C529.56 184.97 528.36 184.57 527.4 185.1L511.71 193.72C511.71 193.72 508.88 196.55 511.71 199.63C512.95 200.98 514.45 202.16 515.74 203.06C517.5 204.29 519.72 204.62 521.77 204L532.14 200.86L532.63 193.11L516.58 199.62C515.62 200.01 515.64 201.41 516.62 201.72C518.13 202.19 520.44 202.35 523.65 201.11C526.26 200.1 527.89 199.51 528.9 199.16C529.91 198.81 530.54 197.9 530.54 196.85V194.52" stroke="#00BDFF" stroke-width="0.5" stroke-miterlimit="10"/>
<path d="M436.85 376.32C436.85 428.15 448.6 459.84 472.36 459.84C496.12 459.84 521.07 405.65 521.07 353.82C521.07 301.99 510.12 269.42 486.36 269.42C462.6 269.42 436.85 324.48 436.85 376.31V376.32Z" stroke="#00BDFF" stroke-width="2" stroke-miterlimit="10"/>
<path d="M450.54 374.24C450.54 412.66 459.25 436.15 476.86 436.15C494.47 436.15 512.97 395.98 512.97 357.56C512.97 319.14 504.85 295 487.24 295C469.63 295 450.54 335.82 450.54 374.24Z" stroke="#00BDFF" stroke-width="2" stroke-miterlimit="10"/>
<path d="M478.97 366.35C478.97 369.78 479.75 371.87 481.32 371.87C482.89 371.87 484.54 368.29 484.54 364.86C484.54 361.43 483.82 359.28 482.24 359.28C480.66 359.28 478.97 362.92 478.97 366.35Z" stroke="#00BDFF" stroke-width="2" stroke-miterlimit="10"/>
<path d="M469.99 459.84C469.99 459.84 423.07 461.05 410.6 452.85C398.13 444.65 385.01 417.74 385.01 417.74" stroke="#00BDFF" stroke-width="1.5" stroke-miterlimit="10"/>
<path d="M697.7 267.3C697.7 292.56 701.38 309.95 708.86 309.95C716.34 309.95 726.25 279.59 726.25 254.34C726.25 229.09 722.41 217.59 714.93 217.59C707.45 217.59 697.7 242.04 697.7 267.3Z" stroke="#00BDFF" stroke-width="0.5" stroke-miterlimit="10"/>
<path d="M691.22 268.56C691.22 302.59 696.18 326.03 706.25 326.03C716.32 326.03 729.68 285.13 729.68 251.09C729.68 217.05 724.5 201.57 714.43 201.57C704.36 201.57 691.22 234.52 691.22 268.55V268.56Z" stroke="#00BDFF" stroke-width="0.5" stroke-miterlimit="10"/>
<path d="M709.31 264.75C709.31 267.81 709.76 269.92 710.66 269.92C711.56 269.92 712.77 266.24 712.77 263.17C712.77 260.1 712.3 258.71 711.4 258.71C710.5 258.71 709.31 261.68 709.31 264.74V264.75Z" stroke="#00BDFF" stroke-width="0.5" stroke-miterlimit="10"/>
<path d="M706.25 326.04C706.25 326.04 672.92 328.17 663.24 320.79C653.56 313.41 651.07 296.23 651.07 296.23" stroke="#00BDFF" stroke-width="0.5" stroke-miterlimit="10"/>
<path d="M10.52 224.12C10.52 224.12 11.78 231.75 13.01 232.36C13.01 232.36 18.42 206.62 20.82 207.62" stroke="#00BDFF" stroke-width="1.5" stroke-miterlimit="10"/>
</svg>
