<svg width="736" height="461" viewBox="0 0 736 461" fill="none" xmlns="http://www.w3.org/2000/svg">
<path d="M516.08 410.78C526.91 414.59 537.98 412.98 537.98 412.98L588.63 403.51C588.63 403.51 700.51 380.38 705.8 378.72C711.09 377.06 712.73 373.12 712.73 373.12C714.48 371.77 716.08 370.38 717.52 368.96C739.23 347.75 727.98 320.78 727.98 320.78C727.98 320.78 734.05 303.88 735.03 269.43C735.03 269.43 736.01 265.49 732.9 260.9C729.78 256.31 733.39 250.56 733.39 250.56C733.39 250.56 736.18 235.8 726.34 223.49C726.34 223.49 730.2 204.3 716.33 187.56C716.33 187.56 708.37 182.15 684.01 172.06L608.71 137.36L571.8 122.6C571.8 122.6 563.12 118.32 546.7 103.41C528 86.43 441.62 30.32 441.62 30.32C441.62 30.32 398.06 9.39998 311.44 3.98998C311.44 3.98998 177.82 -7.08002 103.99 9.64998C103.99 9.64998 71.7501 15.72 50.1001 30.9L45.67 39.92C45.67 39.92 35.0901 53.21 26.9701 82.49C26.9701 82.49 19.7701 88.87 16.3101 92.73C15.1601 94.02 14.42 95.02 14.5 95.42C14.83 97.01 10.07 95.88 3.51001 110.31C3.51001 110.31 7.78001 159.68 3.51001 170.67C-0.75999 181.66 2.03003 210.04 2.03003 210.04" stroke="#00BDFF" stroke-width="1.5" stroke-miterlimit="10"/>
<path d="M728 320.79C728 320.79 730.37 344.58 723.97 349.66" stroke="#00BDFF" stroke-width="2" stroke-miterlimit="10"/>
<path d="M723.97 349.66C723.97 349.66 717.5 339.16 716.35 331.78L725.07 271.74L731.61 269.44C731.61 269.44 733.53 269.48 734.95 272.58" stroke="#00BDFF" stroke-width="1.5" stroke-miterlimit="10"/>
<path d="M709.29 328.82L720.28 273.04C720.28 273.04 713.97 274.15 703.47 275.89C669.67 281.5 592.43 293.73 542.27 296.94C542 296.96 541.72 296.97 541.45 296.99L541.72 296.97C541.72 296.97 537.51 297.48 538.99 300.92C540.47 304.36 555.72 363.1 555.72 363.1C555.72 363.1 559.82 374.75 572.29 372.29C584.76 369.83 693.69 349.65 693.69 349.65C693.69 349.65 703.41 348.35 706.65 337.02C709.89 325.69 709.27 328.82 709.27 328.82H709.29Z" stroke="#00BDFF" stroke-width="2" stroke-miterlimit="10"/>
<path d="M701.38 313.59L698.46 325.54L706.29 327.34C706.29 327.34 704.85 331.61 700.75 331.61L567.62 352.69C567.62 352.69 556.55 353.67 552.61 351.71" stroke="#00BDFF" stroke-width="2" stroke-miterlimit="10"/>
<path d="M696.35 332.31C696.35 332.31 691.74 343.26 684.69 345.56C677.64 347.86 567.88 366.89 567.88 366.89C567.88 366.89 559.7 367.37 556.24 364.26" stroke="#00BDFF" stroke-width="2" stroke-miterlimit="10"/>
<path d="M706.3 275.43C706.3 275.43 707.49 276.82 707.49 279.45C707.49 282.08 706.3 287.27 706.3 287.27L714.05 290.44C714.05 290.44 714.54 292.74 712.74 293.39C710.94 294.04 573.52 319.71 543.63 317.21" stroke="#00BDFF" stroke-width="2" stroke-miterlimit="10"/>
<path d="M706.3 287.26C706.3 287.26 594.88 311.16 541.73 310.23" stroke="#00BDFF" stroke-width="2" stroke-miterlimit="10"/>
<path d="M704.7 295.19L702.73 306.51L709.87 309.06C709.87 309.06 709.87 310.37 708.39 312.09C708.39 312.09 599.85 335.96 548.43 335.22" stroke="#00BDFF" stroke-width="2" stroke-miterlimit="10"/>
<path d="M546.96 328.82C546.96 328.82 647.36 322.84 702.73 306.51" stroke="#00BDFF" stroke-width="2" stroke-miterlimit="10"/>
<path d="M551.92 347.03C551.92 347.03 665.71 334.45 698.46 325.54" stroke="#00BDFF" stroke-width="2" stroke-miterlimit="10"/>
<path d="M716.35 370.08L700.52 360.32C700.52 360.32 699.29 357.37 690.68 359.09C682.07 360.81 566.65 383.21 566.65 383.21C566.65 383.21 553.61 384.93 549.67 390.35C545.73 395.76 536.38 403.39 536.38 403.39C536.38 403.39 527.03 410.53 520.63 410.77C515.08 410.98 464.24 407.68 450.79 406.8C448.6 406.66 446.45 406.39 444.3 406C427.22 402.88 347.9 388.18 331.76 381.27C327.58 379.48 323.29 377.96 318.98 376.53L318.35 376.32C318.35 376.32 321.3 398.71 318.35 407.08C318.35 407.08 371.75 425.29 430.56 423.57C430.56 423.57 448.86 421.17 467.32 407.87" stroke="#00BDFF" stroke-width="1.5" stroke-miterlimit="10"/>
<path d="M669.88 364.14C669.88 364.14 671.6 372.51 674.06 374.48" stroke="#00BDFF" stroke-width="2" stroke-miterlimit="10"/>
<path d="M661.76 366.91C661.76 366.91 661.76 369.67 660.28 370.53C658.8 371.39 632.35 376.44 632.35 376.44" stroke="#00BDFF" stroke-width="2" stroke-miterlimit="10"/>
<path d="M630.38 371.68L634.44 382.47" stroke="#00BDFF" stroke-width="2" stroke-miterlimit="10"/>
<path d="M588.63 378.94L591.62 389.36" stroke="#00BDFF" stroke-width="2" stroke-miterlimit="10"/>
<path d="M623.12 373.86L621.77 378.78C621.28 379.03 589.9 383.58 589.9 383.58" stroke="#00BDFF" stroke-width="2" stroke-miterlimit="10"/>
<path d="M707.83 364.83C707.83 364.83 697.56 363.31 688.33 364.83C679.1 366.35 677.99 366.35 677.99 366.35L670.91 368.13" stroke="#00BDFF" stroke-width="2" stroke-miterlimit="10"/>
<path d="M581.23 380.38L579.07 385.3L550.15 389.75" stroke="#00BDFF" stroke-width="2" stroke-miterlimit="10"/>
<path d="M431.75 423.37C431.75 423.37 413.17 432.02 533.59 413.32" stroke="#00BDFF" stroke-width="2" stroke-miterlimit="10"/>
<path d="M462.56 223.01C462.56 223.01 479.05 242.2 481.51 260.91C481.51 260.91 399.81 268.78 338.78 241.96C338.78 241.96 309.74 208.74 301.13 186.84L305 181.34" stroke="#00BDFF" stroke-miterlimit="10"/>
<path d="M529.98 298.76C529.98 298.76 447.79 290.19 399.8 347.03C399.8 347.03 401.03 357.37 414.81 368.69C414.81 368.69 438.19 375.58 511.77 376.32" stroke="#00BDFF" stroke-width="1.5" stroke-miterlimit="10"/>
<path d="M526.04 352.94L521.61 339.65" stroke="#00BDFF" stroke-width="1.5" stroke-miterlimit="10"/>
<path d="M519.52 333.26L516.2 319.23" stroke="#00BDFF" stroke-width="1.5" stroke-miterlimit="10"/>
<path d="M514.48 313.59L509.8 298.49" stroke="#00BDFF" stroke-width="1.5" stroke-miterlimit="10"/>
<path d="M406.58 339.65H411.12C419.49 339.4 439.42 344.57 439.42 344.57C454.18 353.68 463.04 355.4 463.04 355.4L526.04 358.55C523.83 372.04 511.77 376.32 511.77 376.32" stroke="#00BDFF" stroke-width="1.5" stroke-miterlimit="10"/>
<path d="M422.94 326.25L521.62 333.27C521.62 333.27 531.96 336.7 523.83 338.67C515.71 340.64 480.03 337.31 480.03 337.31L419 332.31L415.34 331.68" stroke="#00BDFF" stroke-width="2" stroke-miterlimit="10"/>
<path d="M441.62 314.91L519.52 319.23C519.52 319.23 525.55 316.61 518.66 315.21C511.77 313.82 479.29 312.34 479.29 312.34L452.59 310.13" stroke="#00BDFF" stroke-width="2" stroke-miterlimit="10"/>
<path d="M526.04 358.55C526.04 358.55 533.18 358.11 531.95 355.89C530.72 353.67 519.52 352.94 519.52 352.94L462.55 349.61C462.55 349.61 464.53 350.31 441.62 339.65L411.21 335.24" stroke="#00BDFF" stroke-width="2" stroke-miterlimit="10"/>
<path d="M706.3 209.04L709.87 227.2C709.87 227.2 712.08 233.77 704.54 235.86C696.99 237.95 624.85 247.46 624.85 247.46L543.63 253.04H532.09C532.09 253.04 523.13 252.38 517.86 247.13C512.59 241.88 501.43 227.2 501.43 227.2" stroke="#00BDFF" stroke-width="1.5" stroke-miterlimit="10"/>
<path d="M280.95 133.68C280.95 133.68 245.51 122.11 235.67 102.92C225.83 83.73 196.3 35.99 196.3 35.99C196.3 35.99 186.95 24.18 198.76 22.7C208.73 21.45 300.34 19.51 328.72 18.93C334.26 18.82 339.8 19.07 345.31 19.7L435 29.84C435 29.84 450.01 37.96 464.9 47.8C479.79 57.64 514.73 82.74 514.73 82.74L569.36 125.07C569.36 125.07 572.81 132.45 560.75 133.19C548.69 133.93 459.61 136.39 459.61 136.39L339.52 142.3C339.52 142.3 291.78 136.89 280.95 133.69L267.66 134.67C267.66 134.67 264.95 152.63 264.95 161C264.95 169.37 271.59 170.84 271.59 170.84L306.04 181.67C361.41 185.36 454.92 220.55 454.92 220.55L494.05 227.19L538.69 224.73C640.42 220.55 717.5 207.26 717.5 207.26C717.5 207.26 707.9 185.36 684.03 172.07" stroke="#00BDFF" stroke-width="1.5" stroke-miterlimit="10"/>
<path d="M318.35 376.32C318.35 376.32 292.1 271.41 262.24 255.66C237.6 242.66 224.8 252.23 221.08 255.98C220.37 256.7 219.77 257.49 219.28 258.37C216.19 263.83 203.22 290.24 211.54 336.64C211.85 338.39 211.78 340.19 211.29 341.89L207.44 355.24C207.01 356.73 206.89 358.29 207.08 359.83L209.21 376.8C209.81 381.59 213.33 385.58 218.06 386.54C218.13 386.55 218.2 386.57 218.27 386.58" stroke="#00BDFF" stroke-width="2" stroke-miterlimit="10"/>
<path d="M207.52 363.27C207.52 363.27 104.75 302.91 78.1801 293.39L51.6001 283.87L49.3 269.76L51.6001 256.96C51.6001 256.96 31.59 183.79 17.15 181.33C2.71002 178.87 2.06006 210.04 2.06006 210.04L4.68005 238.59L5.34009 249.05" stroke="#00BDFF" stroke-width="1.5" stroke-miterlimit="10"/>
<path d="M128.7 125.73L112.95 120.48C112.95 120.48 73.91 106.04 51.27 93.58C28.63 81.11 44.38 44.69 44.38 44.69L55.86 36.49C55.86 36.49 97.2 17.13 134.28 15.49C171.36 13.85 183.17 40.1 183.17 40.1L214.13 100.4L239.94 150.67C239.94 150.67 242.89 158.22 230.75 155.59C218.61 152.97 173.33 140.17 173.33 140.17" stroke="#00BDFF" stroke-width="2" stroke-miterlimit="10"/>
<path d="M214.13 100.39L213.03 108.33C213.03 108.33 206.47 134.25 209.42 144.42L207.52 149.62C207.52 149.62 197.94 196.92 198.92 212.67C199.9 228.42 198.85 311.76 198.85 311.76V334.73L191.29 353.82" stroke="#00BDFF" stroke-width="1.5" stroke-miterlimit="10"/>
<path d="M195.8 129.01C196.54 128.27 194.57 107.6 194.57 107.6C194.57 107.6 181.77 89.64 136 103.91L126.89 107.36C126.89 107.36 124.92 128.28 137.23 134.43C149.53 140.58 184.23 139.6 184.23 139.6C184.23 139.6 190.74 139.8 192.78 145.6" stroke="#00BDFF" stroke-width="2" stroke-miterlimit="10"/>
<path d="M128.7 125.73C131 130.32 186.2 130.49 186.2 130.49C197.77 133.94 202.7 130.49 202.7 130.49" stroke="#00BDFF" stroke-width="1.5" stroke-miterlimit="10"/>
<path d="M127.22 117.04C127.22 117.04 157.66 120.89 162.58 121.99C167.5 123.09 167.5 127.28 167.5 127.28C167.5 127.28 139.53 127.27 128.7 123.58" stroke="#00BDFF" stroke-width="2" stroke-miterlimit="10"/>
<path d="M231.73 148.36L201.22 84.38L186.46 56.16C186.46 56.16 177.19 27.94 147.37 24.01L136.91 22.04C136.91 22.04 116.57 101.13 120.5 117.04" stroke="#00BDFF" stroke-width="2" stroke-miterlimit="10"/>
<path d="M127.22 120.15C127.22 120.15 58.2401 94.69 49.9601 88.98C41.6801 83.26 44.05 68.31 44.05 68.31L45.6901 48.3C45.6901 48.3 44.0701 43.84 78.8301 30.91C99.1901 23.34 115.62 21.6 125.74 21.45C132.9 21.35 136.9 22.05 136.9 22.05" stroke="#00BDFF" stroke-width="2" stroke-miterlimit="10"/>
<path d="M130.06 22.04C130.06 22.04 105.42 89.41 108.24 113.03" stroke="#00BDFF" stroke-width="1.5" stroke-miterlimit="10"/>
<path d="M124.94 22.04C124.94 22.04 98.2701 86.69 101.09 110.31" stroke="#00BDFF" stroke-width="1.5" stroke-miterlimit="10"/>
<path d="M85.4 28.61C85.4 28.61 65.34 73.01 63.55 95.43" stroke="#00BDFF" stroke-width="1.5" stroke-miterlimit="10"/>
<path d="M78.8301 30.9C78.8301 30.9 56.32 76.13 56.25 92.23" stroke="#00BDFF" stroke-width="1.5" stroke-miterlimit="10"/>
<path d="M606.95 233.178C606.462 228.72 614.714 224.159 625.381 222.991C636.048 221.822 645.091 224.489 645.579 228.947C646.067 233.405 637.816 237.966 627.149 239.134C616.482 240.302 607.438 237.636 606.95 233.178Z" stroke="#00BDFF" stroke-width="2" stroke-miterlimit="10"/>
<path d="M16.3301 92.74L16.82 96.52L20.26 97.61C21.5 98 22.03 99.47 21.32 100.57L15.82 109.07C15.3 109.88 14.54 110.52 13.65 110.89L8.9 112.91C7.2 113.63 6.01 115.2 5.77 117.03L4.61997 125.72" stroke="#00BDFF" stroke-width="2" stroke-miterlimit="10"/>
<path d="M207 192.13V189.1C207 188.19 207.92 187.56 208.76 187.91C212.49 189.42 220.97 193.04 222.5 195.33C222.5 195.33 224.71 198.28 221.27 198.65L207 192.13Z" stroke="#00BDFF" stroke-width="1.5" stroke-miterlimit="10"/>
<path d="M203.55 193.11L201.09 191.51L202.07 189.91L204.16 190.4L206.16 185.97C206.61 184.97 207.81 184.57 208.77 185.1L224.46 193.72C224.46 193.72 227.29 196.55 224.46 199.63C223.22 200.98 221.72 202.16 220.43 203.06C218.67 204.29 216.45 204.62 214.4 204L204.03 200.86L203.54 193.11L219.59 199.62C220.55 200.01 220.53 201.41 219.55 201.72C218.04 202.19 215.73 202.35 212.52 201.11C209.91 200.1 208.28 199.51 207.27 199.16C206.26 198.81 205.63 197.9 205.63 196.85V194.52" stroke="#00BDFF" stroke-width="1.5" stroke-miterlimit="10"/>
<path d="M299.32 376.32C299.32 428.15 287.57 459.84 263.81 459.84C240.05 459.84 215.1 405.65 215.1 353.82C215.1 301.99 226.05 269.42 249.81 269.42C273.57 269.42 299.32 324.48 299.32 376.31V376.32Z" stroke="#00BDFF" stroke-width="2" stroke-miterlimit="10"/>
<path d="M285.63 374.24C285.63 412.66 276.92 436.15 259.31 436.15C241.7 436.15 223.2 395.98 223.2 357.56C223.2 319.14 231.32 295 248.93 295C266.54 295 285.63 335.82 285.63 374.24Z" stroke="#00BDFF" stroke-width="2" stroke-miterlimit="10"/>
<path d="M257.2 366.35C257.2 369.78 256.42 371.87 254.85 371.87C253.28 371.87 251.63 368.29 251.63 364.86C251.63 361.43 252.35 359.28 253.93 359.28C255.51 359.28 257.2 362.92 257.2 366.35Z" stroke="#00BDFF" stroke-width="2" stroke-miterlimit="10"/>
<path d="M266.18 459.84C266.18 459.84 313.1 461.05 325.57 452.85C338.04 444.65 351.16 417.74 351.16 417.74" stroke="#00BDFF" stroke-width="1.5" stroke-miterlimit="10"/>
<path d="M38.4701 267.3C38.4701 292.56 34.7901 309.95 27.3101 309.95C19.8301 309.95 9.92004 279.59 9.92004 254.34C9.92004 229.09 13.76 217.59 21.24 217.59C28.72 217.59 38.4701 242.04 38.4701 267.3Z" stroke="#00BDFF" stroke-width="1.5" stroke-miterlimit="10"/>
<path d="M44.9501 268.56C44.9501 302.59 39.99 326.03 29.92 326.03C19.85 326.03 6.48999 285.13 6.48999 251.09C6.48999 217.05 11.67 201.57 21.74 201.57C31.81 201.57 44.9501 234.52 44.9501 268.55V268.56Z" stroke="#00BDFF" stroke-width="1.5" stroke-miterlimit="10"/>
<path d="M26.86 264.75C26.86 267.81 26.41 269.92 25.51 269.92C24.61 269.92 23.4 266.24 23.4 263.17C23.4 260.1 23.87 258.71 24.77 258.71C25.67 258.71 26.86 261.68 26.86 264.74V264.75Z" stroke="#00BDFF" stroke-width="1.5" stroke-miterlimit="10"/>
<path d="M29.92 326.04C29.92 326.04 63.2501 328.17 72.9301 320.79C82.6101 313.41 85.1001 296.23 85.1001 296.23" stroke="#00BDFF" stroke-width="1.5" stroke-miterlimit="10"/>
<path d="M725.65 224.12C725.65 224.12 724.39 231.75 723.16 232.36C723.16 232.36 717.75 206.62 715.35 207.62" stroke="#00BDFF" stroke-width="1.5" stroke-miterlimit="10"/>
</svg>
