<svg width="457" height="377" viewBox="0 0 457 377" fill="none" xmlns="http://www.w3.org/2000/svg">
<path d="M122.24 244.46H350.52L332.76 304.55C332.76 304.55 330.11 314 315.37 314.75C300.63 315.5 163.06 316.64 163.06 316.64C163.06 316.64 142.65 319.29 136.6 296.99C130.55 274.69 122.24 244.45 122.24 244.45V244.46Z" stroke="#00BDFF" stroke-miterlimit="10"/>
<path d="M36.69 272.69C36.69 272.69 54.96 273.56 64.03 288.68L116.94 298.88L114.67 304.93C111.27 310.6 102.2 312.49 102.2 312.49C102.2 312.49 53.44 302.29 47.77 300.77C42.1 299.25 40.59 296.23 40.59 296.23L33.04 281.45C32.12 279.65 32.4 277.47 33.75 275.97L53.44 253.9C62.89 238.78 113.16 244.45 113.16 244.45" stroke="#00BDFF" stroke-width="1.5" stroke-miterlimit="10"/>
<path d="M121.29 352.36C106.74 350.28 67.24 350.66 67.24 350.66C67.24 350.66 38.89 345.18 18.3 337.81C-2.29 330.44 3.75002 322.12 3.75002 322.12C7.34002 306.81 5.26003 300.95 5.26003 300.95C5.26003 300.95 2.8 291.5 1.86 267.88C0.920002 244.26 2.8 211.19 2.8 211.19C3.93 186.06 16.97 159.6 16.97 159.6C21.13 156.2 26.8 145.24 26.8 145.24C27.74 139.57 44.19 121.81 44.19 121.81L51.56 99.51L68.19 60.01C68.19 60.01 83.5 31.29 89.92 21.65C96.34 12.01 105.04 10.12 105.04 10.12C105.04 10.12 191.69 -10.48 335.26 13.62C346.99 15.59 369.98 51.46 369.98 51.46C369.98 51.46 392.66 94.69 398.89 109.71C405.12 124.73 410.51 130.83 410.51 130.83C429.93 144.29 436.59 159.89 436.59 159.89C436.59 159.89 449.63 186.68 454.31 216.58C458.99 246.48 452.09 300.63 452.09 300.63L450.77 306.72C454.17 312.96 453.32 324.72 453.32 324.72C453.32 324.72 442.5 340.68 406.24 347.94C406.24 347.94 380.06 347.13 371.77 348.74C368.93 349.29 366.05 349.66 363.17 349.96L346.6 351.72" stroke="#00BDFF" stroke-width="4" stroke-miterlimit="10"/>
<path d="M121.29 343.01C119.26 356.51 124.93 356.19 124.93 356.19C124.93 356.19 128.33 357.32 129.32 355.34C130.31 353.36 130.03 350.66 133.71 350.66C137.39 350.66 148.45 351.23 148.45 351.23C148.45 351.23 149.44 352.65 150.86 353.07C152.28 353.49 166.88 353.5 166.88 353.5C166.88 353.5 167.02 352.22 171.56 351.66L198.25 352.37C198.67 352.63 199.29 353.17 200.19 354.22L222.93 354.64C223.63 354.64 224.32 354.46 224.92 354.1L227.83 352.38H248.1L248.57 353.11C249.25 354.16 250.41 354.79 251.66 354.79H270.58C271.52 354.79 272.43 354.42 273.09 353.75L274.81 352.03H298.83L299.86 353.06C300.81 354.01 302.1 354.55 303.45 354.55H321.02C322.15 354.55 323.24 354.1 324.04 353.3L326.49 350.85H336.54L339.08 353.39C339.74 354.05 340.69 354.32 341.59 354.09C344.04 353.48 348.68 351.71 349.72 346.86C351.14 340.2 347.17 338.78 347.17 338.78" stroke="#00BDFF" stroke-width="1.5" stroke-miterlimit="10"/>
<path d="M34.65 141.47C34.65 141.47 20.3499 151.01 17.3399 176.99C17.1699 178.45 16.9199 179.9 16.4899 181.3C15.5999 184.21 14.6 190.58 20.76 195.04C28.98 200.99 66.1099 208.36 66.1099 208.36L91.6199 210.63L85.32 183.87C84.96 182.32 84.2699 180.86 83.2899 179.6C81.3499 177.1 77.8599 173.3 74.7199 173.49C70.0699 173.77 58.1599 156.48 58.1599 156.48C58.1599 156.48 38.88 140.32 34.63 141.46L34.65 141.47Z" stroke="#00BDFF" stroke-miterlimit="10"/>
<path d="M446.52 186.25C446.52 186.25 445.2 194.75 435.37 200.86C425.54 206.97 377.92 209.87 377.92 209.87L385.48 178.12L397.95 167.92C408.34 144.86 419.49 143.35 419.49 143.35C419.49 143.35 423.79 141.97 425.37 143.76" stroke="#00BDFF" stroke-miterlimit="10"/>
<path d="M34.65 141.47L40.8 125.59" stroke="#00BDFF" stroke-width="1.5" stroke-miterlimit="10"/>
<path d="M84.0701 179.07C84.6401 180.2 94.1801 182 98.4301 182.85C102.68 183.7 170.43 182.85 170.43 182.85L328.6 183.23H368.29C368.29 183.23 373.77 182.76 385.49 178.13" stroke="#00BDFF" stroke-width="4" stroke-miterlimit="10"/>
<path d="M110.62 185.69C111.47 186.82 115.16 205.53 128.48 206.67C141.8 207.81 228.78 209.88 228.78 209.88L335.98 207.52C335.98 207.52 348.74 207.8 354.41 199.02C360.08 190.23 361.5 185.7 361.5 185.7" stroke="#00BDFF" stroke-miterlimit="10"/>
<path d="M3.46994 331.39C3.46994 331.39 1.19994 363.7 15.3799 369.66C29.5599 375.62 65.5499 375.33 65.5499 375.33C65.5499 375.33 71.2199 374.2 71.2199 369.38V350.65" stroke="#00BDFF" stroke-width="4" stroke-miterlimit="10"/>
<path d="M453.22 325.67C453.22 325.67 455.66 357.98 440.39 363.94C425.11 369.89 386.31 369.61 386.31 369.61C386.31 369.61 380.2 368.48 380.2 363.66C380.2 358.84 380.2 347.97 380.2 347.97" stroke="#00BDFF" stroke-width="4" stroke-miterlimit="10"/>
<path d="M438.04 274.62C438.04 274.62 419.77 275.49 410.7 290.61L357.79 300.81L360.06 306.86C363.46 312.53 372.53 314.42 372.53 314.42C372.53 314.42 421.29 304.22 426.96 302.7C432.63 301.18 434.14 298.16 434.14 298.16L441.69 283.38C442.61 281.58 442.33 279.4 440.98 277.9L421.29 255.83C411.84 240.71 361.57 246.38 361.57 246.38" stroke="#00BDFF" stroke-width="1.5" stroke-miterlimit="10"/>
<path d="M115.12 111.66C113.09 111.69 111.06 111.58 109.04 111.33C100.16 110.26 74.52 107.12 72.63 105.46C70.36 103.48 63.84 96.25 68.8 81.79C73.76 67.33 83.54 45.22 83.54 45.22L92.75 26.94C92.75 26.94 92.18 23.54 108.06 21.13C123.93 18.72 170.14 15.89 170.14 15.89H245.4C245.4 15.89 315.98 19.86 326.47 21.42C336.96 22.98 345.18 21.28 354.82 38.29C364.46 55.3 377.36 81.52 377.36 81.52C377.36 81.52 385.44 97.39 377.36 106.61C377.36 106.61 362.34 114.12 350.01 113.13L222.73 110.3L115.12 111.68V111.66Z" stroke="#00BDFF" stroke-width="1.5" stroke-miterlimit="10"/>
<path d="M236.38 203.15C249.06 203.15 259.34 199.595 259.34 195.21C259.34 190.825 249.06 187.27 236.38 187.27C223.699 187.27 213.42 190.825 213.42 195.21C213.42 199.595 223.699 203.15 236.38 203.15Z" stroke="#00BDFF" stroke-width="1.5" stroke-miterlimit="10"/>
<path d="M267.09 195.21H347.03" stroke="#00BDFF" stroke-width="1.5" stroke-miterlimit="10"/>
<path d="M126.49 195.21H206.43" stroke="#00BDFF" stroke-width="1.5" stroke-miterlimit="10"/>
</svg>
