<svg width="573" height="235" viewBox="0 0 573 235" fill="none" xmlns="http://www.w3.org/2000/svg">
<path d="M107.38 221.92C126.555 221.92 142.1 206.375 142.1 187.2C142.1 168.025 126.555 152.48 107.38 152.48C88.2046 152.48 72.6599 168.025 72.6599 187.2C72.6599 206.375 88.2046 221.92 107.38 221.92Z" stroke="#00BDFF" stroke-width="1" stroke-miterlimit="10"/>
<path d="M107.12 234.03C133.221 234.03 154.38 212.871 154.38 186.77C154.38 160.669 133.221 139.51 107.12 139.51C81.0191 139.51 59.8601 160.669 59.8601 186.77C59.8601 212.871 81.0191 234.03 107.12 234.03Z" stroke="#00BDFF" stroke-miterlimit="10"/>
<path d="M108.06 190.7C110.076 190.7 111.71 189.066 111.71 187.05C111.71 185.034 110.076 183.4 108.06 183.4C106.044 183.4 104.41 185.034 104.41 187.05C104.41 189.066 106.044 190.7 108.06 190.7Z" stroke="#00BDFF" stroke-width="1" stroke-miterlimit="10"/>
<path d="M474.5 213.1C493.675 213.1 509.22 197.555 509.22 178.38C509.22 159.205 493.675 143.66 474.5 143.66C455.325 143.66 439.78 159.205 439.78 178.38C439.78 197.555 455.325 213.1 474.5 213.1Z" stroke="#00BDFF" stroke-width="1" stroke-miterlimit="10"/>
<path d="M474.23 225.21C500.331 225.21 521.49 204.051 521.49 177.95C521.49 151.849 500.331 130.69 474.23 130.69C448.129 130.69 426.97 151.849 426.97 177.95C426.97 204.051 448.129 225.21 474.23 225.21Z" stroke="#00BDFF" stroke-miterlimit="10"/>
<path d="M475.18 181.88C477.196 181.88 478.83 180.246 478.83 178.23C478.83 176.214 477.196 174.58 475.18 174.58C473.164 174.58 471.53 176.214 471.53 178.23C471.53 180.246 473.164 181.88 475.18 181.88Z" stroke="#00BDFF" stroke-width="1" stroke-miterlimit="10"/>
<path d="M163.93 190.7H170.17V195.13C170.17 196.46 171.25 197.54 172.58 197.54C172.75 197.54 172.85 197.74 172.74 197.88L165.31 207.39C164.86 207.97 163.93 207.65 163.93 206.91V190.7Z" stroke="#00BDFF" stroke-width="1" stroke-miterlimit="10"/>
<path d="M163.93 189.8C163.93 189.8 162.61 128.57 101.76 130.08C101.76 130.08 55.08 131.21 50.93 181.29L49.99 195.84L51.88 199.19C51.88 199.19 24.67 196.4 19.38 192.81C19.38 192.81 17.3 189.03 16.55 186.76C16.55 186.76 3.12999 179.58 1.23999 175.23C1.23999 175.23 1.61998 174.1 3.69998 159.36C3.69998 159.36 0.299992 130.45 5.20999 121.19C10.12 111.93 13.71 106.83 13.71 106.83C13.71 106.83 32.23 91.14 68.7 84.15C105.17 77.16 139.19 72.81 139.19 72.81C139.19 72.81 236.51 20.09 259.19 13.28C259.19 13.28 335.19 -13.93 521.5 11.39L522.77 14.37C523.29 15.59 522.6 16.98 521.32 17.31L512.04 19.71L533.21 42.39C533.21 42.39 547.95 52.22 550.6 52.97C553.25 53.72 558.16 59.02 559.67 78.67C561.18 98.32 564.35 109.66 564.35 109.66C572.85 118.73 569.45 125.39 569.45 125.39V133.89C569.45 139.13 571.86 138.28 571.86 138.28C572.99 153.16 565.2 165.92 565.2 165.92C560.38 173.57 528.92 180.38 528.92 180.38L530.34 173.15L528.78 167.91C528.92 161.82 523.39 144.95 523.39 144.95C508.37 114.34 473.36 117.17 473.36 117.17C423.05 121.99 420.35 168.05 420.35 168.05V181.94L418.37 186.9C418.21 186.87 417.82 186.86 417.24 186.85C405.46 186.65 312.36 189.74 312.36 189.74L172.78 197.87" stroke="#00BDFF" stroke-width="1.5" stroke-miterlimit="10"/>
<path d="M17.0199 158.99L14.4499 158.61L10.3499 161.82L4.99994 160.88V165.79C4.99994 168.06 6.69994 168.25 6.69994 168.25C6.69994 168.25 14.8299 170.33 18.2299 170.9C21.6299 171.47 20.6899 162.4 20.6899 162.4C20.6899 162.4 10.1099 144.45 6.88994 139.52C3.66994 134.59 3.67993 137.46 3.67993 137.46V143.7C3.67993 143.7 6.00994 144.64 8.90994 144.08" stroke="#00BDFF" stroke-width="1" stroke-miterlimit="10"/>
<path d="M14.1399 151.36C10.9899 152.99 3.68994 150.68 3.68994 150.68V145.01C3.68994 145.01 7.95994 147.09 10.3599 145.95" stroke="#00BDFF" stroke-width="1" stroke-miterlimit="10"/>
<path d="M17.0199 156.2H12.2399L9.15994 159.93L4.99994 158.8L3.67993 152.47C3.67993 152.47 7.62995 154.22 15.5699 153.77" stroke="#00BDFF" stroke-width="1" stroke-miterlimit="10"/>
<path d="M3.67993 126.49C3.67993 126.49 29.9499 128.38 39.2099 124.79" stroke="#00BDFF" stroke-width="0.5" stroke-miterlimit="10"/>
<path d="M12.25 119.69L18.24 108.54C18.24 108.54 52.63 96.82 84.19 97.39L49.04 118.37C49.04 118.37 39.59 121.96 34.3 122.91C29.01 123.86 23.34 124.8 23.34 124.8L21.45 121.59L12.25 119.7V119.69Z" stroke="#00BDFF" stroke-width="1" stroke-miterlimit="10"/>
<path d="M4.12012 124.79L13.0601 121.96L14.7001 124.79H23.3301" stroke="#00BDFF" stroke-width="0.5" stroke-miterlimit="10"/>
<path d="M10.3501 181.48C10.3501 181.48 46.2001 183.75 49.9801 181.48" stroke="#00BDFF" stroke-width="1" stroke-miterlimit="10"/>
<path d="M555.54 60.91C555.54 60.91 556.82 58.93 546.75 58.78C536.68 58.63 499.98 60.91 499.98 60.91C499.98 60.91 495.73 61.05 498.99 63.32C502.25 65.59 505.51 70.26 514.44 70.83C523.37 71.4 530.46 69.84 536.13 75.79C539.78 79.62 542.84 82.1 544.56 83.38C545.47 84.06 546.62 84.32 547.73 84.1L556.54 82.33C556.54 82.33 560.01 81.61 559.54 77.31" stroke="#00BDFF" stroke-width="1.5" stroke-miterlimit="10"/>
<path d="M162.74 173.76C164.26 173.38 424.44 151.67 424.44 151.67" stroke="#00BDFF" stroke-width="1" stroke-miterlimit="10"/>
<path d="M135.53 77.09C135.53 77.09 127.97 90.79 116.52 93.07C105.07 95.35 85.29 97.36 85.29 97.36" stroke="#00BDFF" stroke-width="0.5" stroke-miterlimit="10"/>
<path d="M135.53 77.09C135.53 77.09 151.51 70.62 183.86 53.68C216.21 36.74 247.23 20.76 247.23 20.76L245.22 18.8" stroke="#00BDFF" stroke-width="1" stroke-miterlimit="10"/>
<path d="M151.65 88.13C151.65 88.13 141.45 87.88 149.19 82.33C156.93 76.78 195.68 52.6 195.68 52.6C195.68 52.6 250.29 21.99 267.49 19.72C267.49 19.72 300.37 13.11 319.46 12.73C338.55 12.35 376.72 11.41 376.72 11.41L445.13 14.81L495.21 20.29C495.21 20.29 504.28 20.48 501.07 26.15C497.86 31.82 486.71 46.37 486.71 46.37C486.71 46.37 479.91 54.31 466.49 55.25C453.07 56.19 413.77 62.24 413.77 62.24L320.23 72.63L186.06 85.48L151.67 88.13H151.65Z" stroke="#00BDFF" stroke-width="1" stroke-miterlimit="10"/>
<path d="M146.59 84.85L191.38 82.33" stroke="#00BDFF" stroke-width="0.5" stroke-miterlimit="10"/>
<path d="M197.19 82.33L363.49 65.07L449.66 55.24C449.66 55.24 476.87 53.92 485.75 42.39C494.63 30.86 497.75 26.7 497.75 26.7C497.75 26.7 498.6 24.43 495.39 23.87C492.18 23.31 423.96 16.88 423.96 16.88L441.47 56.18" stroke="#00BDFF" stroke-width="1" stroke-miterlimit="10"/>
<path d="M420 14.8L438.33 55.24C438.33 55.24 442.3 60.34 444.19 61.48C446.08 62.62 454.96 76.98 454.96 76.98V114.02" stroke="#00BDFF" stroke-width="1" stroke-miterlimit="10"/>
<path d="M324.02 12.63L321 69.48V72.54C321 72.54 317.19 83.78 317.38 89.82C317.57 95.86 318.32 132.72 318.32 132.72C318.32 132.72 317.38 148.5 316.43 151.67C315.48 154.84 317.75 161.83 317.75 161.83L321.17 189.46" stroke="#00BDFF" stroke-width="1.5" stroke-miterlimit="10"/>
<path d="M44.1201 181.48C43.7401 179.21 46.9001 125.35 108.06 123.37C108.06 123.37 149.73 118.41 168.36 170.92" stroke="#00BDFF" stroke-width="0.5" stroke-miterlimit="10"/>
<path d="M417.92 149.35C417.92 147.84 438.07 106.81 478.83 111.07C519.59 115.33 528.67 144.95 528.67 144.95L559.58 140.65C559.58 140.65 569.43 138.1 569.43 133.89" stroke="#00BDFF" stroke-width="1" stroke-miterlimit="10"/>
<path d="M187.23 66.56C188.74 64.96 192.48 61.25 200.96 61.17L204.19 67.26C204.19 67.26 205.71 77.44 204.19 80.01L195.25 82.32C195.25 82.32 192.3 83.34 190.68 79.72C189.98 78.16 189.11 75.64 188.34 73.26C187.7 71.29 187.14 69.42 186.8 68.31C186.61 67.69 186.77 67.02 187.22 66.55L187.23 66.56Z" stroke="#00BDFF" stroke-width="1" stroke-miterlimit="10"/>
<path d="M188.35 73.28C188.35 73.28 196.4 70.6 201.91 70.89L202.48 74.79C202.48 74.79 190.03 76.64 189.37 76.34" stroke="#00BDFF" stroke-width="0.5" stroke-miterlimit="10"/>
<path d="M199.73 61.75L201.91 67.65V70.88" stroke="#00BDFF" stroke-width="0.5" stroke-miterlimit="10"/>
<path d="M185.69 58.86L177.83 82.33V86.11C177.83 86.11 168.66 93.79 168.99 106.83C169.32 119.87 173.58 161.26 175.56 172.6C177.54 183.94 181.85 197.35 181.85 197.35" stroke="#00BDFF" stroke-width="1" stroke-miterlimit="10"/>
<path d="M154.38 84.41L195.42 56.95C195.42 56.95 243.02 28.04 273.07 22.93C303.12 17.82 313.32 16.88 313.32 16.88L307.69 70.86" stroke="#00BDFF" stroke-width="1" stroke-miterlimit="10"/>
<path d="M333.73 68.16V16.88C333.73 16.88 403.24 13.67 412.82 16.88C412.82 16.88 423.02 36.31 421.04 49.6L420 58.86" stroke="#00BDFF" stroke-width="1" stroke-miterlimit="10"/>
</svg>
