<svg width="572" height="235" viewBox="0 0 572 235" fill="none" xmlns="http://www.w3.org/2000/svg">
<path d="M465.11 221.92C484.285 221.92 499.83 206.375 499.83 187.2C499.83 168.025 484.285 152.48 465.11 152.48C445.935 152.48 430.39 168.025 430.39 187.2C430.39 206.375 445.935 221.92 465.11 221.92Z" stroke="#00BDFF" stroke-width="1" stroke-miterlimit="10"/>
<path d="M465.38 234.03C491.481 234.03 512.64 212.871 512.64 186.77C512.64 160.669 491.481 139.51 465.38 139.51C439.279 139.51 418.12 160.669 418.12 186.77C418.12 212.871 439.279 234.03 465.38 234.03Z" stroke="#00BDFF" stroke-miterlimit="10"/>
<path d="M464.43 190.7C466.446 190.7 468.08 189.066 468.08 187.05C468.08 185.034 466.446 183.4 464.43 183.4C462.414 183.4 460.78 185.034 460.78 187.05C460.78 189.066 462.414 190.7 464.43 190.7Z" stroke="#00BDFF" stroke-width="1" stroke-miterlimit="10"/>
<path d="M98 213.1C117.175 213.1 132.72 197.555 132.72 178.38C132.72 159.205 117.175 143.66 98 143.66C78.8247 143.66 63.28 159.205 63.28 178.38C63.28 197.555 78.8247 213.1 98 213.1Z" stroke="#00BDFF" stroke-width="1" stroke-miterlimit="10"/>
<path d="M98.26 225.21C124.361 225.21 145.52 204.051 145.52 177.95C145.52 151.849 124.361 130.69 98.26 130.69C72.159 130.69 51 151.849 51 177.95C51 204.051 72.159 225.21 98.26 225.21Z" stroke="#00BDFF" stroke-miterlimit="10"/>
<path d="M97.32 181.88C99.3359 181.88 100.97 180.246 100.97 178.23C100.97 176.214 99.3359 174.58 97.32 174.58C95.3042 174.58 93.67 176.214 93.67 178.23C93.67 180.246 95.3042 181.88 97.32 181.88Z" stroke="#00BDFF" stroke-width="1" stroke-miterlimit="10"/>
<path d="M408.56 190.7H402.32V195.13C402.32 196.46 401.24 197.54 399.91 197.54C399.74 197.54 399.64 197.74 399.75 197.88L407.18 207.39C407.63 207.97 408.56 207.65 408.56 206.91V190.7Z" stroke="#00BDFF" stroke-width="1" stroke-miterlimit="10"/>
<path d="M408.56 189.8C408.56 189.8 409.88 128.57 470.73 130.08C470.73 130.08 517.41 131.21 521.56 181.29L522.5 195.84L520.61 199.19C520.61 199.19 547.82 196.4 553.11 192.81C553.11 192.81 555.19 189.03 555.94 186.76C555.94 186.76 569.36 179.58 571.25 175.23C571.25 175.23 570.87 174.1 568.79 159.36C568.79 159.36 572.19 130.45 567.28 121.19C562.37 111.93 558.78 106.83 558.78 106.83C558.78 106.83 540.26 91.14 503.79 84.15C467.32 77.16 433.3 72.81 433.3 72.81C433.3 72.81 335.98 20.09 313.3 13.28C313.3 13.28 237.3 -13.93 50.99 11.39L49.72 14.37C49.2 15.59 49.89 16.98 51.17 17.31L60.45 19.71L39.28 42.39C39.28 42.39 24.54 52.22 21.89 52.97C19.24 53.72 14.33 59.02 12.82 78.67C11.31 98.32 8.13998 109.66 8.13998 109.66C-0.360022 118.73 3.03997 125.39 3.03997 125.39V133.89C3.03997 139.13 0.629984 138.28 0.629984 138.28C-0.500016 153.16 7.28997 165.92 7.28997 165.92C12.11 173.57 43.57 180.38 43.57 180.38L42.15 173.15L43.71 167.91C43.57 161.82 49.1 144.95 49.1 144.95C64.12 114.34 99.13 117.17 99.13 117.17C149.44 121.99 152.14 168.05 152.14 168.05V172.87V181.94L154.12 186.9C154.28 186.87 154.67 186.86 155.25 186.85C167.03 186.65 260.13 189.74 260.13 189.74L399.71 197.87" stroke="#00BDFF" stroke-width="1.5" stroke-miterlimit="10"/>
<path d="M555.47 158.99L558.04 158.61L562.14 161.82L567.49 160.88V165.79C567.49 168.06 565.79 168.25 565.79 168.25C565.79 168.25 557.66 170.33 554.26 170.9C550.86 171.47 551.8 162.4 551.8 162.4C551.8 162.4 562.38 144.45 565.6 139.52C568.82 134.59 568.81 137.46 568.81 137.46V143.7C568.81 143.7 566.48 144.64 563.58 144.08" stroke="#00BDFF" stroke-width="1" stroke-miterlimit="10"/>
<path d="M558.36 151.36C561.51 152.99 568.81 150.68 568.81 150.68V145.01C568.81 145.01 564.54 147.09 562.14 145.95" stroke="#00BDFF" stroke-width="1" stroke-miterlimit="10"/>
<path d="M555.47 156.2H560.25L563.33 159.93L567.49 158.8L568.81 152.47C568.81 152.47 564.86 154.22 556.92 153.77" stroke="#00BDFF" stroke-width="1" stroke-miterlimit="10"/>
<path d="M568.81 126.49C568.81 126.49 542.54 128.38 533.28 124.79" stroke="#00BDFF" stroke-width="0.5" stroke-miterlimit="10"/>
<path d="M560.25 119.69L554.26 108.54C554.26 108.54 519.87 96.82 488.31 97.39L523.46 118.37C523.46 118.37 532.91 121.96 538.2 122.91C543.49 123.86 549.16 124.8 549.16 124.8L551.05 121.59L560.25 119.7V119.69Z" stroke="#00BDFF" stroke-width="1" stroke-miterlimit="10"/>
<path d="M568.38 124.79L559.44 121.96L557.8 124.79H549.17" stroke="#00BDFF" stroke-width="0.5" stroke-miterlimit="10"/>
<path d="M562.14 181.48C562.14 181.48 526.29 183.75 522.51 181.48" stroke="#00BDFF" stroke-width="1" stroke-miterlimit="10"/>
<path d="M16.96 60.91C16.96 60.91 15.68 58.93 25.75 58.78C35.82 58.63 72.52 60.91 72.52 60.91C72.52 60.91 76.77 61.05 73.51 63.32C70.25 65.59 66.99 70.26 58.06 70.83C49.13 71.4 42.04 69.84 36.37 75.79C32.72 79.62 29.66 82.1 27.94 83.38C27.03 84.06 25.88 84.32 24.77 84.1L15.96 82.33C15.96 82.33 12.49 81.61 12.96 77.31" stroke="#00BDFF" stroke-width="1.5" stroke-miterlimit="10"/>
<path d="M409.75 173.76C408.23 173.38 148.05 151.67 148.05 151.67" stroke="#00BDFF" stroke-width="1" stroke-miterlimit="10"/>
<path d="M436.97 77.09C436.97 77.09 444.53 90.79 455.98 93.07C467.42 95.35 487.21 97.36 487.21 97.36" stroke="#00BDFF" stroke-width="0.5" stroke-miterlimit="10"/>
<path d="M436.97 77.09C436.97 77.09 420.99 70.62 388.64 53.68C356.29 36.74 325.27 20.76 325.27 20.76L327.28 18.8" stroke="#00BDFF" stroke-width="1" stroke-miterlimit="10"/>
<path d="M420.85 88.13C420.85 88.13 431.05 87.88 423.31 82.33C415.57 76.78 376.82 52.6 376.82 52.6C376.82 52.6 322.21 21.99 305.01 19.72C305.01 19.72 272.13 13.11 253.04 12.73C233.95 12.35 195.78 11.41 195.78 11.41L127.37 14.81L77.29 20.29C77.29 20.29 68.22 20.48 71.43 26.15C74.64 31.82 85.79 46.37 85.79 46.37C85.79 46.37 92.59 54.31 106.01 55.25C119.43 56.19 158.73 62.24 158.73 62.24L252.27 72.63L386.44 85.48L420.83 88.13H420.85Z" stroke="#00BDFF" stroke-width="1" stroke-miterlimit="10"/>
<path d="M425.9 84.85L381.12 82.33" stroke="#00BDFF" stroke-width="0.5" stroke-miterlimit="10"/>
<path d="M375.3 82.33L209 65.07L122.83 55.24C122.83 55.24 95.62 53.92 86.74 42.39C77.86 30.86 74.74 26.7 74.74 26.7C74.74 26.7 73.89 24.43 77.1 23.87C80.31 23.31 148.53 16.88 148.53 16.88L131.02 56.18" stroke="#00BDFF" stroke-width="1" stroke-miterlimit="10"/>
<path d="M152.5 14.8L134.17 55.24C134.17 55.24 130.2 60.34 128.31 61.48C126.42 62.62 117.54 76.98 117.54 76.98V99.91V114.02" stroke="#00BDFF" stroke-width="1" stroke-miterlimit="10"/>
<path d="M248.47 12.63L251.49 69.48V72.54C251.49 72.54 255.3 83.78 255.11 89.82C254.92 95.87 254.17 132.72 254.17 132.72C254.17 132.72 255.11 148.5 256.06 151.67C257.01 154.84 254.74 161.83 254.74 161.83L251.32 189.46" stroke="#00BDFF" stroke-width="1.5" stroke-miterlimit="10"/>
<path d="M528.37 181.48C528.75 179.21 525.59 125.35 464.43 123.37C464.43 123.37 422.76 118.41 404.13 170.92" stroke="#00BDFF" stroke-width="0.5" stroke-miterlimit="10"/>
<path d="M154.58 149.35C154.58 147.84 134.43 106.81 93.6701 111.07C52.9101 115.33 43.83 144.95 43.83 144.95L12.9201 140.65C12.9201 140.65 3.07007 138.1 3.07007 133.89" stroke="#00BDFF" stroke-width="1" stroke-miterlimit="10"/>
<path d="M385.27 66.56C383.76 64.96 380.02 61.25 371.54 61.17L368.31 67.26C368.31 67.26 366.79 77.44 368.31 80.01L377.25 82.32C377.25 82.32 380.2 83.34 381.82 79.72C382.52 78.16 383.39 75.64 384.16 73.26C384.8 71.29 385.36 69.42 385.7 68.31C385.89 67.69 385.73 67.02 385.28 66.55L385.27 66.56Z" stroke="#00BDFF" stroke-width="1" stroke-miterlimit="10"/>
<path d="M384.15 73.28C384.15 73.28 376.1 70.6 370.59 70.89L370.02 74.79C370.02 74.79 382.47 76.64 383.13 76.34" stroke="#00BDFF" stroke-width="0.5" stroke-miterlimit="10"/>
<path d="M372.77 61.75L370.58 67.65V70.88" stroke="#00BDFF" stroke-width="0.5" stroke-miterlimit="10"/>
<path d="M386.81 58.86L394.67 82.33V86.11C394.67 86.11 403.84 93.79 403.51 106.83C403.18 119.87 398.92 161.26 396.94 172.6C394.96 183.93 390.65 197.35 390.65 197.35" stroke="#00BDFF" stroke-width="1" stroke-miterlimit="10"/>
<path d="M418.12 84.41L377.08 56.95C377.08 56.95 329.48 28.04 299.43 22.93C269.38 17.82 259.18 16.88 259.18 16.88L264.81 70.86" stroke="#00BDFF" stroke-width="1" stroke-miterlimit="10"/>
<path d="M238.77 68.16V16.88C238.77 16.88 169.26 13.67 159.68 16.88C159.68 16.88 149.48 36.31 151.46 49.6L152.5 58.86" stroke="#00BDFF" stroke-width="1" stroke-miterlimit="10"/>
<path d="M51.19 17.32C51.19 17.32 23.48 50.28 21.92 52.98" stroke="#00BDFF" stroke-width="1" stroke-miterlimit="10"/>
<path d="M402.04 106.27C402.04 106.27 72.65 70.26 45.16 71.82" stroke="#00BDFF" stroke-width="1" stroke-miterlimit="10"/>
<path d="M409.06 103.5V105.28C409.06 105.28 409.71 106.24 407.84 106.27C405.97 106.3 405.03 106.27 405.03 106.27L408.49 107.71C408.49 107.71 409.46 107.8 409.16 109.11C408.86 110.42 408.17 111.82 409.22 111.92C410.27 112.02 422.52 112.76 422.52 112.76C422.52 112.76 430.84 111.17 432.25 108.65C433.66 106.13 416.07 104.35 416.07 104.35L409.06 103.51V103.5Z" stroke="#00BDFF" stroke-width="0.5" stroke-miterlimit="10"/>
<path d="M429.82 108.13L410.65 104.81L410.28 106.27L428.42 109.48L429.82 108.13Z" stroke="#00BDFF" stroke-width="0.5" stroke-miterlimit="10"/>
<path d="M427.29 110.23L410.27 108.13L410.2 108.42C409.97 109.36 410.64 110.28 411.61 110.33C415.35 110.52 422.44 110.97 422.8 111.11C423.27 111.29 427.29 110.24 427.29 110.24V110.23Z" stroke="#00BDFF" stroke-width="0.5" stroke-miterlimit="10"/>
</svg>
