<svg width="21" height="21" viewBox="0 0 21 21" fill="none" xmlns="http://www.w3.org/2000/svg">
<path d="M16.8333 1C15.9935 1 15.188 1.33363 14.5942 1.9275C14.0003 2.52136 13.6667 3.32681 13.6667 4.16667V16.8333C13.6667 17.6732 14.0003 18.4786 14.5942 19.0725C15.188 19.6664 15.9935 20 16.8333 20C17.6732 20 18.4786 19.6664 19.0725 19.0725C19.6664 18.4786 20 17.6732 20 16.8333C20 15.9935 19.6664 15.188 19.0725 14.5942C18.4786 14.0003 17.6732 13.6667 16.8333 13.6667H4.16667C3.32681 13.6667 2.52136 14.0003 1.9275 14.5942C1.33363 15.188 1 15.9935 1 16.8333C1 17.6732 1.33363 18.4786 1.9275 19.0725C2.52136 19.6664 3.32681 20 4.16667 20C5.00652 20 5.81197 19.6664 6.40584 19.0725C6.9997 18.4786 7.33333 17.6732 7.33333 16.8333V4.16667C7.33333 3.32681 6.9997 2.52136 6.40584 1.9275C5.81197 1.33363 5.00652 1 4.16667 1C3.32681 1 2.52136 1.33363 1.9275 1.9275C1.33363 2.52136 1 3.32681 1 4.16667C1 5.00652 1.33363 5.81197 1.9275 6.40584C2.52136 6.9997 3.32681 7.33333 4.16667 7.33333H16.8333C17.6732 7.33333 18.4786 6.9997 19.0725 6.40584C19.6664 5.81197 20 5.00652 20 4.16667C20 3.32681 19.6664 2.52136 19.0725 1.9275C18.4786 1.33363 17.6732 1 16.8333 1Z" stroke="#2499DA" stroke-width="2" stroke-linecap="round" stroke-linejoin="round"/>
</svg>
