<svg width="108" height="107" viewBox="0 0 108 107" fill="none" xmlns="http://www.w3.org/2000/svg">
<circle cx="53.2435" cy="53.1094" r="52.7068" fill="#F5F5F5"/>
<mask id="mask0_0_1" style="mask-type:alpha" maskUnits="userSpaceOnUse" x="2" y="1" width="106" height="106">
<circle cx="54.7068" cy="53.7068" r="52.7068" fill="#F5F5F5"/>
</mask>
<g mask="url(#mask0_0_1)">
<path d="M55.7323 77.5254C75.5137 77.5254 91.5496 77.204 91.5496 76.8075C91.5496 76.411 75.5137 76.0896 55.7323 76.0896C35.951 76.0896 19.915 76.411 19.915 76.8075C19.915 77.204 35.951 77.5254 55.7323 77.5254Z" fill="#58595B"/>
<path d="M79.5445 59.929H31.9199V71.3254H79.5445V59.929Z" fill="black"/>
<path d="M83.3726 76.8075H77.6846C76.9657 76.8075 76.3906 76.2772 76.3906 75.6327V59.6842H84.6665V75.6246C84.6665 76.2772 84.0914 76.8075 83.3726 76.8075Z" fill="#231F20"/>
<path d="M33.7798 76.8075H28.0918C27.3729 76.8075 26.7979 76.2772 26.7979 75.6327V59.6842H35.0737V75.6246C35.0737 76.2772 34.4897 76.8075 33.7798 76.8075Z" fill="#231F20"/>
<path d="M84.6665 59.6842H76.3906V72.8754H84.6665V59.6842Z" fill="black"/>
<path d="M35.065 59.6842H26.7891V72.8754H35.065V59.6842Z" fill="black"/>
<path d="M89.6265 46.232H81.9077V45.2123H88.5033C89.1233 45.2123 89.6265 45.6691 89.6265 46.232Z" fill="black"/>
<path d="M90.5608 46.232H83.0308L83.3722 43.5236C83.489 42.5773 84.2978 41.9002 85.2053 41.9981L89.2759 42.4386C90.5339 42.5773 91.5313 43.6296 91.6571 44.9593C91.711 45.6364 91.2078 46.232 90.5608 46.232Z" fill="#00AAD8"/>
<path d="M89.267 42.4386L85.1965 41.9981C84.2979 41.9002 83.4802 42.5773 83.3634 43.5236L83.2915 44.1109H88.665C89.5186 44.1109 90.2824 43.7275 90.7587 43.1401C90.3453 42.7567 89.8421 42.4957 89.267 42.4386Z" fill="#00BDFF"/>
<path d="M90.3994 46.0607H84.0195C83.5972 46.0607 83.2737 45.7833 83.3186 45.4733L83.5612 43.7031C83.6781 42.8791 84.4419 42.2918 85.3045 42.3815L89.1774 42.7649C90.3814 42.8873 91.325 43.8009 91.4418 44.9594C91.4957 45.5467 91.0105 46.0607 90.3994 46.0607Z" fill="black"/>
<path d="M90.4176 46.0607H84.1635C83.7501 46.0607 83.4356 45.7997 83.4715 45.506L83.7052 43.8418C83.813 43.0668 84.5768 42.5121 85.4125 42.5937L89.2135 42.9526C90.3906 43.0668 91.3161 43.9234 91.4329 45.0165C91.4958 45.5794 91.0196 46.0607 90.4176 46.0607Z" fill="#E6E7E8"/>
<path opacity="0.5" d="M91.0915 44.0783C90.6961 43.4664 90.0132 43.0341 89.2135 42.9607L85.4125 42.6017C84.5678 42.5201 83.813 43.0749 83.7052 43.8499L83.5435 44.9675C85.6282 43.7927 88.3958 43.6949 91.0915 44.0783Z" fill="white"/>
<path d="M21.8379 46.232H29.5567V45.2123H22.9611C22.3411 45.2123 21.8379 45.6691 21.8379 46.232Z" fill="black"/>
<path d="M20.9033 46.232H28.4333L28.0919 43.5236C27.9751 42.5773 27.1663 41.9002 26.2588 41.9981L22.1882 42.4386C20.9302 42.5773 19.9328 43.6296 19.807 44.9593C19.7441 45.6364 20.2563 46.232 20.9033 46.232Z" fill="#00AAD8"/>
<path d="M22.1972 42.4386L26.2678 41.9981C27.1663 41.9002 27.984 42.5773 28.1009 43.5236L28.1727 44.1109H22.7993C21.9456 44.1109 21.1818 43.7275 20.7056 43.1401C21.1099 42.7567 21.6221 42.4957 22.1972 42.4386Z" fill="#00BDFF"/>
<path d="M21.065 46.0607H27.4449C27.8672 46.0607 28.1907 45.7833 28.1458 45.4733L27.9032 43.7031C27.7864 42.8791 27.0226 42.2918 26.1599 42.3815L22.2871 42.7649C21.083 42.8873 20.1395 43.8009 20.0227 44.9594C19.9687 45.5467 20.454 46.0607 21.065 46.0607Z" fill="#F7F7F7"/>
<path d="M21.0469 46.0607H27.301C27.7143 46.0607 28.0288 45.7997 27.9929 45.506L27.7592 43.8418C27.6514 43.0668 26.8876 42.5121 26.0519 42.5937L22.251 42.9526C21.0738 43.0668 20.1483 43.9234 20.0315 45.0165C19.9686 45.5794 20.4448 46.0607 21.0469 46.0607Z" fill="#F7F7F7"/>
<path opacity="0.5" d="M20.373 44.0783C20.7684 43.4664 21.4513 43.0341 22.2511 42.9607L26.0521 42.6017C26.8967 42.5201 27.6515 43.0749 27.7594 43.8499L27.9211 44.9675C25.8364 43.7927 23.0688 43.6949 20.373 44.0783Z" fill="#F7F7F7"/>
<path d="M83.8845 70.4689H71.4302V54.2593H84.1181L85.2862 56.4211V59.2111C85.2862 59.9534 84.6572 70.4689 83.8845 70.4689Z" fill="#00AAD8"/>
<path d="M27.5705 70.4689H40.0248V54.2593H27.3459L26.1777 56.4211V59.2111C26.1777 59.9534 26.8067 70.4689 27.5705 70.4689Z" fill="#00AAD8"/>
<path d="M83.2553 47.0967C83.2553 47.0967 75.5096 33.7097 74.9165 33.6608C69.7497 33.2529 63.0553 33 55.7319 33C48.4175 33 41.7141 33.2529 36.5563 33.6689C35.9632 33.7179 28.2085 47.1049 28.2085 47.1049C27.3638 48.2062 26.9146 49.5522 26.9146 50.939V58.5992C26.9146 59.6842 27.9299 70.4688 29.188 70.4688H82.2939C83.5519 70.4688 84.5673 59.6842 84.5673 58.5992V50.939C84.5583 49.5522 84.1 48.2062 83.2553 47.0967Z" fill="#00AAD8"/>
<path d="M83.2553 47.0967C83.2553 47.0967 83.2194 47.0314 83.1475 46.9172L80.6764 52.0403C78.1604 57.2613 72.4724 60.6305 66.2003 60.6305H40.3752C34.3907 60.6305 29.5474 65.0357 29.5474 70.4607H82.2849C83.5429 70.4607 84.5583 59.6761 84.5583 58.5911V50.9309C84.5583 49.5522 84.1 48.2062 83.2553 47.0967Z" fill="#00BDFF"/>
<path d="M32.2702 46.8846H79.1939C80.0835 46.8846 80.8743 47.2353 81.4224 47.7819C82.0784 48.4427 82.9769 48.8669 83.9654 48.8669H84.208C83.9923 48.2388 83.6688 47.6432 83.2555 47.0967C83.2555 47.0967 83.2285 47.0477 83.1746 46.9661C83.1656 46.9498 83.1566 46.9417 83.1477 46.9172C82.4647 45.7425 78.5739 39.0531 76.3814 35.6594C70.8372 36.5976 63.6216 37.1604 55.7321 37.1604C47.8426 37.1604 40.627 36.5894 35.0828 35.6512C32.6656 39.3875 28.2086 47.0967 28.2086 47.0967C27.7953 47.6351 27.4808 48.2306 27.2651 48.8587H27.5078C28.4872 48.8587 29.3858 48.4345 30.0507 47.7738C30.5899 47.2272 31.3806 46.8846 32.2702 46.8846Z" fill="#00AAD8"/>
<path d="M78.0438 52.4564H33.4115C31.839 52.4564 30.563 51.2979 30.563 49.8703C30.563 48.4427 31.839 47.2843 33.4115 47.2843H78.0438C79.6163 47.2843 80.8923 48.4427 80.8923 49.8703C80.8923 51.2979 79.6163 52.4564 78.0438 52.4564Z" fill="#00BDFF"/>
<path d="M32.4591 45.9872H79.0054C80.0298 45.9872 80.6947 45.0083 80.2275 44.1843C78.8257 41.6636 76.8039 38.0823 75.4201 35.8144C75.1775 35.4147 74.7192 35.1781 74.225 35.1781H37.2396C36.7453 35.1781 36.2871 35.4228 36.0444 35.8144C34.6606 38.0823 32.6388 41.6636 31.2281 44.1843C30.7698 45.0083 31.4347 45.9872 32.4591 45.9872Z" fill="black"/>
<path d="M78.6728 54.6915H32.7914C32.7555 54.6915 32.7285 54.6671 32.7285 54.6344V45.2693C32.7285 45.2366 32.7555 45.2122 32.7914 45.2122H78.6728C78.7087 45.2122 78.7357 45.2366 78.7357 45.2693V54.6344C78.7357 54.6589 78.7087 54.6915 78.6728 54.6915ZM32.8543 54.5692H78.6009V45.3264H32.8543V54.5692Z" fill="black"/>
<path d="M81.8358 70.8033H29.6284C29.6284 67.7197 32.3871 65.2152 35.7837 65.2152H75.6985C79.0861 65.2234 81.8358 67.7197 81.8358 70.8033Z" fill="#002D38"/>
<path d="M36.97 43.8743H74.4855C76.6332 43.8743 78.0439 41.9083 77.1094 40.2033C76.5882 39.257 76.067 38.3188 75.5818 37.4541C75.2583 36.8749 74.5754 36.5078 73.8386 36.5078H37.6169C36.8801 36.5078 36.2062 36.8749 35.8737 37.4541C35.3885 38.3188 34.8673 39.257 34.3461 40.2033C33.4206 41.9083 34.8313 43.8743 36.97 43.8743Z" fill="#85D5D0"/>
<path d="M68.195 43.2462C68.1141 43.2462 68.0512 43.1809 68.0333 43.0912L67.6559 40.9293C67.4402 39.7138 66.5596 38.8491 65.5262 38.8491H63.163C62.1386 38.8491 61.249 39.7138 61.0333 40.9293L60.656 43.0912C60.638 43.1809 60.5751 43.2462 60.4942 43.2462C59.964 43.2462 59.4698 43.4909 59.1014 43.8825H69.5878C69.2104 43.4827 68.7252 43.2462 68.195 43.2462ZM50.9603 43.2462C50.8794 43.2462 50.8165 43.1809 50.7986 43.0912L50.4212 40.9212C50.2055 39.7057 49.3249 38.8409 48.2915 38.8409H45.9283C44.9039 38.8409 44.0143 39.7057 43.7986 40.9212L43.4212 43.083C43.4033 43.1727 43.3404 43.238 43.2595 43.238C42.7293 43.238 42.2351 43.4827 41.8667 43.8743H52.3531C51.9847 43.4827 51.4994 43.2462 50.9603 43.2462Z" fill="#414042"/>
<path d="M48.8578 43.0422C48.75 43.0422 48.6511 42.9688 48.6242 42.8709L48.085 40.5296C47.7795 39.2162 46.5035 38.2699 45.0209 38.2699H41.6153C40.1326 38.2699 38.8566 39.208 38.5511 40.5296L38.003 42.879C37.976 42.9769 37.8862 43.0504 37.7693 43.0504C37.0325 43.0504 36.3676 43.2951 35.8374 43.6785C36.1789 43.809 36.5652 43.8825 36.9786 43.8825H51.0413C50.4752 43.3685 49.7114 43.0422 48.8578 43.0422ZM73.7034 43.0422C73.5956 43.0422 73.4968 42.9688 73.4698 42.8709L72.9217 40.5214C72.6162 39.208 71.3402 38.2617 69.8575 38.2617H66.4519C64.9693 38.2617 63.6933 39.1999 63.3878 40.5214L62.8396 42.8709C62.8127 42.9688 62.7228 43.0422 62.606 43.0422C61.7524 43.0422 60.9886 43.3685 60.4315 43.8743H74.4942C74.9075 43.8743 75.2849 43.8009 75.6354 43.6704C75.0962 43.2869 74.4313 43.0422 73.7034 43.0422Z" fill="#58595B"/>
<path d="M34.166 41.9899C34.4985 43.0422 35.5768 43.8825 36.9786 43.8825H74.4942C75.8959 43.8825 76.9742 43.0422 77.3067 41.9899H34.166Z" fill="#6D6E71"/>
<path opacity="0.5" d="M61.6266 40.0732H77.0372C76.5429 39.1758 76.0487 38.2866 75.5905 37.4627C75.258 36.8835 74.5841 36.5164 73.8472 36.5164H37.6166C36.8798 36.5164 36.2058 36.8835 35.8733 37.4627C35.3881 38.3274 34.8669 39.2655 34.3458 40.2118C33.4112 41.9087 34.822 43.8829 36.9696 43.8829H41.8579C45.4791 41.566 51.868 40.0732 61.6266 40.0732Z" fill="white"/>
<path d="M37.8324 56.4537H31.0482C29.278 56.4537 27.6426 54.0961 27.6426 51.1919C27.6426 50.6943 28.0829 50.2946 28.631 50.2946H37.3023C38.2188 50.2946 38.9557 50.9635 38.9557 51.7956V55.434C38.9557 55.9969 38.4525 56.4537 37.8324 56.4537Z" fill="#ED1C24"/>
<path d="M34.2833 55.9805H36.9881C37.8417 55.9805 38.5336 55.3523 38.5336 54.5773C38.5336 53.8023 37.8417 53.1742 36.9881 53.1742H34.2833C33.4297 53.1742 32.7378 53.8023 32.7378 54.5773C32.7378 55.3442 33.4297 55.9805 34.2833 55.9805Z" fill="#BE1E2D"/>
<path d="M29.7363 55.4176H29.8172C28.8377 55.4176 27.9302 53.5576 27.9302 51.2653C27.9302 50.8737 28.1728 50.5555 28.4783 50.5555H29.4398C29.943 50.5555 30.3563 51.0858 30.3563 51.7384V54.61C30.3653 55.0587 30.0868 55.4176 29.7363 55.4176Z" fill="#F14950"/>
<path opacity="0.5" d="M31.7849 53.9655H33.9145C34.5884 53.9655 35.1276 53.4679 35.1276 52.8642C35.1276 52.2524 34.5794 51.7629 33.9145 51.7629H31.7849C31.1109 51.7629 30.5718 52.2606 30.5718 52.8642C30.5718 53.4761 31.1109 53.9655 31.7849 53.9655Z" fill="white"/>
<path d="M37.8324 56.5108H31.0481C29.1701 56.5108 27.5796 54.0716 27.5796 51.1919C27.5796 50.6616 28.0558 50.2292 28.6399 50.2292H37.3112C38.2547 50.2292 39.0275 50.9308 39.0275 51.7874V55.4339C39.0275 56.0295 38.4883 56.5108 37.8324 56.5108ZM28.6309 50.3516C28.1187 50.3516 27.7054 50.7269 27.7054 51.1919C27.7054 53.9655 29.2689 56.3966 31.0391 56.3966H37.8234C38.4074 56.3966 38.8837 55.9642 38.8837 55.4339V51.7955C38.8837 51.0042 38.1738 50.3516 37.2932 50.3516H28.6309Z" fill="black"/>
<path d="M73.6316 56.4537H80.4159C82.1861 56.4537 83.8215 54.0961 83.8215 51.1919C83.8215 50.6943 83.3812 50.2946 82.8331 50.2946H74.1618C73.2453 50.2946 72.5084 50.9635 72.5084 51.7956V55.434C72.4994 55.9969 73.0116 56.4537 73.6316 56.4537Z" fill="#ED1C24"/>
<path d="M77.1809 55.9805H74.4762C73.6226 55.9805 72.9307 55.3523 72.9307 54.5773C72.9307 53.8023 73.6226 53.1742 74.4762 53.1742H77.1809C78.0346 53.1742 78.7265 53.8023 78.7265 54.5773C78.7265 55.3442 78.0346 55.9805 77.1809 55.9805Z" fill="#BE1E2D"/>
<path d="M81.7186 55.4176H81.6378C82.6172 55.4176 83.5248 53.5576 83.5248 51.2653C83.5248 50.8737 83.2822 50.5555 82.9767 50.5555H82.0152C81.512 50.5555 81.0986 51.0858 81.0986 51.7384V54.61C81.0986 55.0587 81.3772 55.4176 81.7186 55.4176Z" fill="#BE1E2D"/>
<path opacity="0.5" d="M79.6791 53.9655H77.5495C76.8756 53.9655 76.3364 53.4679 76.3364 52.8642C76.3364 52.2524 76.8846 51.7629 77.5495 51.7629H79.6791C80.3531 51.7629 80.8922 52.2606 80.8922 52.8642C80.8922 53.4761 80.3531 53.9655 79.6791 53.9655Z" fill="white"/>
<path d="M72.4365 55.434V51.7956C72.4365 50.939 73.2093 50.2374 74.1528 50.2374H82.8241C83.4081 50.2374 83.8844 50.6698 83.8844 51.2C83.8844 54.0879 82.2939 56.5189 80.4159 56.5189H73.6316C72.9757 56.5108 72.4365 56.0295 72.4365 55.434ZM74.1528 50.3516C73.2812 50.3516 72.5623 50.9961 72.5623 51.7956V55.434C72.5623 55.9642 73.0386 56.3966 73.6226 56.3966H80.4069C82.1861 56.3966 83.7406 53.9655 83.7406 51.1919C83.7406 50.7269 83.3273 50.3516 82.8151 50.3516H74.1528Z" fill="black"/>
<path d="M88.5663 70.942V79.4751H21.4426V70.942H1V88H109V70.942H88.5663Z" fill="#27AAE1"/>
</g>
</svg>
