<svg width="76" height="76" viewBox="0 0 76 76" fill="none" xmlns="http://www.w3.org/2000/svg">
<circle cx="38" cy="38" r="36" transform="rotate(-90 38 38)" fill="#32A1FC" stroke="white" stroke-width="4"/>
<path d="M45.3333 26.0002C45.908 26.0002 46.4591 26.2284 46.8654 26.6348C47.2717 27.0411 47.5 27.5922 47.5 28.1668L47.5 47.6668C47.5 48.2415 47.2717 48.7926 46.8654 49.1989C46.4591 49.6052 45.908 49.8335 45.3333 49.8335L33.4167 49.8335C32.842 49.8335 32.2909 49.6052 31.8846 49.1989C31.4783 48.7926 31.25 48.2415 31.25 47.6668L31.25 43.3335L28 41.1668L28 34.6668L31.25 32.5002L31.25 28.1668C31.25 27.5922 31.4783 27.0411 31.8846 26.6348C32.2909 26.2284 32.842 26.0002 33.4167 26.0002L45.3333 26.0002Z" stroke="white" stroke-width="2" stroke-linecap="round" stroke-linejoin="round"/>
<path d="M43.1667 37.9172C43.1667 35.5239 41.2266 33.5838 38.8333 33.5838C36.4401 33.5838 34.5 35.5239 34.5 37.9172C34.5 40.3104 36.4401 42.2505 38.8333 42.2505C41.2266 42.2505 43.1667 40.3104 43.1667 37.9172Z" stroke="white" stroke-width="2" stroke-linecap="round" stroke-linejoin="round"/>
</svg>
