<svg width="265" height="265" viewBox="0 0 265 265" fill="none" xmlns="http://www.w3.org/2000/svg">
<g filter="url(#filter0_i_25_2046)">
<circle cx="132.5" cy="132.5" r="132.5" fill="#B8E4FF"/>
</g>
<g clip-path="url(#clip0_25_2046)">
<path d="M132.504 212C182.336 212 222.733 211.111 222.733 210.015C222.733 208.919 182.336 208.031 132.504 208.031C82.6719 208.031 42.2749 208.919 42.2749 210.015C42.2749 211.111 82.6719 212 132.504 212Z" fill="#021F37"/>
<path d="M192.487 163.408H72.521V194.889H192.487V163.408Z" fill="black"/>
<path d="M204.267 210.015H185.675C185.047 210.015 184.544 209.508 184.544 208.89V162.728H205.405V208.89C205.405 209.515 204.894 210.015 204.267 210.015Z" fill="#231F20"/>
<path d="M79.3252 210.015H60.7331C60.1053 210.015 59.603 209.508 59.603 208.89V162.728H80.4632V208.89C80.4632 209.515 79.9531 210.015 79.3252 210.015Z" fill="#231F20"/>
<path d="M205.405 162.728H184.544V199.162H205.405V162.728Z" fill="black"/>
<path d="M80.4632 162.728H59.603V199.162H80.4632V162.728Z" fill="black"/>
<path d="M217.883 125.544H198.436V122.723H216.722C217.357 122.723 217.875 123.239 217.875 123.872V125.544H217.883Z" fill="black"/>
<path d="M220.237 125.544H201.261L202.116 118.051C202.414 115.433 204.463 113.566 206.731 113.839L216.988 115.066C220.167 115.449 222.678 118.355 222.992 122.035C223.149 123.918 221.87 125.544 220.237 125.544Z" fill="#00AAD8"/>
<path d="M216.988 115.066L206.723 113.847C204.455 113.573 202.407 115.441 202.108 118.058L201.92 119.684H215.458C217.616 119.684 219.531 118.613 220.724 116.996C219.712 115.949 218.424 115.238 216.988 115.066Z" fill="#00BDFF"/>
<path d="M219.829 125.091H203.749C202.697 125.091 201.873 124.333 201.975 123.465L202.587 118.582C202.87 116.308 204.816 114.691 206.974 114.925L216.737 115.988C219.759 116.316 222.152 118.848 222.45 122.043C222.6 123.668 221.383 125.091 219.829 125.091Z" fill="black"/>
<path d="M219.876 125.09H204.11C203.074 125.09 202.265 124.379 202.375 123.559L202.972 118.965C203.246 116.824 205.153 115.3 207.272 115.519L216.839 116.519C219.806 116.832 222.145 119.215 222.435 122.223C222.592 123.754 221.407 125.09 219.876 125.09Z" fill="#E6E7E8"/>
<path opacity="0.5" d="M221.579 119.613C220.59 117.925 218.872 116.73 216.847 116.511L207.28 115.511C205.161 115.292 203.254 116.816 202.979 118.957L202.571 122.051C207.806 118.824 214.791 118.543 221.579 119.613Z" fill="white"/>
<path d="M47.1172 125.544H66.5647V122.723H48.2787C47.643 122.723 47.125 123.239 47.125 123.872V125.544H47.1172Z" fill="black"/>
<path d="M44.7626 125.544H63.7392L62.8838 118.051C62.5856 115.433 60.5372 113.566 58.2691 113.839L48.0196 115.066C44.8411 115.449 42.3297 118.355 42.0158 122.035C41.851 123.918 43.1302 125.544 44.7626 125.544Z" fill="#00AAD8"/>
<path d="M48.0194 115.066L58.2769 113.847C60.545 113.573 62.5933 115.441 62.8915 118.058L63.0799 119.684H49.5341C47.3759 119.684 45.461 118.613 44.2681 116.996C45.2962 115.949 46.5832 115.238 48.0194 115.066Z" fill="#00BDFF"/>
<path d="M45.1786 125.091H61.2593C62.311 125.091 63.135 124.333 63.033 123.465L62.4208 118.582C62.1383 116.308 60.192 114.691 58.0338 114.925L48.2708 115.988C45.2493 116.316 42.8556 118.848 42.5574 122.043C42.4083 123.668 43.6169 125.091 45.1786 125.091Z" fill="#F7F7F7"/>
<path d="M45.1238 125.09H60.8906C61.9266 125.09 62.7349 124.379 62.625 123.559L62.0286 118.965C61.7539 116.824 59.8468 115.3 57.7278 115.519L48.1532 116.511C45.1866 116.824 42.8479 119.207 42.5575 122.215C42.4084 123.754 43.6013 125.09 45.1238 125.09Z" fill="#F7F7F7"/>
<path opacity="0.5" d="M43.4209 119.613C44.4098 117.925 46.1285 116.73 48.1533 116.511L57.7201 115.511C59.8391 115.292 61.7461 116.816 62.0208 118.957L62.4211 122.051C57.2021 118.824 50.2173 118.543 43.4209 119.613Z" fill="#F7F7F7"/>
<path d="M203.435 192.498H172.058V147.734H204.015L206.951 153.704V161.408C206.951 163.463 205.373 192.498 203.435 192.498Z" fill="#00AAD8"/>
<path d="M61.5731 192.498H92.9496V147.734H60.9923L58.0571 153.704V161.408C58.0571 163.463 59.6267 192.498 61.5731 192.498Z" fill="#00AAD8"/>
<path d="M201.842 127.958C201.842 127.958 182.331 90.9768 180.824 90.844C167.82 89.6954 150.947 89 132.504 89C114.069 89 97.1955 89.6954 84.1912 90.8362C82.6922 90.969 63.1584 127.958 63.1584 127.958C61.0394 131.013 59.8857 134.725 59.8857 138.538V159.712C59.8857 162.705 62.4521 192.498 65.6148 192.498H199.393C202.556 192.498 205.122 162.705 205.122 159.712V138.553C205.122 134.732 203.968 131.013 201.842 127.958Z" fill="#00AAD8"/>
<path d="M201.842 127.958C201.842 127.958 201.748 127.771 201.575 127.45L195.344 141.6C189.002 156.024 174.687 165.338 158.874 165.338H93.8131C78.7448 165.338 66.5254 177.503 66.5254 192.505H199.385C202.548 192.505 205.114 162.712 205.114 159.72V138.553C205.122 134.732 203.969 131.013 201.842 127.958Z" fill="#00BDFF"/>
<path d="M73.3922 127.356H191.608C193.837 127.356 195.838 128.318 197.227 129.841C198.891 131.67 201.151 132.842 203.623 132.842H204.227C203.67 131.099 202.877 129.45 201.834 127.958C201.834 127.958 201.763 127.825 201.637 127.591C201.614 127.544 201.598 127.513 201.567 127.45C199.856 124.208 190.054 105.737 184.529 96.3369C170.551 98.931 152.375 100.502 132.496 100.502C112.617 100.502 94.4486 98.931 80.4711 96.3369C74.3889 106.666 63.1505 127.95 63.1505 127.95C62.1145 129.443 61.314 131.091 60.7646 132.826H61.3689C63.8411 132.826 66.1092 131.654 67.773 129.826C69.1621 128.31 71.1633 127.356 73.3922 127.356Z" fill="#00AAD8"/>
<path d="M192.895 142.741H72.1132C70.4573 142.741 69.1152 141.405 69.1152 139.756V131.451C69.1152 129.802 70.4573 128.466 72.1132 128.466H192.895C194.551 128.466 195.893 129.802 195.893 131.451V139.764C195.893 141.405 194.551 142.741 192.895 142.741Z" fill="#00BDFF"/>
<path d="M73.8712 124.88H191.129C193.703 124.88 195.375 122.184 194.214 119.895C190.674 112.933 185.581 103.025 182.104 96.7666C181.5 95.6727 180.346 95.0007 179.09 95.0007H85.9259C84.6702 95.0007 83.5165 95.6727 82.9122 96.7666C79.4355 103.017 74.3343 112.925 70.7869 119.895C69.6254 122.176 71.2971 124.88 73.8712 124.88Z" fill="black"/>
<path d="M190.29 148.914H74.7112C74.6249 148.914 74.5464 148.844 74.5464 148.75V122.887C74.5464 122.801 74.617 122.723 74.7112 122.723H190.29C190.376 122.723 190.455 122.793 190.455 122.887V148.75C190.455 148.844 190.376 148.914 190.29 148.914ZM74.876 148.593H190.133V123.051H74.876V148.593Z" fill="black"/>
<path d="M198.271 193.443H66.7295V184.793C66.7295 181.051 69.7824 178.011 73.5416 178.011H191.451C195.21 178.011 198.263 181.051 198.263 184.793V193.443H198.271Z" fill="#002D38"/>
<path d="M85.2429 119.051H179.757C185.157 119.051 188.712 113.612 186.373 108.917C185.07 106.307 183.76 103.705 182.535 101.322C181.711 99.7123 180.008 98.7043 178.148 98.7043H86.8596C84.9996 98.7043 83.2966 99.7123 82.4726 101.322C81.2483 103.705 79.9376 106.299 78.6349 108.909C76.2883 113.605 79.8435 119.051 85.2429 119.051Z" fill="#85D5D0"/>
<path d="M163.896 117.3C163.7 117.3 163.535 117.121 163.496 116.871L162.539 110.893C162.005 107.549 159.768 105.151 157.178 105.151H151.222C148.632 105.151 146.403 107.549 145.861 110.893L144.904 116.871C144.865 117.121 144.692 117.3 144.504 117.3C143.154 117.3 141.937 117.965 140.988 119.051H167.396C166.463 117.965 165.238 117.3 163.896 117.3ZM120.496 117.3C120.3 117.3 120.135 117.121 120.096 116.871L119.139 110.893C118.605 107.549 116.368 105.151 113.778 105.151H107.822C105.232 105.151 103.003 107.549 102.462 110.893L101.504 116.871C101.465 117.121 101.292 117.3 101.104 117.3C99.754 117.3 98.5375 117.965 97.5879 119.051H123.997C123.063 117.965 121.838 117.3 120.496 117.3Z" fill="#414042"/>
<path d="M115.183 116.754C114.901 116.754 114.657 116.558 114.603 116.285L113.229 109.799C112.46 106.166 109.234 103.564 105.507 103.564H96.9209C93.193 103.564 89.9675 106.166 89.1984 109.799L87.8249 116.285C87.77 116.558 87.5267 116.754 87.2442 116.754C85.392 116.754 83.7126 117.418 82.3862 118.496C83.2574 118.848 84.2227 119.051 85.2586 119.051H120.685C119.264 117.644 117.342 116.754 115.183 116.754ZM177.764 116.754C177.481 116.754 177.238 116.558 177.183 116.285L175.81 109.799C175.041 106.166 171.815 103.564 168.087 103.564H159.501C155.774 103.564 152.548 106.166 151.779 109.799L150.405 116.285C150.351 116.558 150.107 116.754 149.825 116.754C147.674 116.754 145.744 117.644 144.339 119.051H179.765C180.801 119.051 181.766 118.848 182.637 118.496C181.295 117.418 179.616 116.754 177.764 116.754Z" fill="#58595B"/>
<path d="M78.1719 113.823C79.0038 116.73 81.7271 119.051 85.243 119.051H179.757C183.281 119.051 186.004 116.738 186.828 113.823H78.1719Z" fill="#6D6E71"/>
<path opacity="0.5" d="M147.352 108.534H186.177C184.937 106.049 183.697 103.588 182.528 101.322C181.703 99.7123 180 98.7043 178.14 98.7043H86.8596C84.9996 98.7043 83.2965 99.7123 82.4725 101.322C81.2482 103.705 79.9376 106.299 78.6348 108.909C76.2882 113.605 79.8434 119.043 85.2507 119.043H97.58C106.676 112.659 122.764 108.534 147.352 108.534Z" fill="white"/>
<path d="M87.4088 153.797H70.3079C65.8423 153.797 61.7378 147.289 61.7378 139.256C61.7378 137.881 62.8601 136.772 64.2335 136.772H86.0825C88.382 136.772 90.242 138.624 90.242 140.913V150.969C90.2498 152.532 88.9784 153.797 87.4088 153.797Z" fill="#ED1C24"/>
<path d="M78.4698 152.477H85.2898C87.4402 152.477 89.1903 150.742 89.1903 148.594C89.1903 146.453 87.448 144.71 85.2898 144.71H78.4698C76.3195 144.71 74.5693 146.445 74.5693 148.594C74.5772 150.742 76.3195 152.477 78.4698 152.477Z" fill="#BE1E2D"/>
<path d="M67.0274 150.938H67.2315C64.7593 150.938 62.4834 145.804 62.4834 139.467C62.4834 138.381 63.1034 137.506 63.8725 137.506H66.2976C67.5689 137.506 68.6049 138.967 68.6049 140.772V148.703C68.6049 149.937 67.8986 150.938 67.0274 150.938Z" fill="#F14950"/>
<path opacity="0.5" d="M72.176 146.929H77.5362C79.2235 146.929 80.597 145.562 80.597 143.882C80.597 142.202 79.2235 140.835 77.5362 140.835H72.176C70.4886 140.835 69.1152 142.202 69.1152 143.882C69.1152 145.562 70.4808 146.929 72.176 146.929Z" fill="white"/>
<path d="M87.409 153.954H70.3081C65.5757 153.954 61.5811 147.218 61.5811 139.249C61.5811 137.788 62.774 136.6 64.2415 136.6H86.0906C88.4764 136.6 90.4149 138.53 90.4149 140.905V150.961C90.4149 152.618 89.065 153.954 87.409 153.954ZM64.2415 136.928C62.9545 136.928 61.9028 137.975 61.9028 139.256C61.9028 146.921 65.8347 153.641 70.3081 153.641H87.409C88.8845 153.641 90.0931 152.446 90.0931 150.969V140.905C90.0931 138.709 88.2959 136.92 86.0906 136.92H64.2415V136.928Z" fill="black"/>
<path d="M177.591 153.797H194.692C199.157 153.797 203.262 147.289 203.262 139.256C203.262 137.881 202.14 136.772 200.766 136.772H178.917C176.618 136.772 174.758 138.624 174.758 140.913V150.969C174.75 152.532 176.021 153.797 177.591 153.797Z" fill="#ED1C24"/>
<path d="M186.53 152.477H179.71C177.56 152.477 175.81 150.742 175.81 148.594C175.81 146.453 177.552 144.71 179.71 144.71H186.53C188.68 144.71 190.431 146.445 190.431 148.594C190.423 150.742 188.68 152.477 186.53 152.477Z" fill="#BE1E2D"/>
<path d="M197.98 150.938H197.776C200.248 150.938 202.524 145.804 202.524 139.467C202.524 138.381 201.904 137.506 201.135 137.506H198.71C197.439 137.506 196.403 138.967 196.403 140.772V148.703C196.403 149.937 197.109 150.938 197.98 150.938Z" fill="#BE1E2D"/>
<path opacity="0.5" d="M192.832 146.929H187.472C185.785 146.929 184.411 145.562 184.411 143.882C184.411 142.202 185.785 140.835 187.472 140.835H192.832C194.519 140.835 195.893 142.202 195.893 143.882C195.893 145.562 194.519 146.929 192.832 146.929Z" fill="white"/>
<path d="M174.593 150.969V140.905C174.593 138.53 176.532 136.6 178.918 136.6H200.767C202.234 136.6 203.427 137.788 203.427 139.249C203.427 147.218 199.432 153.954 194.7 153.954H177.599C175.935 153.954 174.593 152.618 174.593 150.969ZM178.91 136.928C176.704 136.928 174.907 138.717 174.907 140.913V150.969C174.907 152.438 176.108 153.641 177.591 153.641H194.692C199.173 153.641 203.097 146.921 203.097 139.256C203.097 137.975 202.046 136.928 200.759 136.928H178.91Z" fill="black"/>
<rect x="112" y="143" width="42" height="13" rx="2" fill="#D9D9D9"/>
</g>
<defs>
<filter id="filter0_i_25_2046" x="0" y="0" width="265" height="266" filterUnits="userSpaceOnUse" color-interpolation-filters="sRGB">
<feFlood flood-opacity="0" result="BackgroundImageFix"/>
<feBlend mode="normal" in="SourceGraphic" in2="BackgroundImageFix" result="shape"/>
<feColorMatrix in="SourceAlpha" type="matrix" values="0 0 0 0 0 0 0 0 0 0 0 0 0 0 0 0 0 0 127 0" result="hardAlpha"/>
<feOffset dy="1"/>
<feGaussianBlur stdDeviation="10.5"/>
<feComposite in2="hardAlpha" operator="arithmetic" k2="-1" k3="1"/>
<feColorMatrix type="matrix" values="0 0 0 0 0.141176 0 0 0 0 0.6 0 0 0 0 0.854902 0 0 0 0.26 0"/>
<feBlend mode="normal" in2="shape" result="effect1_innerShadow_25_2046"/>
</filter>
<clipPath id="clip0_25_2046">
<rect width="181" height="123" fill="white" transform="translate(42 89)"/>
</clipPath>
</defs>
</svg>
