<svg width="136" height="126" viewBox="0 0 136 126" fill="none" xmlns="http://www.w3.org/2000/svg">
<rect x="49.5" y="44.5" width="85" height="36" rx="5.5" fill="#0072CF" fill-opacity="0.33" stroke="white"/>
<rect y="44" width="41" height="37" rx="6" fill="#59B4FF"/>
<rect width="41" height="38" rx="6" fill="#59B4FF"/>
<rect x="95" width="41" height="38" rx="6" fill="#59B4FF"/>
<rect x="95" y="89" width="41" height="37" rx="6" fill="#59B4FF"/>
<rect y="87" width="41" height="38" rx="6" fill="#59B4FF"/>
<rect x="49" y="89" width="41" height="37" rx="6" fill="#59B4FF"/>
<rect x="49" width="41" height="38" rx="6" fill="#59B4FF"/>
<path d="M50 63H134V76C134 78.7614 131.761 81 129 81H55C52.2386 81 50 78.7614 50 76V63Z" fill="#0072CF" fill-opacity="0.33"/>
<path d="M102.608 69.21C95.2974 69.2419 88.0195 69.2738 80.6769 68.9545C81.0651 67.2939 80.7093 65.825 79.4478 64.6434C78.5421 63.7812 77.4423 63.3661 76.1485 63.398C73.6578 63.4619 71.4906 65.5376 71.7494 68.2519C70.5202 68.4755 69.3881 67.7091 69.291 66.4956C69.2587 65.825 69.3234 65.1224 69.3557 64.4518C69.3557 64.1644 69.3881 63.877 69.3881 63.5896C69.3881 63.3341 69.4851 63.1425 69.7439 63.0467C69.938 62.9829 70.1644 62.9829 70.3908 62.919C69.938 61.8333 70.0674 60.7156 70.3261 59.6298C70.4232 59.1827 70.6496 58.7357 70.9407 58.3844C71.9111 57.2348 72.9785 56.149 73.9813 55.0314C74.2724 54.712 74.6282 54.5204 75.081 54.4885C79.092 54.1691 83.0706 53.8179 87.1138 53.8498C89.7015 53.9137 92.2569 54.1053 94.7152 54.8717C97.1412 55.6062 99.2437 56.9154 101.282 58.3525C101.767 58.7037 102.252 59.0869 102.769 59.4382C102.931 59.534 103.125 59.6298 103.319 59.6298C106.36 59.8534 109.336 60.3962 112.118 61.5778C112.7 61.8333 113.282 62.0887 113.832 62.4081C114.058 62.5358 114.22 62.7593 114.349 62.9829C114.543 63.3341 114.673 63.7173 114.899 64.0686C114.996 64.2283 115.19 64.356 115.287 64.5157C115.384 64.6754 115.482 64.835 115.482 64.9947C115.579 65.9846 115.417 66.9427 115.19 67.9007C115.19 67.9645 115.158 67.9965 115.158 68.0603C115.352 68.1881 115.579 68.3158 115.708 68.4755C115.902 68.6671 115.87 68.8268 115.579 68.8906C115.223 68.9545 114.867 69.0184 114.511 69.0184C113.444 69.0503 112.376 69.0184 111.309 69.0184C111.794 66.8788 111.212 65.1544 109.271 63.9728C107.686 63.0148 106.004 63.0467 104.451 64.0686C102.608 65.346 102.058 67.0704 102.608 69.21ZM70.3261 61.1946H70.3585C70.3585 61.4181 70.3585 61.6417 70.3585 61.8652C70.3585 61.961 70.3908 62.0887 70.4555 62.1526C70.6496 62.3761 71.5876 62.3761 71.717 62.1207C72.1052 61.3542 72.461 60.5878 72.8168 59.7895C72.9462 59.5021 72.7844 59.3105 72.461 59.2786C72.0405 59.2466 71.62 59.2147 71.1995 59.1508C70.8437 59.0869 70.6496 59.2466 70.5849 59.566C70.5202 60.1088 70.4232 60.6517 70.3261 61.1946ZM114.155 67.1023C114.155 66.8149 113.929 66.5914 113.67 66.6233C113.379 66.6553 113.25 66.8149 113.217 67.0704C113.217 67.3259 113.444 67.5494 113.702 67.5175C113.994 67.4855 114.155 67.3259 114.155 67.1023Z" fill="white"/>
<path d="M111.115 67.7729C111.115 70.0083 109.271 71.7966 106.942 71.7966C104.645 71.7966 102.769 70.0083 102.769 67.7729C102.769 65.5376 104.645 63.7493 106.974 63.7493C109.271 63.7493 111.115 65.5376 111.115 67.7729ZM106.91 71.0302C108.786 71.0302 110.338 69.5931 110.371 67.7729C110.371 65.9846 108.883 64.4837 107.007 64.4837C105.098 64.4518 103.578 65.9208 103.546 67.709C103.513 69.5612 105.034 71.0302 106.91 71.0302Z" fill="white"/>
<path d="M80.4827 67.8048C80.4503 70.0402 78.6066 71.8285 76.2453 71.7966C73.9811 71.7966 72.105 69.9763 72.105 67.7729C72.105 65.5056 74.0134 63.7173 76.3423 63.7492C78.6389 63.7492 80.4827 65.5695 80.4827 67.8048ZM76.31 71.0301C78.1861 71.0301 79.7064 69.5612 79.7064 67.741C79.7064 65.9527 78.1861 64.4837 76.31 64.4837C74.4339 64.4837 72.8813 65.9527 72.8813 67.7729C72.8813 69.5931 74.4016 71.0621 76.31 71.0301Z" fill="white"/>
<path d="M114.155 67.1023C114.123 67.3259 113.994 67.4855 113.703 67.5175C113.444 67.5494 113.185 67.3259 113.217 67.0704C113.217 66.8149 113.379 66.6553 113.67 66.6233C113.929 66.5914 114.155 66.8149 114.155 67.1023Z" fill="white"/>
<path d="M106.91 71.0301C105.034 71.0301 103.514 69.5292 103.546 67.709C103.578 65.8887 105.099 64.4517 107.007 64.4837C108.883 64.5156 110.371 65.9845 110.371 67.7728C110.339 69.5931 108.818 71.062 106.91 71.0301ZM103.805 67.7728C103.805 69.4334 105.196 70.7746 106.942 70.8066C108.657 70.8066 110.08 69.4653 110.08 67.7728C110.08 66.0804 108.657 64.7391 106.91 64.7391C105.196 64.7391 103.805 66.1123 103.805 67.7728Z" fill="white"/>
<path d="M76.3105 71.0301C74.4345 71.0301 72.8818 69.5611 72.8818 67.7409C72.8818 65.9207 74.4345 64.4517 76.3105 64.4517C78.1866 64.4517 79.7069 65.9207 79.7069 67.709C79.7069 69.5611 78.1866 71.0301 76.3105 71.0301ZM73.1406 67.7728C73.1406 69.4334 74.5638 70.8065 76.2782 70.8065C78.0249 70.8065 79.4158 69.4334 79.4158 67.7728C79.4158 66.1123 78.0249 64.7391 76.2782 64.7391C74.5638 64.7391 73.1406 66.0803 73.1406 67.7728Z" fill="white"/>
<path d="M114.22 63.1426L113.864 62.6636L111.05 62.1846L109.53 62.7594L111.05 64.1006C111.05 64.1006 111.147 64.3241 112.085 64.3561C112.991 64.388 114.447 64.5157 114.447 64.5157C114.447 64.5157 114.932 64.6435 114.544 63.6855" fill="white"/>
</svg>
