<svg width="24" height="37" viewBox="0 0 24 37" fill="none" xmlns="http://www.w3.org/2000/svg">
<path d="M12 29.2856C18.0751 29.2856 23 24.3608 23 18.2856C23 12.2105 18.0751 7.28564 12 7.28564C5.92487 7.28564 1 12.2105 1 18.2856C1 24.3608 5.92487 29.2856 12 29.2856Z" stroke="#8E8E8E" stroke-width="2" stroke-linecap="round" stroke-linejoin="round"/>
<path d="M12 13.5713V18.2856L14.3571 20.6427" stroke="#8E8E8E" stroke-width="2" stroke-linecap="round" stroke-linejoin="round"/>
<path d="M19.0884 26.6929L18.5384 32.7115C18.4676 33.495 18.1055 34.2236 17.5236 34.7531C16.9417 35.2826 16.1823 35.5746 15.3956 35.5715H8.59129C7.80453 35.5746 7.04517 35.2826 6.46327 34.7531C5.88137 34.2236 5.51924 33.495 5.44844 32.7115L4.89844 26.6929M4.91415 9.8786L5.46415 3.86003C5.53472 3.07915 5.89461 2.35284 6.47319 1.82369C7.05177 1.29454 7.80723 1.00076 8.59129 1.00003H15.427C16.2138 0.996834 16.9731 1.28885 17.555 1.81838C18.1369 2.34792 18.4991 3.07644 18.5699 3.86003L19.1199 9.8786" stroke="#8E8E8E" stroke-width="2" stroke-linecap="round" stroke-linejoin="round"/>
</svg>
