<svg width="9" height="13" viewBox="0 0 9 13" fill="none" xmlns="http://www.w3.org/2000/svg">
<path d="M0 6.5891C0 5.68644 0.207965 4.87671 0.623894 4.1599C1.04867 3.44308 1.61947 2.88556 2.33628 2.48733C3.06195 2.08025 3.85398 1.87671 4.71239 1.87671C5.69469 1.87671 6.56637 2.12007 7.32743 2.6068C8.09735 3.08467 8.65487 3.76609 9 4.65105H7.18142C6.94248 4.16432 6.61062 3.80149 6.18584 3.56255C5.76106 3.32361 5.26991 3.20414 4.71239 3.20414C4.10177 3.20414 3.55752 3.34131 3.07965 3.61565C2.60177 3.88998 2.22566 4.28379 1.95133 4.79706C1.68584 5.31034 1.5531 5.90768 1.5531 6.5891C1.5531 7.27051 1.68584 7.86786 1.95133 8.38113C2.22566 8.89441 2.60177 9.29264 3.07965 9.57582C3.55752 9.85016 4.10177 9.98733 4.71239 9.98733C5.26991 9.98733 5.76106 9.86786 6.18584 9.62892C6.61062 9.38998 6.94248 9.02715 7.18142 8.54043H9C8.65487 9.42538 8.09735 10.1068 7.32743 10.5847C6.56637 11.0625 5.69469 11.3015 4.71239 11.3015C3.84513 11.3015 3.0531 11.1024 2.33628 10.7041C1.61947 10.2971 1.04867 9.73512 0.623894 9.0183C0.207965 8.30149 0 7.49175 0 6.5891Z" fill="#2499DA"/>
<path d="M3.30151 0.792969H4.24968V12.171H3.30151V0.792969Z" fill="#2499DA"/>
<path d="M5.19775 0.792969H6.14592V12.171H5.19775V0.792969Z" fill="#2499DA"/>
</svg>
