<svg width="10" height="10" viewBox="0 0 10 10" fill="none" xmlns="http://www.w3.org/2000/svg">
<path d="M8.5 0H1.5C1.10218 0 0.720645 0.158035 0.43934 0.43934C0.158035 0.720644 9.0439e-08 1.10217 9.0439e-08 1.5V2.085C-7.16036e-05 2.29147 0.0424832 2.49573 0.125 2.685V2.715C0.19564 2.87548 0.295696 3.02133 0.42 3.145L3.5 6.205V9.5C3.49983 9.58497 3.52132 9.66858 3.56244 9.74294C3.60355 9.81731 3.66294 9.87996 3.735 9.925C3.81457 9.97431 3.90639 10.0003 4 10C4.07827 9.99953 4.15534 9.98069 4.225 9.945L6.225 8.945C6.30746 8.90345 6.3768 8.83988 6.42534 8.76133C6.47388 8.68278 6.49972 8.59233 6.5 8.5V6.205L9.56 3.145C9.6843 3.02133 9.78436 2.87548 9.855 2.715V2.685C9.94441 2.49721 9.99379 2.29289 10 2.085V1.5C10 1.10217 9.84196 0.720644 9.56066 0.43934C9.27936 0.158035 8.89782 0 8.5 0ZM5.645 5.645C5.59866 5.69172 5.562 5.74713 5.53711 5.80804C5.51223 5.86896 5.49962 5.9342 5.5 6V8.19L4.5 8.69V6C4.50038 5.9342 4.48777 5.86896 4.46289 5.80804C4.438 5.74713 4.40134 5.69172 4.355 5.645L1.705 3H8.295L5.645 5.645ZM9 2H1V1.5C1 1.36739 1.05268 1.24021 1.14645 1.14645C1.24022 1.05268 1.36739 1 1.5 1H8.5C8.63261 1 8.75979 1.05268 8.85355 1.14645C8.94732 1.24021 9 1.36739 9 1.5V2Z" fill="white"/>
</svg>
