<svg width="106" height="106" viewBox="0 0 106 106" fill="none" xmlns="http://www.w3.org/2000/svg">
<circle cx="53.2435" cy="53.1094" r="52.7068" fill="#F5F5F5"/>
<mask id="mask0_0_1" style="mask-type:alpha" maskUnits="userSpaceOnUse" x="0" y="0" width="106" height="106">
<circle cx="52.7068" cy="52.7068" r="52.7068" fill="#F5F5F5"/>
</mask>
<g mask="url(#mask0_0_1)">
<path d="M51.6851 71.9837C74.0195 71.9837 92.1251 71.5866 92.1251 71.0967C92.1251 70.6068 74.0195 70.2097 51.6851 70.2097C29.3507 70.2097 11.2451 70.6068 11.2451 71.0967C11.2451 71.5866 29.3507 71.9837 51.6851 71.9837Z" fill="#002D38"/>
<path d="M78.5636 50.2623H24.7959V64.3333H78.5636V50.2623Z" fill="black"/>
<path d="M82.8881 71.0966H76.4729C75.6609 71.0966 75.0112 70.4415 75.0112 69.6452V49.9498H84.3599V69.6351C84.3498 70.4415 83.7001 71.0966 82.8881 71.0966Z" fill="#231F20"/>
<path d="M26.8974 71.0966H20.4822C19.6701 71.0966 19.0205 70.4415 19.0205 69.6452V49.9498H28.3692V69.6351C28.3591 70.4415 27.6993 71.0966 26.8974 71.0966Z" fill="#231F20"/>
<path d="M84.3497 49.9498H75.001V66.2383H84.3497V49.9498Z" fill="black"/>
<path d="M28.359 49.9498H19.0103V66.2383H28.359V49.9498Z" fill="black"/>
<path d="M83.4668 63.2649H69.4082V43.2571H83.7307L85.0503 45.9281V49.3753C85.0503 50.2825 84.3397 63.2649 83.4668 63.2649Z" fill="#80C3CE"/>
<path d="M19.8937 63.2649H33.9522V43.2571H19.6399L18.3203 45.9281V49.3753C18.3203 50.2825 19.0207 63.2649 19.8937 63.2649Z" fill="#80C3CE"/>
<path d="M12.3618 33.3388H20.868L20.4823 29.9924C20.3503 28.8232 19.4368 27.9866 18.4217 28.1076L13.8235 28.6519C12.4024 28.8232 11.2757 30.1235 11.1336 31.7664C11.0524 32.603 11.631 33.3388 12.3618 33.3388Z" fill="#00AAD8"/>
<path d="M13.4175 33.3388H22.1368V32.0789H14.6863C13.9859 32.0789 13.4175 32.6433 13.4175 33.3388Z" fill="black"/>
<path d="M13.8233 28.6519L18.4215 28.1076C19.4366 27.9866 20.3603 28.8232 20.4922 29.9924L20.5734 30.7182H14.5034C13.5391 30.7182 12.6763 30.2444 12.1484 29.5187C12.5951 29.045 13.1736 28.7325 13.8233 28.6519Z" fill="#00BDFF"/>
<path d="M90.9984 33.3388H82.4922L82.8779 29.9924C83.0099 28.8232 83.9234 27.9866 84.9486 28.1076L89.5469 28.6519C90.9679 28.8232 92.0947 30.1235 92.2368 31.7664C92.3078 32.603 91.7394 33.3388 90.9984 33.3388Z" fill="#00AAD8"/>
<path d="M89.9528 33.3388H81.2334V32.0789H88.6839C89.3843 32.0789 89.9528 32.6433 89.9528 33.3388Z" fill="black"/>
<path d="M89.5465 28.6519L84.9483 28.1076C83.9333 27.9866 83.0095 28.8232 82.8776 29.9924L82.7964 30.7182H88.8664C89.8307 30.7182 90.6935 30.2444 91.2214 29.5187C90.7646 29.045 90.186 28.7325 89.5465 28.6519Z" fill="#00BDFF"/>
<path d="M82.7564 34.4174C82.7564 34.4174 74.0065 17.887 73.3366 17.8265C67.5102 17.3125 59.948 17 51.6854 17C43.4228 17 35.8606 17.3125 30.0342 17.8265C29.3642 17.887 20.6043 34.4174 20.6043 34.4174C19.6501 35.7781 19.1426 37.4412 19.1426 39.1447V48.6093C19.1426 49.9499 20.2896 63.2649 21.7107 63.2649H81.6601C83.0812 63.2649 84.2282 49.9499 84.2282 48.6093V39.1447C84.2282 37.4412 83.7105 35.7781 82.7564 34.4174Z" fill="#00AAD8"/>
<path d="M82.7564 34.4174C82.7564 34.4174 82.7157 34.3368 82.6345 34.1957L76.8487 45.0916C73.0118 52.3186 65.4597 56.8443 57.2276 56.8443H28.4507C24.9487 56.8443 22.1167 59.6565 22.1167 63.1339V63.265H81.6601C83.0812 63.265 84.2282 49.9499 84.2282 48.6094V39.1447C84.2282 37.4413 83.7105 35.7782 82.7564 34.4174Z" fill="#00AAD8"/>
<path d="M20.6043 34.4174C20.1678 35.0524 19.8227 35.7479 19.5791 36.4837C20.6957 39.4269 22.1168 42.1887 23.8221 44.7086H36.4494C30.4301 44.1139 25.8319 41.9065 23.6292 34.8508C23.3247 33.8832 24.0657 32.8853 25.0909 32.8853H78.2901C79.3154 32.8853 80.0564 33.8731 79.7518 34.8508C77.5593 41.9065 72.9509 44.1139 66.9316 44.7086H79.559C81.2541 42.1887 82.6853 39.4269 83.8019 36.4837C83.5583 35.7479 83.2132 35.0524 82.7666 34.4174C82.7666 34.4174 77.1228 23.7533 74.5547 19.5199H28.8263C26.248 23.7432 20.6043 34.4174 20.6043 34.4174Z" fill="#00BDFF"/>
<path d="M50.7515 44.9504H37.3527C37.3527 44.9504 31.841 41.6544 26.1465 35.4958C31.8816 39.8603 37.2918 43.9223 37.2918 43.9223C37.2918 43.9223 50.8023 44.1239 50.7515 44.9504Z" fill="#00BDFF"/>
<path d="M52.609 44.9504H66.018C66.018 44.9504 71.5297 41.6544 77.2242 35.4958C71.4891 39.8603 66.0789 43.9223 66.0789 43.9223C66.0789 43.9223 52.5583 44.1239 52.609 44.9504Z" fill="#BCBEC0"/>
<path d="M79.5892 47.3695H23.7812V51.9355H79.5892V47.3695Z" fill="#002D38"/>
<path d="M82.9895 48.6093V46.0693C82.9895 45.1016 82.2282 44.255 81.2436 44.2449C81.2335 44.2449 81.2335 44.2449 81.2233 44.2449H74.8081C71.093 44.2449 63.0131 47.2486 63.2162 50.9276C63.2872 52.2077 64.4342 53.1652 65.7335 53.1652H79.2135C81.1624 53.1652 82.7764 51.6835 82.9286 49.7785C82.9591 49.204 82.9895 48.7907 82.9895 48.6093Z" fill="black"/>
<path d="M81.0202 44.3658H75.9855C72.0572 44.3658 63.5713 47.0772 63.5713 50.5849C63.5713 51.8549 64.7285 52.8931 66.1495 52.8931H78.919C81.01 52.8931 82.7458 51.2804 82.8777 49.2141C82.898 48.9319 82.9082 48.7202 82.9082 48.5992V46.8152C82.9082 45.4544 82.3905 44.3658 81.0202 44.3658Z" fill="#E6E7E8"/>
<path d="M79.6703 52.1372H71.4179C70.7784 52.1372 70.2607 51.6232 70.2607 50.9882C70.2607 49.194 75.3259 47.7426 77.1327 47.7426H80.4215C81.3147 47.7426 82.0456 48.4683 82.0456 49.3553V49.7887C82.0354 51.0889 80.9798 52.1372 79.6703 52.1372Z" fill="#D1D3D4"/>
<path d="M75.5595 49.708H67.3071C66.6676 49.708 66.1499 49.194 66.1499 48.559C66.1499 46.7648 71.2151 45.3134 73.0219 45.3134H76.3106C77.2039 45.3134 77.9347 46.0391 77.9347 46.9261V47.3595C77.9246 48.6597 76.8588 49.708 75.5595 49.708Z" fill="white"/>
<path d="M20.3809 48.6093V46.0693C20.3809 45.1016 21.1422 44.255 22.1268 44.2449C22.1369 44.2449 22.1369 44.2449 22.1471 44.2449H28.5622C32.2774 44.2449 40.3572 47.2486 40.1542 50.9276C40.0832 52.2077 38.9361 53.1652 37.6369 53.1652H24.1569C22.208 53.1652 20.594 51.6835 20.4418 49.7785C20.4012 49.204 20.3809 48.7907 20.3809 48.6093Z" fill="black"/>
<path d="M22.3501 44.3658H27.3848C31.313 44.3658 39.7989 47.0772 39.7989 50.5849C39.7989 51.8549 38.6418 52.8931 37.2207 52.8931H24.4512C22.3602 52.8931 20.6245 51.2804 20.4925 49.2141C20.4722 48.9319 20.4621 48.7202 20.4621 48.5992V46.8152C20.4519 45.4544 20.9797 44.3658 22.3501 44.3658Z" fill="#E6E7E8"/>
<path d="M23.6902 52.1372H31.9426C32.5821 52.1372 33.0998 51.6232 33.0998 50.9882C33.0998 49.194 28.0346 47.7426 26.2278 47.7426H22.939C22.0458 47.7426 21.3149 48.4683 21.3149 49.3553V49.7887C21.3251 51.0889 22.3909 52.1372 23.6902 52.1372Z" fill="#D1D3D4"/>
<path d="M27.8113 49.708H36.0637C36.7032 49.708 37.2209 49.194 37.2209 48.559C37.2209 46.7648 32.1557 45.3134 30.3489 45.3134H27.0601C26.1669 45.3134 25.436 46.0391 25.436 46.9261V47.3595C25.4462 48.6597 26.5018 49.708 27.8113 49.708Z" fill="white"/>
<path d="M74.2602 63.6882H29.1104C29.1104 59.5758 32.4702 56.2294 36.6218 56.2294H66.7589C70.9004 56.2294 74.2602 59.5657 74.2602 63.6882Z" fill="#002D38"/>
<path d="M24.3701 33.1876H78.9905C79.9548 33.1876 80.574 32.1797 80.1375 31.333C78.3002 27.785 75.3058 22.08 73.6919 19.3687C73.4584 18.9756 73.0422 18.7336 72.5855 18.7336H30.7853C30.3285 18.7336 29.9124 18.9756 29.6789 19.3687C28.065 22.0901 25.0705 27.785 23.2333 31.333C22.7866 32.1797 23.4058 33.1876 24.3701 33.1876Z" fill="#002D38"/>
<path d="M72.5551 19.5199H30.8158C30.5215 19.5199 30.2474 19.6812 30.0951 19.9533C28.4914 22.8361 25.8624 28.0169 24.1977 31.3331C24.1977 31.3331 24.1977 31.3432 24.1875 31.3432C23.9236 31.8874 24.3702 32.5225 24.9589 32.5225H78.412C79.0007 32.5225 79.4473 31.8874 79.1834 31.3432C79.1834 31.3432 79.1834 31.3331 79.1733 31.3331C77.5086 28.0169 74.8897 22.8361 73.2758 19.9533C73.1337 19.6812 72.8596 19.5199 72.5551 19.5199Z" fill="#231F20"/>
<path d="M70.7076 21.0823H32.6631C32.3891 21.0823 32.1455 21.2133 32.0034 21.425C30.5417 23.6929 28.1461 27.7751 26.6235 30.3857C26.6235 30.3857 26.6235 30.3957 26.6134 30.3957C26.3698 30.8191 26.7758 31.323 27.3138 31.323H76.0163C76.5543 31.323 76.9603 30.8191 76.7167 30.3957C76.7167 30.3957 76.7167 30.3857 76.7066 30.3857C75.1941 27.7751 72.7986 23.7029 71.3369 21.425C71.2253 21.2133 70.9715 21.0823 70.7076 21.0823Z" fill="#85D5D0"/>
<path d="M46.3055 29.6498C46.2142 29.6498 46.1431 29.5691 46.1228 29.4583L45.6965 26.7872C45.4529 25.2954 44.4581 24.2169 43.2908 24.2169H40.6212C39.464 24.2169 38.4591 25.2853 38.2155 26.7872L37.7892 29.4583C37.7689 29.5691 37.6978 29.6498 37.6065 29.6498C36.358 29.6498 35.3226 30.9097 35.2109 32.5224H48.6909C48.5793 30.9097 47.5541 29.6498 46.3055 29.6498ZM65.7541 29.6498C65.6627 29.6498 65.5917 29.5691 65.5714 29.4583L65.145 26.7872C64.9014 25.2954 63.9067 24.2169 62.7495 24.2169H60.0799C58.9227 24.2169 57.9178 25.2853 57.6742 26.7872L57.2479 29.4583C57.2276 29.5691 57.1565 29.6498 57.0652 29.6498C55.8166 29.6498 54.7813 30.9097 54.6696 32.5224H68.1496C68.0278 30.9097 67.0026 29.6498 65.7541 29.6498Z" fill="#414042"/>
<path d="M43.9203 29.4079C43.7985 29.4079 43.6868 29.3172 43.6564 29.1963L43.0372 26.2934C42.6921 24.6706 41.2507 23.5013 39.5758 23.5013H35.7288C34.0539 23.5013 32.6125 24.6605 32.2674 26.2934L31.6482 29.1963C31.6178 29.3172 31.5163 29.4079 31.3843 29.4079C29.5775 29.4079 28.0955 30.7787 27.9331 32.5326H47.3715C47.2091 30.7787 45.7271 29.4079 43.9203 29.4079ZM71.9664 29.4079C71.8446 29.4079 71.7329 29.3172 71.7025 29.1963L71.0833 26.2934C70.7382 24.6706 69.2968 23.5013 67.6219 23.5013H63.7749C62.1 23.5013 60.6586 24.6605 60.3135 26.2934L59.6943 29.1963C59.6639 29.3172 59.5624 29.4079 59.4304 29.4079C57.6236 29.4079 56.1416 30.7787 55.9792 32.5326H75.4176C75.2552 30.7787 73.7732 29.4079 71.9664 29.4079Z" fill="#58595B"/>
<path d="M24.1874 31.3331C24.1874 31.3331 24.1874 31.3432 24.1772 31.3432C23.9133 31.8875 24.36 32.5225 24.9487 32.5225H78.4119C79.0006 32.5225 79.4472 31.8875 79.1833 31.3432C79.1833 31.3432 79.1833 31.3331 79.1732 31.3331C79.0717 31.1315 78.9702 30.9299 78.8585 30.7183H24.5021C24.4006 30.9299 24.2889 31.1315 24.1874 31.3331Z" fill="#6D6E71"/>
<path opacity="0.5" d="M56.4664 25.6886H76.321C75.2247 23.5416 74.1183 21.4451 73.2859 19.9533C73.1337 19.6912 72.8596 19.5199 72.5652 19.5199H30.8158C30.5215 19.5199 30.2474 19.6812 30.0951 19.9533C28.4914 22.8361 25.8624 28.0169 24.1977 31.3331C24.1977 31.3331 24.1977 31.3432 24.1875 31.3432C23.9236 31.8874 24.3702 32.5225 24.9589 32.5225H33.8001C38.4592 28.3495 46.0316 25.6886 56.4664 25.6886Z" fill="white"/>
<path d="M88.9175 66.9238V77.4569H13.0926V66.9238H-10V88.0001H112V66.9238H88.9175Z" fill="#27AAE1"/>
</g>
</svg>
