<svg width="19" height="19" viewBox="0 0 19 19" fill="none" xmlns="http://www.w3.org/2000/svg">
<circle cx="9.5" cy="9.5" r="9" stroke="#2499DA"/>
<path d="M9.48 7.84C9.18 7.84 8.93333 7.75333 8.74 7.58C8.55333 7.4 8.46 7.18 8.46 6.92C8.46 6.65333 8.55333 6.43333 8.74 6.26C8.93333 6.08 9.18 5.99 9.48 5.99C9.77333 5.99 10.0133 6.08 10.2 6.26C10.3933 6.43333 10.49 6.65333 10.49 6.92C10.49 7.18 10.3933 7.4 10.2 7.58C10.0133 7.75333 9.77333 7.84 9.48 7.84ZM10.33 8.42V14H8.62V8.42H10.33Z" fill="#2499DA"/>
</svg>
