<svg width="106" height="108" viewBox="0 0 106 108" fill="none" xmlns="http://www.w3.org/2000/svg">
<circle cx="53.2435" cy="53.1094" r="52.7068" fill="#F5F5F5"/>
<mask id="mask0_0_1" style="mask-type:alpha" maskUnits="userSpaceOnUse" x="0" y="2" width="106" height="106">
<circle cx="52.7068" cy="54.7068" r="52.7068" fill="#F5F5F5"/>
</mask>
<g mask="url(#mask0_0_1)">
<path d="M52.2786 66.2642C73.5989 66.2642 90.8824 66.0813 90.8824 65.8556C90.8824 65.6299 73.5989 65.4469 52.2786 65.4469C30.9583 65.4469 13.6748 65.6299 13.6748 65.8556C13.6748 66.0813 30.9583 66.2642 52.2786 66.2642Z" fill="#58595B"/>
<path d="M27.0609 65.8556H24.6823C22.4066 65.8556 20.5737 63.697 20.5737 61.025C20.5737 58.3529 22.4169 56.1943 24.6823 56.1943H27.0609C24.7852 56.1943 22.9524 58.3529 22.9524 61.025C22.9524 63.697 24.7955 65.8556 27.0609 65.8556Z" fill="#231F20"/>
<mask id="mask1_0_1" style="mask-type:luminance" maskUnits="userSpaceOnUse" x="20" y="56" width="8" height="10">
<path d="M27.0609 65.8556H24.6823C22.4066 65.8556 20.5737 63.697 20.5737 61.025C20.5737 58.3529 22.4169 56.1943 24.6823 56.1943H27.0609C24.7852 56.1943 22.9524 58.3529 22.9524 61.025C22.9524 63.697 24.7955 65.8556 27.0609 65.8556Z" fill="white"/>
</mask>
<g mask="url(#mask1_0_1)">
<path d="M22.9524 61.0249C22.9524 60.763 22.973 60.5115 23.0038 60.26H20.6252C20.5943 60.5115 20.5737 60.763 20.5737 61.0249C20.5737 63.697 22.4169 65.8556 24.6823 65.8556H27.0609C24.7955 65.8556 22.9524 63.697 22.9524 61.0249Z" fill="#231F20"/>
<path d="M21.5523 57.8918C21.2434 58.311 21.0065 58.793 20.8315 59.3169C20.7388 59.6208 20.6667 59.9352 20.6152 60.26H22.9939C23.0351 59.9352 23.1071 59.6208 23.2101 59.3169C23.3749 58.793 23.622 58.311 23.9309 57.8918H21.5523Z" fill="#231F20"/>
<path d="M22.3446 57.0536C22.046 57.2946 21.7783 57.5775 21.5518 57.8919H23.9304C24.1672 57.567 24.4246 57.2841 24.7233 57.0536H22.3446Z" fill="#231F20"/>
<path d="M27.0608 56.1943H24.6822C23.8172 56.1943 23.014 56.5087 22.3447 57.0536H24.7234C25.3927 56.5087 26.1958 56.1943 27.0608 56.1943Z" fill="#231F20"/>
</g>
<path d="M26.9683 56.1943C29.2954 56.1943 31.1695 58.3529 31.1695 61.025C31.1695 63.697 29.2852 65.8556 26.9683 65.8556C24.6515 65.8556 22.7671 63.697 22.7671 61.025C22.7671 58.3529 24.6515 56.1943 26.9683 56.1943Z" fill="#939598"/>
<path d="M27.0612 56.1943C29.3368 56.1943 31.1697 58.3529 31.1697 61.025C31.1697 63.697 29.3265 65.8556 27.0612 65.8556C24.7855 65.8556 22.9526 63.697 22.9526 61.025C22.9526 58.3529 24.7958 56.1943 27.0612 56.1943Z" fill="black"/>
<path d="M60.8358 65.8556H58.4572C56.1815 65.8556 54.3486 63.697 54.3486 61.025C54.3486 58.3529 56.1918 56.1943 58.4572 56.1943H60.8358C58.5601 56.1943 56.7273 58.3529 56.7273 61.025C56.717 63.697 58.5601 65.8556 60.8358 65.8556Z" fill="#231F20"/>
<mask id="mask2_0_1" style="mask-type:luminance" maskUnits="userSpaceOnUse" x="54" y="56" width="7" height="10">
<path d="M60.8358 65.8556H58.4572C56.1815 65.8556 54.3486 63.697 54.3486 61.025C54.3486 58.3529 56.1918 56.1943 58.4572 56.1943H60.8358C58.5601 56.1943 56.7273 58.3529 56.7273 61.025C56.717 63.697 58.5601 65.8556 60.8358 65.8556Z" fill="white"/>
</mask>
<g mask="url(#mask2_0_1)">
<path d="M56.717 61.0249C56.717 60.763 56.7376 60.5115 56.7685 60.26H54.3899C54.359 60.5115 54.3384 60.763 54.3384 61.0249C54.3384 63.697 56.1816 65.8556 58.4469 65.8556H60.8255C58.5602 65.8556 56.717 63.697 56.717 61.0249Z" fill="#231F20"/>
<path d="M55.3267 57.8918C55.0178 58.311 54.7809 58.793 54.6059 59.3169C54.5132 59.6208 54.4411 59.9352 54.3896 60.26H56.7683C56.8095 59.9352 56.8815 59.6208 56.9845 59.3169C57.1493 58.793 57.3964 58.311 57.7053 57.8918H55.3267Z" fill="#231F20"/>
<path d="M56.1195 57.0536C55.8209 57.2946 55.5532 57.5775 55.3267 57.8919H57.7053C57.9421 57.567 58.1995 57.2841 58.4982 57.0536H56.1195Z" fill="#231F20"/>
<path d="M60.8357 56.1943H58.4571C57.5921 56.1943 56.7889 56.5087 56.1196 57.0536H58.4983C59.1573 56.5087 59.9604 56.1943 60.8357 56.1943Z" fill="#231F20"/>
</g>
<path d="M60.7433 56.1943C63.0704 56.1943 64.9445 58.3529 64.9445 61.025C64.9445 63.697 63.0601 65.8556 60.7433 65.8556C58.4264 65.8556 56.5317 63.697 56.5317 61.025C56.5317 58.3529 58.4161 56.1943 60.7433 56.1943Z" fill="#939598"/>
<path d="M60.8356 56.1943C63.1113 56.1943 64.9442 58.3529 64.9442 61.025C64.9442 63.697 63.101 65.8556 60.8356 65.8556C58.5703 65.8556 56.7271 63.697 56.7271 61.025C56.7168 58.3529 58.56 56.1943 60.8356 56.1943Z" fill="black"/>
<path d="M89.7809 58.3321C89.7809 59.7048 88.9571 60.9517 87.7009 61.4652L85.4252 62.3978C84.8795 62.5969 84.3028 62.7016 83.7262 62.7016H16.2287C15.8889 62.7016 15.6006 62.4187 15.6006 62.0624V57.3157C15.6006 55.0208 17.4232 53.1661 19.6782 53.1661H89.7706V58.3321H89.7809Z" fill="#002D38"/>
<path d="M46.3368 65.8556H43.9582C41.6825 65.8556 39.8496 63.697 39.8496 61.025C39.8496 58.3529 41.6928 56.1943 43.9582 56.1943H46.3368C44.0611 56.1943 42.2282 58.3529 42.2282 61.025C42.2179 63.697 44.0611 65.8556 46.3368 65.8556Z" fill="black"/>
<mask id="mask3_0_1" style="mask-type:luminance" maskUnits="userSpaceOnUse" x="39" y="56" width="8" height="10">
<path d="M46.3368 65.8556H43.9582C41.6825 65.8556 39.8496 63.697 39.8496 61.025C39.8496 58.3529 41.6928 56.1943 43.9582 56.1943H46.3368C44.0611 56.1943 42.2282 58.3529 42.2282 61.025C42.2179 63.697 44.0611 65.8556 46.3368 65.8556Z" fill="white"/>
</mask>
<g mask="url(#mask3_0_1)">
<path d="M42.218 61.0249C42.218 60.763 42.2386 60.5115 42.2695 60.26H39.8908C39.8599 60.5115 39.8394 60.763 39.8394 61.0249C39.8394 63.697 41.6825 65.8556 43.9479 65.8556H46.3368C44.0612 65.8556 42.218 63.697 42.218 61.0249Z" fill="black"/>
<path d="M40.8281 57.8918C40.5192 58.311 40.2824 58.793 40.1074 59.3169C40.0147 59.6208 39.9426 59.9352 39.8911 60.26H42.2697C42.3109 59.9352 42.383 59.6208 42.486 59.3169C42.6507 58.793 42.8979 58.311 43.2068 57.8918H40.8281Z" fill="black"/>
<path d="M41.6205 57.0536C41.3219 57.2946 41.0542 57.5775 40.8276 57.8919H43.2063C43.4431 57.567 43.7005 57.2841 43.9991 57.0536H41.6205Z" fill="black"/>
<path d="M46.3367 56.1943H43.958C43.0931 56.1943 42.2899 56.5087 41.6206 57.0536H43.9992C44.6582 56.5087 45.4614 56.1943 46.3367 56.1943Z" fill="black"/>
</g>
<path d="M46.2442 56.1943C48.5714 56.1943 50.4454 58.3529 50.4454 61.025C50.4454 63.697 48.5611 65.8556 46.2442 65.8556C43.9171 65.8556 42.043 63.697 42.043 61.025C42.0327 58.3529 43.9171 56.1943 46.2442 56.1943Z" fill="#939598"/>
<path d="M46.3371 56.1943C48.6128 56.1943 50.4456 58.3529 50.4456 61.025C50.4456 63.697 48.6025 65.8556 46.3371 65.8556C44.0614 65.8556 42.2286 63.697 42.2286 61.025C42.2183 58.3529 44.0614 56.1943 46.3371 56.1943Z" fill="#414042"/>
<path d="M46.337 57.4308C48.0258 57.4308 49.3953 59.0445 49.3953 61.0249C49.3953 63.0054 48.0258 64.6191 46.337 64.6191C44.6483 64.6191 43.2788 63.0054 43.2788 61.0249C43.2788 59.0445 44.6483 57.4308 46.337 57.4308Z" fill="#231F20"/>
<path d="M46.3367 57.9547C47.7782 57.9547 48.9521 59.3274 48.9521 61.0249C48.9521 62.7225 47.7782 64.0952 46.3367 64.0952C44.8951 64.0952 43.7212 62.7225 43.7212 61.0249C43.7212 59.3274 44.8848 57.9547 46.3367 57.9547Z" fill="black"/>
<path d="M46.3369 57.5985C44.7203 57.5985 43.4229 59.1389 43.4229 61.025C43.4229 62.9216 44.7306 64.4515 46.3369 64.4515C47.9536 64.4515 49.251 62.9111 49.251 61.025C49.251 59.1389 47.9433 57.5985 46.3369 57.5985ZM46.7797 61.3708L48.8906 62.0414C48.767 62.471 48.5714 62.8588 48.314 63.1836L46.7797 61.3708ZM48.3552 58.9188C48.6023 59.2541 48.7979 59.6418 48.9215 60.0715L46.8106 60.7421L48.3552 58.9188ZM46.9239 57.9233L46.3575 60.3963L45.7912 57.9129C45.9662 57.871 46.1413 57.85 46.3266 57.85C46.5326 57.85 46.7282 57.871 46.9239 57.9233ZM44.3084 63.1417C44.0613 62.8064 43.8656 62.4187 43.7421 61.989L45.853 61.3184L44.3084 63.1417ZM43.773 60.0191C43.8965 59.5894 44.0922 59.2017 44.3496 58.8769L45.8839 60.6897L43.773 60.0191ZM45.7397 64.1267L46.306 61.6537L46.8724 64.1371C46.6973 64.1791 46.5223 64.2 46.3369 64.2C46.131 64.2105 45.9353 64.1791 45.7397 64.1267Z" fill="#E6E7E8"/>
<path d="M46.337 60.9202C47.3256 60.9202 48.2523 61.1193 49.0143 61.4651C49.0349 61.3184 49.0452 61.1717 49.0452 61.025C49.0452 59.2751 47.8301 57.85 46.337 57.85C44.844 57.85 43.6289 59.2751 43.6289 61.025C43.6289 61.1717 43.6392 61.3184 43.6598 61.4651C44.4218 61.1193 45.3382 60.9202 46.337 60.9202Z" fill="#D1D3D4"/>
<path d="M46.3369 57.5985C44.7306 57.5985 43.4229 59.1284 43.4229 61.025C43.4229 62.9216 44.7306 64.4515 46.3369 64.4515C47.9433 64.4515 49.251 62.9216 49.251 61.025C49.251 59.1284 47.9433 57.5985 46.3369 57.5985ZM46.3369 64.2105C44.8438 64.2105 43.6288 62.7854 43.6288 61.025C43.6288 59.2646 44.8438 57.8395 46.3369 57.8395C47.83 57.8395 49.0451 59.2646 49.0451 61.025C49.0451 62.7854 47.83 64.2105 46.3369 64.2105Z" fill="white"/>
<path d="M45.9559 59.9771C46.4502 59.9771 46.8518 60.4486 46.8518 61.0249C46.8518 61.6012 46.4502 63.0054 45.9559 63.0054C45.4616 63.0054 45.0601 61.6117 45.0601 61.0249C45.0601 60.4486 45.4616 59.9771 45.9559 59.9771Z" fill="#939598"/>
<path d="M45.9559 59.9771C46.4502 59.9771 46.8518 60.4486 46.8518 61.0249C46.8518 61.6012 46.4502 62.0728 45.9559 62.0728C45.4616 62.0728 45.0601 61.6012 45.0601 61.0249C45.0601 60.4486 45.4616 59.9771 45.9559 59.9771Z" fill="black"/>
<path d="M46.3373 59.9771C46.8315 59.9771 47.2331 60.4486 47.2331 61.0249C47.2331 61.6012 46.8315 62.0728 46.3373 62.0728C45.843 62.0728 45.4414 61.6012 45.4414 61.0249C45.4414 60.4486 45.843 59.9771 46.3373 59.9771Z" fill="white"/>
<path d="M80.1014 65.8556H77.7228C75.4471 65.8556 73.6143 63.697 73.6143 61.025C73.6143 58.3529 75.4574 56.1943 77.7228 56.1943H80.1014C77.8258 56.1943 75.9929 58.3529 75.9929 61.025C75.9929 63.697 77.8258 65.8556 80.1014 65.8556Z" fill="black"/>
<mask id="mask4_0_1" style="mask-type:luminance" maskUnits="userSpaceOnUse" x="73" y="56" width="8" height="10">
<path d="M80.1014 65.8556H77.7228C75.4471 65.8556 73.6143 63.697 73.6143 61.025C73.6143 58.3529 75.4574 56.1943 77.7228 56.1943H80.1014C77.8258 56.1943 75.9929 58.3529 75.9929 61.025C75.9929 63.697 77.8258 65.8556 80.1014 65.8556Z" fill="white"/>
</mask>
<g mask="url(#mask4_0_1)">
<path d="M75.9929 61.0249C75.9929 60.763 76.0135 60.5115 76.0444 60.26H73.6657C73.6349 60.5115 73.6143 60.763 73.6143 61.0249C73.6143 63.697 75.4574 65.8556 77.7228 65.8556H80.1014C77.8258 65.8556 75.9929 63.697 75.9929 61.0249Z" fill="black"/>
<path d="M74.5923 57.8918C74.2834 58.311 74.0466 58.793 73.8715 59.3169C73.7788 59.6208 73.7068 59.9352 73.6553 60.26H76.0339C76.0751 59.9352 76.1472 59.6208 76.2501 59.3169C76.4149 58.793 76.662 58.311 76.9709 57.8918H74.5923Z" fill="black"/>
<path d="M75.3852 57.0536C75.0865 57.2946 74.8188 57.5775 74.5923 57.8919H76.9709C77.2077 57.567 77.4652 57.2841 77.7638 57.0536H75.3852Z" fill="black"/>
<path d="M80.1013 56.1943H77.7227C76.8577 56.1943 76.0546 56.5087 75.3853 57.0536H77.7639C78.4332 56.5087 79.2364 56.1943 80.1013 56.1943Z" fill="black"/>
</g>
<path d="M80.0088 56.1943C82.336 56.1943 84.21 58.3529 84.21 61.025C84.21 63.697 82.3257 65.8556 80.0088 65.8556C77.692 65.8556 75.8076 63.697 75.8076 61.025C75.8076 58.3529 77.692 56.1943 80.0088 56.1943Z" fill="#939598"/>
<path d="M80.1012 56.1943C82.3769 56.1943 84.2098 58.3529 84.2098 61.025C84.2098 63.697 82.3666 65.8556 80.1012 65.8556C77.8359 65.8556 75.9927 63.697 75.9927 61.025C75.9927 58.3529 77.8256 56.1943 80.1012 56.1943Z" fill="#414042"/>
<path d="M80.1017 57.4308C81.7904 57.4308 83.1599 59.0445 83.1599 61.0249C83.1599 63.0054 81.7904 64.6191 80.1017 64.6191C78.413 64.6191 77.0435 63.0054 77.0435 61.0249C77.0435 59.0445 78.413 57.4308 80.1017 57.4308Z" fill="#231F20"/>
<path d="M80.1013 57.9547C81.5429 57.9547 82.7168 59.3274 82.7168 61.0249C82.7168 62.7225 81.5429 64.0952 80.1013 64.0952C78.6597 64.0952 77.4858 62.7225 77.4858 61.0249C77.4858 59.3274 78.6597 57.9547 80.1013 57.9547Z" fill="black"/>
<path d="M80.1016 57.5985C78.4849 57.5985 77.1875 59.1389 77.1875 61.025C77.1875 62.9216 78.4952 64.4515 80.1016 64.4515C81.7182 64.4515 83.0157 62.9111 83.0157 61.025C83.0157 59.1389 81.7182 57.5985 80.1016 57.5985ZM80.5547 61.3708L82.6656 62.0414C82.542 62.471 82.3463 62.8588 82.0889 63.1836L80.5547 61.3708ZM82.1198 58.9188C82.3669 59.2541 82.5626 59.6418 82.6862 60.0715L80.5752 60.7421L82.1198 58.9188ZM80.6885 57.9233L80.1222 60.3963L79.5558 57.9129C79.7309 57.871 79.9059 57.85 80.0913 57.85C80.3075 57.85 80.5032 57.871 80.6885 57.9233ZM78.0833 63.1417C77.8362 62.8064 77.6406 62.4187 77.517 61.989L79.6279 61.3184L78.0833 63.1417ZM77.5376 60.0191C77.6612 59.5894 77.8568 59.2017 78.1142 58.8769L79.6485 60.6897L77.5376 60.0191ZM79.5146 64.1267L80.081 61.6537L80.6473 64.1371C80.4723 64.1791 80.2972 64.2 80.1119 64.2C79.8956 64.2105 79.7 64.1791 79.5146 64.1267Z" fill="#E6E7E8"/>
<path d="M80.1012 60.9202C81.0897 60.9202 82.0165 61.1193 82.7785 61.4651C82.799 61.3184 82.8093 61.1717 82.8093 61.025C82.8093 59.2751 81.5943 57.85 80.1012 57.85C78.6081 57.85 77.3931 59.2751 77.3931 61.025C77.3931 61.1717 77.4034 61.3184 77.424 61.4651C78.1859 61.1193 79.1127 60.9202 80.1012 60.9202Z" fill="#D1D3D4"/>
<path d="M80.1016 57.5985C78.4952 57.5985 77.1875 59.1284 77.1875 61.025C77.1875 62.9216 78.4952 64.4515 80.1016 64.4515C81.7079 64.4515 83.0157 62.9216 83.0157 61.025C83.0157 59.1284 81.7182 57.5985 80.1016 57.5985ZM80.1016 64.2105C78.6085 64.2105 77.3934 62.7854 77.3934 61.025C77.3934 59.2646 78.6085 57.8395 80.1016 57.8395C81.5947 57.8395 82.8097 59.2646 82.8097 61.025C82.8097 62.7854 81.605 64.2105 80.1016 64.2105Z" fill="white"/>
<path d="M79.7206 59.9771C80.2148 59.9771 80.6164 60.4486 80.6164 61.0249C80.6164 61.6012 80.2148 63.0054 79.7206 63.0054C79.2263 63.0054 78.8247 61.6117 78.8247 61.0249C78.8247 60.4486 79.2263 59.9771 79.7206 59.9771Z" fill="#939598"/>
<path d="M79.7206 59.9771C80.2148 59.9771 80.6164 60.4486 80.6164 61.0249C80.6164 61.6012 80.2148 62.0728 79.7206 62.0728C79.2263 62.0728 78.8247 61.6012 78.8247 61.0249C78.8247 60.4486 79.2263 59.9771 79.7206 59.9771Z" fill="black"/>
<path d="M80.1014 59.9771C80.5957 59.9771 80.9973 60.4486 80.9973 61.0249C80.9973 61.6012 80.5957 62.0728 80.1014 62.0728C79.6072 62.0728 79.2056 61.6012 79.2056 61.0249C79.2056 60.4486 79.6072 59.9771 80.1014 59.9771Z" fill="white"/>
<path d="M31.7874 48.5975H35.5767L35.4016 47.0676C35.3398 46.5332 34.9383 46.156 34.4749 46.2083L32.4258 46.4598C31.7874 46.5332 31.2931 47.1305 31.221 47.8849C31.2107 48.2621 31.4578 48.5975 31.7874 48.5975Z" fill="#00BDFF"/>
<path d="M32.2612 48.5974H36.1432V48.0211H32.8173C32.5084 48.0211 32.2612 48.2831 32.2612 48.5974Z" fill="black"/>
<path d="M32.4362 46.4598L34.4853 46.2083C34.9384 46.156 35.3503 46.5332 35.4121 47.0676L35.4533 47.4029H32.7451C32.3127 47.4029 31.9317 47.1829 31.6948 46.858C31.8905 46.638 32.1479 46.4913 32.4362 46.4598Z" fill="#80C3CE"/>
<path d="M90.8721 52.0449C90.8721 51.7515 90.8515 51.4895 90.8104 51.2485C90.5941 49.8234 89.4717 48.6708 88.0507 48.566C87.9684 48.5555 87.886 48.5555 87.8036 48.5555H87.2373C86.0943 48.5555 84.9719 48.2202 84.004 47.602C81.0384 45.6634 74.2835 41.5349 71.3591 41.5244C71.3488 41.5244 65.3662 40.7909 60.6193 40.7909C51.5269 40.7909 47.0271 41.5244 47.0271 41.5244C47.0168 41.5244 47.0168 41.5244 47.0168 41.5244C41.9918 42.4151 32.3434 48.1364 31.6947 48.5241C31.6741 48.5346 31.6432 48.545 31.6226 48.545C31.0151 48.6079 23.4365 49.3833 17.1552 52.7469C15.6107 53.5748 13.6748 55.2199 13.6748 57.0012L14.3956 60.8783C14.5398 61.6537 15.2091 62.2196 15.9814 62.2196H40.8385H41.0754C41.1886 62.2196 41.2813 62.1357 41.2916 62.0205C41.8374 57.8814 43.3613 54.6645 47.0477 54.6645C49.9309 54.6645 51.5063 57.8605 51.3519 61.9786C51.3519 62.1043 51.4446 62.2091 51.5681 62.2091H51.4137H66.2827H74.4792C74.5924 62.2091 74.6851 62.1253 74.6954 62.01C75.2411 57.871 76.7651 54.654 80.4515 54.654C83.3759 54.654 84.9616 57.9548 84.7454 62.1672L85.4868 61.9157C88.3288 60.9726 90.347 58.4054 90.6662 55.3875C90.8618 53.5957 90.8721 52.0449 90.8721 52.0449Z" fill="#00BDFF"/>
<path d="M43.9895 48.084C44.525 48.0316 37.5127 47.9268 32.776 47.8849C32.1891 48.2202 31.8081 48.4507 31.6948 48.5136C31.6742 48.5241 31.6433 48.5346 31.6227 48.5346C31.077 48.587 25.012 49.2157 19.2456 51.7305C32.7451 49.31 39.6956 48.5136 43.9895 48.084Z" fill="#80C3CE"/>
<path d="M19.7603 53.8996H30.0162C30.0162 53.8996 39.0056 50.1378 44.1335 49.572C40.859 48.9956 30.0471 53.4281 30.0471 53.4281C30.0471 53.4281 19.7397 53.5224 19.7603 53.8996Z" fill="#BCBEC0"/>
<path d="M90.7382 50.8294C90.5426 49.9596 89.9865 49.2052 89.1936 48.8384C88.7612 48.6393 88.2978 48.5346 87.8138 48.5346H87.1651C86.0736 48.5346 85.0027 48.2202 84.0863 47.6229C81.1413 45.7263 74.2937 41.5139 71.3488 41.5139H64.3982C63.976 41.5139 63.5436 41.5558 63.1317 41.6606C58.0552 42.9495 52.0314 48.5346 52.0314 48.5346C52.0314 48.5346 43.9688 49.2471 37.3992 52.7993C35.9268 53.5957 34.0424 55.157 34.0424 56.8545C34.2792 58.1748 33.2907 59.3799 31.9727 59.3799H17.3714C16.2799 59.3799 15.4561 60.3963 15.6621 61.4861C15.7444 61.9052 16.0945 62.2091 16.5167 62.2091H41.2709C41.7961 57.9862 43.3098 54.6645 47.0476 54.6645C49.9823 54.6645 51.568 57.9862 51.3415 62.2091H74.685C75.2102 57.9862 76.7239 54.6645 80.4617 54.6645C83.3861 54.6645 84.9718 57.9653 84.7556 62.1777L89.0701 60.7421C90.8824 58.856 90.8721 52.0344 90.8721 52.0344C90.8721 51.5838 90.8206 51.1752 90.7382 50.8294Z" fill="#00AAD8"/>
<path d="M26.731 59.0656H19.3068C17.1753 59.0656 17.0621 60.6373 16.7017 62.7016H30.994C30.6439 60.6373 28.8728 59.0656 26.731 59.0656Z" fill="#002D38"/>
<path d="M90.4392 50.054C90.1611 49.53 89.7287 49.1004 89.1932 48.8489C88.7607 48.6498 88.2974 48.5451 87.8134 48.5451H87.4633C86.2791 48.5241 84.7346 48.0421 83.2209 47.0781C79.967 45.0243 74.0359 41.5244 71.3483 41.5244H64.3978C63.9756 41.5244 63.5431 41.5663 63.1313 41.6711C58.0548 42.96 52.031 48.5451 52.031 48.5451C52.031 48.5451 43.9684 49.2576 37.3988 52.8098C36.1529 53.4805 34.6186 54.7065 34.1655 56.0896C45.1525 51.5524 55.7997 50.0959 90.4392 50.054Z" fill="#00AAD8"/>
<path d="M90.1825 57.169H86.5991C85.5591 57.169 84.6117 56.6136 84.0454 55.7334C83.201 54.4131 81.9757 53.6272 80.4105 53.6272C78.8351 53.6272 77.5994 54.1302 76.6418 54.9999C74.9016 56.5822 72.6671 57.5043 70.3503 57.8081L55.1312 59.7781C53.4836 59.9877 51.9185 58.9922 51.383 57.389C50.621 55.1047 49.1074 53.6272 46.9965 53.6272C43.8249 53.6272 42.0538 55.6496 41.0962 58.615C40.7873 59.579 39.9429 60.2601 38.9441 60.3544L32.9409 60.8888H39.6134C40.0871 60.8888 40.4578 61.3185 40.3857 61.79C40.3651 61.9367 40.3445 62.0834 40.3239 62.2301H41.2404C41.7655 58.0072 43.2792 54.6855 47.017 54.6855C49.9517 54.6855 51.5375 58.0072 51.3109 62.2301H51.9185C51.9597 61.4128 52.5981 60.7736 53.4012 60.7736H72.5024C73.2643 60.7736 73.841 61.4547 73.7483 62.2196V62.2301H74.6647C75.1899 58.0072 76.7036 54.6855 80.4414 54.6855C83.3658 54.6855 84.9516 57.9863 84.7353 62.1987L85.3531 61.9891C85.4046 60.8365 85.3428 59.7467 85.1575 58.7617L90.1825 57.169Z" fill="#00BDFF"/>
<path d="M51.9697 54.1196C51.9697 54.1196 64.7484 52.7888 70.1544 52.464C75.5604 52.1391 86.8151 51.2694 86.8151 51.2694C86.8151 51.2694 71.1635 54.2244 51.9697 54.1196Z" fill="#00BDFF"/>
<path d="M14.4265 55.0103C13.9734 55.6285 13.6748 56.2991 13.6748 57.0012L13.6954 57.0955H35.5458C36.6167 57.0955 37.595 56.4458 37.9657 55.4294C37.9657 55.4189 37.9759 55.4189 37.9759 55.4084L38.1098 55.0103H14.4265Z" fill="#002D38"/>
<path d="M37.8212 53.6167H34.0112C32.3946 53.6167 30.7985 54.0044 29.3878 54.8217C28.0595 55.5867 27.2975 56.4774 27.4417 57.2632C27.4829 57.4938 27.6991 57.6509 27.9257 57.6509H34.732C36.4825 57.6509 38.0477 56.5193 38.6346 54.8113C38.8509 54.2349 38.4287 53.6167 37.8212 53.6167Z" fill="#231F20"/>
<path d="M67.8995 51.8667C68.4284 51.8667 68.8572 51.5618 68.8572 51.1856C68.8572 50.8095 68.4284 50.5045 67.8995 50.5045C67.3706 50.5045 66.9419 50.8095 66.9419 51.1856C66.9419 51.5618 67.3706 51.8667 67.8995 51.8667Z" fill="#939598"/>
<path d="M68.6096 51.5734H66.9518C66.7459 51.5734 66.5708 51.4057 66.5708 51.1857C66.5708 50.9761 66.7356 50.798 66.9518 50.798H68.6096C68.8156 50.798 68.9906 50.9656 68.9906 51.1857C68.9906 51.3953 68.8156 51.5734 68.6096 51.5734Z" fill="#939598"/>
<path d="M68.8464 51.5734H67.1886C66.9827 51.5734 66.8076 51.4057 66.8076 51.1857C66.8076 50.9761 66.9724 50.798 67.1886 50.798H68.8464C69.0524 50.798 69.2274 50.9656 69.2274 51.1857C69.2274 51.3953 69.0524 51.5734 68.8464 51.5734Z" fill="white"/>
<path d="M78.8863 51.5733C79.4152 51.5733 79.844 51.2683 79.844 50.8922C79.844 50.516 79.4152 50.2111 78.8863 50.2111C78.3575 50.2111 77.9287 50.516 77.9287 50.8922C77.9287 51.2683 78.3575 51.5733 78.8863 51.5733Z" fill="#939598"/>
<path d="M79.5964 51.2694H77.9386C77.7327 51.2694 77.5576 51.1018 77.5576 50.8817C77.5576 50.6722 77.7224 50.494 77.9386 50.494H79.5964C79.8024 50.494 79.9774 50.6617 79.9774 50.8817C79.9774 51.1018 79.8024 51.2694 79.5964 51.2694Z" fill="#939598"/>
<path d="M79.8333 51.2694H78.1754C77.9695 51.2694 77.7944 51.1018 77.7944 50.8817C77.7944 50.6722 77.9592 50.494 78.1754 50.494H79.8333C80.0392 50.494 80.2143 50.6617 80.2143 50.8817C80.2143 51.1018 80.0392 51.2694 79.8333 51.2694Z" fill="white"/>
<path d="M15.9504 53.6167H15.8268C14.6941 54.5283 13.6953 55.7858 13.6953 57.1061L13.7983 57.6614H17.6906C18.0716 57.6614 18.432 57.4309 18.5761 57.0537C18.6276 56.9279 18.6585 56.7917 18.6894 56.6555C18.8027 56.0477 18.6585 55.4295 18.3187 54.8951C17.7833 54.0778 16.8771 53.6167 15.9504 53.6167Z" fill="#231F20"/>
<path d="M37.6357 53.6167H33.8978C32.3121 53.6167 30.7366 53.9939 29.3568 54.7798C28.0491 55.5238 27.3077 56.383 27.4519 57.148C27.493 57.368 27.7093 57.5252 27.9358 57.5252H34.6186C36.3383 57.5252 37.8725 56.425 38.4492 54.7798C38.6345 54.214 38.2226 53.6167 37.6357 53.6167Z" fill="#E6E7E8"/>
<path d="M36.7503 55.0732H34.732C33.8774 55.0732 33.0227 55.2723 32.2813 55.702C31.5811 56.1001 31.1693 56.5717 31.2516 56.9803C31.2722 57.1061 31.3855 57.1794 31.5091 57.1794H35.113C36.0398 57.1794 36.8738 56.5822 37.1828 55.6915C37.296 55.3981 37.0695 55.0732 36.7503 55.0732Z" fill="#D1D3D4"/>
<path d="M34.1248 54.1301H32.3126C31.5403 54.1301 30.7783 54.3083 30.109 54.696C29.4809 55.0522 29.1102 55.4714 29.1822 55.8486C29.2028 55.9534 29.3058 56.0267 29.4191 56.0267H32.6627C33.4967 56.0267 34.2381 55.4923 34.5264 54.696C34.6088 54.4131 34.4132 54.1301 34.1248 54.1301Z" fill="white"/>
<path d="M15.9402 53.6167H15.8166C14.6736 54.5074 13.6748 55.7124 13.6748 57.0013L13.7778 57.5357H17.6804C18.0614 57.5357 18.4218 57.3052 18.5659 56.9489C18.6174 56.8231 18.6483 56.6974 18.6792 56.5612C18.7925 55.9639 18.6483 55.3771 18.3085 54.8532C17.7833 54.0568 16.8772 53.6167 15.9402 53.6167Z" fill="#E6E7E8"/>
<path d="M16.8874 55.5237H16.8256C16.2799 55.9533 15.7959 56.5296 15.7959 57.1479L15.8474 57.3993H17.7112C17.8965 57.3993 18.0716 57.2946 18.1333 57.1164C18.1539 57.0536 18.1745 57.0012 18.1848 56.9278C18.2363 56.6449 18.1642 56.362 18.0098 56.1105C17.7626 55.7437 17.3302 55.5237 16.8874 55.5237Z" fill="#D1D3D4"/>
<path d="M16.0944 53.8995H16.012C15.2913 54.4654 14.6528 55.2303 14.6528 56.0372L14.7146 56.3725H17.1859C17.433 56.3725 17.6596 56.2258 17.7523 55.9953C17.7831 55.9219 17.8037 55.8381 17.8243 55.7542C17.8964 55.377 17.8037 54.9998 17.5875 54.6749C17.258 54.1825 16.6814 53.8995 16.0944 53.8995Z" fill="white"/>
<path d="M62.2875 41.9225H45.4003C40.1694 43.4943 32.3024 48.1677 31.7052 48.524C31.6949 48.524 31.6846 48.524 31.6846 48.5345H52.0522C52.3097 48.283 57.5406 43.5152 62.2875 41.9225Z" fill="#002D38"/>
<path d="M70.9681 42.1846H65.9431C63.9557 42.1846 61.9993 42.6666 60.2694 43.6306C57.0876 45.391 54.1117 48.1469 53.2056 49.0061C61.1858 48.3355 69.8766 47.9583 78.9792 47.9583C79.3499 47.9583 79.7206 47.9583 80.0913 47.9687C80.3693 47.9687 80.6267 47.8011 80.7297 47.5391C80.843 47.2457 80.7297 46.9209 80.4723 46.7427C77.3523 44.6994 73.079 42.1846 70.9681 42.1846Z" fill="#85D5D0"/>
<path d="M44.3086 42.2789C39.7985 43.8717 33.9703 47.1934 32.1992 48.2308H49.4366C50.7237 48.2308 51.9696 47.7907 52.9685 46.9838C54.6366 45.6426 57.2315 43.7355 59.8675 42.5409C59.9911 42.478 59.9499 42.2894 59.816 42.2894H44.3086V42.2789Z" fill="#85D5D0"/>
<path d="M80.4617 46.7323C77.352 44.6994 73.0787 42.1741 70.9575 42.1741H65.9325C63.9452 42.1741 61.9887 42.6561 60.2588 43.6201C60.0632 43.7249 59.8778 43.8402 59.6822 43.945C59.6204 44.4898 59.3733 45.7263 58.4259 47.8325C57.077 47.843 55.7384 47.8639 54.3895 47.8954C53.854 48.3669 53.4421 48.7546 53.1847 48.9956C61.1649 48.325 69.8557 47.9478 78.9583 47.9478C79.329 47.9478 79.6997 47.9478 80.0704 47.9582C80.3484 47.9582 80.6059 47.7906 80.7088 47.5286C80.8324 47.2352 80.7294 46.9104 80.4617 46.7323ZM61.9475 46.8161L61.6798 47.822C61.6489 47.822 61.6283 47.822 61.5974 47.822C60.6398 47.822 59.6719 47.822 58.7142 47.8325C59.6719 45.6844 59.9396 44.427 60.0014 43.8611C60.4956 44.1964 60.9796 44.5527 61.4636 44.9404C61.9784 45.3491 62.1535 46.0197 61.9475 46.8161ZM78.011 46.8161H68.5995C67.0961 46.8161 65.6236 46.3865 64.357 45.5691L61.8857 43.9869C61.5665 43.7773 61.7107 43.2743 62.0917 43.2743H73.2434C74.1599 43.2743 75.0557 43.5363 75.828 44.0393L78.3405 45.653C78.8657 45.9883 78.6288 46.8161 78.011 46.8161ZM58.7245 43.0962C59.1055 42.8971 59.4865 42.7085 59.8675 42.5303C59.9911 42.4675 59.9499 42.2789 59.816 42.2789H44.3086C39.7985 43.8716 33.9703 47.1933 32.1992 48.2307H38.4187C38.3878 48.1573 38.3878 48.063 38.4084 47.9582L36.8535 47.4448C36.9977 46.7323 42.8052 44.2174 44.113 43.7354C47.3462 42.5408 52.5257 42.6666 52.5257 42.6666C52.4536 43.0124 52.0314 44.5737 50.6001 47.9792C48.5098 48.0421 46.4195 48.1154 44.3395 48.2202H49.4469C50.1471 48.2202 50.8473 48.084 51.496 47.8325C52.814 44.6994 53.2568 43.2638 53.3906 42.677C53.37 42.677 57.8287 42.6142 58.7245 43.0962Z" fill="#231F20"/>
<path d="M78.3204 46.8161H77.6614L77.6511 45.3177C77.6511 45.1814 77.6202 45.0557 77.579 44.9404C77.0744 44.647 76.5699 44.3536 76.0653 44.0812H75.2724C74.4693 44.0812 73.697 44.6051 73.4601 45.3177L72.9556 46.8161H72.2966C71.5964 46.8161 70.9374 47.3295 70.8344 47.9582L70.8138 48.063C73.491 48.0002 76.2095 47.9582 78.9588 47.9582C79.103 47.9582 79.2471 47.9582 79.3913 47.9582C79.5148 47.3295 79.0309 46.8161 78.3204 46.8161ZM68.5175 46.8161H67.8585L67.8482 45.3177C67.8482 44.6051 67.251 44.0812 66.4478 44.0812H65.4799C64.6767 44.0812 63.9044 44.6051 63.6676 45.3177L63.1631 46.8161H62.504C61.8038 46.8161 61.1448 47.3295 61.0418 47.9582L60.9595 48.4612C63.7706 48.304 66.6538 48.1783 69.5884 48.0945L69.609 47.9582C69.7017 47.3295 69.2177 46.8161 68.5175 46.8161Z" fill="#414042"/>
<path d="M53.8744 45.3177C53.8744 44.6051 53.2772 44.0812 52.474 44.0812H51.5061C50.7029 44.0812 49.9306 44.6051 49.6938 45.3177L49.1892 46.8161H48.5302C47.83 46.8161 47.171 47.3295 47.068 47.9582L47.0269 48.2307H49.4467C50.7338 48.2307 51.9798 47.7906 52.9786 46.9837C53.2566 46.7637 53.5552 46.5227 53.8847 46.2712L53.8744 45.3177ZM66.2721 46.8161H65.6131L65.6028 45.3177C65.6028 44.6051 65.0056 44.0812 64.2024 44.0812H63.2345C62.4313 44.0812 61.659 44.6051 61.4222 45.3177L60.9176 46.8161H60.2586C59.5584 46.8161 58.8994 47.3295 58.7964 47.9582L58.6935 48.5974C61.5046 48.4193 64.3878 48.2726 67.3327 48.1678L67.3636 47.9582C67.4666 47.3295 66.9723 46.8161 66.2721 46.8161ZM55.3263 47.099C54.3378 47.9268 53.5758 48.6289 53.1948 48.9956C53.9465 48.9328 54.7085 48.8699 55.4808 48.8175L55.6249 47.9478C55.6867 47.6125 55.5631 47.3086 55.3263 47.099Z" fill="#58595B"/>
<path d="M33.3218 48.2308H49.447C50.487 48.2308 51.4962 47.9374 52.3714 47.4029H36.7507C36.1123 47.3925 34.4648 47.7278 33.3218 48.2308Z" fill="#6D6E71"/>
<path opacity="0.5" d="M62.6686 45.9254C64.3986 44.9614 66.355 44.4794 68.3423 44.4794H73.3673C75.0149 44.4794 77.9701 46.0092 80.668 47.6439C80.6886 47.6125 80.7092 47.5705 80.7195 47.5286C80.8327 47.2352 80.7195 46.9104 80.462 46.7323C77.3523 44.6994 73.079 42.1741 70.9578 42.1741H65.9328C63.9455 42.1741 61.989 42.6561 60.2591 43.6201C57.0773 45.3805 54.1015 48.1364 53.1953 48.9956C54.9973 48.8384 56.8508 48.7022 58.7249 48.587C59.8987 47.6753 61.2682 46.7008 62.6686 45.9254Z" fill="white"/>
<path opacity="0.5" d="M40.4678 47.2143C43.3716 45.8102 46.5328 45.0767 49.7455 45.0767H55.5015C56.8299 44.1546 58.3435 43.222 59.8675 42.5199C59.9911 42.457 59.9499 42.2684 59.816 42.2684H44.3086C39.7985 43.8612 33.9703 47.1829 32.1992 48.2203H38.4496C39.0983 47.8954 39.7779 47.5496 40.4678 47.2143Z" fill="white"/>
<path d="M72.7181 61.465H57.1386C56.562 61.465 56.0986 60.9934 56.0986 60.4066V51.196L55.0586 48.5344L55.1822 48.482L56.2222 51.175V60.3962C56.2222 60.9096 56.634 61.3183 57.1283 61.3183H72.7078C73.4286 61.3183 74.0567 60.8467 74.273 60.1447C74.8599 58.1747 76.2809 54.7901 79.1435 54.1404C80.0805 53.9623 80.7704 53.1869 80.8631 52.2333L81.0691 50.1167L79.9364 47.5913L80.0496 47.5389L81.1926 50.0957L80.9764 52.2438C80.8734 53.2602 80.1423 54.0776 79.1538 54.2662C76.353 54.8949 74.9629 58.248 74.3759 60.1866C74.17 60.9515 73.5007 61.465 72.7181 61.465Z" fill="#002D38"/>
<path d="M69.5571 61.4021L69.4232 61.3916L69.866 50.3682L68.9907 47.8638L69.1143 47.8114L69.9895 50.3472L69.5571 61.4021Z" fill="#002D38"/>
<path d="M80.5336 46.6274C78.8861 45.5481 76.9708 44.3745 75.1997 43.4838C73.5316 42.6455 72.0077 42.0587 70.9676 42.0587H65.9427C63.9141 42.0587 61.9268 42.5617 60.2072 43.5152C56.9945 45.2966 53.9671 48.0944 53.1125 48.9117C53.0713 48.9536 53.061 49.006 53.0816 49.0584C53.1022 49.1108 53.1537 49.1318 53.1949 49.1318H53.2052C61.4016 48.4402 70.0718 48.0839 78.9685 48.0839C79.3289 48.0839 79.679 48.0839 80.0291 48.0839H80.0806C80.4101 48.0839 80.719 47.8743 80.8323 47.5704C80.9764 47.2247 80.8529 46.8369 80.5336 46.6274ZM75.0041 43.6724C75.1483 43.9449 75.7249 45.2232 76.0029 47.8429C73.8096 47.8638 71.6267 47.9058 69.4643 47.9686C69.0524 44.7517 68.5066 42.9075 68.311 42.3207H70.9573C71.9459 42.3102 73.4081 42.8656 75.0041 43.6724ZM57.1798 47.9582L57.0048 47.4447C56.7576 46.7322 57.0048 45.9253 57.6123 45.4852C58.467 44.867 59.3937 44.2592 60.3307 43.7353C62.0092 42.8027 63.9553 42.3102 65.9427 42.3102H67.5078C67.6211 42.656 68.2492 44.5841 68.692 47.9896C65.0674 48.1049 61.5046 48.283 58.0139 48.5135C57.6329 48.5345 57.3034 48.3144 57.1798 47.9582ZM78.9788 47.8219C78.0726 47.8219 77.1665 47.8219 76.2706 47.8324C76.0441 45.6843 75.6219 44.4269 75.3851 43.861C76.0235 44.1963 76.6825 44.5526 77.3312 44.9403C78.0315 45.349 78.5566 46.0301 78.7728 46.816L79.0612 47.8219C79.0303 47.8219 78.9994 47.8219 78.9788 47.8219Z" fill="#002D38"/>
<path d="M88.2049 51.6886L88.4314 52.2963C88.833 53.3651 89.7186 54.1405 90.7689 54.413C90.8718 53.0612 90.8718 52.0553 90.8718 52.0553C90.8718 51.6257 90.8203 51.238 90.7483 50.9027H88.7506C88.349 50.8922 88.071 51.3008 88.2049 51.6886Z" fill="#BE1E2D"/>
<path opacity="0.5" d="M88.473 51.28L88.5965 51.4791C88.7304 51.6992 88.9672 51.8773 89.2555 52.003C89.5336 52.1288 89.9248 52.003 89.9454 51.7935C89.966 51.5525 89.966 51.3953 89.966 51.3953C89.966 51.3743 89.966 51.3534 89.966 51.3324C89.9557 51.1543 89.7189 51.0076 89.4203 51.0076H88.7819C88.5553 51.018 88.4009 51.1543 88.473 51.28Z" fill="white"/>
<path d="M90.7794 54.434C90.7691 54.434 90.7691 54.434 90.7794 54.434C89.6879 54.1616 88.8023 53.3652 88.4111 52.2964L88.1845 51.6886C88.1124 51.4895 88.133 51.2904 88.2566 51.1123C88.3699 50.9446 88.5552 50.8398 88.7612 50.8398H90.7588C90.7794 50.8398 90.7897 50.8503 90.7897 50.8713C90.7897 50.8922 90.7794 50.9027 90.7588 50.9027H88.7612C88.5758 50.9027 88.4111 50.9865 88.3081 51.1437C88.2051 51.3009 88.1845 51.479 88.2463 51.6572L88.4728 52.2649C88.8641 53.3023 89.7291 54.0882 90.7897 54.3606C90.8103 54.3606 90.8206 54.3816 90.8103 54.4026C90.8 54.4235 90.7897 54.434 90.7794 54.434Z" fill="black"/>
<path d="M59.9702 50.0959V50.0854C59.9393 49.9911 59.9084 49.9073 59.8775 49.8234C59.8672 49.8025 59.8569 49.771 59.8466 49.7501C59.8157 49.6872 59.7951 49.6243 59.7642 49.5719C59.7231 49.4986 59.6819 49.4252 59.6304 49.3624L58.3432 47.602C58.2403 47.4553 58.127 47.3924 58.0137 47.4134C57.8387 47.4448 57.6739 47.6963 57.5916 48.1154L57.5607 48.2621L57.3547 49.3309L56.0058 47.9582L55.9028 48.7337L59.6819 52.6946C59.8981 52.9251 60.1143 52.6526 60.1658 52.1078C60.2173 51.4057 60.1452 50.6722 59.9702 50.0959Z" fill="#939598"/>
<path d="M60.2586 48.5975H56.4692L56.6443 47.0676C56.7061 46.5332 57.1077 46.156 57.571 46.2083L59.6201 46.4598C60.2586 46.5332 60.7528 47.1305 60.8249 47.8849C60.8352 48.2621 60.5881 48.5975 60.2586 48.5975Z" fill="#00BDFF"/>
<path d="M59.7849 48.5974H55.8926V48.0211H59.2185C59.5377 48.0211 59.7849 48.2831 59.7849 48.5974Z" fill="#00AAD8"/>
<path d="M59.6098 46.4598L57.5607 46.2083C57.1076 46.156 56.6957 46.5332 56.634 47.0676L56.5928 47.4029H59.3009C59.7334 47.4029 60.1144 47.1829 60.3512 46.858C60.1556 46.638 59.8981 46.4913 59.6098 46.4598Z" fill="#00AAD8"/>
<path d="M92.6945 66.1176V18H122V85H0V72.1218" fill="#00AEEF"/>
</g>
</svg>
