<svg width="106" height="106" viewBox="0 0 106 106" fill="none" xmlns="http://www.w3.org/2000/svg">
<circle cx="53.2435" cy="53.1094" r="52.7068" fill="#F5F5F5"/>
<mask id="mask0_0_1" style="mask-type:alpha" maskUnits="userSpaceOnUse" x="0" y="0" width="106" height="106">
<circle cx="52.7068" cy="52.7068" r="52.7068" fill="#F5F5F5"/>
</mask>
<g mask="url(#mask0_0_1)">
<path d="M8.68425 42.3489V59.6745H96.3158V42.3489H123V77H-18V42.3489H8.68425Z" fill="#27AAE1"/>
<path d="M52.0064 58.5931C75.2448 58.5931 94.0832 58.3744 94.0832 58.1047C94.0832 57.835 75.2448 57.6163 52.0064 57.6163C28.7681 57.6163 9.92969 57.835 9.92969 58.1047C9.92969 58.3744 28.7681 58.5931 52.0064 58.5931Z" fill="#58595B"/>
<path d="M92.2149 49.0116C92.2149 50.686 90.9812 52.1976 89.1012 52.8255L85.6937 53.9651C84.8712 54.2093 84.0134 54.3372 83.1439 54.3372H12.5264C12.0094 54.3372 11.5864 53.9883 11.5864 53.5697V47.7907C11.5864 45 14.3242 42.7441 17.7082 42.7441H92.2149V49.0116Z" fill="#002D38"/>
<path d="M30.8224 53.6493C31.6213 50.4976 29.6872 47.3018 26.5024 46.5112C23.3176 45.7206 20.0882 47.6346 19.2893 50.7863C18.4904 53.938 20.4245 57.1338 23.6093 57.9244C26.7941 58.715 30.0235 56.801 30.8224 53.6493Z" fill="#414042"/>
<path d="M26.604 56.3187C28.891 55.4769 30.0555 52.9598 29.2049 50.6966C28.3543 48.4333 25.8108 47.281 23.5238 48.1227C21.2368 48.9645 20.0723 51.4816 20.9229 53.7448C21.7735 56.0081 24.317 57.1604 26.604 56.3187Z" fill="black"/>
<path d="M25.0635 48.0465C22.737 48.0465 20.8452 49.9186 20.8452 52.2209C20.8452 54.5233 22.737 56.3953 25.0635 56.3953C27.39 56.3953 29.2817 54.5233 29.2817 52.2209C29.27 49.9186 27.39 48.0465 25.0635 48.0465ZM25.7097 52.6395L28.7647 53.4535C28.5885 53.9767 28.2947 54.4535 27.9305 54.8488L25.7097 52.6395ZM27.9775 49.6512C28.3417 50.0581 28.6237 50.5349 28.7882 51.0581L25.745 51.8721L27.9775 49.6512ZM25.9095 48.4535L25.0987 51.4651L24.2762 48.4419C24.523 48.3953 24.7815 48.3605 25.0517 48.3605C25.3572 48.3488 25.6392 48.3837 25.9095 48.4535ZM22.1377 54.7907C21.7735 54.3837 21.4915 53.907 21.327 53.3837L24.3702 52.5698L22.1377 54.7907ZM21.3505 50.9884C21.5267 50.4651 21.8205 49.9884 22.1847 49.593L24.4055 51.8023L21.3505 50.9884ZM24.2057 56L25.0165 52.9884L25.839 56.0116C25.5922 56.0581 25.3337 56.093 25.0635 56.093C24.7697 56.093 24.476 56.0581 24.2057 56Z" fill="#E6E7E8"/>
<path d="M25.0635 52.0698C26.544 52.0698 27.9187 52.3256 29.0467 52.7558C29.0702 52.5698 29.0937 52.3954 29.0937 52.1977C29.0937 50 27.2842 48.2209 25.0635 48.2209C22.831 48.2209 21.0332 50 21.0332 52.1977C21.0332 52.3837 21.0567 52.5698 21.0802 52.7558C22.2082 52.3256 23.583 52.0698 25.0635 52.0698Z" fill="#D1D3D4"/>
<path d="M25.0635 48.0465C22.737 48.0465 20.8452 49.9186 20.8452 52.2209C20.8452 54.5233 22.737 56.3953 25.0635 56.3953C27.39 56.3953 29.2817 54.5233 29.2817 52.2209C29.2817 49.9186 27.39 48.0465 25.0635 48.0465ZM25.0635 56.093C22.9015 56.093 21.1507 54.3605 21.1507 52.2209C21.1507 50.0814 22.9015 48.3488 25.0635 48.3488C27.2255 48.3488 28.9762 50.0814 28.9762 52.2209C28.9762 54.3605 27.2137 56.093 25.0635 56.093Z" fill="white"/>
<path d="M25.0635 50.9418C25.7802 50.9418 26.356 51.5115 26.356 52.2208C26.356 52.9301 25.7802 54.6278 25.0635 54.6278C24.3467 54.6278 23.771 52.9301 23.771 52.2208C23.771 51.5232 24.3467 50.9418 25.0635 50.9418Z" fill="#939598"/>
<path d="M25.5649 53.3968C26.2224 53.1216 26.5299 52.3712 26.2519 51.7206C25.9739 51.07 25.2155 50.7656 24.5581 51.0407C23.9006 51.3159 23.5931 52.0664 23.8711 52.717C24.1491 53.3676 24.9075 53.6719 25.5649 53.3968Z" fill="white"/>
<path d="M83.4069 53.162C83.9329 49.9545 81.7318 46.9322 78.4905 46.4116C75.2493 45.8911 72.1953 48.0693 71.6693 51.2769C71.1432 54.4845 73.3444 57.5067 76.5856 58.0273C79.8269 58.5479 82.8808 56.3696 83.4069 53.162Z" fill="#414042"/>
<path d="M79.2314 56.2587C81.4857 55.3346 82.5562 52.777 81.6224 50.5461C80.6886 48.3152 78.1042 47.2559 75.8499 48.18C73.5955 49.104 72.525 51.6616 73.4588 53.8925C74.3926 56.1234 76.9771 57.1828 79.2314 56.2587Z" fill="black"/>
<path d="M77.539 48.0465C75.2125 48.0465 73.3208 49.9186 73.3208 52.2209C73.3208 54.5233 75.2125 56.3953 77.539 56.3953C79.8655 56.3953 81.7573 54.5233 81.7573 52.2209C81.7573 49.9186 79.8655 48.0465 77.539 48.0465ZM78.1853 52.6395L81.2403 53.4535C81.064 53.9767 80.7703 54.4535 80.406 54.8488L78.1853 52.6395ZM80.4531 49.6512C80.8173 50.0581 81.0993 50.5349 81.2638 51.0581L78.2206 51.8721L80.4531 49.6512ZM78.385 48.4535L77.5743 51.4651L76.7518 48.4419C76.9986 48.3953 77.257 48.3605 77.5273 48.3605C77.8328 48.3488 78.1148 48.3837 78.385 48.4535ZM74.6133 54.7907C74.2491 54.3837 73.967 53.907 73.8025 53.3837L76.8458 52.5698L74.6133 54.7907ZM73.8378 50.9884C74.014 50.4651 74.3078 49.9884 74.6721 49.593L76.8928 51.8023L73.8378 50.9884ZM76.6813 56L77.4921 52.9884L78.3146 56.0116C78.0678 56.0581 77.8093 56.093 77.539 56.093C77.2453 56.093 76.9633 56.0581 76.6813 56Z" fill="#E6E7E8"/>
<path d="M77.539 52.0698C79.0195 52.0698 80.3943 52.3256 81.5223 52.7558C81.5458 52.5698 81.5693 52.3954 81.5693 52.1977C81.5693 50 79.7598 48.2209 77.539 48.2209C75.3183 48.2209 73.5088 50 73.5088 52.1977C73.5088 52.3837 73.5323 52.5698 73.5558 52.7558C74.6838 52.3256 76.0585 52.0698 77.539 52.0698Z" fill="#D1D3D4"/>
<path d="M77.539 48.0465C75.2125 48.0465 73.3208 49.9186 73.3208 52.2209C73.3208 54.5233 75.2125 56.3953 77.539 56.3953C79.8655 56.3953 81.7573 54.5233 81.7573 52.2209C81.7573 49.9186 79.8655 48.0465 77.539 48.0465ZM77.539 56.093C75.377 56.093 73.6263 54.3605 73.6263 52.2209C73.6263 50.0814 75.377 48.3488 77.539 48.3488C79.701 48.3488 81.4518 50.0814 81.4518 52.2209C81.4518 54.3605 79.701 56.093 77.539 56.093Z" fill="white"/>
<path d="M77.5391 50.9418C78.2558 50.9418 78.8316 51.5115 78.8316 52.2208C78.8316 52.9301 78.2558 54.6278 77.5391 54.6278C76.8223 54.6278 76.2466 52.9301 76.2466 52.2208C76.2466 51.5232 76.8223 50.9418 77.5391 50.9418Z" fill="#939598"/>
<path d="M78.0355 53.4009C78.695 53.1306 79.0082 52.3824 78.735 51.7297C78.4618 51.0771 77.7057 50.7671 77.0462 51.0375C76.3867 51.3078 76.0735 52.0561 76.3467 52.7087C76.6199 53.3614 77.376 53.6713 78.0355 53.4009Z" fill="white"/>
<path d="M92.2146 37.0233H88.3723C86.7626 37.0233 85.1881 36.6395 83.8368 35.9186C79.5128 33.6047 73.4028 29.5349 70.7708 28.4767C70.7708 28.4767 68.7616 28 63.0158 28C54.6028 28 51.7123 28.5349 51.1013 28.6628C43.6283 30.2326 35.2976 37.0233 35.2976 37.0233C35.2976 37.0233 24.7578 37.8837 15.0876 42.2209C12.9256 43.1977 10.1408 45.093 10.1408 47.1512C10.0703 49.686 10.9281 53.6628 11.4216 53.6628C11.4216 53.6628 13.8186 53.6628 17.7548 53.6628C17.7196 53.3023 17.7078 52.9302 17.7078 52.5698C17.7078 47.2209 20.9978 44.5116 25.0633 44.5116C29.1171 44.5116 32.4188 47.2209 32.4188 52.5698C32.4188 52.9302 32.4071 53.3023 32.3718 53.6628C44.4626 53.6512 59.3851 53.6512 70.2421 53.6395C70.2186 53.2907 70.1951 52.9302 70.1951 52.5698C70.1951 47.2209 73.4851 44.5116 77.5506 44.5116C81.6043 44.5116 84.9061 47.2209 84.9061 52.5698C84.9061 52.9186 84.8943 53.2791 84.8591 53.6163L91.1923 51.8721C93.8596 49.5814 93.8478 42.0116 93.8478 42.0116C93.8361 39.407 93.1663 37.0233 92.2146 37.0233Z" fill="#00AAD8"/>
<path d="M83.8135 38.8605H93.4602C93.1782 37.7674 92.7317 37.0233 92.203 37.0233H88.3607C86.751 37.0233 85.1765 36.6395 83.8252 35.9186C79.5012 33.6047 73.3912 29.5349 70.7592 28.4767C70.7592 28.4767 68.75 28 63.0042 28C54.5912 28 51.7007 28.5349 51.0897 28.6628C43.6167 30.2326 35.286 37.0233 35.286 37.0233C35.286 37.0233 24.7462 37.8837 15.076 42.2209C13.3017 43.0233 11.1045 44.4419 10.376 46.0698C18.7537 41.5581 38.2822 38.8605 83.8135 38.8605Z" fill="#00BDFF"/>
<path d="M79.0315 36.3255C79.5133 36.3255 79.7835 35.9883 79.8658 35.6976C79.948 35.4069 79.8892 34.9767 79.478 34.7325C78.867 34.372 78.2443 34 77.645 33.6279C74.8485 31.9418 72.2165 30.3604 70.7243 29.7558C70.7125 29.7558 68.668 29.2906 63.0398 29.2906C54.9205 29.2906 51.9007 29.7906 51.1605 29.9534C45.2737 31.186 38.9053 35.6395 36.3438 37.5813C48.411 36.8139 62.3818 36.4069 79.0315 36.3255Z" fill="#85D5D0"/>
<path d="M90.523 40.8489L90.805 41.5815C91.2985 42.8838 92.4147 43.8257 93.7425 44.1513C93.8717 42.5117 93.8717 41.2792 93.8717 41.2792C93.8717 40.7559 93.8012 40.2792 93.719 39.8722H91.2162C90.6992 39.8838 90.3467 40.3838 90.523 40.8489Z" fill="#BE1E2D"/>
<path d="M91.5684 40.9652L91.7447 41.4303C91.9327 41.9187 92.2617 42.3373 92.6729 42.628C93.0607 42.9071 93.6129 42.628 93.6364 42.1513C93.6599 41.6047 93.6599 41.2443 93.6599 41.2443C93.6599 41.1978 93.6599 41.1513 93.6599 41.1047C93.6482 40.6978 93.3074 40.3722 92.8962 40.3722H91.9914C91.6742 40.3489 91.4509 40.6629 91.5684 40.9652Z" fill="#ED1C24"/>
<path opacity="0.5" d="M90.8637 40.3605L91.0164 40.6047C91.1809 40.8722 91.4747 41.0815 91.8389 41.2442C92.1914 41.3954 92.6732 41.2442 92.6967 40.9884C92.7202 40.6977 92.7202 40.5001 92.7202 40.5001C92.7202 40.4768 92.7202 40.4535 92.7202 40.4187C92.7084 40.1977 92.4147 40.0233 92.0387 40.0233H91.2397C90.9577 40.0349 90.7579 40.2094 90.8637 40.3605Z" fill="white"/>
<path d="M93.7423 44.1977C93.7305 44.1977 93.7305 44.1977 93.7423 44.1977C92.3793 43.8605 91.263 42.8954 90.7695 41.6047L90.4875 40.8721C90.3935 40.6396 90.4288 40.3838 90.5698 40.1745C90.7108 39.9652 90.9458 39.8489 91.2043 39.8489H93.707C93.7305 39.8489 93.7423 39.8721 93.7423 39.8838C93.7423 39.907 93.7188 39.9186 93.707 39.9186H91.2043C90.981 39.9186 90.7695 40.0233 90.6403 40.2093C90.511 40.3954 90.4875 40.6279 90.558 40.8372L90.84 41.5698C91.3218 42.8372 92.4145 43.7907 93.7423 44.1163C93.7658 44.1163 93.7775 44.1396 93.7775 44.1628C93.7775 44.1861 93.754 44.1977 93.7423 44.1977Z" fill="black"/>
<path d="M32.9243 44.3953C32.9243 44.3953 53.6748 42.779 62.4403 42.3837C71.2058 41.9883 89.4888 40.9302 89.4888 40.9302C89.4888 40.9302 64.0971 44.5232 32.9243 44.3953Z" fill="#00BDFF"/>
<path d="M92.8142 47.5232H87.5384C86.0109 47.5232 84.6244 46.8488 83.7902 45.7674C82.5447 44.1627 80.7352 43.1976 78.4439 43.1976C76.1174 43.1976 74.3079 43.8139 72.8979 44.8721C70.3364 46.8023 67.0464 47.9186 63.6389 48.2907L37.8124 50.6976C35.3802 50.9534 33.0772 49.7441 32.2899 47.7907C31.1619 45.0116 28.9529 43.2093 25.8274 43.2093C21.1627 43.2093 18.5542 45.6744 17.1442 49.279C16.6859 50.4534 15.4404 51.279 13.9834 51.3953L11.1399 51.6046C10.8462 51.6279 10.8697 52.0465 11.1517 52.0465H14.9587C15.8047 52.0465 16.4274 52.8139 15.9339 53.5348C15.9809 53.6162 15.9692 53.593 16.0162 53.6744H17.7552C17.7199 53.3139 17.7082 52.9418 17.7082 52.5697C17.7082 47.2209 20.9982 44.5116 25.0637 44.5116C29.1174 44.5116 32.4192 47.2209 32.4192 52.5697C32.4192 52.9418 32.4074 53.3023 32.3722 53.6744H33.1007C33.1594 52.686 34.1112 51.8953 35.2862 51.8953H66.8349C67.9512 51.8953 68.8089 52.7209 68.6679 53.6511V53.6744C68.6679 53.6744 69.2672 53.6744 70.2659 53.6627C70.2307 53.3023 70.2189 52.9302 70.2189 52.5697C70.2189 47.2209 73.5089 44.5116 77.5744 44.5116C81.6282 44.5116 84.9299 47.2209 84.9299 52.5697C84.9299 52.9186 84.9182 53.279 84.8829 53.6162L85.7759 53.3721C85.8582 51.9651 85.7524 50.6511 85.4822 49.4418L92.8142 47.5232Z" fill="#00BDFF"/>
<path d="M16.0513 44.6745C16.3098 43.9652 15.7811 43.2094 15.0173 43.2094H13.2548C11.6216 44.2442 10.1411 45.6512 10.1411 47.1628C10.1293 47.4652 10.1411 47.7907 10.1528 48.128H11.1633C13.3606 48.128 15.3228 46.7442 16.0513 44.6745Z" fill="black"/>
<path d="M15.8751 44.628C16.1218 43.9303 15.6048 43.2094 14.8646 43.2094H13.2666C11.6333 44.2442 10.1528 45.6512 10.1528 47.1628C10.1411 47.4187 10.1528 47.6977 10.1646 47.9768H11.0928C13.2313 47.9768 15.1466 46.6396 15.8751 44.628Z" fill="#E6E7E8"/>
<path d="M14.5708 45.7442C14.7 45.3722 14.4297 44.9768 14.0185 44.9768H13.149C12.2678 45.5349 11.4688 46.3024 11.4688 47.1163C11.4688 47.2559 11.4688 47.407 11.4688 47.5582H11.9622C13.149 47.5582 14.183 46.8373 14.5708 45.7442Z" fill="#D1D3D4"/>
<path d="M14.1596 44.5931C14.2889 44.221 14.0186 43.8257 13.6074 43.8257H12.7379C11.8566 44.3838 11.0576 45.1513 11.0576 45.9652C11.0576 46.1048 11.0576 46.2559 11.0576 46.4071H11.5511C12.7261 46.3955 13.7719 45.6745 14.1596 44.5931Z" fill="white"/>
<path d="M70.7126 29.7558C70.7008 29.7558 68.6563 29.2906 63.0281 29.2906C54.9088 29.2906 51.8891 29.7906 51.1488 29.9534C46.2726 30.9651 41.0673 34.1976 37.9653 36.372C37.9536 36.6627 37.9653 37.0813 37.9771 37.4651C39.9863 37.3488 42.0426 37.2325 44.1576 37.1395C44.0166 36.9651 43.8991 36.7558 43.8403 36.5116L43.6053 35.593C43.4526 35.0116 43.6876 34.3953 44.1693 34.1046C46.4723 32.6744 49.1043 31.3604 51.6306 30.779C52.2181 30.6395 54.4036 30.2441 59.9143 30.1395V36.593C60.2786 36.5813 60.6546 36.5697 61.0188 36.5697V30.1279C61.4418 30.1279 61.8883 30.1279 62.3466 30.1279C67.1523 30.1279 69.0676 30.5465 69.2673 30.593C69.7256 30.8023 70.3013 31.1162 70.9593 31.5116V36.4069C71.1003 36.4069 71.2531 36.4069 71.3941 36.4069V31.7674C72.0991 32.1976 72.8746 32.7093 73.6971 33.2441C74.4608 33.7441 74.9778 34.593 75.1071 35.5465L75.2246 36.3488C75.9766 36.3372 76.7403 36.3372 77.5041 36.3372C77.7508 35.5697 77.8331 34.4418 77.6921 33.6627C77.6686 33.6511 77.6568 33.6395 77.6333 33.6279C74.8368 31.9418 72.2048 30.3488 70.7126 29.7558Z" fill="#231F20"/>
<path d="M60.443 31.6046H59.4912C58.6805 31.6046 57.9872 32.1744 57.8345 32.9535L57.106 36.6628C58.1987 36.6279 59.3032 36.6046 60.4312 36.5814L61.2185 32.5465C61.3242 32.0581 60.9482 31.6046 60.443 31.6046ZM77.6332 33.6279C77.0105 33.2558 76.3995 32.8837 75.8002 32.5232C75.7297 32.6628 75.671 32.8023 75.6475 32.9535L74.9777 36.3604C76.0705 36.3488 77.175 36.3488 78.2912 36.3372L78.7025 34.2674C78.3382 34.0465 77.9857 33.8372 77.6332 33.6279Z" fill="#58595B"/>
<path opacity="0.5" d="M51.137 33.1627C51.8773 33.0116 54.897 32.5 63.0163 32.5C68.6445 32.5 70.7008 32.9651 70.7008 32.9651C72.0403 33.5 74.3198 34.8488 76.799 36.3372C77.5393 36.3372 78.2678 36.3255 79.0198 36.3255C79.5015 36.3255 79.7718 35.9883 79.854 35.6976C79.9363 35.4069 79.8775 34.9767 79.4663 34.7325C78.8553 34.372 78.2325 34 77.6333 33.6279C74.8368 31.9418 72.2048 30.3604 70.7125 29.7558C70.7008 29.7558 68.6563 29.2906 63.028 29.2906C54.9088 29.2906 51.889 29.7906 51.1488 29.9534C45.262 31.186 38.8935 35.6395 36.332 37.5813C38.024 37.4767 39.763 37.372 41.5255 37.279C44.369 35.5581 47.8353 33.8488 51.137 33.1627Z" fill="white"/>
<path d="M58.5863 41.0814C59.365 41.0814 59.9963 40.7066 59.9963 40.2442C59.9963 39.7818 59.365 39.407 58.5863 39.407C57.8075 39.407 57.1763 39.7818 57.1763 40.2442C57.1763 40.7066 57.8075 41.0814 58.5863 41.0814Z" fill="#002D38"/>
<path d="M59.9493 40.7093H57.235C57 40.7093 56.812 40.5233 56.812 40.2907V40.1861C56.812 39.9535 57 39.7675 57.235 39.7675H59.9493C60.1843 39.7675 60.3723 39.9535 60.3723 40.1861V40.2907C60.3723 40.5233 60.1843 40.7093 59.9493 40.7093Z" fill="#002D38"/>
<path d="M76.3524 41.0814C77.1311 41.0814 77.7624 40.7066 77.7624 40.2442C77.7624 39.7818 77.1311 39.407 76.3524 39.407C75.5737 39.407 74.9424 39.7818 74.9424 40.2442C74.9424 40.7066 75.5737 41.0814 76.3524 41.0814Z" fill="#002D38"/>
<path d="M77.7037 40.7093H74.9894C74.7544 40.7093 74.5664 40.5233 74.5664 40.2907V40.1861C74.5664 39.9535 74.7544 39.7675 74.9894 39.7675H77.7037C77.9387 39.7675 78.1267 39.9535 78.1267 40.1861V40.2907C78.1267 40.5233 77.9387 40.7093 77.7037 40.7093Z" fill="#002D38"/>
<path d="M79.5601 34.593C76.1291 32.5465 72.6041 30.3489 70.7711 29.6047C70.7711 29.6047 68.7619 29.1279 63.0161 29.1279C54.6031 29.1279 51.7126 29.6628 51.1016 29.7907C45.0151 31.0698 38.3764 35.8023 36.1086 37.5233C36.0146 37.593 36.0734 37.7442 36.1909 37.7442C49.9266 36.8721 64.7669 36.5582 79.0314 36.4884C80.0771 36.4768 80.4531 35.1279 79.5601 34.593ZM77.3276 36.1744C75.8706 36.1861 74.4254 36.1977 73.0154 36.2093V31.093C73.7909 31.5233 74.6486 32.0349 75.5651 32.5698C76.3994 33.0698 76.9751 33.9186 77.1279 34.8721L77.3276 36.1744ZM70.6771 29.907C71.1824 30.1163 71.8169 30.4303 72.5454 30.8256V36.221C68.7384 36.2558 65.0841 36.314 61.5709 36.3954V29.4535C62.0409 29.4535 62.5226 29.4535 63.0396 29.4535C68.3271 29.4419 70.4421 29.8605 70.6771 29.907ZM51.1721 30.1047C51.8184 29.9651 54.2271 29.5698 60.3254 29.4651V36.4186C54.5914 36.5582 49.2216 36.7442 44.1574 36.9768C43.4171 37.0117 42.7591 36.5349 42.5594 35.8372L42.3009 34.9186C42.1364 34.3372 42.3949 33.721 42.9236 33.4303C45.4851 32 48.3874 30.6861 51.1721 30.1047Z" fill="#002D38"/>
<path d="M78.6672 36.1279C78.6202 36.1279 78.585 36.1628 78.585 36.2093V40.8489C78.585 42.2326 77.692 43.4419 76.376 43.8721L75.0482 44.3023C73.274 44.8837 71.8405 46.0465 71.018 47.5814C70.9592 47.6861 70.9005 47.8023 70.8535 47.907L69.5022 50.7675C68.9735 51.8721 67.8455 52.593 66.6117 52.593H61.007V36.4535C61.007 36.407 60.9717 36.3721 60.9247 36.3721C60.8777 36.3721 60.8425 36.407 60.8425 36.4535V52.593H40.092C39.6337 52.593 39.2695 52.2326 39.2695 51.7791V36.9884C39.2695 36.9419 39.2342 36.907 39.1872 36.907C39.1402 36.907 39.105 36.9419 39.105 36.9884V51.7791C39.105 52.314 39.5515 52.7558 40.092 52.7558H66.6C67.8925 52.7558 69.091 52 69.6432 50.8489L70.9945 47.9884C71.0415 47.8837 71.1002 47.7675 71.159 47.6628C71.9697 46.1628 73.368 45.0233 75.0952 44.4651L76.423 44.0349C77.8095 43.5814 78.7495 42.3023 78.7495 40.8605V36.2093C78.7495 36.1628 78.7142 36.1279 78.6672 36.1279Z" fill="#002D38"/>
<path d="M44.6039 38.9187V38.9071C44.5687 38.7908 44.5452 38.6862 44.5099 38.5815C44.4982 38.5466 44.4864 38.5234 44.4747 38.4885C44.4512 38.4187 44.4159 38.3373 44.3924 38.2676C44.3454 38.1745 44.2984 38.0815 44.2514 38.0118L42.8649 35.8606C42.7474 35.6862 42.6299 35.6048 42.5124 35.628C42.3244 35.6629 42.1482 35.9652 42.0542 36.4885L42.0189 36.6629L41.7957 37.9652L40.3387 36.3025L40.2329 37.2443L44.2984 42.0699C44.5217 42.349 44.7684 42.0118 44.8154 41.3606C44.8742 40.5118 44.7919 39.6164 44.6039 38.9187Z" fill="#002D38"/>
<path d="M44.9093 37.0931H40.832L41.02 35.2326C41.0788 34.5815 41.5253 34.1164 42.007 34.1861L44.216 34.4884C44.8975 34.5815 45.438 35.3024 45.5085 36.221C45.5438 36.6861 45.2618 37.0931 44.9093 37.0931Z" fill="#00AAD8"/>
<path d="M44.4042 37.0931H40.2212V36.3954H43.7697C44.1222 36.3954 44.4042 36.6745 44.4042 37.0233V37.0931Z" fill="#002D38"/>
<path d="M44.2161 34.4884L42.0071 34.1861C41.5136 34.1164 41.0789 34.5815 41.0201 35.2326L40.9849 35.6396H43.8989C44.3689 35.6396 44.7801 35.3722 45.0269 34.9652C44.8036 34.7094 44.5216 34.5233 44.2161 34.4884Z" fill="#00BDFF"/>
</g>
</svg>
