<svg width="156" height="156" viewBox="0 0 156 156" fill="none" xmlns="http://www.w3.org/2000/svg">
<circle cx="78" cy="78" r="76.5" fill="#B0DBF8" stroke="#2499DA" stroke-width="3"/>
<path d="M79 99C79 97.8954 79.8954 97 81 97H107.837C108.942 97 109.837 97.8954 109.837 99V126.907C109.837 132.43 105.36 136.907 99.8372 136.907H89C83.4772 136.907 79 132.43 79 126.907V99Z" fill="#2499DA"/>
<path d="M122.312 7.25577V43.5348" stroke="#2499DA" stroke-width="4"/>
<path d="M135.269 7.25577V43.5348" stroke="#2499DA" stroke-width="4"/>
<path d="M146.93 20.2131L110.651 20.2131" stroke="#2499DA" stroke-width="4"/>
<path d="M146.93 31.8743L110.651 31.8743" stroke="#2499DA" stroke-width="4"/>
<rect x="124.903" y="22.8041" width="7.77409" height="6.47841" fill="#AFD6F1"/>
<rect x="50.7908" y="59.8605" width="63.4884" height="45.3488" fill="#B0DBF8"/>
<rect x="50.791" y="101.582" width="63.4884" height="3.62791" fill="#2499DA"/>
<path d="M39.907 77.093L62.5814 54.4186" stroke="#2499DA" stroke-width="3" stroke-linecap="round"/>
<path d="M39.9071 54.4185L62.5815 77.0929" stroke="#2499DA" stroke-width="3" stroke-linecap="round"/>
<path d="M88.884 77.0929L111.558 54.4185" stroke="#2499DA" stroke-width="3" stroke-linecap="round"/>
<path d="M88.8839 54.4184L111.558 77.0928" stroke="#2499DA" stroke-width="3" stroke-linecap="round"/>
</svg>
