<svg width="177" height="177" viewBox="0 0 177 177" fill="none" xmlns="http://www.w3.org/2000/svg">
<circle cx="88.5" cy="88.5" r="88.5" fill="#A50000"/>
<path d="M98 32.4L95.44 109.68H76.56L73.84 32.4H98ZM86.48 147.12C82.4267 147.12 79.0667 145.893 76.4 143.44C73.84 140.88 72.56 137.733 72.56 134C72.56 130.267 73.84 127.173 76.4 124.72C79.0667 122.16 82.4267 120.88 86.48 120.88C90.4267 120.88 93.68 122.16 96.24 124.72C98.8 127.173 100.08 130.267 100.08 134C100.08 137.733 98.8 140.88 96.24 143.44C93.68 145.893 90.4267 147.12 86.48 147.12Z" fill="#E1E9EE"/>
</svg>
