<svg width="108" height="107" viewBox="0 0 108 107" fill="none" xmlns="http://www.w3.org/2000/svg">
<circle cx="53.2435" cy="54.1094" r="52.7068" fill="#F5F5F5"/>
<mask id="mask0_0_1" style="mask-type:alpha" maskUnits="userSpaceOnUse" x="2" y="0" width="106" height="106">
<circle cx="52.7068" cy="52.7068" r="52.7068" transform="matrix(-1 0 0 1 107.414 0)" fill="#F5F5F5"/>
</mask>
<g mask="url(#mask0_0_1)">
<path d="M54.5295 64.1759C32.9621 64.1759 15.4784 63.9921 15.4784 63.7653C15.4784 63.5386 32.9621 63.3547 54.5295 63.3547C76.0968 63.3547 93.5806 63.5386 93.5806 63.7653C93.5806 63.9921 76.0968 64.1759 54.5295 64.1759Z" fill="#58595B"/>
<path d="M80.0387 63.7654H82.4449C84.747 63.7654 86.6011 61.5966 86.6011 58.9119C86.6011 56.2273 84.7365 54.0585 82.4449 54.0585H80.0387C82.3408 54.0585 84.1949 56.2273 84.1949 58.9119C84.1949 61.5966 82.3303 63.7654 80.0387 63.7654Z" fill="#231F20"/>
<mask id="mask1_0_1" style="mask-type:luminance" maskUnits="userSpaceOnUse" x="80" y="54" width="7" height="10">
<path d="M80.0387 63.7654H82.4449C84.747 63.7654 86.6011 61.5966 86.6011 58.9119C86.6011 56.2273 84.7365 54.0585 82.4449 54.0585H80.0387C82.3408 54.0585 84.1949 56.2273 84.1949 58.9119C84.1949 61.5966 82.3303 63.7654 80.0387 63.7654Z" fill="white"/>
</mask>
<g mask="url(#mask1_0_1)">
<path d="M84.1949 58.912C84.1949 58.6488 84.1741 58.3961 84.1428 58.1434H86.549C86.5802 58.3961 86.6011 58.6488 86.6011 58.912C86.6011 61.5966 84.7365 63.7654 82.4449 63.7654H80.0387C82.3303 63.7654 84.1949 61.5966 84.1949 58.912Z" fill="#231F20"/>
<path d="M85.6117 55.764C85.9242 56.1852 86.1637 56.6694 86.3408 57.1959C86.4346 57.5012 86.5075 57.817 86.5596 58.1434H84.1534C84.1117 57.817 84.0388 57.5012 83.9346 57.1959C83.768 56.6694 83.518 56.1852 83.2055 55.764H85.6117Z" fill="#231F20"/>
<path d="M84.8098 54.9218C85.1118 55.1639 85.3827 55.4482 85.6118 55.764H83.2056C82.9661 55.4376 82.7056 55.1534 82.4036 54.9218H84.8098Z" fill="#231F20"/>
<path d="M80.0393 54.0585H82.4455C83.3205 54.0585 84.133 54.3743 84.8101 54.9218H82.4039C81.7268 54.3743 80.9143 54.0585 80.0393 54.0585Z" fill="#231F20"/>
</g>
<path d="M80.1324 54.0585C77.7783 54.0585 75.8825 56.2273 75.8825 58.9119C75.8825 61.5966 77.7887 63.7654 80.1324 63.7654C82.4761 63.7654 84.3823 61.5966 84.3823 58.9119C84.3823 56.2273 82.4761 54.0585 80.1324 54.0585Z" fill="#939598"/>
<path d="M80.0392 54.0585C77.7371 54.0585 75.883 56.2273 75.883 58.9119C75.883 61.5966 77.7476 63.7654 80.0392 63.7654C82.3412 63.7654 84.1953 61.5966 84.1953 58.9119C84.1953 56.2273 82.3308 54.0585 80.0392 54.0585Z" fill="black"/>
<path d="M45.8727 63.7654H48.2789C50.5809 63.7654 52.4351 61.5966 52.4351 58.9119C52.4351 56.2273 50.5705 54.0585 48.2789 54.0585H45.8727C48.1747 54.0585 50.0289 56.2273 50.0289 58.9119C50.0393 61.5966 48.1747 63.7654 45.8727 63.7654Z" fill="#231F20"/>
<mask id="mask2_0_1" style="mask-type:luminance" maskUnits="userSpaceOnUse" x="45" y="54" width="8" height="10">
<path d="M45.8727 63.7654H48.2789C50.5809 63.7654 52.4351 61.5966 52.4351 58.9119C52.4351 56.2273 50.5705 54.0585 48.2789 54.0585H45.8727C48.1747 54.0585 50.0289 56.2273 50.0289 58.9119C50.0393 61.5966 48.1747 63.7654 45.8727 63.7654Z" fill="white"/>
</mask>
<g mask="url(#mask2_0_1)">
<path d="M50.0396 58.912C50.0396 58.6488 50.0188 58.3961 49.9875 58.1434H52.3937C52.425 58.3961 52.4458 58.6488 52.4458 58.912C52.4458 61.5966 50.5813 63.7654 48.2897 63.7654H45.8835C48.1751 63.7654 50.0396 61.5966 50.0396 58.912Z" fill="#231F20"/>
<path d="M51.4457 55.764C51.7582 56.1852 51.9977 56.6694 52.1748 57.1959C52.2686 57.5012 52.3415 57.817 52.3936 58.1434H49.9874C49.9457 57.817 49.8728 57.5012 49.7686 57.1959C49.602 56.6694 49.352 56.1852 49.0395 55.764H51.4457Z" fill="#231F20"/>
<path d="M50.6437 54.9218C50.9458 55.1639 51.2166 55.4482 51.4458 55.764H49.0396C48.8 55.4376 48.5396 55.1534 48.2375 54.9218H50.6437Z" fill="#231F20"/>
<path d="M45.8728 54.0585H48.279C49.154 54.0585 49.9665 54.3743 50.6436 54.9218H48.2374C47.5707 54.3743 46.7582 54.0585 45.8728 54.0585Z" fill="#231F20"/>
</g>
<path d="M45.9667 54.0585C43.6126 54.0585 41.7168 56.2273 41.7168 58.9119C41.7168 61.5966 43.623 63.7654 45.9667 63.7654C48.3104 63.7654 50.2271 61.5966 50.2271 58.9119C50.2271 56.2273 48.3208 54.0585 45.9667 54.0585Z" fill="#939598"/>
<path d="M45.8731 54.0585C43.5711 54.0585 41.717 56.2273 41.717 58.9119C41.717 61.5966 43.5815 63.7654 45.8731 63.7654C48.1647 63.7654 50.0293 61.5966 50.0293 58.9119C50.0397 56.2273 48.1751 54.0585 45.8731 54.0585Z" fill="black"/>
<path d="M16.5925 56.2062C16.5925 57.5854 17.4258 58.8382 18.6966 59.3541L20.9987 60.2911C21.5508 60.4911 22.1341 60.5964 22.7174 60.5964H90.9969C91.3407 60.5964 91.6323 60.3122 91.6323 59.9542V55.185C91.6323 52.8793 89.7886 51.0159 87.5074 51.0159H16.603V56.2062H16.5925Z" fill="#002D38"/>
<path d="M60.5397 63.7654H62.9459C65.2479 63.7654 67.1021 61.5966 67.1021 58.9119C67.1021 56.2273 65.2375 54.0585 62.9459 54.0585H60.5397C62.8417 54.0585 64.6959 56.2273 64.6959 58.9119C64.7063 61.5966 62.8417 63.7654 60.5397 63.7654Z" fill="black"/>
<mask id="mask3_0_1" style="mask-type:luminance" maskUnits="userSpaceOnUse" x="60" y="54" width="8" height="10">
<path d="M60.5397 63.7654H62.9459C65.2479 63.7654 67.1021 61.5966 67.1021 58.9119C67.1021 56.2273 65.2375 54.0585 62.9459 54.0585H60.5397C62.8417 54.0585 64.6959 56.2273 64.6959 58.9119C64.7063 61.5966 62.8417 63.7654 60.5397 63.7654Z" fill="white"/>
</mask>
<g mask="url(#mask3_0_1)">
<path d="M64.7061 58.912C64.7061 58.6488 64.6853 58.3961 64.654 58.1434H67.0602C67.0915 58.3961 67.1123 58.6488 67.1123 58.912C67.1123 61.5966 65.2478 63.7654 62.9562 63.7654H60.5396C62.8416 63.7654 64.7061 61.5966 64.7061 58.912Z" fill="black"/>
<path d="M66.1127 55.764C66.4251 56.1852 66.6647 56.6694 66.8418 57.1959C66.9355 57.5012 67.0085 57.817 67.0605 58.1434H64.6544C64.6127 57.817 64.5398 57.5012 64.4356 57.1959C64.2689 56.6694 64.019 56.1852 63.7065 55.764H66.1127Z" fill="black"/>
<path d="M65.3107 54.9218C65.6128 55.1639 65.8836 55.4482 66.1128 55.764H63.7066C63.467 55.4376 63.2066 55.1534 62.9045 54.9218H65.3107Z" fill="black"/>
<path d="M60.5398 54.0585H62.946C63.821 54.0585 64.6335 54.3743 65.3105 54.9218H62.9044C62.2377 54.3743 61.4252 54.0585 60.5398 54.0585Z" fill="black"/>
</g>
<path d="M60.6334 54.0585C58.2793 54.0585 56.3835 56.2273 56.3835 58.9119C56.3835 61.5966 58.2897 63.7654 60.6334 63.7654C62.9875 63.7654 64.8833 61.5966 64.8833 58.9119C64.8937 56.2273 62.9875 54.0585 60.6334 54.0585Z" fill="#939598"/>
<path d="M60.5396 54.0585C58.2376 54.0585 56.3835 56.2273 56.3835 58.9119C56.3835 61.5966 58.248 63.7654 60.5396 63.7654C62.8416 63.7654 64.6958 61.5966 64.6958 58.9119C64.7062 56.2273 62.8416 54.0585 60.5396 54.0585Z" fill="#414042"/>
<path d="M60.5396 55.3008C58.8313 55.3008 57.446 56.9221 57.446 58.9119C57.446 60.9017 58.8313 62.523 60.5396 62.523C62.2479 62.523 63.6333 60.9017 63.6333 58.9119C63.6333 56.9221 62.2479 55.3008 60.5396 55.3008Z" fill="#231F20"/>
<path d="M60.5398 55.8271C59.0815 55.8271 57.894 57.2063 57.894 58.9119C57.894 60.6174 59.0815 61.9966 60.5398 61.9966C61.9981 61.9966 63.1855 60.6174 63.1855 58.9119C63.1855 57.2063 62.0085 55.8271 60.5398 55.8271Z" fill="black"/>
<path d="M60.5395 55.4692C62.1748 55.4692 63.4873 57.0169 63.4873 58.9119C63.4873 60.8175 62.1644 62.3546 60.5395 62.3546C58.9041 62.3546 57.5916 60.807 57.5916 58.9119C57.5916 57.0169 58.9145 55.4692 60.5395 55.4692ZM60.0916 59.2593L57.9562 59.9331C58.0812 60.3648 58.2791 60.7543 58.5395 61.0807L60.0916 59.2593ZM58.4978 56.7958C58.2479 57.1327 58.0499 57.5222 57.9249 57.9539L60.0603 58.6277L58.4978 56.7958ZM59.9457 55.7956L60.5186 58.2802L61.0915 55.7851C60.9145 55.743 60.7374 55.7219 60.5499 55.7219C60.3416 55.7219 60.1436 55.743 59.9457 55.7956ZM62.5915 61.0386C62.8415 60.7017 63.0394 60.3122 63.1644 59.8805L61.029 59.2067L62.5915 61.0386ZM63.1331 57.9012C63.0082 57.4696 62.8102 57.08 62.5498 56.7537L60.9978 58.575L63.1331 57.9012ZM61.1436 62.0282L60.5707 59.5436L59.9978 62.0388C60.1749 62.0809 60.352 62.1019 60.5395 62.1019C60.7478 62.1125 60.9457 62.0809 61.1436 62.0282Z" fill="#E6E7E8"/>
<path d="M60.5398 58.8067C59.5398 58.8067 58.6023 59.0067 57.8315 59.3541C57.8107 59.2067 57.8003 59.0593 57.8003 58.9119C57.8003 57.1537 59.0294 55.7219 60.5398 55.7219C62.0502 55.7219 63.2793 57.1537 63.2793 58.9119C63.2793 59.0593 63.2689 59.2067 63.248 59.3541C62.4772 59.0067 61.5502 58.8067 60.5398 58.8067Z" fill="#D1D3D4"/>
<path d="M60.5395 55.4692C62.1644 55.4692 63.4873 57.0063 63.4873 58.9119C63.4873 60.8175 62.1644 62.3546 60.5395 62.3546C58.9145 62.3546 57.5916 60.8175 57.5916 58.9119C57.5916 57.0063 58.9145 55.4692 60.5395 55.4692ZM60.5395 62.1125C62.0498 62.1125 63.279 60.6806 63.279 58.9119C63.279 57.1432 62.0498 55.7114 60.5395 55.7114C59.0291 55.7114 57.8 57.1432 57.8 58.9119C57.8 60.6806 59.0291 62.1125 60.5395 62.1125Z" fill="white"/>
<path d="M60.9253 57.8591C60.4253 57.8591 60.0191 58.3329 60.0191 58.9119C60.0191 59.491 60.4253 60.9017 60.9253 60.9017C61.4253 60.9017 61.8315 59.5015 61.8315 58.9119C61.8315 58.3329 61.4253 57.8591 60.9253 57.8591Z" fill="#939598"/>
<path d="M60.9253 57.8591C60.4253 57.8591 60.0191 58.3329 60.0191 58.9119C60.0191 59.491 60.4253 59.9647 60.9253 59.9647C61.4253 59.9647 61.8315 59.491 61.8315 58.9119C61.8315 58.3329 61.4253 57.8591 60.9253 57.8591Z" fill="black"/>
<path d="M60.5396 57.8591C60.0396 57.8591 59.6333 58.3329 59.6333 58.9119C59.6333 59.491 60.0396 59.9647 60.5396 59.9647C61.0396 59.9647 61.4458 59.491 61.4458 58.9119C61.4458 58.3329 61.0396 57.8591 60.5396 57.8591Z" fill="white"/>
<path d="M26.384 63.7654H28.7901C31.0922 63.7654 32.9463 61.5966 32.9463 58.9119C32.9463 56.2273 31.0818 54.0585 28.7901 54.0585H26.384C28.686 54.0585 30.5401 56.2273 30.5401 58.9119C30.5401 61.5966 28.686 63.7654 26.384 63.7654Z" fill="black"/>
<mask id="mask4_0_1" style="mask-type:luminance" maskUnits="userSpaceOnUse" x="26" y="54" width="7" height="10">
<path d="M26.384 63.7654H28.7901C31.0922 63.7654 32.9463 61.5966 32.9463 58.9119C32.9463 56.2273 31.0818 54.0585 28.7901 54.0585H26.384C28.686 54.0585 30.5401 56.2273 30.5401 58.9119C30.5401 61.5966 28.686 63.7654 26.384 63.7654Z" fill="white"/>
</mask>
<g mask="url(#mask4_0_1)">
<path d="M30.5401 58.912C30.5401 58.6488 30.5193 58.3961 30.488 58.1434H32.8942C32.9255 58.3961 32.9463 58.6488 32.9463 58.912C32.9463 61.5966 31.0818 63.7654 28.7901 63.7654H26.384C28.686 63.7654 30.5401 61.5966 30.5401 58.912Z" fill="black"/>
<path d="M31.9569 55.764C32.2694 56.1852 32.509 56.6694 32.686 57.1959C32.7798 57.5012 32.8527 57.817 32.9048 58.1434H30.4986C30.4569 57.817 30.384 57.5012 30.2798 57.1959C30.1132 56.6694 29.8632 56.1852 29.5507 55.764H31.9569Z" fill="black"/>
<path d="M31.155 54.9218C31.457 55.1639 31.7279 55.4482 31.957 55.764H29.5508C29.3113 55.4376 29.0509 55.1534 28.7488 54.9218H31.155Z" fill="black"/>
<path d="M26.3841 54.0585H28.7903C29.6652 54.0585 30.4777 54.3743 31.1548 54.9218H28.7486C28.0715 54.3743 27.259 54.0585 26.3841 54.0585Z" fill="black"/>
</g>
<path d="M26.4776 54.0585C24.1235 54.0585 22.2278 56.2273 22.2278 58.9119C22.2278 61.5966 24.134 63.7654 26.4776 63.7654C28.8213 63.7654 30.7275 61.5966 30.7275 58.9119C30.7275 56.2273 28.8213 54.0585 26.4776 54.0585Z" fill="#939598"/>
<path d="M26.3844 54.0585C24.0824 54.0585 22.2282 56.2273 22.2282 58.9119C22.2282 61.5966 24.0928 63.7654 26.3844 63.7654C28.676 63.7654 30.5405 61.5966 30.5405 58.9119C30.5405 56.2273 28.6864 54.0585 26.3844 54.0585Z" fill="#414042"/>
<path d="M26.3839 55.3008C24.6756 55.3008 23.2902 56.9221 23.2902 58.9119C23.2902 60.9017 24.6756 62.523 26.3839 62.523C28.0922 62.523 29.4775 60.9017 29.4775 58.9119C29.4775 56.9221 28.0922 55.3008 26.3839 55.3008Z" fill="#231F20"/>
<path d="M26.384 55.8271C24.9257 55.8271 23.7383 57.2063 23.7383 58.9119C23.7383 60.6174 24.9257 61.9966 26.384 61.9966C27.8423 61.9966 29.0298 60.6174 29.0298 58.9119C29.0298 57.2063 27.8423 55.8271 26.384 55.8271Z" fill="black"/>
<path d="M26.3842 55.4692C28.0196 55.4692 29.332 57.0169 29.332 58.9119C29.332 60.8175 28.0091 62.3546 26.3842 62.3546C24.7488 62.3546 23.4363 60.807 23.4363 58.9119C23.4363 57.0169 24.7488 55.4692 26.3842 55.4692ZM25.9259 59.2593L23.7905 59.9331C23.9155 60.3648 24.1134 60.7543 24.3738 61.0807L25.9259 59.2593ZM24.3426 56.7958C24.0926 57.1327 23.8947 57.5222 23.7697 57.9539L25.905 58.6277L24.3426 56.7958ZM25.7905 55.7956L26.3634 58.2802L26.9363 55.7851C26.7592 55.743 26.5821 55.7219 26.3946 55.7219C26.1759 55.7219 25.9779 55.743 25.7905 55.7956ZM28.4258 61.0386C28.6758 60.7017 28.8737 60.3122 28.9987 59.8805L26.8633 59.2067L28.4258 61.0386ZM28.9779 57.9012C28.8529 57.4696 28.655 57.08 28.3946 56.7537L26.8425 58.575L28.9779 57.9012ZM26.9779 62.0282L26.405 59.5436L25.8321 62.0388C26.0092 62.0809 26.1863 62.1019 26.3738 62.1019C26.5925 62.1125 26.7904 62.0809 26.9779 62.0282Z" fill="#E6E7E8"/>
<path d="M26.384 58.8067C25.384 58.8067 24.4466 59.0067 23.6757 59.3541C23.6549 59.2067 23.6445 59.0593 23.6445 58.9119C23.6445 57.1537 24.8736 55.7219 26.384 55.7219C27.8944 55.7219 29.1235 57.1537 29.1235 58.9119C29.1235 59.0593 29.1131 59.2067 29.0923 59.3541C28.3215 59.0067 27.384 58.8067 26.384 58.8067Z" fill="#D1D3D4"/>
<path d="M26.3842 55.4692C28.0091 55.4692 29.332 57.0063 29.332 58.9119C29.332 60.8175 28.0091 62.3546 26.3842 62.3546C24.7592 62.3546 23.4363 60.8175 23.4363 58.9119C23.4363 57.0063 24.7488 55.4692 26.3842 55.4692ZM26.3842 62.1125C27.8946 62.1125 29.1237 60.6806 29.1237 58.9119C29.1237 57.1432 27.8946 55.7114 26.3842 55.7114C24.8738 55.7114 23.6447 57.1432 23.6447 58.9119C23.6447 60.6806 24.8634 62.1125 26.3842 62.1125Z" fill="white"/>
<path d="M26.7696 57.8591C26.2696 57.8591 25.8633 58.3329 25.8633 58.9119C25.8633 59.491 26.2696 60.9017 26.7696 60.9017C27.2695 60.9017 27.6758 59.5015 27.6758 58.9119C27.6758 58.3329 27.2695 57.8591 26.7696 57.8591Z" fill="#939598"/>
<path d="M26.7696 57.8591C26.2696 57.8591 25.8633 58.3329 25.8633 58.9119C25.8633 59.491 26.2696 59.9647 26.7696 59.9647C27.2695 59.9647 27.6758 59.491 27.6758 58.9119C27.6758 58.3329 27.2695 57.8591 26.7696 57.8591Z" fill="black"/>
<path d="M26.3838 57.8591C25.8838 57.8591 25.4776 58.3329 25.4776 58.9119C25.4776 59.491 25.8838 59.9647 26.3838 59.9647C26.8838 59.9647 27.29 59.491 27.29 58.9119C27.29 58.3329 26.8838 57.8591 26.3838 57.8591Z" fill="white"/>
<path d="M75.2578 46.4255H71.4246L71.6017 44.8884C71.6642 44.3515 72.0704 43.9725 72.5392 44.0251L74.612 44.2778C75.2578 44.3515 75.7578 44.9516 75.8307 45.7096C75.8412 46.0886 75.5912 46.4255 75.2578 46.4255Z" fill="#00BDFF"/>
<path d="M74.7788 46.4256H70.8518V45.8466H74.2163C74.5288 45.8466 74.7788 46.1098 74.7788 46.4256Z" fill="black"/>
<path d="M74.6016 44.2778L72.5287 44.0251C72.0704 43.9725 71.6537 44.3515 71.5912 44.8884L71.5496 45.2253H74.2891C74.7266 45.2253 75.112 45.0043 75.3516 44.6779C75.1537 44.4568 74.8932 44.3094 74.6016 44.2778Z" fill="#80C3CE"/>
<path d="M15.4888 49.8893C15.4888 49.5945 15.5096 49.3313 15.5513 49.0892C15.77 47.6573 16.9054 46.4993 18.3429 46.394C18.4262 46.3835 18.5095 46.3835 18.5929 46.3835H19.1658C20.322 46.3835 21.4574 46.0466 22.4365 45.4254C25.4364 43.4777 32.2696 39.3296 35.2279 39.3191C35.2383 39.3191 41.2902 38.5822 46.0922 38.5822C55.2899 38.5822 59.8418 39.3191 59.8418 39.3191C59.8522 39.3191 59.8522 39.3191 59.8522 39.3191C64.9355 40.214 74.6956 45.9623 75.3519 46.3519C75.3727 46.3624 75.4039 46.3729 75.4248 46.3729C76.0393 46.4361 83.7058 47.2152 90.0598 50.5947C91.6223 51.4264 93.5806 53.0793 93.5806 54.8691L92.8514 58.7645C92.7056 59.5435 92.0285 60.1121 91.2473 60.1121H66.1021H65.8625C65.7479 60.1121 65.6542 60.0278 65.6438 59.912C65.0917 55.7534 63.5501 52.5213 59.821 52.5213C56.9044 52.5213 55.3107 55.7324 55.4669 59.8699C55.4669 59.9963 55.3732 60.1015 55.2482 60.1015H55.4044H40.3631H32.0717C31.9571 60.1015 31.8634 60.0173 31.8529 59.9015C31.3009 55.7429 29.7593 52.5108 26.0302 52.5108C23.0719 52.5108 21.4678 55.8271 21.6865 60.0594L20.9366 59.8067C18.0616 58.8592 16.02 56.2798 15.6971 53.2478C15.4992 51.4475 15.4888 49.8893 15.4888 49.8893Z" fill="#00BDFF"/>
<path d="M62.9147 45.9097C62.373 45.8571 69.4666 45.7518 74.2582 45.7097C74.8519 46.0466 75.2373 46.2782 75.3519 46.3414C75.3727 46.3519 75.404 46.3625 75.4248 46.3625C75.9769 46.4151 82.1121 47.0468 87.9453 49.5735C74.2894 47.1415 67.2583 46.3414 62.9147 45.9097Z" fill="#80C3CE"/>
<path d="M87.4248 51.7528H77.05C77.05 51.7528 67.9565 47.9732 62.7691 47.4047C66.0816 46.8257 77.0188 51.2791 77.0188 51.2791C77.0188 51.2791 87.4456 51.3738 87.4248 51.7528Z" fill="#BCBEC0"/>
<path d="M15.6245 48.668C15.8224 47.7942 16.3849 47.0362 17.1869 46.6677C17.6244 46.4677 18.0932 46.3624 18.5827 46.3624H19.239C20.3431 46.3624 21.4264 46.0466 22.3535 45.4465C25.3326 43.5409 32.2595 39.3086 35.2386 39.3086H42.2696C42.6967 39.3086 43.1342 39.3507 43.5508 39.456C48.6861 40.7509 54.7797 46.3624 54.7797 46.3624C54.7797 46.3624 62.9358 47.0783 69.5814 50.6473C71.071 51.4475 72.9772 53.0161 72.9772 54.7217C72.7376 56.0482 73.7376 57.259 75.0709 57.259H89.8414C90.9455 57.259 91.7788 58.2802 91.5705 59.3751C91.4871 59.7962 91.133 60.1015 90.7059 60.1015H65.6649C65.1336 55.8587 63.6024 52.5213 59.8213 52.5213C56.8526 52.5213 55.2485 55.8587 55.4776 60.1015H31.8636C31.3324 55.8587 29.8012 52.5213 26.02 52.5213C23.0618 52.5213 21.4577 55.8377 21.6764 60.07L17.3119 58.6276C15.4786 56.7326 15.4891 49.8788 15.4891 49.8788C15.4891 49.4261 15.5411 49.0155 15.6245 48.668Z" fill="#00AAD8"/>
<path d="M80.3725 56.9431H87.8827C90.0389 56.9431 90.1535 58.5223 90.5181 60.5964H76.0601C76.4143 58.5223 78.2059 56.9431 80.3725 56.9431Z" fill="#002D38"/>
<path d="M15.9264 47.8889C16.2076 47.3625 16.6451 46.9309 17.1868 46.6782C17.6243 46.4782 18.093 46.3729 18.5826 46.3729H18.9367C20.1346 46.3518 21.6971 45.8676 23.2283 44.899C26.5199 42.8355 32.5197 39.3191 35.2384 39.3191H42.2695C42.6966 39.3191 43.134 39.3612 43.5507 39.4665C48.686 40.7614 54.7796 46.3729 54.7796 46.3729C54.7796 46.3729 62.9356 47.0888 69.5813 50.6578C70.8417 51.3316 72.3937 52.5634 72.8521 53.9531C61.7377 49.3945 50.9672 47.9311 15.9264 47.8889Z" fill="#00AAD8"/>
<path d="M16.1865 55.0376H19.8114C20.8635 55.0376 21.8218 54.4796 22.3947 53.5953C23.2488 52.2687 24.4884 51.4791 26.0717 51.4791C27.6654 51.4791 28.9154 51.9845 29.8841 52.8583C31.6445 54.448 33.9048 55.3745 36.2485 55.6798L51.644 57.6591C53.3106 57.8697 54.8939 56.8695 55.4355 55.2587C56.2063 52.9636 57.7376 51.4791 59.8729 51.4791C63.0812 51.4791 64.8728 53.511 65.8415 56.4905C66.154 57.4591 67.0082 58.1434 68.0185 58.2381L74.0913 58.7751H67.3415C66.8623 58.7751 66.4873 59.2067 66.5602 59.6805C66.5811 59.8279 66.6019 59.9753 66.6227 60.1227H65.6957C65.1644 55.8799 63.6332 52.5425 59.8521 52.5425C56.8834 52.5425 55.2793 55.8799 55.5084 60.1227H54.8939C54.8522 59.3015 54.2064 58.6593 53.3939 58.6593H34.0715C33.3007 58.6593 32.7173 59.3436 32.8111 60.1121V60.1227H31.884C31.3528 55.8799 29.8216 52.5425 26.0404 52.5425C23.0822 52.5425 21.478 55.8588 21.6968 60.0911L21.0718 59.8805C21.0197 58.7224 21.0822 57.6275 21.2697 56.6379L16.1865 55.0376Z" fill="#00BDFF"/>
<path d="M54.8418 51.9739C54.8418 51.9739 41.915 50.6368 36.4464 50.3104C30.9778 49.9841 19.5927 49.1102 19.5927 49.1102C19.5927 49.1102 35.4256 52.0791 54.8418 51.9739Z" fill="#00BDFF"/>
<path d="M92.8202 52.8688C93.2785 53.4899 93.5806 54.1637 93.5806 54.8691L93.5597 54.9639H71.4561C70.3728 54.9639 69.3833 54.3111 69.0083 53.2899C69.0083 53.2794 68.9979 53.2794 68.9979 53.2688L68.8624 52.8688H92.8202Z" fill="#002D38"/>
<path d="M69.1541 51.4685H73.0081C74.6435 51.4685 76.2581 51.858 77.6851 52.6792C79.0288 53.4478 79.7996 54.3427 79.6538 55.1323C79.6121 55.3639 79.3934 55.5218 79.1642 55.5218H72.279C70.5082 55.5218 68.9249 54.3848 68.3312 52.6687C68.1124 52.0897 68.5395 51.4685 69.1541 51.4685Z" fill="#231F20"/>
<path d="M38.7276 49.7103C38.1925 49.7103 37.7588 49.4039 37.7588 49.026C37.7588 48.6481 38.1925 48.3417 38.7276 48.3417C39.2626 48.3417 39.6963 48.6481 39.6963 49.026C39.6963 49.4039 39.2626 49.7103 38.7276 49.7103Z" fill="#939598"/>
<path d="M38.0088 49.4156H39.6859C39.8942 49.4156 40.0713 49.2471 40.0713 49.026C40.0713 48.8155 39.9046 48.6365 39.6859 48.6365H38.0088C37.8005 48.6365 37.6234 48.8049 37.6234 49.026C37.6234 49.2366 37.8005 49.4156 38.0088 49.4156Z" fill="#939598"/>
<path d="M37.7696 49.4156H39.4466C39.655 49.4156 39.832 49.2471 39.832 49.026C39.832 48.8155 39.6654 48.6365 39.4466 48.6365H37.7696C37.5613 48.6365 37.3842 48.8049 37.3842 49.026C37.3842 49.2366 37.5613 49.4156 37.7696 49.4156Z" fill="white"/>
<path d="M27.6133 49.4155C27.0783 49.4155 26.6446 49.1091 26.6446 48.7312C26.6446 48.3533 27.0783 48.0469 27.6133 48.0469C28.1483 48.0469 28.582 48.3533 28.582 48.7312C28.582 49.1091 28.1483 49.4155 27.6133 49.4155Z" fill="#939598"/>
<path d="M26.8946 49.1103H28.5716C28.78 49.1103 28.957 48.9418 28.957 48.7207C28.957 48.5102 28.7904 48.3312 28.5716 48.3312H26.8946C26.6863 48.3312 26.5092 48.4996 26.5092 48.7207C26.5092 48.9418 26.6863 49.1103 26.8946 49.1103Z" fill="#939598"/>
<path d="M26.6553 49.1103H28.3324C28.5407 49.1103 28.7178 48.9418 28.7178 48.7207C28.7178 48.5102 28.5511 48.3312 28.3324 48.3312H26.6553C26.447 48.3312 26.2699 48.4996 26.2699 48.7207C26.2699 48.9418 26.447 49.1103 26.6553 49.1103Z" fill="white"/>
<path d="M91.2784 51.4685H91.4034C92.5492 52.3844 93.5596 53.6478 93.5596 54.9744L93.4554 55.5323H89.518C89.1326 55.5323 88.768 55.3007 88.6222 54.9217C88.5701 54.7954 88.5389 54.6585 88.5076 54.5216C88.393 53.911 88.5389 53.2899 88.8826 52.7529C89.4243 51.9317 90.3409 51.4685 91.2784 51.4685Z" fill="#231F20"/>
<path d="M69.3418 51.4685H73.123C74.7271 51.4685 76.3208 51.8475 77.7166 52.6371C79.0395 53.3846 79.7895 54.2479 79.6436 55.0165C79.602 55.2376 79.3832 55.3955 79.1541 55.3955H72.3938C70.6543 55.3955 69.1022 54.29 68.5189 52.6371C68.3314 52.0686 68.7481 51.4685 69.3418 51.4685Z" fill="#E6E7E8"/>
<path d="M70.2372 52.9319H72.2788C73.1433 52.9319 74.0079 53.1319 74.7579 53.5636C75.4662 53.9636 75.8828 54.4374 75.7995 54.848C75.7787 54.9743 75.6641 55.048 75.5391 55.048H71.8934C70.9559 55.048 70.1122 54.4479 69.7997 53.553C69.6851 53.2583 69.9142 52.9319 70.2372 52.9319Z" fill="#D1D3D4"/>
<path d="M72.8935 51.9844H74.7268C75.508 51.9844 76.2788 52.1634 76.9559 52.5529C77.5913 52.9108 77.9663 53.332 77.8933 53.711C77.8725 53.8163 77.7683 53.89 77.6538 53.89H74.3726C73.5289 53.89 72.7789 53.353 72.4872 52.5529C72.4039 52.2686 72.6018 51.9844 72.8935 51.9844Z" fill="white"/>
<path d="M91.289 51.4685H91.414C92.5702 52.3634 93.5806 53.5741 93.5806 54.8691L93.4764 55.406H89.5286C89.1432 55.406 88.7786 55.1744 88.6328 54.8164C88.5807 54.6901 88.5494 54.5638 88.5182 54.4269C88.4036 53.8268 88.5494 53.2372 88.8932 52.7108C89.4244 51.9107 90.3411 51.4685 91.289 51.4685Z" fill="#E6E7E8"/>
<path d="M90.3304 53.3846H90.3929C90.945 53.8163 91.4346 54.3953 91.4346 55.0165L91.3825 55.2692H89.4971C89.3096 55.2692 89.1325 55.1639 89.07 54.9849C89.0492 54.9217 89.0284 54.8691 89.018 54.7954C88.9659 54.5111 89.0388 54.2269 89.195 53.9742C89.445 53.6057 89.8825 53.3846 90.3304 53.3846Z" fill="#D1D3D4"/>
<path d="M91.133 51.7528H91.2163C91.9455 52.3213 92.5913 53.0899 92.5913 53.9005L92.5288 54.2374H90.0289C89.7789 54.2374 89.5497 54.09 89.456 53.8584C89.4247 53.7847 89.4039 53.7005 89.3831 53.6163C89.3101 53.2373 89.4039 52.8583 89.6226 52.5319C89.956 52.0371 90.5393 51.7528 91.133 51.7528Z" fill="white"/>
<path d="M44.4047 39.7191H61.4877C66.7792 41.2983 74.7373 45.9938 75.3415 46.3518C75.3519 46.3518 75.3623 46.3518 75.3623 46.3623H54.7587C54.4982 46.1097 49.2067 41.3194 44.4047 39.7191Z" fill="#002D38"/>
<path d="M35.6235 39.9824H40.7067C42.7171 39.9824 44.6962 40.4667 46.4461 41.4353C49.6648 43.204 52.6752 45.9729 53.5918 46.8362C45.5191 46.1624 36.7276 45.7834 27.5195 45.7834C27.1445 45.7834 26.7696 45.7834 26.3946 45.7939C26.1133 45.7939 25.8529 45.6255 25.7488 45.3623C25.6342 45.0675 25.7488 44.7411 26.0092 44.5621C29.1653 42.5092 33.4881 39.9824 35.6235 39.9824Z" fill="#85D5D0"/>
<path d="M62.5916 40.0771C67.154 41.6774 73.0497 45.0148 74.8413 46.0571H57.4042C56.1022 46.0571 54.8418 45.6149 53.8314 44.8043C52.144 43.4567 49.519 41.5406 46.8524 40.3404C46.7274 40.2772 46.7691 40.0877 46.9045 40.0877H62.5916V40.0771Z" fill="#85D5D0"/>
<path d="M26.0196 44.5515C29.1654 42.5091 33.4882 39.9718 35.634 39.9718H40.7172C42.7275 39.9718 44.7066 40.4561 46.4566 41.4247C46.6545 41.53 46.842 41.6458 47.0399 41.751C47.1024 42.2985 47.3524 43.5408 48.3107 45.657C49.6753 45.6675 51.0294 45.6885 52.394 45.7201C52.9356 46.1939 53.3523 46.5834 53.6127 46.8256C45.54 46.1518 36.7485 45.7728 27.5404 45.7728C27.1654 45.7728 26.7904 45.7728 26.4154 45.7833C26.1342 45.7833 25.8738 45.6148 25.7696 45.3516C25.6446 45.0569 25.7488 44.7305 26.0196 44.5515ZM44.7483 44.6357L45.0191 45.6464C45.0504 45.6464 45.0712 45.6464 45.1025 45.6464C46.0712 45.6464 47.0503 45.6464 48.0191 45.657C47.0503 43.4987 46.7795 42.2353 46.717 41.6668C46.217 42.0037 45.7275 42.3617 45.2379 42.7512C44.7171 43.1618 44.54 43.8356 44.7483 44.6357ZM28.4987 44.6357H38.0193C39.5401 44.6357 41.0297 44.2041 42.3109 43.3829L44.8108 41.7932C45.1337 41.5826 44.9879 41.0772 44.6025 41.0772H33.3215C32.3945 41.0772 31.4882 41.3405 30.707 41.8458L28.1654 43.4671C27.6342 43.804 27.8737 44.6357 28.4987 44.6357ZM48.0087 40.8983C47.6232 40.6982 47.2378 40.5087 46.8524 40.3298C46.7274 40.2666 46.7691 40.0771 46.9045 40.0771H62.5916C67.154 41.6773 73.0497 45.0147 74.8413 46.057H68.5498C68.581 45.9833 68.5811 45.8886 68.5602 45.7833L70.1331 45.2674C69.9873 44.5515 64.1124 42.0248 62.7895 41.5405C59.5188 40.3403 54.2793 40.4666 54.2793 40.4666C54.3522 40.814 54.7793 42.3827 56.2272 45.8044C58.3417 45.8675 60.4563 45.9412 62.5604 46.0465H57.3938C56.6855 46.0465 55.9772 45.9096 55.321 45.657C53.9877 42.5091 53.5398 41.0667 53.4043 40.4771C53.4252 40.4771 48.9149 40.414 48.0087 40.8983Z" fill="#231F20"/>
<path d="M28.186 44.6356H28.8526L28.8631 43.1301C28.8631 42.9933 28.8943 42.8669 28.936 42.7511C29.4464 42.4563 29.9568 42.1615 30.4672 41.8878H31.2692C32.0817 41.8878 32.863 42.4142 33.1025 43.1301L33.6129 44.6356H34.2796C34.9879 44.6356 35.6545 45.1515 35.7587 45.7832L35.7795 45.8885C33.0713 45.8253 30.3214 45.7832 27.5402 45.7832C27.3943 45.7832 27.2485 45.7832 27.1027 45.7832C26.9777 45.1515 27.4673 44.6356 28.186 44.6356ZM38.1024 44.6356H38.7691L38.7795 43.1301C38.7795 42.4142 39.3836 41.8878 40.1961 41.8878H41.1752C41.9877 41.8878 42.769 42.4142 43.0085 43.1301L43.5189 44.6356H44.1856C44.8939 44.6356 45.5606 45.1515 45.6647 45.7832L45.748 46.2886C42.9044 46.1306 39.9878 46.0043 37.0191 45.9201L36.9983 45.7832C36.9045 45.1515 37.3941 44.6356 38.1024 44.6356Z" fill="#414042"/>
<path d="M52.9149 43.1301C52.9149 42.4142 53.519 41.8878 54.3315 41.8878H55.3107C56.1231 41.8878 56.9044 42.4142 57.1439 43.1301L57.6544 44.6356H58.321C59.0293 44.6356 59.696 45.1515 59.8001 45.7832L59.8418 46.0569H57.3939C56.0919 46.0569 54.8315 45.6148 53.8211 44.8041C53.5399 44.583 53.2378 44.3409 52.9045 44.0882L52.9149 43.1301ZM40.3735 44.6356H41.0402L41.0506 43.1301C41.0506 42.4142 41.6548 41.8878 42.4672 41.8878H43.4464C44.2589 41.8878 45.0401 42.4142 45.2797 43.1301L45.7901 44.6356H46.4567C47.165 44.6356 47.8317 45.1515 47.9358 45.7832L48.04 46.4254C45.1963 46.2464 42.2797 46.099 39.3006 45.9938L39.2694 45.7832C39.1652 45.1515 39.6652 44.6356 40.3735 44.6356ZM51.4462 44.9199C52.4462 45.7516 53.217 46.457 53.6024 46.8255C52.842 46.7623 52.0712 46.6991 51.2899 46.6465L51.1441 45.7727C51.0816 45.4358 51.2066 45.1305 51.4462 44.9199Z" fill="#58595B"/>
<path d="M73.7056 46.0571H57.3935C56.3414 46.0571 55.3206 45.7623 54.4352 45.2253H70.2369C70.8827 45.2148 72.5493 45.5517 73.7056 46.0571Z" fill="#6D6E71"/>
<path opacity="0.5" d="M44.019 43.7409C42.269 42.7723 40.2899 42.288 38.2795 42.288H33.1963C31.5297 42.288 28.5402 43.8251 25.8111 45.4675C25.7902 45.4359 25.7694 45.3938 25.759 45.3516C25.6444 45.0569 25.759 44.7305 26.0194 44.5515C29.1652 42.5091 33.488 39.9718 35.6338 39.9718H40.717C42.7273 39.9718 44.7064 40.4561 46.4564 41.4247C49.6751 43.1934 52.6854 45.9623 53.6021 46.8256C51.7792 46.6677 49.9042 46.5308 48.0084 46.415C46.821 45.499 45.4356 44.5199 44.019 43.7409Z" fill="white"/>
<path opacity="0.5" d="M66.4769 45.0358C63.5395 43.625 60.3417 42.8881 57.0918 42.8881H51.269C49.9253 41.9616 48.3941 41.0246 46.8524 40.3192C46.7274 40.256 46.7691 40.0665 46.9045 40.0665H62.5916C67.154 41.6668 73.0497 45.0042 74.8413 46.0465H68.5186C67.8623 45.7201 67.1748 45.3727 66.4769 45.0358Z" fill="white"/>
<path d="M33.8527 59.354H49.6127C50.196 59.354 50.6647 58.8802 50.6647 58.2907V49.0365L51.7168 46.3623L51.5918 46.3097L50.5397 49.0154V58.2801C50.5397 58.796 50.1231 59.2066 49.6231 59.2066H33.8631C33.1339 59.2066 32.4985 58.7328 32.2798 58.0275C31.6861 56.0482 30.2486 52.6476 27.3528 51.9949C26.4049 51.8159 25.707 51.0368 25.6133 50.0788L25.405 47.9521L26.5508 45.4148L26.4362 45.3622L25.28 47.931L25.4987 50.0893C25.6029 51.1105 26.3424 51.9317 27.3424 52.1212C30.1757 52.7529 31.5819 56.1219 32.1756 58.0696C32.384 58.8381 33.061 59.354 33.8527 59.354Z" fill="#002D38"/>
<path d="M37.0506 59.2908L37.186 59.2802L36.7381 48.2047L37.6235 45.6885L37.4985 45.6359L36.6131 48.1837L37.0506 59.2908Z" fill="#002D38"/>
<path d="M25.947 44.4463C27.6136 43.3619 29.5511 42.1828 31.3427 41.2879C33.0301 40.4457 34.5718 39.8561 35.6238 39.8561H40.707C42.7591 39.8561 44.7694 40.3614 46.509 41.3195C49.7589 43.1093 52.8213 45.9202 53.6859 46.7414C53.7275 46.7836 53.738 46.8362 53.7171 46.8888C53.6963 46.9415 53.6442 46.9625 53.6025 46.9625H53.5921C45.3007 46.2677 36.5301 45.9097 27.5303 45.9097C27.1657 45.9097 26.8115 45.9097 26.4574 45.9097H26.4053C26.072 45.9097 25.7595 45.6992 25.6449 45.3938C25.4991 45.0464 25.6241 44.6569 25.947 44.4463ZM31.5406 41.4774C31.3948 41.7511 30.8115 43.0356 30.5302 45.6676C32.7489 45.6886 34.9572 45.7307 37.1446 45.7939C37.5613 42.5618 38.1133 40.7089 38.3113 40.1193H35.6342C34.6343 40.1088 33.1551 40.6667 31.5406 41.4774ZM49.5714 45.7834L49.7485 45.2675C49.9985 44.5516 49.7485 43.7409 49.1339 43.2988C48.2693 42.6776 47.3319 42.067 46.384 41.5406C44.6861 40.6036 42.7174 40.1088 40.707 40.1088H39.1237C39.0092 40.4562 38.3738 42.3933 37.9259 45.815C41.5924 45.9308 45.1965 46.1098 48.7277 46.3414C49.1131 46.3624 49.4464 46.1413 49.5714 45.7834ZM27.5199 45.6465C28.4365 45.6465 29.3531 45.6465 30.2594 45.657C30.4885 43.4988 30.9156 42.2354 31.1552 41.6669C30.5094 42.0038 29.8427 42.3618 29.1865 42.7513C28.4782 43.1619 27.9469 43.8462 27.7282 44.6358L27.4365 45.6465C27.4678 45.6465 27.499 45.6465 27.5199 45.6465Z" fill="#002D38"/>
<path d="M18.1863 49.5314L17.9572 50.142C17.5509 51.2159 16.6551 51.9949 15.5926 52.2687C15.4885 50.9106 15.4885 49.8999 15.4885 49.8999C15.4885 49.4682 15.5406 49.0787 15.6135 48.7418H17.6342C18.0405 48.7312 18.3217 49.1418 18.1863 49.5314Z" fill="#BE1E2D"/>
<path opacity="0.5" d="M17.916 49.1208L17.791 49.3208C17.6556 49.5419 17.416 49.7209 17.1244 49.8472C16.8431 49.9735 16.4473 49.8472 16.4265 49.6367C16.4056 49.3945 16.4056 49.2366 16.4056 49.2366C16.4056 49.2155 16.4056 49.1945 16.4056 49.1734C16.416 48.9944 16.6556 48.847 16.9577 48.847H17.6035C17.8327 48.8576 17.9889 48.9944 17.916 49.1208Z" fill="white"/>
<path d="M15.5826 52.2897C15.5931 52.2897 15.5931 52.2897 15.5826 52.2897C16.6868 52.016 17.5826 51.2159 17.9784 50.142L18.2076 49.5314C18.2805 49.3313 18.2597 49.1313 18.1347 48.9523C18.0201 48.7839 17.8326 48.6786 17.6243 48.6786H15.6035C15.5826 48.6786 15.5722 48.6891 15.5722 48.7102C15.5722 48.7312 15.5826 48.7418 15.6035 48.7418H17.6243C17.8117 48.7418 17.9784 48.826 18.0826 48.9839C18.1867 49.1418 18.2076 49.3208 18.1451 49.4998L17.9159 50.1104C17.5201 51.1527 16.6451 51.9423 15.5722 52.216C15.5514 52.216 15.541 52.2371 15.5514 52.2581C15.5618 52.2792 15.5722 52.2897 15.5826 52.2897Z" fill="black"/>
<path d="M46.7483 47.9311V47.9205C46.7796 47.8258 46.8108 47.7416 46.8421 47.6573C46.8525 47.6363 46.8629 47.6047 46.8733 47.5836C46.9046 47.5205 46.9254 47.4573 46.9566 47.4047C46.9983 47.331 47.04 47.2573 47.0921 47.1941L48.3941 45.4254C48.4983 45.278 48.6128 45.2148 48.7274 45.2359C48.9045 45.2675 49.0712 45.5201 49.1545 45.9413L49.1858 46.0887L49.3941 47.1625L50.7586 45.7833L50.8628 46.5624L47.04 50.542C46.8212 50.7736 46.6025 50.4999 46.5504 49.9525C46.4983 49.2471 46.5712 48.5101 46.7483 47.9311Z" fill="#939598"/>
<path d="M46.4568 46.4255H50.29L50.113 44.8884C50.0505 44.3515 49.6442 43.9725 49.1755 44.0251L47.1026 44.2778C46.4568 44.3515 45.9568 44.9516 45.8839 45.7096C45.8735 46.0886 46.1235 46.4255 46.4568 46.4255Z" fill="#00BDFF"/>
<path d="M46.9361 46.4256H50.8735V45.8466H47.509C47.1861 45.8466 46.9361 46.1098 46.9361 46.4256Z" fill="#00AAD8"/>
<path d="M47.113 44.2778L49.1859 44.0251C49.6442 43.9725 50.0609 44.3515 50.1234 44.8884L50.165 45.2253H47.4255C46.988 45.2253 46.6026 45.0043 46.3631 44.6779C46.561 44.4568 46.8214 44.3094 47.113 44.2778Z" fill="#00AAD8"/>
<path d="M13.5458 64.1176V16H-16V83H107V70.1218" fill="#00AEEF"/>
</g>
</svg>
