<svg width="106" height="106" viewBox="0 0 106 106" fill="none" xmlns="http://www.w3.org/2000/svg">
<circle cx="53.2435" cy="53.1094" r="52.7068" fill="#F5F5F5"/>
<mask id="mask0_0_1" style="mask-type:alpha" maskUnits="userSpaceOnUse" x="0" y="0" width="106" height="106">
<circle cx="52.7068" cy="52.7068" r="52.7068" transform="matrix(-1 0 0 1 105.414 0)" fill="#F5F5F5"/>
</mask>
<g mask="url(#mask0_0_1)">
<path d="M96.7293 42.3489V59.6745H9.09782V42.3489H-17.5864V77H123.414V42.3489H96.7293Z" fill="#27AAE1"/>
<path d="M53.4071 58.5931C30.1688 58.5931 11.3304 58.3744 11.3304 58.1047C11.3304 57.835 30.1688 57.6163 53.4071 57.6163C76.6455 57.6163 95.4839 57.835 95.4839 58.1047C95.4839 58.3744 76.6455 58.5931 53.4071 58.5931Z" fill="#58595B"/>
<path d="M13.1987 49.0116C13.1987 50.686 14.4324 52.1976 16.3124 52.8255L19.7199 53.9651C20.5424 54.2093 21.4002 54.3372 22.2697 54.3372H92.8872C93.4042 54.3372 93.8271 53.9883 93.8271 53.5697V47.7907C93.8271 45 91.0894 42.7441 87.7054 42.7441H13.1987V49.0116Z" fill="#002D38"/>
<path d="M74.5912 53.6493C73.7923 50.4976 75.7264 47.3018 78.9112 46.5112C82.096 45.7206 85.3254 47.6346 86.1243 50.7863C86.9232 53.938 84.989 57.1338 81.8043 57.9244C78.6195 58.715 75.3901 56.801 74.5912 53.6493Z" fill="#414042"/>
<path d="M78.8095 56.3187C76.5225 55.4769 75.3581 52.9598 76.2087 50.6966C77.0592 48.4333 79.6028 47.281 81.8898 48.1227C84.1768 48.9645 85.3412 51.4816 84.4906 53.7448C83.6401 56.0081 81.0965 57.1604 78.8095 56.3187Z" fill="black"/>
<path d="M80.3501 48.0465C82.6766 48.0465 84.5684 49.9186 84.5684 52.2209C84.5684 54.5233 82.6766 56.3953 80.3501 56.3953C78.0236 56.3953 76.1319 54.5233 76.1319 52.2209C76.1436 49.9186 78.0236 48.0465 80.3501 48.0465ZM79.7039 52.6395L76.6489 53.4535C76.8251 53.9767 77.1189 54.4535 77.4831 54.8488L79.7039 52.6395ZM77.4361 49.6512C77.0719 50.0581 76.7899 50.5349 76.6254 51.0581L79.6686 51.8721L77.4361 49.6512ZM79.5041 48.4535L80.3149 51.4651L81.1374 48.4419C80.8906 48.3953 80.6321 48.3605 80.3619 48.3605C80.0564 48.3488 79.7744 48.3837 79.5041 48.4535ZM83.2759 54.7907C83.6401 54.3837 83.9221 53.907 84.0866 53.3837L81.0434 52.5698L83.2759 54.7907ZM84.0631 50.9884C83.8869 50.4651 83.5931 49.9884 83.2289 49.593L81.0081 51.8023L84.0631 50.9884ZM81.2079 56L80.3971 52.9884L79.5746 56.0116C79.8214 56.0581 80.0799 56.093 80.3501 56.093C80.6439 56.093 80.9376 56.0581 81.2079 56Z" fill="#E6E7E8"/>
<path d="M80.3501 52.0698C78.8696 52.0698 77.4949 52.3256 76.3669 52.7558C76.3434 52.5698 76.3199 52.3954 76.3199 52.1977C76.3199 50 78.1294 48.2209 80.3501 48.2209C82.5826 48.2209 84.3804 50 84.3804 52.1977C84.3804 52.3837 84.3569 52.5698 84.3334 52.7558C83.2054 52.3256 81.8306 52.0698 80.3501 52.0698Z" fill="#D1D3D4"/>
<path d="M80.3501 48.0465C82.6766 48.0465 84.5684 49.9186 84.5684 52.2209C84.5684 54.5233 82.6766 56.3953 80.3501 56.3953C78.0236 56.3953 76.1319 54.5233 76.1319 52.2209C76.1319 49.9186 78.0236 48.0465 80.3501 48.0465ZM80.3501 56.093C82.5121 56.093 84.2629 54.3605 84.2629 52.2209C84.2629 50.0814 82.5121 48.3488 80.3501 48.3488C78.1881 48.3488 76.4374 50.0814 76.4374 52.2209C76.4374 54.3605 78.1999 56.093 80.3501 56.093Z" fill="white"/>
<path d="M80.3501 50.9418C79.6333 50.9418 79.0576 51.5115 79.0576 52.2208C79.0576 52.9301 79.6333 54.6278 80.3501 54.6278C81.0668 54.6278 81.6426 52.9301 81.6426 52.2208C81.6426 51.5232 81.0668 50.9418 80.3501 50.9418Z" fill="#939598"/>
<path d="M79.8486 53.3968C79.1912 53.1216 78.8836 52.3712 79.1617 51.7206C79.4397 51.07 80.1981 50.7656 80.8555 51.0407C81.5129 51.3159 81.8205 52.0664 81.5425 52.717C81.2644 53.3676 80.5061 53.6719 79.8486 53.3968Z" fill="white"/>
<path d="M22.0067 53.162C21.4807 49.9545 23.6818 46.9322 26.923 46.4116C30.1643 45.8911 33.2183 48.0693 33.7443 51.2769C34.2703 54.4845 32.0692 57.5067 28.828 58.0273C25.5867 58.5479 22.5327 56.3696 22.0067 53.162Z" fill="#414042"/>
<path d="M26.1822 56.2587C23.9279 55.3346 22.8574 52.777 23.7912 50.5461C24.7249 48.3152 27.3094 47.2559 29.5637 48.18C31.818 49.104 32.8885 51.6616 31.9547 53.8925C31.021 56.1234 28.4365 57.1828 26.1822 56.2587Z" fill="black"/>
<path d="M27.8745 48.0465C30.201 48.0465 32.0928 49.9186 32.0928 52.2209C32.0928 54.5233 30.201 56.3953 27.8745 56.3953C25.548 56.3953 23.6563 54.5233 23.6563 52.2209C23.6563 49.9186 25.548 48.0465 27.8745 48.0465ZM27.2283 52.6395L24.1733 53.4535C24.3495 53.9767 24.6433 54.4535 25.0075 54.8488L27.2283 52.6395ZM24.9605 49.6512C24.5963 50.0581 24.3143 50.5349 24.1498 51.0581L27.193 51.8721L24.9605 49.6512ZM27.0285 48.4535L27.8393 51.4651L28.6618 48.4419C28.415 48.3953 28.1565 48.3605 27.8863 48.3605C27.5808 48.3488 27.2988 48.3837 27.0285 48.4535ZM30.8003 54.7907C31.1645 54.3837 31.4465 53.907 31.611 53.3837L28.5678 52.5698L30.8003 54.7907ZM31.5758 50.9884C31.3995 50.4651 31.1058 49.9884 30.7415 49.593L28.5208 51.8023L31.5758 50.9884ZM28.7323 56L27.9215 52.9884L27.099 56.0116C27.3458 56.0581 27.6043 56.093 27.8745 56.093C28.1683 56.093 28.4503 56.0581 28.7323 56Z" fill="#E6E7E8"/>
<path d="M27.8745 52.0698C26.394 52.0698 25.0193 52.3256 23.8913 52.7558C23.8678 52.5698 23.8443 52.3954 23.8443 52.1977C23.8443 50 25.6538 48.2209 27.8745 48.2209C30.0953 48.2209 31.9048 50 31.9048 52.1977C31.9048 52.3837 31.8813 52.5698 31.8578 52.7558C30.7298 52.3256 29.355 52.0698 27.8745 52.0698Z" fill="#D1D3D4"/>
<path d="M27.8745 48.0465C30.201 48.0465 32.0928 49.9186 32.0928 52.2209C32.0928 54.5233 30.201 56.3953 27.8745 56.3953C25.548 56.3953 23.6563 54.5233 23.6563 52.2209C23.6563 49.9186 25.548 48.0465 27.8745 48.0465ZM27.8745 56.093C30.0365 56.093 31.7873 54.3605 31.7873 52.2209C31.7873 50.0814 30.0365 48.3488 27.8745 48.3488C25.7125 48.3488 23.9618 50.0814 23.9618 52.2209C23.9618 54.3605 25.7125 56.093 27.8745 56.093Z" fill="white"/>
<path d="M27.8745 50.9418C27.1577 50.9418 26.582 51.5115 26.582 52.2208C26.582 52.9301 27.1577 54.6278 27.8745 54.6278C28.5912 54.6278 29.167 52.9301 29.167 52.2208C29.167 51.5232 28.5912 50.9418 27.8745 50.9418Z" fill="#939598"/>
<path d="M27.3781 53.4009C26.7186 53.1306 26.4054 52.3824 26.6786 51.7297C26.9518 51.0771 27.7079 50.7671 28.3674 51.0375C29.0269 51.3078 29.3401 52.0561 29.0669 52.7087C28.7937 53.3614 28.0376 53.6713 27.3781 53.4009Z" fill="white"/>
<path d="M13.199 37.0233H17.0413C18.651 37.0233 20.2255 36.6395 21.5768 35.9186C25.9008 33.6047 32.0108 29.5349 34.6428 28.4767C34.6428 28.4767 36.652 28 42.3978 28C50.8108 28 53.7013 28.5349 54.3123 28.6628C61.7853 30.2326 70.116 37.0233 70.116 37.0233C70.116 37.0233 80.6558 37.8837 90.326 42.2209C92.488 43.1977 95.2728 45.093 95.2728 47.1512C95.3433 49.686 94.4855 53.6628 93.992 53.6628C93.992 53.6628 91.595 53.6628 87.6588 53.6628C87.694 53.3023 87.7058 52.9302 87.7058 52.5698C87.7058 47.2209 84.4158 44.5116 80.3503 44.5116C76.2965 44.5116 72.9948 47.2209 72.9948 52.5698C72.9948 52.9302 73.0065 53.3023 73.0418 53.6628C60.951 53.6512 46.0285 53.6512 35.1715 53.6395C35.195 53.2907 35.2185 52.9302 35.2185 52.5698C35.2185 47.2209 31.9285 44.5116 27.863 44.5116C23.8093 44.5116 20.5075 47.2209 20.5075 52.5698C20.5075 52.9186 20.5193 53.2791 20.5545 53.6163L14.2213 51.8721C11.554 49.5814 11.5658 42.0116 11.5658 42.0116C11.5775 39.407 12.2473 37.0233 13.199 37.0233Z" fill="#00AAD8"/>
<path d="M21.6001 38.8605H11.9533C12.2353 37.7674 12.6818 37.0233 13.2106 37.0233H17.0528C18.6626 37.0233 20.2371 36.6395 21.5883 35.9186C25.9123 33.6047 32.0223 29.5349 34.6543 28.4767C34.6543 28.4767 36.6636 28 42.4093 28C50.8223 28 53.7128 28.5349 54.3238 28.6628C61.7968 30.2326 70.1276 37.0233 70.1276 37.0233C70.1276 37.0233 80.6673 37.8837 90.3376 42.2209C92.1118 43.0233 94.3091 44.4419 95.0376 46.0698C86.6598 41.5581 67.1313 38.8605 21.6001 38.8605Z" fill="#00BDFF"/>
<path d="M26.3821 36.3255C25.9003 36.3255 25.6301 35.9883 25.5478 35.6976C25.4656 35.4069 25.5243 34.9767 25.9356 34.7325C26.5466 34.372 27.1693 34 27.7686 33.6279C30.5651 31.9418 33.1971 30.3604 34.6893 29.7558C34.7011 29.7558 36.7456 29.2906 42.3738 29.2906C50.4931 29.2906 53.5128 29.7906 54.2531 29.9534C60.1398 31.186 66.5083 35.6395 69.0698 37.5813C57.0026 36.8139 43.0318 36.4069 26.3821 36.3255Z" fill="#85D5D0"/>
<path d="M14.8906 40.8489L14.6086 41.5815C14.1151 42.8838 12.9989 43.8257 11.6711 44.1513C11.5419 42.5117 11.5419 41.2792 11.5419 41.2792C11.5419 40.7559 11.6124 40.2792 11.6946 39.8722H14.1974C14.7144 39.8838 15.0669 40.3838 14.8906 40.8489Z" fill="#BE1E2D"/>
<path d="M13.8452 40.9652L13.6689 41.4303C13.4809 41.9187 13.1519 42.3373 12.7407 42.628C12.3529 42.9071 11.8007 42.628 11.7772 42.1513C11.7537 41.6047 11.7537 41.2443 11.7537 41.2443C11.7537 41.1978 11.7537 41.1513 11.7537 41.1047C11.7654 40.6978 12.1062 40.3722 12.5174 40.3722H13.4222C13.7394 40.3489 13.9627 40.6629 13.8452 40.9652Z" fill="#ED1C24"/>
<path opacity="0.5" d="M14.5499 40.3605L14.3971 40.6047C14.2326 40.8722 13.9389 41.0815 13.5746 41.2442C13.2221 41.3954 12.7404 41.2442 12.7169 40.9884C12.6934 40.6977 12.6934 40.5001 12.6934 40.5001C12.6934 40.4768 12.6934 40.4535 12.6934 40.4187C12.7051 40.1977 12.9989 40.0233 13.3749 40.0233H14.1739C14.4559 40.0349 14.6556 40.2094 14.5499 40.3605Z" fill="white"/>
<path d="M11.6713 44.1977C11.6831 44.1977 11.6831 44.1977 11.6713 44.1977C13.0343 43.8605 14.1506 42.8954 14.6441 41.6047L14.9261 40.8721C15.0201 40.6396 14.9848 40.3838 14.8438 40.1745C14.7028 39.9652 14.4678 39.8489 14.2093 39.8489H11.7066C11.6831 39.8489 11.6713 39.8721 11.6713 39.8838C11.6713 39.907 11.6948 39.9186 11.7066 39.9186H14.2093C14.4325 39.9186 14.6441 40.0233 14.7733 40.2093C14.9026 40.3954 14.926 40.6279 14.8555 40.8372L14.5736 41.5698C14.0918 42.8372 12.9991 43.7907 11.6713 44.1163C11.6478 44.1163 11.6361 44.1396 11.6361 44.1628C11.6361 44.1861 11.6596 44.1977 11.6713 44.1977Z" fill="black"/>
<path d="M72.4893 44.3953C72.4893 44.3953 51.7388 42.779 42.9733 42.3837C34.2078 41.9883 15.9248 40.9302 15.9248 40.9302C15.9248 40.9302 41.3165 44.5232 72.4893 44.3953Z" fill="#00BDFF"/>
<path d="M12.5994 47.5232H17.8752C19.4026 47.5232 20.7892 46.8488 21.6234 45.7674C22.8689 44.1627 24.6784 43.1976 26.9697 43.1976C29.2962 43.1976 31.1057 43.8139 32.5157 44.8721C35.0772 46.8023 38.3672 47.9186 41.7747 48.2907L67.6012 50.6976C70.0334 50.9534 72.3364 49.7441 73.1237 47.7907C74.2517 45.0116 76.4607 43.2093 79.5862 43.2093C84.2509 43.2093 86.8594 45.6744 88.2694 49.279C88.7277 50.4534 89.9732 51.279 91.4302 51.3953L94.2737 51.6046C94.5674 51.6279 94.5439 52.0465 94.2619 52.0465H90.4549C89.6089 52.0465 88.9862 52.8139 89.4797 53.5348C89.4327 53.6162 89.4444 53.593 89.3974 53.6744H87.6584C87.6937 53.3139 87.7054 52.9418 87.7054 52.5697C87.7054 47.2209 84.4154 44.5116 80.3499 44.5116C76.2962 44.5116 72.9944 47.2209 72.9944 52.5697C72.9944 52.9418 73.0062 53.3023 73.0414 53.6744H72.3129C72.2542 52.686 71.3024 51.8953 70.1274 51.8953H38.5787C37.4624 51.8953 36.6047 52.7209 36.7457 53.6511V53.6744C36.7457 53.6744 36.1464 53.6744 35.1477 53.6627C35.1829 53.3023 35.1947 52.9302 35.1947 52.5697C35.1947 47.2209 31.9046 44.5116 27.8391 44.5116C23.7854 44.5116 20.4837 47.2209 20.4837 52.5697C20.4837 52.9186 20.4954 53.279 20.5307 53.6162L19.6376 53.3721C19.5554 51.9651 19.6611 50.6511 19.9314 49.4418L12.5994 47.5232Z" fill="#00BDFF"/>
<path d="M89.3622 44.6745C89.1037 43.9652 89.6325 43.2094 90.3962 43.2094H92.1587C93.792 44.2442 95.2725 45.6512 95.2725 47.1628C95.2842 47.4652 95.2725 47.7907 95.2607 48.128H94.2502C92.053 48.128 90.0907 46.7442 89.3622 44.6745Z" fill="black"/>
<path d="M89.5385 44.628C89.2918 43.9303 89.8088 43.2094 90.549 43.2094H92.147C93.7803 44.2442 95.2608 45.6512 95.2608 47.1628C95.2725 47.4187 95.2608 47.6977 95.249 47.9768H94.3208C92.1823 47.9768 90.267 46.6396 89.5385 44.628Z" fill="#E6E7E8"/>
<path d="M90.8428 45.7442C90.7136 45.3722 90.9838 44.9768 91.3951 44.9768H92.2646C93.1458 45.5349 93.9448 46.3024 93.9448 47.1163C93.9448 47.2559 93.9448 47.407 93.9448 47.5582H93.4513C92.2646 47.5582 91.2306 46.8373 90.8428 45.7442Z" fill="#D1D3D4"/>
<path d="M91.254 44.5931C91.1247 44.221 91.395 43.8257 91.8062 43.8257H92.6757C93.557 44.3838 94.356 45.1513 94.356 45.9652C94.356 46.1048 94.356 46.2559 94.356 46.4071H93.8625C92.6875 46.3955 91.6417 45.6745 91.254 44.5931Z" fill="white"/>
<path d="M34.701 29.7558C34.7128 29.7558 36.7573 29.2906 42.3855 29.2906C50.5048 29.2906 53.5245 29.7906 54.2648 29.9534C59.141 30.9651 64.3463 34.1976 67.4483 36.372C67.46 36.6627 67.4483 37.0813 67.4365 37.4651C65.4273 37.3488 63.371 37.2325 61.256 37.1395C61.397 36.9651 61.5145 36.7558 61.5733 36.5116L61.8083 35.593C61.961 35.0116 61.726 34.3953 61.2443 34.1046C58.9413 32.6744 56.3093 31.3604 53.783 30.779C53.1955 30.6395 51.01 30.2441 45.4993 30.1395V36.593C45.135 36.5813 44.759 36.5697 44.3948 36.5697V30.1279C43.9718 30.1279 43.5253 30.1279 43.067 30.1279C38.2613 30.1279 36.346 30.5465 36.1463 30.593C35.688 30.8023 35.1123 31.1162 34.4543 31.5116V36.4069C34.3133 36.4069 34.1605 36.4069 34.0195 36.4069V31.7674C33.3145 32.1976 32.539 32.7093 31.7165 33.2441C30.9528 33.7441 30.4358 34.593 30.3065 35.5465L30.189 36.3488C29.437 36.3372 28.6733 36.3372 27.9095 36.3372C27.6628 35.5697 27.5805 34.4418 27.7215 33.6627C27.745 33.6511 27.7568 33.6395 27.7803 33.6279C30.5768 31.9418 33.2088 30.3488 34.701 29.7558Z" fill="#231F20"/>
<path d="M44.9706 31.6046H45.9224C46.7331 31.6046 47.4264 32.1744 47.5791 32.9535L48.3076 36.6628C47.2149 36.6279 46.1104 36.6046 44.9824 36.5814L44.1951 32.5465C44.0894 32.0581 44.4654 31.6046 44.9706 31.6046ZM27.7804 33.6279C28.4031 33.2558 29.0141 32.8837 29.6134 32.5232C29.6839 32.6628 29.7426 32.8023 29.7661 32.9535L30.4359 36.3604C29.3431 36.3488 28.2386 36.3488 27.1224 36.3372L26.7111 34.2674C27.0754 34.0465 27.4279 33.8372 27.7804 33.6279Z" fill="#58595B"/>
<path opacity="0.5" d="M54.2765 33.1627C53.5363 33.0116 50.5165 32.5 42.3973 32.5C36.769 32.5 34.7128 32.9651 34.7128 32.9651C33.3733 33.5 31.0938 34.8488 28.6145 36.3372C27.8743 36.3372 27.1458 36.3255 26.3938 36.3255C25.912 36.3255 25.6418 35.9883 25.5595 35.6976C25.4773 35.4069 25.536 34.9767 25.9473 34.7325C26.5583 34.372 27.181 34 27.7803 33.6279C30.5768 31.9418 33.2088 30.3604 34.701 29.7558C34.7128 29.7558 36.7573 29.2906 42.3855 29.2906C50.5048 29.2906 53.5245 29.7906 54.2648 29.9534C60.1515 31.186 66.52 35.6395 69.0815 37.5813C67.3895 37.4767 65.6505 37.372 63.888 37.279C61.0445 35.5581 57.5783 33.8488 54.2765 33.1627Z" fill="white"/>
<path d="M46.8273 41.0814C46.0486 41.0814 45.4173 40.7066 45.4173 40.2442C45.4173 39.7818 46.0486 39.407 46.8273 39.407C47.606 39.407 48.2373 39.7818 48.2373 40.2442C48.2373 40.7066 47.606 41.0814 46.8273 41.0814Z" fill="#002D38"/>
<path d="M45.4643 40.7093H48.1786C48.4136 40.7093 48.6016 40.5233 48.6016 40.2907V40.1861C48.6016 39.9535 48.4136 39.7675 48.1786 39.7675H45.4643C45.2293 39.7675 45.0413 39.9535 45.0413 40.1861V40.2907C45.0413 40.5233 45.2293 40.7093 45.4643 40.7093Z" fill="#002D38"/>
<path d="M29.0612 41.0814C28.2825 41.0814 27.6512 40.7066 27.6512 40.2442C27.6512 39.7818 28.2825 39.407 29.0612 39.407C29.8399 39.407 30.4712 39.7818 30.4712 40.2442C30.4712 40.7066 29.8399 41.0814 29.0612 41.0814Z" fill="#002D38"/>
<path d="M27.7099 40.7093H30.4242C30.6592 40.7093 30.8472 40.5233 30.8472 40.2907V40.1861C30.8472 39.9535 30.6592 39.7675 30.4242 39.7675H27.7099C27.4749 39.7675 27.2869 39.9535 27.2869 40.1861V40.2907C27.2869 40.5233 27.4749 40.7093 27.7099 40.7093Z" fill="#002D38"/>
<path d="M25.8535 34.593C29.2845 32.5465 32.8095 30.3489 34.6425 29.6047C34.6425 29.6047 36.6517 29.1279 42.3975 29.1279C50.8105 29.1279 53.701 29.6628 54.312 29.7907C60.3985 31.0698 67.0372 35.8023 69.305 37.5233C69.399 37.593 69.3402 37.7442 69.2227 37.7442C55.487 36.8721 40.6467 36.5582 26.3822 36.4884C25.3365 36.4768 24.9605 35.1279 25.8535 34.593ZM28.086 36.1744C29.543 36.1861 30.9882 36.1977 32.3982 36.2093V31.093C31.6227 31.5233 30.765 32.0349 29.8485 32.5698C29.0142 33.0698 28.4385 33.9186 28.2857 34.8721L28.086 36.1744ZM34.7365 29.907C34.2312 30.1163 33.5967 30.4303 32.8682 30.8256V36.221C36.6752 36.2558 40.3295 36.314 43.8427 36.3954V29.4535C43.3727 29.4535 42.891 29.4535 42.374 29.4535C37.0865 29.4419 34.9715 29.8605 34.7365 29.907ZM54.2415 30.1047C53.5952 29.9651 51.1865 29.5698 45.0882 29.4651V36.4186C50.8222 36.5582 56.192 36.7442 61.2562 36.9768C61.9965 37.0117 62.6545 36.5349 62.8542 35.8372L63.1127 34.9186C63.2772 34.3372 63.0187 33.721 62.49 33.4303C59.9285 32 57.0262 30.6861 54.2415 30.1047Z" fill="#002D38"/>
<path d="M26.7463 36.1279C26.7933 36.1279 26.8286 36.1628 26.8286 36.2093V40.8489C26.8286 42.2326 27.7216 43.4419 29.0376 43.8721L30.3653 44.3023C32.1396 44.8837 33.5731 46.0465 34.3956 47.5814C34.4543 47.6861 34.5131 47.8023 34.5601 47.907L35.9113 50.7675C36.4401 51.8721 37.5681 52.593 38.8018 52.593H44.4066V36.4535C44.4066 36.407 44.4418 36.3721 44.4888 36.3721C44.5358 36.3721 44.5711 36.407 44.5711 36.4535V52.593H65.3216C65.7798 52.593 66.1441 52.2326 66.1441 51.7791V36.9884C66.1441 36.9419 66.1793 36.907 66.2263 36.907C66.2733 36.907 66.3086 36.9419 66.3086 36.9884V51.7791C66.3086 52.314 65.8621 52.7558 65.3216 52.7558H38.8136C37.5211 52.7558 36.3226 52 35.7703 50.8489L34.4191 47.9884C34.3721 47.8837 34.3133 47.7675 34.2546 47.6628C33.4438 46.1628 32.0456 45.0233 30.3183 44.4651L28.9906 44.0349C27.6041 43.5814 26.6641 42.3023 26.6641 40.8605V36.2093C26.6641 36.1628 26.6993 36.1279 26.7463 36.1279Z" fill="#002D38"/>
<path d="M60.8097 38.9187V38.9071C60.8449 38.7908 60.8684 38.6862 60.9037 38.5815C60.9154 38.5466 60.9272 38.5234 60.9389 38.4885C60.9624 38.4187 60.9977 38.3373 61.0212 38.2676C61.0682 38.1745 61.1152 38.0815 61.1622 38.0118L62.5487 35.8606C62.6662 35.6862 62.7837 35.6048 62.9012 35.628C63.0892 35.6629 63.2654 35.9652 63.3594 36.4885L63.3947 36.6629L63.6179 37.9652L65.0749 36.3025L65.1807 37.2443L61.1152 42.0699C60.8919 42.349 60.6452 42.0118 60.5982 41.3606C60.5394 40.5118 60.6217 39.6164 60.8097 38.9187Z" fill="#002D38"/>
<path d="M60.5043 37.0931H64.5815L64.3935 35.2326C64.3348 34.5815 63.8883 34.1164 63.4065 34.1861L61.1975 34.4884C60.516 34.5815 59.9755 35.3024 59.905 36.221C59.8698 36.6861 60.1518 37.0931 60.5043 37.0931Z" fill="#00AAD8"/>
<path d="M61.0094 37.0931H65.1924V36.3954H61.6439C61.2914 36.3954 61.0094 36.6745 61.0094 37.0233V37.0931Z" fill="#002D38"/>
<path d="M61.1975 34.4884L63.4065 34.1861C63.9 34.1164 64.3347 34.5815 64.3935 35.2326L64.4287 35.6396H61.5147C61.0447 35.6396 60.6335 35.3722 60.3867 34.9652C60.61 34.7094 60.892 34.5233 61.1975 34.4884Z" fill="#00BDFF"/>
</g>
</svg>
