<svg width="186" height="51" viewBox="0 0 186 51" fill="none" xmlns="http://www.w3.org/2000/svg">
<rect x="60.5" y="8.5" width="64" height="35" rx="5.5" fill="#0072CF" fill-opacity="0.33" stroke="white"/>
<path d="M1 6.87229C1 3.84277 3.67273 1.50929 6.67455 1.918L51.6746 8.04501C54.1524 8.38238 56 10.4986 56 12.9993V39.6772C56 42.2389 54.0639 44.3862 51.5159 44.6505L6.51592 49.3187C3.56625 49.6247 1 47.3109 1 44.3454V6.87229Z" stroke="white" stroke-width="2"/>
<path d="M185 6.87229C185 3.84277 182.327 1.50929 179.325 1.918L134.325 8.04501C131.848 8.38238 130 10.4986 130 12.9993V39.6772C130 42.2389 131.936 44.3862 134.484 44.6505L179.484 49.3187C182.434 49.6247 185 47.3109 185 44.3454V6.87229Z" stroke="white" stroke-width="2"/>
<path d="M101.903 31.8627C95.7824 31.8894 89.6886 31.9161 83.5407 31.6488C83.8657 30.2584 83.5678 29.0284 82.5115 28.0391C81.7532 27.3172 80.8324 26.9696 79.749 26.9964C77.6636 27.0498 75.849 28.7878 76.0657 31.0605C75.0365 31.2477 74.0886 30.606 74.0074 29.5899C73.9803 29.0284 74.0345 28.4402 74.0615 27.8787C74.0615 27.6381 74.0886 27.3974 74.0886 27.1568C74.0886 26.9429 74.1699 26.7824 74.3865 26.7022C74.549 26.6488 74.7386 26.6488 74.9282 26.5953C74.549 25.6862 74.6574 24.7504 74.874 23.8413C74.9553 23.4669 75.1449 23.0926 75.3886 22.7985C76.2011 21.8359 77.0949 20.9268 77.9345 19.991C78.1782 19.7236 78.4761 19.5632 78.8553 19.5365C82.2136 19.2691 85.5449 18.975 88.9303 19.0017C91.097 19.0552 93.2365 19.2156 95.2949 19.8573C97.3261 20.4723 99.0865 21.5685 100.793 22.7718C101.199 23.0659 101.605 23.3867 102.039 23.6808C102.174 23.7611 102.337 23.8413 102.499 23.8413C105.045 24.0284 107.537 24.483 109.866 25.4723C110.353 25.6862 110.841 25.9001 111.301 26.1675C111.491 26.2744 111.626 26.4616 111.734 26.6488C111.897 26.9429 112.005 27.2637 112.195 27.5578C112.276 27.6915 112.439 27.7985 112.52 27.9322C112.601 28.0659 112.682 28.1996 112.682 28.3332C112.764 29.1621 112.628 29.9643 112.439 30.7664C112.439 30.8199 112.412 30.8466 112.412 30.9001C112.574 31.007 112.764 31.114 112.872 31.2477C113.034 31.4081 113.007 31.5418 112.764 31.5953C112.466 31.6488 112.168 31.7022 111.87 31.7022C110.976 31.729 110.082 31.7022 109.189 31.7022C109.595 29.9108 109.107 28.4669 107.482 27.4776C106.155 26.6755 104.747 26.7022 103.447 27.5578C101.903 28.6274 101.443 30.0712 101.903 31.8627ZM74.874 25.1514H74.9011C74.9011 25.3386 74.9011 25.5258 74.9011 25.7129C74.9011 25.7931 74.9282 25.9001 74.9824 25.9536C75.1449 26.1407 75.9303 26.1407 76.0386 25.9268C76.3636 25.2851 76.6615 24.6434 76.9595 23.975C77.0678 23.7343 76.9324 23.5739 76.6615 23.5472C76.3095 23.5204 75.9574 23.4937 75.6053 23.4402C75.3074 23.3867 75.1449 23.5204 75.0907 23.7878C75.0365 24.2423 74.9553 24.6969 74.874 25.1514ZM111.572 30.098C111.572 29.8573 111.382 29.6701 111.166 29.6969C110.922 29.7236 110.814 29.8573 110.787 30.0712C110.787 30.2851 110.976 30.4723 111.193 30.4455C111.437 30.4188 111.572 30.2851 111.572 30.098Z" fill="white"/>
<path d="M109.026 30.6595C109.026 32.5311 107.483 34.0284 105.533 34.0284C103.61 34.0284 102.039 32.5311 102.039 30.6595C102.039 28.7878 103.61 27.2905 105.56 27.2905C107.483 27.2905 109.026 28.7878 109.026 30.6595ZM105.505 33.3867C107.076 33.3867 108.376 32.1835 108.403 30.6595C108.403 29.1621 107.158 27.9054 105.587 27.9054C103.989 27.8787 102.716 29.1086 102.689 30.606C102.662 32.1568 103.935 33.3867 105.505 33.3867Z" fill="white"/>
<path d="M83.3784 30.6862C83.3513 32.5578 81.8075 34.0552 79.8304 34.0284C77.9346 34.0284 76.3638 32.5044 76.3638 30.6595C76.3638 28.7611 77.9617 27.2637 79.9117 27.2905C81.8346 27.2905 83.3784 28.8145 83.3784 30.6862ZM79.8846 33.3867C81.4554 33.3867 82.7284 32.1568 82.7284 30.6327C82.7284 29.1354 81.4554 27.9054 79.8846 27.9054C78.3138 27.9054 77.0138 29.1354 77.0138 30.6595C77.0138 32.1835 78.2867 33.4135 79.8846 33.3867Z" fill="white"/>
<path d="M111.572 30.098C111.545 30.2851 111.437 30.4188 111.193 30.4455C110.976 30.4723 110.76 30.2851 110.787 30.0712C110.787 29.8573 110.922 29.7236 111.166 29.6969C111.383 29.6701 111.572 29.8573 111.572 30.098Z" fill="white"/>
<path d="M105.506 33.3867C103.935 33.3867 102.662 32.13 102.689 30.606C102.716 29.0819 103.989 27.8787 105.587 27.9054C107.158 27.9322 108.403 29.1621 108.403 30.6594C108.376 32.1835 107.103 33.4135 105.506 33.3867ZM102.906 30.6594C102.906 32.0498 104.07 33.1728 105.533 33.1996C106.968 33.1996 108.16 32.0766 108.16 30.6594C108.16 29.2423 106.968 28.1193 105.506 28.1193C104.07 28.1193 102.906 29.2691 102.906 30.6594Z" fill="white"/>
<path d="M79.8847 33.3867C78.3139 33.3867 77.0139 32.1568 77.0139 30.6327C77.0139 29.1086 78.3139 27.8787 79.8847 27.8787C81.4556 27.8787 82.7285 29.1086 82.7285 30.606C82.7285 32.1568 81.4556 33.3867 79.8847 33.3867ZM77.2306 30.6594C77.2306 32.0498 78.4222 33.1996 79.8577 33.1996C81.3202 33.1996 82.4847 32.0498 82.4847 30.6594C82.4847 29.2691 81.3202 28.1193 79.8577 28.1193C78.4222 28.1193 77.2306 29.2423 77.2306 30.6594Z" fill="white"/>
<path d="M111.626 26.7824L111.328 26.3814L108.972 25.9803L107.699 26.4616L108.972 27.5846C108.972 27.5846 109.053 27.7718 109.839 27.7985C110.597 27.8252 111.816 27.9322 111.816 27.9322C111.816 27.9322 112.222 28.0391 111.897 27.237" fill="white"/>
</svg>
