<svg width="121" height="67" viewBox="0 0 121 67" fill="none" xmlns="http://www.w3.org/2000/svg">
<path d="M0 5C0 2.23858 2.23858 0 5 0H72.4222V66.9906H5.00001C2.23858 66.9906 0 64.752 0 61.9906V5Z" fill="#0072CF" fill-opacity="0.33"/>
<path d="M0 5C0 2.23858 2.23858 0 5 0H72.4222V66.9906H5.00001C2.23858 66.9906 0 64.752 0 61.9906V5Z" stroke="white"/>
<path d="M0 34.4005H72.4222V66.9905H5.00001C2.23858 66.9905 0 64.7519 0 61.9905V34.4005Z" fill="#0072CF" fill-opacity="0.33"/>
<path d="M97.0598 45.644C83.8242 45.7019 70.6471 45.7597 57.3529 45.1815C58.0557 42.175 57.4115 39.5153 55.1274 37.3761C53.4876 35.815 51.4964 35.0634 49.1538 35.1212C44.6444 35.2368 40.7205 38.995 41.189 43.9095C38.9636 44.3142 36.9138 42.9266 36.7381 40.7295C36.6796 39.5153 36.7967 38.2433 36.8553 37.0292C36.8553 36.5088 36.9138 35.9884 36.9138 35.4681C36.9138 35.0055 37.0895 34.6586 37.558 34.4852C37.9094 34.3695 38.3194 34.3695 38.7293 34.2539C37.9094 32.2881 38.1437 30.2645 38.6122 28.2987C38.7879 27.4892 39.1978 26.6798 39.7249 26.0438C41.4819 23.9623 43.4145 21.9965 45.23 19.9729C45.7571 19.3947 46.4013 19.0478 47.2212 18.99C54.4832 18.4118 61.6867 17.7758 69.0073 17.8336C73.6925 17.9493 78.3191 18.2962 82.77 19.6838C87.1623 21.0136 90.9691 23.3841 94.6586 25.986C95.5371 26.6219 96.4156 27.3158 97.3526 27.9518C97.6454 28.1252 97.9968 28.2987 98.3482 28.2987C103.853 28.7034 109.241 29.6863 114.278 31.8256C115.332 32.2881 116.386 32.7506 117.382 33.3288C117.792 33.5601 118.085 33.9648 118.319 34.3695C118.67 35.0055 118.904 35.6994 119.314 36.3354C119.49 36.6244 119.841 36.8557 120.017 37.1448C120.193 37.4339 120.369 37.723 120.369 38.0121C120.544 39.8044 120.251 41.539 119.841 43.2735C119.841 43.3891 119.783 43.447 119.783 43.5626C120.134 43.7939 120.544 44.0251 120.778 44.3142C121.13 44.6611 121.071 44.9502 120.544 45.0659C119.9 45.1815 119.256 45.2971 118.612 45.2971C116.679 45.3549 114.746 45.2971 112.814 45.2971C113.692 41.4233 112.638 38.3012 109.124 36.1619C106.254 34.4274 103.209 34.4852 100.398 36.3354C97.0598 38.6481 96.0642 41.7702 97.0598 45.644ZM38.6122 31.1317H38.6708C38.6708 31.5365 38.6708 31.9412 38.6708 32.3459C38.6708 32.5194 38.7293 32.7506 38.8465 32.8663C39.1978 33.271 40.8962 33.271 41.1305 32.8085C41.8333 31.4208 42.4775 30.0332 43.1217 28.5878C43.3559 28.0674 43.0631 27.7205 42.4775 27.6627C41.7161 27.6049 40.9548 27.547 40.1934 27.4314C39.5492 27.3158 39.1978 27.6049 39.0807 28.183C38.9636 29.1659 38.7879 30.1488 38.6122 31.1317ZM117.967 41.8281C117.967 41.3077 117.557 40.903 117.089 40.9608C116.562 41.0186 116.328 41.3077 116.269 41.7702C116.269 42.2328 116.679 42.6375 117.147 42.5797C117.675 42.5219 117.967 42.2328 117.967 41.8281Z" fill="white"/>
<path d="M112.462 43.0422C112.462 47.0895 109.124 50.3273 104.907 50.3273C100.749 50.3273 97.3525 47.0895 97.3525 43.0422C97.3525 38.995 100.749 35.7572 104.966 35.7572C109.124 35.7572 112.462 38.995 112.462 43.0422ZM104.849 48.9397C108.246 48.9397 111.057 46.3378 111.115 43.0422C111.115 39.8044 108.421 37.087 105.025 37.087C101.569 37.0292 98.8167 39.6888 98.7581 42.9266C98.6995 46.28 101.452 48.9397 104.849 48.9397Z" fill="white"/>
<path d="M57.0013 43.0999C56.9427 47.1472 53.6045 50.385 49.3293 50.3272C45.2298 50.3272 41.833 47.0315 41.833 43.0421C41.833 38.937 45.2883 35.6992 49.505 35.757C53.6631 35.757 57.0013 39.0527 57.0013 43.0999ZM49.4464 48.9395C52.8432 48.9395 55.5957 46.2799 55.5957 42.9843C55.5957 39.7465 52.8432 37.0869 49.4464 37.0869C46.0497 37.0869 43.2386 39.7465 43.2386 43.0421C43.2386 46.3377 45.9911 48.9973 49.4464 48.9395Z" fill="white"/>
<path d="M117.968 41.828C117.909 42.2327 117.675 42.5218 117.148 42.5796C116.679 42.6374 116.211 42.2327 116.269 41.7702C116.269 41.3076 116.562 41.0185 117.089 40.9607C117.558 40.9029 117.968 41.3076 117.968 41.828Z" fill="white"/>
<path d="M104.849 48.9395C101.452 48.9395 98.6999 46.222 98.7585 42.9264C98.8171 39.6308 101.57 37.029 105.025 37.0868C108.422 37.1446 111.116 39.8043 111.116 43.0421C111.057 46.3377 108.305 48.9973 104.849 48.9395ZM99.227 43.0421C99.227 46.0486 101.745 48.4769 104.908 48.5348C108.012 48.5348 110.589 46.1064 110.589 43.0421C110.589 39.9777 108.012 37.5494 104.849 37.5494C101.745 37.5494 99.227 40.0355 99.227 43.0421Z" fill="white"/>
<path d="M49.4471 48.9393C46.0504 48.9393 43.2393 46.2797 43.2393 42.9841C43.2393 39.6885 46.0504 37.0288 49.4471 37.0288C52.8439 37.0288 55.5964 39.6885 55.5964 42.9263C55.5964 46.2797 52.8439 48.9393 49.4471 48.9393ZM43.7078 43.0419C43.7078 46.0484 46.2846 48.5346 49.3886 48.5346C52.551 48.5346 55.0693 46.0484 55.0693 43.0419C55.0693 40.0354 52.551 37.5492 49.3886 37.5492C46.2846 37.5492 43.7078 39.9776 43.7078 43.0419Z" fill="white"/>
<path d="M118.085 34.6588L117.441 33.7915L112.346 32.9242L109.593 33.9649L112.346 36.3933C112.346 36.3933 112.521 36.798 114.22 36.8558C115.859 36.9137 118.495 37.1449 118.495 37.1449C118.495 37.1449 119.373 37.3762 118.671 35.6417" fill="white"/>
</svg>
