<svg width="932" height="74" viewBox="0 0 932 74" fill="none" xmlns="http://www.w3.org/2000/svg">
<mask id="path-1-inside-1_698_423" fill="white">
<path fill-rule="evenodd" clip-rule="evenodd" d="M235 0H-11V103H943V0H694V51H235V0Z"/>
</mask>
<path fill-rule="evenodd" clip-rule="evenodd" d="M235 0H-11V103H943V0H694V51H235V0Z" fill-opacity="0.4" fill="#27AAE1"/>
<path d="M-11 0V-5H-16V0H-11ZM235 0H240V-5H235V0ZM-11 103H-16V108H-11V103ZM943 103V108H948V103H943ZM943 0H948V-5H943V0ZM694 0V-5H689V0H694ZM694 51V56H699V51H694ZM235 51H230V56H235V51ZM-11 5H235V-5H-11V5ZM-6 103V0H-16V103H-6ZM943 98H-11V108H943V98ZM938 0V103H948V0H938ZM694 5H943V-5H694V5ZM689 0V51H699V0H689ZM694 46H235V56H694V46ZM240 51V0H230V51H240Z" fill="#17FF2D" mask="url(#path-1-inside-1_698_423)"/>
</svg>
