<svg width="30" height="20" viewBox="0 0 30 20" fill="none" xmlns="http://www.w3.org/2000/svg">
<path d="M14.7731 20.0001C22.9075 20.0001 29.5017 19.8557 29.5017 19.6774C29.5017 19.4992 22.9075 19.3547 14.7731 19.3547C6.6388 19.3547 0.0446167 19.4992 0.0446167 19.6774C0.0446167 19.8557 6.6388 20.0001 14.7731 20.0001Z" fill="#58595B"/>
<path d="M24.5644 12.0989H4.98187V17.2177H24.5644V12.0989Z" fill="black"/>
<path d="M26.4873 19.6773H23.4524C23.3499 19.6773 23.2679 19.5947 23.2679 19.4943V11.9883H26.673V19.4943C26.673 19.596 26.5898 19.6773 26.4873 19.6773Z" fill="#231F20"/>
<path d="M6.09257 19.6773H3.0577C2.95522 19.6773 2.87323 19.5947 2.87323 19.4943V11.9883H6.27833V19.4943C6.27833 19.596 6.19506 19.6773 6.09257 19.6773Z" fill="#231F20"/>
<path d="M26.673 11.9883H23.2679V17.9126H26.673V11.9883Z" fill="black"/>
<path d="M6.27833 11.9883H2.87323V17.9126H6.27833V11.9883Z" fill="black"/>
<path d="M28.71 5.94204H25.5355V5.4834H28.5204C28.6241 5.4834 28.7087 5.56725 28.7087 5.67016V5.94204H28.71Z" fill="black"/>
<path d="M29.0943 5.94193H25.9966L26.1363 4.72354C26.185 4.29792 26.5193 3.99428 26.8896 4.03874L28.5639 4.23821C29.0828 4.30047 29.4927 4.77309 29.5439 5.37148C29.5696 5.67767 29.3607 5.94193 29.0943 5.94193Z" fill="#00AAD8"/>
<path d="M28.5639 4.23841L26.8883 4.04021C26.518 3.99574 26.1837 4.29939 26.135 4.725L26.1042 4.98926H28.3141C28.6664 4.98926 28.979 4.81521 29.1737 4.55222C29.0084 4.38197 28.7983 4.26636 28.5639 4.23841Z" fill="#00BDFF"/>
<path d="M29.0277 5.86824H26.4027C26.2311 5.86824 26.0966 5.745 26.1132 5.60398L26.2131 4.80993C26.2593 4.44022 26.577 4.17722 26.9293 4.21534L28.5229 4.38813C29.0161 4.44149 29.4069 4.85312 29.4555 5.37275C29.4799 5.63701 29.2813 5.86824 29.0277 5.86824Z" fill="black"/>
<path d="M29.0353 5.86834H26.4617C26.2926 5.86834 26.1606 5.75272 26.1785 5.61932L26.2759 4.87227C26.3207 4.52416 26.632 4.27642 26.9779 4.31199L28.5396 4.47461C29.0238 4.52543 29.4056 4.91293 29.453 5.40207C29.4786 5.65108 29.2852 5.86834 29.0353 5.86834Z" fill="#E6E7E8"/>
<path opacity="0.5" d="M29.3133 4.97777C29.1519 4.70335 28.8714 4.50897 28.5408 4.47339L26.9792 4.31077C26.6333 4.2752 26.322 4.52294 26.2772 4.87105L26.2106 5.37417C27.065 4.84946 28.2052 4.80372 29.3133 4.97777Z" fill="white"/>
<path d="M0.835022 5.94204H4.00953V5.4834H1.02462C0.920854 5.4834 0.836303 5.56725 0.836303 5.67016V5.94204H0.835022Z" fill="black"/>
<path d="M0.450713 5.94193H3.54835L3.40872 4.72354C3.36004 4.29792 3.02567 3.99428 2.65544 4.03874L0.98236 4.23821C0.463524 4.30047 0.05358 4.77309 0.00233701 5.37148C-0.0245656 5.67767 0.18425 5.94193 0.450713 5.94193Z" fill="#00AAD8"/>
<path d="M0.982349 4.23841L2.65671 4.04021C3.02695 3.99574 3.36131 4.29939 3.40999 4.725L3.44073 4.98926H1.2296C0.877301 4.98926 0.564719 4.81521 0.369995 4.55222C0.537816 4.38197 0.747912 4.26636 0.982349 4.23841Z" fill="#00BDFF"/>
<path d="M0.518779 5.86824H3.1437C3.31537 5.86824 3.44988 5.745 3.43323 5.60398L3.3333 4.80993C3.28718 4.44022 2.96948 4.17722 2.61718 4.21534L1.02352 4.38813C0.530309 4.44149 0.139581 4.85312 0.0909001 5.37275C0.0665597 5.63701 0.263845 5.86824 0.518779 5.86824Z" fill="#F7F7F7"/>
<path d="M0.509653 5.86834H3.08333C3.25244 5.86834 3.38439 5.75272 3.36645 5.61932L3.26909 4.87227C3.22425 4.52416 2.91295 4.27642 2.56706 4.31199L1.00415 4.47334C0.519902 4.52416 0.138142 4.91166 0.0907417 5.4008C0.0664013 5.65108 0.261125 5.86834 0.509653 5.86834Z" fill="#F7F7F7"/>
<path opacity="0.5" d="M0.231689 4.97777C0.393105 4.70335 0.67366 4.50897 1.00418 4.47339L2.56581 4.31077C2.9117 4.2752 3.223 4.52294 3.26784 4.87105L3.33317 5.37417C2.48126 4.84946 1.3411 4.80372 0.231689 4.97777Z" fill="#F7F7F7"/>
<path d="M26.3515 16.8289H21.2298V9.55029H26.4463L26.9254 10.5209V11.7736C26.9254 12.1078 26.6679 16.8289 26.3515 16.8289Z" fill="#00AAD8"/>
<path d="M3.19477 16.8289H8.31651V9.55029H3.09997L2.62085 10.5209V11.7736C2.62085 12.1078 2.87706 16.8289 3.19477 16.8289Z" fill="#00AAD8"/>
<path d="M26.0914 6.33464C26.0914 6.33464 22.9066 0.321433 22.6607 0.299835C20.5379 0.113073 17.7836 0 14.7731 0C11.7639 0 9.00954 0.113073 6.8868 0.298564C6.64212 0.320163 3.45352 6.33464 3.45352 6.33464C3.10763 6.8314 2.91931 7.43489 2.91931 8.05488V11.4979C2.91931 11.9845 3.33822 16.8289 3.8545 16.8289H25.6917C26.208 16.8289 26.6269 11.9845 26.6269 11.4979V8.05742C26.6269 7.43616 26.4386 6.8314 26.0914 6.33464Z" fill="#00AAD8"/>
<path d="M26.0914 6.33478C26.0914 6.33478 26.076 6.30429 26.0479 6.2522L25.0307 8.55305C23.9956 10.8984 21.6589 12.4128 19.0775 12.4128H8.45741C5.99775 12.4128 4.00311 14.3909 4.00311 16.8303H25.6904C26.2067 16.8303 26.6256 11.9859 26.6256 11.4993V8.05756C26.6269 7.43629 26.4386 6.83154 26.0914 6.33478Z" fill="#00BDFF"/>
<path d="M5.12406 6.2367H24.4209C24.7847 6.2367 25.1114 6.39297 25.3381 6.64072C25.6097 6.93801 25.9787 7.12858 26.3822 7.12858H26.4809C26.3899 6.84526 26.2605 6.57719 26.0901 6.33453C26.0901 6.33453 26.0786 6.31293 26.0581 6.27482C26.0543 6.26719 26.0517 6.26211 26.0466 6.25195C25.7673 5.7247 24.1672 2.72127 23.2654 1.19287C20.9838 1.61467 18.0168 1.87004 14.7718 1.87004C11.5269 1.87004 8.56118 1.61467 6.27959 1.19287C5.28675 2.87245 3.45225 6.33326 3.45225 6.33326C3.28315 6.57592 3.15248 6.84399 3.06281 7.12604H3.16145C3.56499 7.12604 3.93522 6.93547 4.20681 6.63817C4.43356 6.3917 4.76023 6.2367 5.12406 6.2367Z" fill="#00AAD8"/>
<path d="M24.631 8.73841H4.91527C4.64497 8.73841 4.4259 8.52116 4.4259 8.25309V6.90256C4.4259 6.63449 4.64497 6.41724 4.91527 6.41724H24.631C24.9013 6.41724 25.1204 6.63449 25.1204 6.90256V8.25436C25.1204 8.52116 24.9013 8.73841 24.631 8.73841Z" fill="#00BDFF"/>
<path d="M5.2022 5.83417H24.3427C24.7629 5.83417 25.0358 5.39585 24.8462 5.0236C24.2684 3.8916 23.437 2.28062 22.8695 1.26296C22.7709 1.08509 22.5825 0.97583 22.3776 0.97583H7.16993C6.96496 0.97583 6.77664 1.08509 6.678 1.26296C6.11048 2.27935 5.27778 3.89033 4.69873 5.0236C4.50914 5.39458 4.782 5.83417 5.2022 5.83417Z" fill="black"/>
<path d="M24.2057 9.74231H5.33928C5.32519 9.74231 5.31238 9.73088 5.31238 9.71563V5.51032C5.31238 5.49635 5.32391 5.48364 5.33928 5.48364H24.2057C24.2198 5.48364 24.2326 5.49508 24.2326 5.51032V9.71563C24.2326 9.73088 24.2198 9.74231 24.2057 9.74231ZM5.36618 9.69022H24.1801V5.537H5.36618V9.69022Z" fill="black"/>
<path d="M25.5086 16.9826H4.0365V15.5762C4.0365 14.9676 4.53484 14.4734 5.14847 14.4734H24.3954C25.009 14.4734 25.5073 14.9676 25.5073 15.5762V16.9826H25.5086Z" fill="#002D38"/>
<path d="M7.05849 4.88623H22.4865C23.3679 4.88623 23.9482 4.00197 23.5664 3.23841C23.3538 2.81406 23.1398 2.39099 22.94 2.00349C22.8055 1.74177 22.5275 1.57788 22.2239 1.57788H7.32239C7.01877 1.57788 6.74078 1.74177 6.60627 2.00349C6.40642 2.39099 6.19248 2.81279 5.97982 3.23714C5.59678 4.0007 6.17711 4.88623 7.05849 4.88623Z" fill="#85D5D0"/>
<path d="M19.8974 4.60183C19.8654 4.60183 19.8385 4.57261 19.8321 4.53195L19.6758 3.56003C19.5887 3.01626 19.2236 2.62622 18.8008 2.62622H17.8285C17.4058 2.62622 17.0419 3.01626 16.9535 3.56003L16.7972 4.53195C16.7908 4.57261 16.7627 4.60183 16.7319 4.60183C16.5116 4.60183 16.313 4.70982 16.158 4.88642H20.4688C20.3164 4.70982 20.1165 4.60183 19.8974 4.60183ZM12.8131 4.60183C12.7811 4.60183 12.7542 4.57261 12.7478 4.53195L12.5915 3.56003C12.5044 3.01626 12.1393 2.62622 11.7165 2.62622H10.7442C10.3214 2.62622 9.95758 3.01626 9.86919 3.56003L9.7129 4.53195C9.70649 4.57261 9.67831 4.60183 9.64756 4.60183C9.42722 4.60183 9.22865 4.70982 9.07364 4.88642H13.3845C13.232 4.70982 13.0322 4.60183 12.8131 4.60183Z" fill="#414042"/>
<path d="M11.9458 4.51274C11.8997 4.51274 11.8599 4.48098 11.851 4.43652L11.6268 3.38201C11.5012 2.79124 10.9747 2.36816 10.3662 2.36816H8.96471C8.3562 2.36816 7.82968 2.79124 7.70414 3.38201L7.47995 4.43652C7.47098 4.48098 7.43127 4.51274 7.38515 4.51274C7.08282 4.51274 6.80866 4.62074 6.59216 4.79606C6.73436 4.85324 6.89194 4.88627 7.06104 4.88627H12.8438C12.6119 4.65758 12.2981 4.51274 11.9458 4.51274ZM22.1611 4.51274C22.115 4.51274 22.0752 4.48098 22.0663 4.43652L21.8421 3.38201C21.7165 2.79124 21.19 2.36816 20.5815 2.36816H19.18C18.5715 2.36816 18.045 2.79124 17.9194 3.38201L17.6952 4.43652C17.6863 4.48098 17.6466 4.51274 17.6004 4.51274C17.2494 4.51274 16.9343 4.65758 16.705 4.88627H22.4877C22.6568 4.88627 22.8144 4.85324 22.9566 4.79606C22.7376 4.62074 22.4634 4.51274 22.1611 4.51274Z" fill="#58595B"/>
<path d="M5.90424 4.03638C6.04003 4.509 6.48456 4.88633 7.05848 4.88633H22.4865C23.0617 4.88633 23.5062 4.51027 23.6407 4.03638H5.90424Z" fill="#6D6E71"/>
<path opacity="0.5" d="M17.1971 3.17615H23.5346C23.3322 2.77214 23.1298 2.37193 22.9389 2.00349C22.8044 1.74177 22.5264 1.57788 22.2228 1.57788H7.32259C7.01897 1.57788 6.74098 1.74177 6.60647 2.00349C6.40662 2.39099 6.19268 2.81279 5.98002 3.23714C5.59698 4.0007 6.17731 4.88496 7.05997 4.88496H9.07254C10.5573 3.84697 13.1835 3.17615 17.1971 3.17615Z" fill="white"/>
<path d="M7.41208 10.5362H4.62061C3.89168 10.5362 3.22168 9.4779 3.22168 8.17184C3.22168 7.94823 3.40487 7.76782 3.62906 7.76782H7.19558C7.57093 7.76782 7.87455 8.06893 7.87455 8.44118V10.0763C7.87583 10.3304 7.66829 10.5362 7.41208 10.5362Z" fill="#ED1C24"/>
<path d="M5.95292 10.3215H7.06617C7.41719 10.3215 7.70287 10.0394 7.70287 9.69003C7.70287 9.34191 7.41847 9.05859 7.06617 9.05859H5.95292C5.6019 9.05859 5.31622 9.34064 5.31622 9.69003C5.3175 10.0394 5.6019 10.3215 5.95292 10.3215Z" fill="#BE1E2D"/>
<path d="M4.08513 10.0712H4.11843C3.7149 10.0712 3.34338 9.23646 3.34338 8.2061C3.34338 8.0295 3.44459 7.88721 3.57013 7.88721H3.96599C4.17352 7.88721 4.34262 8.12479 4.34262 8.41827V9.70781C4.34262 9.90855 4.22733 10.0712 4.08513 10.0712Z" fill="#F14950"/>
<path opacity="0.5" d="M4.92552 9.41945H5.8005C6.07593 9.41945 6.30012 9.19711 6.30012 8.92396C6.30012 8.6508 6.07593 8.42847 5.8005 8.42847H4.92552C4.65009 8.42847 4.4259 8.6508 4.4259 8.92396C4.4259 9.19711 4.64881 9.41945 4.92552 9.41945Z" fill="white"/>
<path d="M7.41206 10.5615H4.6206C3.84811 10.5615 3.19604 9.46634 3.19604 8.17044C3.19604 7.93286 3.39077 7.73975 3.63033 7.73975H7.19684C7.58629 7.73975 7.90272 8.05356 7.90272 8.43978V10.0749C7.90272 10.3442 7.68237 10.5615 7.41206 10.5615ZM3.63033 7.79311C3.42023 7.79311 3.24857 7.96335 3.24857 8.17171C3.24857 9.41806 3.89039 10.5107 4.6206 10.5107H7.41206C7.65291 10.5107 7.85019 10.3163 7.85019 10.0762V8.43978C7.85019 8.08278 7.55683 7.79184 7.19684 7.79184H3.63033V7.79311Z" fill="black"/>
<path d="M22.1329 10.5362H24.9244C25.6533 10.5362 26.3233 9.4779 26.3233 8.17184C26.3233 7.94823 26.1401 7.76782 25.9159 7.76782H22.3494C21.9741 7.76782 21.6704 8.06893 21.6704 8.44118V10.0763C21.6692 10.3304 21.8767 10.5362 22.1329 10.5362Z" fill="#ED1C24"/>
<path d="M23.5921 10.3215H22.4788C22.1278 10.3215 21.8421 10.0394 21.8421 9.69003C21.8421 9.34191 22.1265 9.05859 22.4788 9.05859H23.5921C23.9431 9.05859 24.2287 9.34064 24.2287 9.69003C24.2275 10.0394 23.9431 10.3215 23.5921 10.3215Z" fill="#BE1E2D"/>
<path d="M25.4611 10.0712H25.4278C25.8313 10.0712 26.2029 9.23646 26.2029 8.2061C26.2029 8.0295 26.1016 7.88721 25.9761 7.88721H25.5802C25.3727 7.88721 25.2036 8.12479 25.2036 8.41827V9.70781C25.2036 9.90855 25.3189 10.0712 25.4611 10.0712Z" fill="#BE1E2D"/>
<path opacity="0.5" d="M24.6207 9.41945H23.7458C23.4703 9.41945 23.2462 9.19711 23.2462 8.92396C23.2462 8.6508 23.4703 8.42847 23.7458 8.42847H24.6207C24.8962 8.42847 25.1204 8.6508 25.1204 8.92396C25.1204 9.19711 24.8962 9.41945 24.6207 9.41945Z" fill="white"/>
<path d="M21.6436 10.0762V8.43978C21.6436 8.05356 21.96 7.73975 22.3494 7.73975H25.9159C26.1555 7.73975 26.3502 7.93286 26.3502 8.17044C26.3502 9.46634 25.6982 10.5615 24.9257 10.5615H22.1342C21.8626 10.5615 21.6436 10.3442 21.6436 10.0762ZM22.3481 7.79311C21.9882 7.79311 21.6948 8.08405 21.6948 8.44105V10.0762C21.6948 10.315 21.8908 10.5107 22.1329 10.5107H24.9244C25.6559 10.5107 26.2964 9.41806 26.2964 8.17171C26.2964 7.96335 26.1248 7.79311 25.9147 7.79311H22.3481Z" fill="black"/>
</svg>
