<svg width="26" height="18" viewBox="0 0 26 18" fill="none" xmlns="http://www.w3.org/2000/svg">
<g clip-path="url(#clip0_40_906)">
<path d="M12.9994 17.9988C20.1574 17.9988 25.9601 17.8689 25.9601 17.7086C25.9601 17.5484 20.1574 17.4185 12.9994 17.4185C5.8414 17.4185 0.0386963 17.5484 0.0386963 17.7086C0.0386963 17.8689 5.8414 17.9988 12.9994 17.9988Z" fill="#002D38"/>
<path d="M21.6158 10.8882H4.38428V15.4957H21.6158V10.8882Z" fill="black"/>
<path d="M23.286 17.7086H20.6621C20.559 17.7086 20.4766 17.6236 20.4766 17.5204V10.7888H23.4728V17.5204C23.4716 17.6249 23.3878 17.7086 23.286 17.7086Z" fill="#231F20"/>
<path d="M5.33921 17.7086H2.71408C2.61098 17.7086 2.5285 17.6236 2.5285 17.5204V10.7888H5.52479V17.5204C5.52479 17.6249 5.44102 17.7086 5.33921 17.7086Z" fill="#231F20"/>
<path d="M23.4716 10.7888H20.4753V16.1205H23.4716V10.7888Z" fill="black"/>
<path d="M5.52479 10.7888H2.5285V16.1205H5.52479V10.7888Z" fill="black"/>
<path d="M23.188 15.1453H18.6801V8.59546H23.2705L23.6919 9.4686V10.5953C23.6932 10.8959 23.4677 15.1453 23.188 15.1453Z" fill="#80C3CE"/>
<path d="M2.81071 15.1453H7.31867V8.59546H2.72824L2.30682 9.4686V10.5953C2.30682 10.8959 2.53235 15.1453 2.81071 15.1453Z" fill="#80C3CE"/>
<path d="M0.396945 5.34884H3.1226L3.00017 4.25219C2.95764 3.86921 2.66381 3.59603 2.33776 3.63655L0.864752 3.81432C0.408544 3.86921 0.0477014 4.29663 0.00259603 4.83385C-0.020601 5.10965 0.162398 5.34884 0.396945 5.34884Z" fill="#00AAD8"/>
<path d="M0.734619 5.34859H3.52728V4.93555H0.924061C0.819675 4.93555 0.734619 5.02181 0.734619 5.12769V5.34859Z" fill="black"/>
<path d="M0.864736 3.81416L2.33904 3.63509C2.66508 3.59588 2.95891 3.86906 3.00144 4.25073L3.0285 4.48862H1.08253C0.771948 4.48862 0.49745 4.33177 0.32605 4.09519C0.472964 3.94357 0.65854 3.8403 0.864736 3.81416Z" fill="#00BDFF"/>
<path d="M25.6018 5.3486H22.8762L22.9986 4.25195C23.0411 3.86897 23.3349 3.59579 23.661 3.63631L25.1353 3.81538C25.5915 3.87028 25.9523 4.2977 25.9974 4.83491C26.0206 5.1094 25.8376 5.3486 25.6018 5.3486Z" fill="#00AAD8"/>
<path d="M25.2642 5.34859H22.4715V4.93555H25.0747C25.1791 4.93555 25.2642 5.02181 25.2642 5.12769V5.34859Z" fill="black"/>
<path d="M25.1353 3.81416L23.661 3.63509C23.3349 3.59588 23.0411 3.86906 22.9986 4.25073L22.9715 4.48862H24.9162C25.2268 4.48862 25.5013 4.33177 25.6727 4.09519C25.5258 3.94357 25.3415 3.8403 25.1353 3.81416Z" fill="#00BDFF"/>
<path d="M22.9599 5.70024C22.9599 5.70024 20.1569 0.288868 19.9417 0.269262C18.0731 0.101953 15.649 0 12.9994 0C10.3523 0 7.92822 0.101953 6.05957 0.269262C5.84436 0.288868 3.03752 5.70155 3.03752 5.70155C2.73209 6.14857 2.56842 6.69232 2.56842 7.25045V10.3483C2.56842 10.7861 2.937 15.1466 3.39191 15.1466H22.6081C23.063 15.1466 23.4316 10.7875 23.4316 10.3483V7.25045C23.4303 6.69232 23.2653 6.14727 22.9599 5.70024Z" fill="#00AAD8"/>
<path d="M22.9599 5.70015C22.9599 5.70015 22.9457 5.6727 22.9212 5.62695L21.0668 9.19532C19.8373 11.5625 17.4158 13.0434 14.7778 13.0434H5.55312C4.43193 13.0434 3.52338 13.9649 3.52338 15.1021V15.1452H22.6081C23.063 15.1452 23.4316 10.7861 23.4316 10.3469V7.25036C23.4303 6.69224 23.2653 6.14718 22.9599 5.70015Z" fill="#00AAD8"/>
<path d="M3.03884 5.70148C2.89708 5.908 2.78754 6.13674 2.70892 6.37724C3.06719 7.34057 3.5234 8.24508 4.06853 9.06986H8.11383C6.1859 8.8751 4.71031 8.15359 4.00667 5.84264C3.91001 5.52502 4.14585 5.20086 4.47447 5.20086H21.5269C21.8555 5.20086 22.0913 5.52502 21.9947 5.84264C21.291 8.15359 19.8142 8.8751 17.8862 9.06986H21.9328C22.4779 8.24508 22.9329 7.34057 23.2924 6.37724C23.2138 6.13674 23.103 5.908 22.9612 5.70017C22.9612 5.70017 21.1518 2.20761 20.3296 0.824707H5.67299C4.84949 2.20761 3.03884 5.70148 3.03884 5.70148Z" fill="#00BDFF"/>
<path d="M12.703 9.14973H8.40507C8.40507 9.14973 6.63951 8.07138 4.8121 6.05322C6.64982 7.48057 8.38573 8.8125 8.38573 8.8125C8.38573 8.8125 12.7184 8.87916 12.703 9.14973Z" fill="#00BDFF"/>
<path d="M13.2971 9.14973H17.5937C17.5937 9.14973 19.3592 8.07138 21.1866 6.05322C19.3489 7.48057 17.613 8.8125 17.613 8.8125C17.613 8.8125 13.2816 8.87916 13.2971 9.14973Z" fill="#BCBEC0"/>
<path d="M21.9444 9.94434H4.05692V11.4383H21.9444V9.94434Z" fill="#002D38"/>
<path d="M23.0334 10.3483V9.51571C23.0334 9.1994 22.7885 8.92229 22.4741 8.91968C22.4715 8.91968 22.4702 8.91968 22.4676 8.91968H20.4121C19.2201 8.91968 16.6323 9.90261 16.6954 11.1064C16.7173 11.5247 17.0859 11.841 17.5022 11.841H21.822C22.4457 11.841 22.9638 11.3574 23.0115 10.7326C23.0257 10.5431 23.0334 10.4085 23.0334 10.3483Z" fill="black"/>
<path d="M22.4032 8.95752H20.7884C19.5281 8.95752 16.8102 9.84504 16.8102 10.9953C16.8102 11.4122 17.18 11.7508 17.6375 11.7508H21.7292C22.4006 11.7508 22.9561 11.2227 22.9986 10.5456C23.005 10.4528 23.0076 10.3836 23.0076 10.3457V9.76008C23.0089 9.31697 22.8414 8.95752 22.4032 8.95752Z" fill="#E6E7E8"/>
<path d="M21.9702 11.505H19.3231C19.1182 11.505 18.952 11.3364 18.952 11.1286C18.952 10.5417 20.5745 10.0659 21.1531 10.0659H22.2073C22.4947 10.0659 22.7267 10.3025 22.7267 10.5927V10.7352C22.7292 11.16 22.389 11.505 21.9702 11.505Z" fill="#D1D3D4"/>
<path d="M20.6518 10.7077H18.0048C17.7999 10.7077 17.6336 10.5391 17.6336 10.3312C17.6336 9.74434 19.2561 9.26855 19.8348 9.26855H20.889C21.1763 9.26855 21.4083 9.50514 21.4083 9.79531V9.93779C21.4096 10.3639 21.0707 10.7077 20.6518 10.7077Z" fill="white"/>
<path d="M2.96667 10.3483V9.51571C2.96667 9.1994 3.21153 8.92229 3.52598 8.91968C3.52856 8.91968 3.52985 8.91968 3.53242 8.91968H5.58794C6.78001 8.91968 9.36776 9.90261 9.30462 11.1064C9.28271 11.5247 8.91413 11.841 8.49788 11.841H4.17808C3.55433 11.841 3.03627 11.3574 2.98858 10.7326C2.97441 10.5431 2.96667 10.4085 2.96667 10.3483Z" fill="black"/>
<path d="M3.59685 8.95752H5.21162C6.47199 8.95752 9.18991 9.84504 9.18991 10.9953C9.18991 11.4122 8.82005 11.7508 8.36255 11.7508H4.27085C3.59943 11.7508 3.04399 11.2227 3.00146 10.5456C2.99502 10.4528 2.99244 10.3836 2.99244 10.3457V9.76008C2.99115 9.31697 3.15868 8.95752 3.59685 8.95752Z" fill="#E6E7E8"/>
<path d="M4.02858 11.505H6.67562C6.88052 11.505 7.04677 11.3364 7.04677 11.1286C7.04677 10.5417 5.42427 10.0659 4.84563 10.0659H3.79145C3.50407 10.0659 3.2721 10.3025 3.2721 10.5927V10.7352C3.27081 11.16 3.60974 11.505 4.02858 11.505Z" fill="#D1D3D4"/>
<path d="M5.34822 10.7077H7.99526C8.20017 10.7077 8.36641 10.5391 8.36641 10.3312C8.36641 9.74434 6.74391 9.26855 6.16527 9.26855H5.1111C4.82371 9.26855 4.59174 9.50514 4.59174 9.79531V9.93779C4.59045 10.3639 4.92939 10.7077 5.34822 10.7077Z" fill="white"/>
<path d="M20.2355 15.2839H5.76447V14.0434C5.76447 13.3807 6.29413 12.8435 6.94751 12.8435H19.0525C19.7059 12.8435 20.2355 13.3807 20.2355 14.0434V15.2839Z" fill="#002D38"/>
<path d="M4.24636 5.30037H21.7537C22.0617 5.30037 22.2614 4.97098 22.121 4.69257C21.5307 3.53057 20.5719 1.66404 20.0564 0.773904C19.9817 0.645808 19.8476 0.567383 19.7007 0.567383H6.30187C6.15496 0.567383 6.02093 0.645808 5.94619 0.773904C5.42941 1.66404 4.4706 3.53057 3.87907 4.69257C3.73731 4.97098 3.93707 5.30037 4.24636 5.30037Z" fill="#002D38"/>
<path d="M19.6904 0.824707H6.3109C6.21554 0.824707 6.12662 0.878298 6.07893 0.965873C5.56473 1.9096 4.72191 3.6062 4.18838 4.6924C4.18709 4.69371 4.18709 4.69501 4.1858 4.69632C4.10074 4.87409 4.2425 5.08322 4.43323 5.08322H21.5655C21.755 5.08322 21.898 4.87539 21.813 4.69632C21.813 4.69501 21.8117 4.69371 21.8117 4.6924C21.2794 3.60751 20.4379 1.9096 19.9224 0.965873C19.8734 0.878298 19.7858 0.824707 19.6904 0.824707Z" fill="#231F20"/>
<path d="M19.0963 1.33716H6.90502C6.81739 1.33716 6.73749 1.37899 6.69367 1.44826C6.22329 2.19069 5.4565 3.52654 4.97065 4.38007C4.97065 4.38138 4.96936 4.38269 4.96936 4.38269C4.89203 4.52255 5.02091 4.68724 5.19488 4.68724H20.8065C20.9792 4.68724 21.1093 4.52385 21.032 4.38269C21.032 4.38138 21.0307 4.38007 21.0307 4.38007C20.5462 3.52654 19.7781 2.19069 19.309 1.44826C19.2639 1.38029 19.184 1.33716 19.0963 1.33716Z" fill="#85D5D0"/>
<path d="M11.2751 4.14069C11.2467 4.14069 11.2222 4.11454 11.2171 4.07795L11.0805 3.2035C11.0031 2.71334 10.6822 2.36304 10.3111 2.36304H9.45538C9.08423 2.36304 8.76333 2.71334 8.68601 3.2035L8.54812 4.07795C8.54296 4.11454 8.51848 4.14069 8.49012 4.14069C8.08804 4.14069 7.75942 4.55373 7.72205 5.08179H12.0418C12.0058 4.55503 11.6771 4.14069 11.2751 4.14069ZM17.5086 4.14069C17.4803 4.14069 17.4571 4.11454 17.4506 4.07795L17.314 3.2035C17.2367 2.71334 16.9158 2.36304 16.5446 2.36304H15.6889C15.3178 2.36304 14.9969 2.71334 14.9196 3.2035L14.783 4.07795C14.7765 4.11454 14.7533 4.14069 14.725 4.14069C14.3229 4.14069 13.993 4.55373 13.9569 5.08179H18.2767C18.2406 4.55503 17.9107 4.14069 17.5086 4.14069Z" fill="#414042"/>
<path d="M10.5121 4.06119C10.4722 4.06119 10.4374 4.03244 10.4284 3.99192L10.2312 3.04297C10.1204 2.51098 9.65771 2.13062 9.1216 2.13062H7.88829C7.35218 2.13062 6.88953 2.51098 6.7787 3.04297L6.58153 3.99192C6.5738 4.03244 6.53771 4.06119 6.49776 4.06119C5.91912 4.06119 5.44358 4.50953 5.39075 5.08334H11.6204C11.5676 4.50953 11.0921 4.06119 10.5121 4.06119ZM19.5023 4.06119C19.4623 4.06119 19.4275 4.03244 19.4185 3.99192L19.2213 3.04297C19.1105 2.51098 18.6478 2.13062 18.1117 2.13062H16.8784C16.3423 2.13062 15.8797 2.51098 15.7688 3.04297L15.5717 3.99192C15.5626 4.03244 15.5278 4.06119 15.4879 4.06119C14.9093 4.06119 14.4337 4.50953 14.3809 5.08334H20.6106C20.5564 4.50953 20.0809 4.06119 19.5023 4.06119Z" fill="#58595B"/>
<path d="M4.18838 4.69235C4.18709 4.69365 4.18709 4.69496 4.1858 4.69627C4.10074 4.87403 4.2425 5.08317 4.43323 5.08317H21.5655C21.755 5.08317 21.898 4.87534 21.813 4.69627C21.813 4.69496 21.8117 4.69365 21.8117 4.69235C21.7795 4.62699 21.7459 4.55902 21.7124 4.48975H4.2889C4.2541 4.55902 4.2206 4.62699 4.18838 4.69235Z" fill="#6D6E71"/>
<path opacity="0.5" d="M14.5317 2.84417H20.8941C20.541 2.14226 20.1879 1.45342 19.9211 0.965873C19.8734 0.878298 19.7858 0.824707 19.6891 0.824707H6.3109C6.21553 0.824707 6.12661 0.878298 6.07893 0.965873C5.56473 1.9096 4.7219 3.6062 4.18837 4.6924C4.18837 4.69371 4.18708 4.69501 4.18708 4.69632C4.10203 4.87409 4.24379 5.08322 4.43452 5.08322H7.26713C8.76334 3.71469 11.1874 2.84417 14.5317 2.84417Z" fill="white"/>
</g>
<defs>
<clipPath id="clip0_40_906">
<rect width="26" height="18" fill="white"/>
</clipPath>
</defs>
</svg>
