<svg width="34" height="12" viewBox="0 0 34 12" fill="none" xmlns="http://www.w3.org/2000/svg">
<g clip-path="url(#clip0_40_1024)">
<path d="M17.0009 12.0017C7.61256 12.0017 0.00180435 11.9148 0.00180435 11.8075C0.00180435 11.7002 7.61256 11.6133 17.0009 11.6133C26.3892 11.6133 34 11.7002 34 11.8075C34 11.9148 26.3892 12.0017 17.0009 12.0017Z" fill="#58595B"/>
<path d="M33.2473 8.24219C33.2473 8.89941 32.749 9.49248 31.9873 9.73872L30.6099 10.1861C30.2796 10.2832 29.9312 10.3318 29.5792 10.3318H1.04879C0.83939 10.3318 0.669708 10.1965 0.669708 10.0283V7.76358C0.669708 6.66936 1.77807 5.78149 3.14457 5.78149H33.2473V8.24219Z" fill="#002D38"/>
<path d="M4.4169 11.1308C3.47932 10.2301 3.47932 8.76985 4.4169 7.86917C5.35449 6.96849 6.8746 6.96849 7.81219 7.86917C8.74977 8.76985 8.74977 10.2301 7.81219 11.1308C6.8746 12.0315 5.35449 12.0315 4.4169 11.1308Z" fill="#414042"/>
<path d="M4.85217 10.7127C4.15498 10.0429 4.15498 8.95706 4.85217 8.2873C5.54936 7.61755 6.67974 7.61755 7.37693 8.2873C8.07413 8.95706 8.07413 10.0429 7.37693 10.7127C6.67974 11.3825 5.54936 11.3825 4.85217 10.7127Z" fill="black"/>
<path d="M7.81631 9.50125C7.81631 10.4047 7.05454 11.1382 6.11225 11.1382C5.17177 11.1382 4.41 10.4047 4.41 9.50125C4.41 8.59778 5.17177 7.86426 6.11225 7.86426C7.05454 7.86426 7.81631 8.59778 7.81631 9.50125ZM7.27297 10.5313C7.42279 10.3752 7.53832 10.1897 7.61053 9.98507L6.3758 9.66599L7.27297 10.5313ZM6.39205 9.36426L7.62136 9.04692C7.55457 8.83882 7.44084 8.65328 7.29282 8.49374L6.39205 9.36426ZM6.11406 7.98218C6.00755 7.98218 5.90105 7.99258 5.79996 8.01166L6.1303 9.19952L6.45884 8.01859C6.34692 7.99605 6.23139 7.98218 6.11406 7.98218ZM5.83607 9.63825L4.60676 9.95559C4.67355 10.1637 4.78727 10.3492 4.9353 10.5088L5.83607 9.63825ZM5.85231 9.33651L4.95515 8.47119C4.80532 8.62726 4.6898 8.81281 4.61759 9.01744L5.85231 9.33651ZM6.11406 11.0203C6.22237 11.0203 6.32707 11.0099 6.42815 10.9908L6.09781 9.80299L5.76927 10.9839C5.88119 11.0065 5.99492 11.0203 6.11406 11.0203Z" fill="#E6E7E8"/>
<path d="M6.11406 9.44029C6.71156 9.44029 7.26575 9.53913 7.72606 9.71081C7.73689 9.63971 7.74411 9.56688 7.74411 9.49404C7.74411 8.63219 7.01483 7.93335 6.11406 7.93335C5.21329 7.93335 4.48401 8.63219 4.48401 9.49404C4.48401 9.56861 4.49123 9.63971 4.50206 9.71081C4.96057 9.54086 5.51655 9.44029 6.11406 9.44029Z" fill="#D1D3D4"/>
<path d="M7.81631 9.4993C7.81631 10.4028 7.05454 11.1363 6.11225 11.1363C5.17177 11.1363 4.40819 10.4045 4.40819 9.4993C4.40819 8.59583 5.16996 7.8623 6.11225 7.8623C7.05454 7.86404 7.81631 8.59583 7.81631 9.4993ZM7.69356 9.50103C7.69356 8.66173 6.98595 7.98196 6.11225 7.98196C5.23856 7.98196 4.53094 8.66173 4.53094 9.50103C4.53094 10.3403 5.23856 11.0201 6.11225 11.0201C6.98595 11.0201 7.69356 10.3403 7.69356 9.50103Z" fill="white"/>
<path d="M6.11405 9C6.40107 9 6.63574 9.2237 6.63574 9.50116C6.63574 9.77688 6.40288 10.4445 6.11405 10.4445C5.82523 10.4445 5.59237 9.77688 5.59237 9.50116C5.59237 9.2237 5.82523 9 6.11405 9Z" fill="#939598"/>
<path d="M5.63425 9.69568C5.52203 9.44077 5.64617 9.14672 5.91153 9.03892C6.17689 8.93111 6.48298 9.05037 6.5952 9.30528C6.70743 9.5602 6.58329 9.85424 6.31793 9.96205C6.05257 10.0699 5.74648 9.9506 5.63425 9.69568Z" fill="white"/>
<path d="M25.6186 11.1298C24.681 10.2292 24.681 8.76888 25.6186 7.8682C26.5562 6.96752 28.0763 6.96752 29.0139 7.8682C29.9515 8.76888 29.9515 10.2292 29.0139 11.1298C28.0763 12.0305 26.5562 12.0305 25.6186 11.1298Z" fill="#414042"/>
<path d="M26.0539 10.7117C25.3567 10.042 25.3567 8.95608 26.0539 8.28633C26.7511 7.61657 27.8814 7.61657 28.5786 8.28633C29.2758 8.95608 29.2758 10.042 28.5786 10.7117C27.8814 11.3815 26.7511 11.3815 26.0539 10.7117Z" fill="black"/>
<path d="M29.0196 9.50101C29.0196 10.4045 28.2578 11.138 27.3155 11.138C26.375 11.138 25.6133 10.4045 25.6133 9.50101C25.6133 8.59754 26.375 7.86401 27.3155 7.86401C28.2578 7.86401 29.0196 8.59754 29.0196 9.50101ZM28.4744 10.5311C28.6243 10.375 28.7398 10.1894 28.812 9.98482L27.5773 9.66575L28.4744 10.5311ZM27.5935 9.36401L28.8228 9.04667C28.756 8.83858 28.6423 8.65303 28.4943 8.49349L27.5935 9.36401ZM27.3155 7.98193C27.209 7.98193 27.1025 7.99234 27.0014 8.01141L27.3318 9.19927L27.6603 8.01835C27.5502 7.99581 27.4347 7.98193 27.3155 7.98193ZM27.0375 9.638L25.8082 9.95534C25.875 10.1634 25.9887 10.349 26.1368 10.5085L27.0375 9.638ZM27.0538 9.33627L26.1566 8.47095C26.0068 8.62702 25.8913 8.81257 25.8191 9.01719L27.0538 9.33627ZM27.3155 11.0201C27.4238 11.0201 27.5285 11.0097 27.6296 10.9906L27.2993 9.80274L26.9707 10.9837C27.0827 11.0062 27.1982 11.0201 27.3155 11.0201Z" fill="#E6E7E8"/>
<path d="M27.3155 9.44029C27.913 9.44029 28.4672 9.53913 28.9275 9.71081C28.9384 9.63971 28.9456 9.56688 28.9456 9.49404C28.9456 8.63219 28.2163 7.93335 27.3155 7.93335C26.4148 7.93335 25.6855 8.63219 25.6855 9.49404C25.6855 9.56861 25.6927 9.63971 25.7035 9.71081C26.1639 9.54086 26.718 9.44029 27.3155 9.44029Z" fill="#D1D3D4"/>
<path d="M29.0196 9.4993C29.0196 10.4028 28.2578 11.1363 27.3155 11.1363C26.375 11.1363 25.6115 10.4045 25.6115 9.4993C25.6115 8.59583 26.3732 7.8623 27.3155 7.8623C28.2578 7.86404 29.0196 8.59583 29.0196 9.4993ZM28.8968 9.50103C28.8968 8.66173 28.1892 7.98196 27.3155 7.98196C26.4418 7.98196 25.7342 8.66173 25.7342 9.50103C25.7342 10.3403 26.4418 11.0201 27.3155 11.0201C28.1892 11.0201 28.8968 10.3403 28.8968 9.50103Z" fill="white"/>
<path d="M27.3155 8.99976C27.6025 8.99976 27.8372 9.22346 27.8372 9.50091C27.8372 9.77663 27.6044 10.4443 27.3155 10.4443C27.0285 10.4443 26.7938 9.77663 26.7938 9.50091C26.7956 9.22346 27.0285 8.99976 27.3155 8.99976Z" fill="#939598"/>
<path d="M26.8342 9.69059C26.7239 9.43487 26.8503 9.1417 27.1165 9.03578C27.3827 8.92985 27.6879 9.05128 27.7982 9.307C27.9084 9.56272 27.782 9.85589 27.5158 9.96181C27.2496 10.0677 26.9444 9.9463 26.8342 9.69059Z" fill="white"/>
<path d="M33.2473 3.54104H31.693C31.0432 3.54104 30.4096 3.39017 29.8608 3.10578C28.1116 2.19884 25.644 0.601734 24.5825 0.189017C24.5825 0.189017 23.772 0 21.4524 0C18.0533 0 16.8854 0.209827 16.6399 0.260116C13.6217 0.875723 10.2569 3.54104 10.2569 3.54104C10.2569 3.54104 5.99672 3.87919 2.09037 5.57861C1.21488 5.96012 0.0920715 6.70405 0.0920715 7.51387C0.0649948 8.50925 0.409779 10.0699 0.608345 10.0699C0.608345 10.0699 1.57771 10.0699 3.16444 10.0682C3.1518 9.92601 3.14458 9.78208 3.14458 9.63815C3.14458 7.53988 4.47498 6.47688 6.11405 6.47688C7.75493 6.47688 9.08352 7.53988 9.08352 9.63815C9.08352 9.78208 9.0763 9.92428 9.06547 10.0647C13.9502 10.0613 19.9776 10.0578 24.3659 10.0561C24.3551 9.91734 24.3479 9.77861 24.3479 9.63815C24.3479 7.53988 25.6783 6.47688 27.3173 6.47688C28.9582 6.47688 30.2868 7.53988 30.2868 9.63815C30.2868 9.77688 30.2814 9.91387 30.2688 10.0509L32.8285 9.36416C33.9061 8.4659 33.9007 5.49711 33.9007 5.49711C33.8989 4.47572 33.63 3.54104 33.2473 3.54104Z" fill="#00AAD8"/>
<path d="M29.8536 4.25898H33.7527C33.6372 3.82893 33.4585 3.53933 33.2473 3.53933H31.693C31.0432 3.53933 30.4096 3.38846 29.8608 3.10407C28.1116 2.19713 25.644 0.600025 24.5826 0.187308C24.5826 0.187308 23.772 -0.00170898 21.4524 -0.00170898C18.0533 -0.00170898 16.8854 0.208118 16.6399 0.258407C13.6217 0.874014 10.2569 3.53933 10.2569 3.53933C10.2569 3.53933 5.99673 3.87748 2.09038 5.5769C1.37193 5.88904 0.487408 6.44742 0.193169 7.08557C3.5688 5.31852 11.4555 4.25898 29.8536 4.25898Z" fill="#00BDFF"/>
<path d="M27.9185 3.26536C28.1152 3.26362 28.2235 3.13183 28.256 3.01738C28.2885 2.90293 28.2668 2.73472 28.0972 2.63761C27.8499 2.49368 27.6007 2.34802 27.3534 2.20409C26.2252 1.54513 25.1584 0.920849 24.5555 0.686745C24.5518 0.686745 23.7251 0.50293 21.4488 0.50293C18.1724 0.504664 16.9486 0.702352 16.6525 0.763045C14.2751 1.24859 11.7028 2.99137 10.6648 3.75437C15.5496 3.45611 21.1943 3.29657 27.9185 3.26536Z" fill="#85D5D0"/>
<path d="M32.5631 5.04116L32.6768 5.32902C32.879 5.83884 33.3267 6.20994 33.861 6.33827C33.9116 5.69318 33.9116 5.2111 33.9116 5.2111C33.9116 5.00301 33.8845 4.81919 33.8484 4.66139H32.8375C32.6317 4.65965 32.4909 4.85734 32.5631 5.04116Z" fill="#BE1E2D"/>
<path d="M32.9837 5.08279L33.0541 5.26313C33.1299 5.45562 33.2617 5.61689 33.4278 5.73134C33.5866 5.84059 33.8087 5.73134 33.8177 5.54406C33.8267 5.32903 33.8267 5.18857 33.8267 5.18857C33.8267 5.16949 33.8267 5.15042 33.8249 5.13308C33.8195 4.9718 33.6841 4.84521 33.5162 4.84521H33.1516C33.027 4.84521 32.9386 4.96834 32.9837 5.08279Z" fill="#ED1C24"/>
<path opacity="0.5" d="M32.6985 4.84854L32.7617 4.94391C32.8285 5.04623 32.9458 5.13293 33.0938 5.19363C33.2346 5.25258 33.4332 5.19363 33.4404 5.09305C33.4494 4.9786 33.4494 4.90403 33.4494 4.90403C33.4494 4.89362 33.4494 4.88322 33.4476 4.87455C33.4422 4.78958 33.3231 4.72021 33.1732 4.72021H32.8483C32.7364 4.72021 32.6588 4.78611 32.6985 4.84854Z" fill="white"/>
<path d="M33.861 6.35384C33.8592 6.35384 33.8592 6.35384 33.8574 6.35384C33.3087 6.22379 32.861 5.84228 32.6606 5.33593L32.5469 5.04806C32.5108 4.95616 32.5234 4.85558 32.5812 4.77408C32.6389 4.69257 32.7328 4.64575 32.8357 4.64575H33.8466C33.8556 4.64575 33.8628 4.65269 33.8628 4.66136C33.8628 4.67003 33.8556 4.67697 33.8466 4.67697H32.8357C32.7436 4.67697 32.6606 4.71858 32.6083 4.79142C32.5559 4.86425 32.5451 4.95269 32.5776 5.03593L32.6931 5.32379C32.8899 5.82147 33.3285 6.19431 33.8664 6.32263C33.8755 6.32436 33.8809 6.33304 33.8791 6.34171C33.8755 6.34864 33.8682 6.35384 33.861 6.35384Z" fill="black"/>
<path d="M9.29111 6.4318C9.29111 6.4318 17.676 5.79539 21.2159 5.64105C24.7558 5.48672 32.1461 5.07227 32.1461 5.07227C32.1461 5.07227 21.8838 6.47862 9.29111 6.4318Z" fill="#00BDFF"/>
<path d="M33.4873 7.65955H31.3573C30.7399 7.65955 30.1785 7.39423 29.8409 6.97111C29.3391 6.34163 28.6098 5.96533 27.682 5.96533C26.7433 5.96533 26.0104 6.20637 25.44 6.62256C24.4038 7.38036 23.0788 7.81909 21.6997 7.96302L11.2641 8.9029C10.2839 9.00522 9.35068 8.52834 9.03297 7.7636C8.57808 6.67285 7.68272 5.96707 6.42092 5.96707C4.53815 5.96707 3.48214 6.93296 2.91171 8.34973C2.72578 8.80926 2.22395 9.13527 1.63366 9.17863L0.491001 9.26186C0.373669 9.27053 0.38089 9.43701 0.498222 9.43701H2.03621C2.37919 9.43701 2.63011 9.73874 2.42973 10.0197C2.44778 10.0509 2.44418 10.0439 2.46223 10.0752H3.16443C3.15179 9.93296 3.14457 9.7873 3.14457 9.64337C3.14457 7.5451 4.47497 6.48209 6.11404 6.48209C7.75492 6.48209 9.08352 7.5451 9.08352 9.64337C9.08352 9.78903 9.0763 9.93296 9.06366 10.0752H9.35609C9.37956 9.68672 9.76225 9.37978 10.237 9.37978H22.9814C23.4327 9.37978 23.781 9.70233 23.7233 10.0682L23.7215 10.0752C23.7215 10.0752 23.9634 10.0734 24.3641 10.0717C24.3515 9.92949 24.3443 9.78556 24.3443 9.64163C24.3443 7.54337 25.6746 6.48036 27.3137 6.48036C28.9546 6.48036 30.2832 7.54337 30.2832 9.64163C30.2832 9.78036 30.2778 9.91735 30.2651 10.0543L30.6244 9.95897C30.6569 9.40926 30.6153 8.88903 30.507 8.41909L33.4873 7.65955Z" fill="#00BDFF"/>
<path d="M2.47668 6.53932C2.57957 6.2584 2.36657 5.96533 2.05969 5.96533H1.34846C0.685972 6.37111 0.0902734 6.92603 0.0902734 7.51562C0.0866632 7.63527 0.0884693 7.76186 0.0956898 7.89366H0.501849C1.38818 7.89366 2.17883 7.35088 2.47668 6.53932Z" fill="black"/>
<path d="M2.40445 6.52198C2.50554 6.24973 2.29614 5.96533 1.99648 5.96533H1.34844C0.685945 6.37111 0.0902467 6.92603 0.0902467 7.51562C0.0866363 7.6162 0.0884407 7.72371 0.0938561 7.8347H0.465719C1.3358 7.83296 2.11201 7.30926 2.40445 6.52198Z" fill="#E6E7E8"/>
<path d="M1.87739 6.96067C1.93155 6.81327 1.81782 6.65894 1.65717 6.65894H1.30697C0.949546 6.87743 0.626423 7.17743 0.626423 7.49651C0.624618 7.552 0.626425 7.60922 0.62823 7.66992H0.830406C1.29974 7.66992 1.72034 7.38553 1.87739 6.96067Z" fill="#D1D3D4"/>
<path d="M1.71132 6.50632C1.76547 6.35893 1.65174 6.20459 1.49109 6.20459H1.14089C0.783467 6.42309 0.460346 6.72309 0.460346 7.04216C0.458541 7.09765 0.460346 7.15488 0.462151 7.21557H0.664329C1.13186 7.21557 1.55246 6.93291 1.71132 6.50632Z" fill="white"/>
<path d="M24.5573 0.686745C24.5537 0.686745 23.7269 0.50293 21.4506 0.50293C18.1725 0.504664 16.9486 0.702352 16.6525 0.763045C14.6831 1.16536 12.5819 2.42952 11.3273 3.28617C11.3237 3.39888 11.3255 3.56362 11.3309 3.71622C12.1433 3.6694 12.9754 3.62605 13.8293 3.5879C13.7697 3.51854 13.7246 3.4353 13.6993 3.34166L13.6054 2.98096C13.5459 2.7538 13.6397 2.51102 13.8329 2.39484C14.7661 1.83646 15.8258 1.32143 16.8475 1.09079C17.0821 1.03703 17.9667 0.87923 20.196 0.84108V3.37114C20.3459 3.36767 20.4939 3.3642 20.6437 3.36073V0.834144C20.8152 0.832409 20.9939 0.832409 21.178 0.832409C23.1204 0.832409 23.8912 0.995415 23.976 1.01449C24.1601 1.09426 24.393 1.21911 24.6584 1.37345V3.2931C24.7161 3.2931 24.7757 3.29137 24.8335 3.29137V1.47576C25.1169 1.6457 25.4328 1.84339 25.7649 2.05495C26.0718 2.25091 26.2812 2.58212 26.3353 2.95842L26.3805 3.27403C26.6855 3.27229 26.9924 3.26883 27.3011 3.26709C27.4022 2.96709 27.4365 2.52316 27.3787 2.21622C27.3715 2.21102 27.3625 2.20755 27.3553 2.20235C26.227 1.54513 25.1602 0.922583 24.5573 0.686745Z" fill="#231F20"/>
<path d="M20.7267 1.78099L20.4072 3.36422C19.9541 3.37463 19.5065 3.38503 19.0642 3.39717L19.3584 1.94226C19.4198 1.63359 19.7014 1.41162 20.0282 1.41162H20.4108C20.613 1.41162 20.7665 1.59023 20.7267 1.78099ZM27.7831 2.45555L27.6188 3.26885C27.1675 3.27058 26.7217 3.27405 26.2812 3.27752L26.5502 1.94226C26.5628 1.88156 26.5845 1.82607 26.6133 1.77405C26.8552 1.91451 27.1025 2.05844 27.3553 2.20584C27.4961 2.28734 27.6405 2.37231 27.7831 2.45555Z" fill="#58595B"/>
<path opacity="0.5" d="M16.6525 2.02396C16.9486 1.96326 18.1724 1.76558 21.4506 1.76558C23.7269 1.76558 24.5537 1.94939 24.5573 1.94939C25.1006 2.16095 26.0194 2.68812 27.0213 3.27251C27.3191 3.27078 27.617 3.26904 27.9185 3.26731C28.1152 3.26558 28.2235 3.13378 28.256 3.01933C28.2885 2.90488 28.2668 2.73667 28.0972 2.63956C27.8499 2.49563 27.6007 2.34997 27.3534 2.20604C26.2252 1.54708 25.1584 0.922802 24.5555 0.688698C24.5518 0.688698 23.7251 0.504883 21.4488 0.504883C18.1724 0.504883 16.9486 0.702571 16.6525 0.763264C14.2751 1.24881 11.7028 2.99159 10.6648 3.75459C11.349 3.71298 12.0494 3.67483 12.7642 3.63841C13.9159 2.96731 15.3149 2.29621 16.6525 2.02396Z" fill="white"/>
<path d="M19.6617 5.12956C19.3457 5.12956 19.0895 4.9836 19.0895 4.80355C19.0895 4.6235 19.3457 4.47754 19.6617 4.47754C19.9778 4.47754 20.2339 4.6235 20.2339 4.80355C20.2339 4.9836 19.9778 5.12956 19.6617 5.12956Z" fill="#002D38"/>
<path d="M20.1996 4.98728H19.122C19.0227 4.98728 18.9415 4.90925 18.9415 4.81387V4.79133C18.9415 4.69595 19.0227 4.61792 19.122 4.61792H20.1996C20.2989 4.61792 20.3802 4.69595 20.3802 4.79133V4.81387C20.3802 4.90925 20.3007 4.98728 20.1996 4.98728Z" fill="#002D38"/>
<path d="M26.8372 5.12956C26.5212 5.12956 26.265 4.9836 26.265 4.80355C26.265 4.6235 26.5212 4.47754 26.8372 4.47754C27.1532 4.47754 27.4094 4.6235 27.4094 4.80355C27.4094 4.9836 27.1532 5.12956 26.8372 5.12956Z" fill="#002D38"/>
<path d="M27.3751 4.98728H26.2974C26.1982 4.98728 26.1169 4.90925 26.1169 4.81387V4.79133C26.1169 4.69595 26.1982 4.61792 26.2974 4.61792H27.3751C27.4744 4.61792 27.5556 4.69595 27.5556 4.79133V4.81387C27.5556 4.90925 27.4744 4.98728 27.3751 4.98728Z" fill="#002D38"/>
<path d="M27.9185 3.32771C22.1546 3.35372 16.1597 3.48031 10.6143 3.81846C10.5656 3.82193 10.5439 3.76297 10.5818 3.73349C11.4952 3.05893 14.1813 1.2017 16.6381 0.700545C16.8836 0.650256 18.0515 0.44043 21.4506 0.44043C23.772 0.44043 24.5807 0.629447 24.5807 0.629447C25.3209 0.917308 26.7433 1.78089 28.1297 2.58378C28.4925 2.79361 28.3409 3.32598 27.9185 3.32771ZM27.1495 2.69476C27.0899 2.31846 26.8588 1.98725 26.5195 1.7913C26.153 1.57974 25.8046 1.38205 25.4905 1.21211V3.2202C26.0628 3.215 26.644 3.20979 27.2325 3.20633L27.1495 2.69476ZM21.4506 0.567019C21.2448 0.567019 21.0481 0.567019 20.8603 0.568753V3.2913C22.2828 3.26008 23.7612 3.23754 25.2974 3.22193V1.10806C25.005 0.953724 24.7468 0.828869 24.5446 0.7491C24.449 0.730025 23.5969 0.567019 21.4506 0.567019ZM13.3347 2.12771C13.1198 2.2439 13.017 2.48494 13.0819 2.71384L13.1866 3.07453C13.2661 3.35026 13.535 3.53754 13.8329 3.52367C15.8763 3.43002 18.0479 3.35719 20.3657 3.30344V0.573956C17.9017 0.610372 16.9251 0.769909 16.6652 0.823667C15.5369 1.0543 14.3654 1.56933 13.3347 2.12771Z" fill="#002D38"/>
<path d="M27.7741 3.18896C27.756 3.18896 27.7416 3.20284 27.7416 3.22018V5.03752C27.7416 5.57856 27.3823 6.05544 26.848 6.22538L26.3137 6.39532C25.597 6.62249 25.0176 7.08029 24.6854 7.68029C24.662 7.72365 24.6385 7.767 24.6186 7.81035L24.0699 8.93232C23.8587 9.36584 23.3984 9.64677 22.9001 9.64677H20.6365V3.31729C20.6365 3.29995 20.622 3.28607 20.604 3.28607C20.5859 3.28607 20.5715 3.29995 20.5715 3.31729V9.64677H12.1884C12.0043 9.64677 11.8562 9.50284 11.8562 9.32769V3.52365C11.8562 3.50631 11.8418 3.49243 11.8237 3.49243C11.8057 3.49243 11.7913 3.50631 11.7913 3.52365V9.32596C11.7913 9.53752 11.97 9.70746 12.1884 9.70746H22.9001C23.4236 9.70746 23.9056 9.41266 24.1276 8.95833L24.6764 7.83636C24.6981 7.79301 24.7197 7.75139 24.7432 7.70977C25.0681 7.12191 25.6349 6.67625 26.3353 6.45428L26.8697 6.28434C27.4311 6.10573 27.8083 5.60457 27.8083 5.03752V3.22018C27.8065 3.20284 27.7921 3.18896 27.7741 3.18896Z" fill="#002D38"/>
<path d="M14.0098 4.28166C14.0098 4.27993 14.008 4.27819 14.008 4.27646C13.9953 4.23311 13.9827 4.18975 13.9683 4.14987C13.9647 4.13773 13.9592 4.12733 13.9538 4.11519C13.943 4.08571 13.9322 4.05623 13.9195 4.03022C13.9015 3.99207 13.8834 3.95912 13.8636 3.9279C13.8636 3.9279 13.8636 3.92617 13.8618 3.92617L13.3004 3.0834C13.2534 3.01403 13.2047 2.98455 13.1578 2.99496C13.0801 3.01056 13.0097 3.12848 12.9736 3.33137L12.961 3.40074L12.8707 3.9123L12.2841 3.25854L12.2407 3.62964L13.8816 5.52154C13.9737 5.63079 14.0712 5.50074 14.091 5.24235C14.1199 4.90941 14.0856 4.55738 14.0098 4.28166Z" fill="#002D38"/>
<path d="M14.1361 3.56539H12.4862L12.5602 2.83533C12.5855 2.58042 12.7642 2.39834 12.961 2.42435L13.8527 2.544C14.1289 2.58042 14.3473 2.86481 14.3744 3.22377C14.3889 3.40585 14.2769 3.56539 14.1361 3.56539Z" fill="#00AAD8"/>
<path d="M13.9304 3.56527H12.2407V3.28955H13.7011C13.8275 3.28955 13.9304 3.38839 13.9304 3.50978V3.56527Z" fill="#002D38"/>
<path d="M13.8527 2.544L12.961 2.42435C12.7642 2.39834 12.5855 2.58042 12.5602 2.83533L12.544 2.99487H13.7209C13.9087 2.99487 14.0747 2.89082 14.1776 2.73302C14.0892 2.62897 13.9773 2.55961 13.8527 2.544Z" fill="#00BDFF"/>
</g>
<defs>
<clipPath id="clip0_40_1024">
<rect width="34" height="12" fill="white" transform="matrix(-1 0 0 1 34 0)"/>
</clipPath>
</defs>
</svg>
