<svg width="34" height="11" viewBox="0 0 34 11" fill="none" xmlns="http://www.w3.org/2000/svg">
<g clip-path="url(#clip0_40_1153)">
<path d="M17.0008 10.9999C26.3901 10.9999 34.0016 10.9213 34.0016 10.8243C34.0016 10.7273 26.3901 10.6487 17.0008 10.6487C7.61151 10.6487 0 10.7273 0 10.8243C0 10.9213 7.61151 10.9999 17.0008 10.9999Z" fill="#58595B"/>
<path d="M5.89748 10.8245H4.85065C3.85098 10.8245 3.03992 9.88992 3.03992 8.73739C3.03992 7.58642 3.85098 6.65186 4.85065 6.65186H5.89748C4.89781 6.65186 4.08675 7.58642 4.08675 8.73739C4.08675 9.88992 4.89623 10.8245 5.89748 10.8245Z" fill="#231F20"/>
<mask id="mask0_40_1153" style="mask-type:luminance" maskUnits="userSpaceOnUse" x="3" y="6" width="3" height="5">
<path d="M5.89748 10.8245H4.85065C3.85098 10.8245 3.03992 9.88992 3.03992 8.73739C3.03992 7.58642 3.85098 6.65186 4.85065 6.65186H5.89748C4.89781 6.65186 4.08675 7.58642 4.08675 8.73739C4.08675 9.88992 4.89623 10.8245 5.89748 10.8245Z" fill="white"/>
</mask>
<g mask="url(#mask0_40_1153)">
<path d="M4.08675 8.73896C4.08675 8.62606 4.09461 8.5163 4.11033 8.40967H3.06349C3.04935 8.51786 3.03992 8.62763 3.03992 8.73896C3.03992 9.89149 3.85098 10.8261 4.85065 10.8261H5.89748C4.89623 10.8245 4.08675 9.88992 4.08675 8.73896Z" fill="#231F20"/>
<path d="M3.47215 7.38574C3.33854 7.56764 3.23009 7.77462 3.15621 8.00199C3.11377 8.13214 3.08234 8.26856 3.06348 8.40969H4.11031C4.12917 8.26856 4.16061 8.13214 4.20304 8.00199C4.27692 7.77462 4.38538 7.56764 4.51898 7.38574H3.47215Z" fill="#231F20"/>
<path d="M3.82111 7.02197C3.69065 7.12547 3.57434 7.24777 3.47217 7.38576H4.519C4.62117 7.24777 4.73905 7.12547 4.86794 7.02197H3.82111Z" fill="#231F20"/>
<path d="M5.89749 6.65186H4.85066C4.46871 6.65186 4.11348 6.78828 3.82269 7.02035H4.86952C5.16031 6.78828 5.51554 6.65186 5.89749 6.65186Z" fill="#231F20"/>
</g>
<path d="M5.85661 6.65186C6.87986 6.65186 7.70821 7.58642 7.70821 8.73739C7.70821 9.88992 6.87986 10.8245 5.85661 10.8245C4.83335 10.8245 4.005 9.88992 4.005 8.73739C4.005 7.58642 4.83335 6.65186 5.85661 6.65186Z" fill="#939598"/>
<path d="M5.89747 6.65186C6.89714 6.65186 7.7082 7.58642 7.7082 8.73739C7.7082 9.88992 6.89714 10.8245 5.89747 10.8245C4.89779 10.8245 4.08673 9.88992 4.08673 8.73895C4.08673 7.58642 4.89622 6.65186 5.89747 6.65186Z" fill="black"/>
<path d="M20.7685 10.8245H19.7216C18.7219 10.8245 17.9109 9.88992 17.9109 8.73739C17.9109 7.58642 18.7219 6.65186 19.7216 6.65186H20.7685C19.7688 6.65186 18.9577 7.58642 18.9577 8.73739C18.9577 9.88992 19.7688 10.8245 20.7685 10.8245Z" fill="#231F20"/>
<mask id="mask1_40_1153" style="mask-type:luminance" maskUnits="userSpaceOnUse" x="17" y="6" width="4" height="5">
<path d="M20.7685 10.8245H19.7216C18.7219 10.8245 17.9109 9.88992 17.9109 8.73739C17.9109 7.58642 18.7219 6.65186 19.7216 6.65186H20.7685C19.7688 6.65186 18.9577 7.58642 18.9577 8.73739C18.9577 9.88992 19.7688 10.8245 20.7685 10.8245Z" fill="white"/>
</mask>
<g mask="url(#mask1_40_1153)">
<path d="M18.9577 8.73896C18.9577 8.62606 18.9656 8.5163 18.9813 8.40967H17.9345C17.9203 8.51786 17.9109 8.62763 17.9109 8.73896C17.9109 9.89149 18.7219 10.8261 19.7216 10.8261H20.7685C19.7688 10.8245 18.9577 9.88992 18.9577 8.73896Z" fill="#231F20"/>
<path d="M18.3432 7.38574C18.2095 7.56764 18.1011 7.77462 18.0272 8.00199C17.9848 8.13214 17.9533 8.26856 17.9345 8.40969H18.9813C19.0002 8.26856 19.0316 8.13214 19.074 8.00199C19.1479 7.77462 19.2564 7.56764 19.39 7.38574H18.3432Z" fill="#231F20"/>
<path d="M18.6921 7.02197C18.5616 7.12547 18.4453 7.24777 18.3431 7.38576H19.39C19.4921 7.24777 19.61 7.12547 19.7389 7.02197H18.6921Z" fill="#231F20"/>
<path d="M20.7685 6.65186H19.7216C19.3397 6.65186 18.9845 6.78828 18.6937 7.02035H19.7405C20.0313 6.78828 20.3865 6.65186 20.7685 6.65186Z" fill="#231F20"/>
</g>
<path d="M20.7276 6.65186C21.7508 6.65186 22.5792 7.58642 22.5792 8.73739C22.5792 9.88992 21.7508 10.8245 20.7276 10.8245C19.7043 10.8245 18.876 9.88992 18.876 8.73739C18.876 7.58642 19.7043 6.65186 20.7276 6.65186Z" fill="#939598"/>
<path d="M20.7685 6.65186C21.7681 6.65186 22.5792 7.58642 22.5792 8.73739C22.5792 9.88992 21.7681 10.8245 20.7685 10.8245C19.7688 10.8245 18.9577 9.88992 18.9577 8.73739C18.9577 7.58642 19.7688 6.65186 20.7685 6.65186Z" fill="black"/>
<path d="M33.5175 7.57372C33.5175 8.16802 33.1559 8.7043 32.6027 8.92696L31.603 9.33153C31.3625 9.41934 31.1094 9.46324 30.8548 9.46324H1.127C0.976102 9.46324 0.851929 9.34094 0.851929 9.18883V7.14093C0.851929 6.15148 1.6567 5.34863 2.64852 5.34863H33.5175V7.57372Z" fill="#002D38"/>
<path d="M14.3837 10.8245H13.3369C12.3372 10.8245 11.5262 9.88992 11.5262 8.73739C11.5262 7.58642 12.3372 6.65186 13.3369 6.65186H14.3837C13.384 6.65186 12.573 7.58642 12.573 8.73739C12.573 9.88992 13.384 10.8245 14.3837 10.8245Z" fill="black"/>
<mask id="mask2_40_1153" style="mask-type:luminance" maskUnits="userSpaceOnUse" x="11" y="6" width="4" height="5">
<path d="M14.3837 10.8245H13.3369C12.3372 10.8245 11.5262 9.88992 11.5262 8.73739C11.5262 7.58642 12.3372 6.65186 13.3369 6.65186H14.3837C13.384 6.65186 12.573 7.58642 12.573 8.73739C12.573 9.88992 13.384 10.8245 14.3837 10.8245Z" fill="white"/>
</mask>
<g mask="url(#mask2_40_1153)">
<path d="M12.573 8.73896C12.573 8.62606 12.5808 8.5163 12.5966 8.40967H11.5497C11.5356 8.51786 11.5262 8.62763 11.5262 8.73896C11.5262 9.89149 12.3372 10.8261 13.3369 10.8261H14.3837C13.384 10.8245 12.573 9.88992 12.573 8.73896Z" fill="black"/>
<path d="M11.9584 7.38574C11.8248 7.56764 11.7164 7.77462 11.6425 8.00199C11.6 8.13214 11.5686 8.26856 11.5497 8.40969H12.5966C12.6154 8.26856 12.6469 8.13214 12.6893 8.00199C12.7632 7.77462 12.8716 7.56764 13.0052 7.38574H11.9584Z" fill="black"/>
<path d="M12.3073 7.02197C12.1769 7.12547 12.0606 7.24777 11.9584 7.38576H13.0052C13.1074 7.24777 13.2253 7.12547 13.3542 7.02197H12.3073Z" fill="black"/>
<path d="M14.3837 6.65186H13.3369C12.9549 6.65186 12.5997 6.78828 12.3089 7.02035H13.3558C13.6481 6.78828 14.0018 6.65186 14.3837 6.65186Z" fill="black"/>
</g>
<path d="M14.3428 6.65186C15.3661 6.65186 16.1944 7.58642 16.1944 8.73739C16.1944 9.88992 15.3661 10.8245 14.3428 10.8245C13.3196 10.8245 12.4912 9.88992 12.4912 8.73739C12.4912 7.58642 13.3212 6.65186 14.3428 6.65186Z" fill="#939598"/>
<path d="M14.3837 6.65186C15.3834 6.65186 16.1945 7.58642 16.1945 8.73739C16.1945 9.88992 15.3834 10.8245 14.3837 10.8245C13.3841 10.8245 12.573 9.88992 12.573 8.73739C12.573 7.58642 13.3841 6.65186 14.3837 6.65186Z" fill="#414042"/>
<path d="M14.3837 7.18652C15.1272 7.18652 15.7308 7.88118 15.7308 8.73734C15.7308 9.59351 15.1288 10.2897 14.3837 10.2897C13.6387 10.2897 13.0367 9.59508 13.0367 8.73734C13.0367 7.88118 13.6403 7.18652 14.3837 7.18652Z" fill="#231F20"/>
<path d="M14.3837 7.41235C15.0187 7.41235 15.5343 8.00665 15.5343 8.73737C15.5343 9.46966 15.0187 10.0624 14.3837 10.0624C13.7487 10.0624 13.2332 9.46809 13.2332 8.73737C13.2332 8.00665 13.7487 7.41235 14.3837 7.41235Z" fill="black"/>
<path d="M14.3837 7.25879C13.6733 7.25879 13.0995 7.92208 13.0995 8.73905C13.0995 9.55601 13.6748 10.2193 14.3837 10.2193C15.0942 10.2193 15.6679 9.55601 15.6679 8.73905C15.6679 7.92208 15.0942 7.25879 14.3837 7.25879ZM14.5818 8.88801L15.5139 9.17654C15.4604 9.36314 15.3724 9.52935 15.2592 9.67048L14.5818 8.88801ZM15.2734 7.82957C15.3834 7.97226 15.4699 8.14161 15.5201 8.32978L14.5928 8.61674L15.2734 7.82957ZM14.6431 7.39992L14.3963 8.46777L14.1464 7.39364C14.2234 7.37639 14.302 7.36699 14.3837 7.36699C14.4733 7.36699 14.5598 7.37953 14.6431 7.39992ZM13.4941 9.65009C13.384 9.5074 13.2976 9.33805 13.2473 9.14988L14.1747 8.86292L13.4941 9.65009ZM13.2552 8.30312C13.3086 8.11652 13.3966 7.95031 13.5098 7.80918L14.1872 8.59165L13.2552 8.30312ZM14.1244 10.0797L14.3711 9.01189L14.6195 10.086C14.5425 10.1033 14.4639 10.1127 14.3822 10.1127C14.2941 10.1127 14.2077 10.1001 14.1244 10.0797Z" fill="#E6E7E8"/>
<path d="M14.3837 8.69182C14.8207 8.69182 15.2262 8.77963 15.561 8.9286C15.5689 8.86588 15.5736 8.80315 15.5736 8.73729C15.5736 7.97992 15.0407 7.36523 14.3821 7.36523C13.7236 7.36523 13.1907 7.97992 13.1907 8.73729C13.1907 8.80158 13.1954 8.86588 13.2033 8.9286C13.5412 8.77963 13.9467 8.69182 14.3837 8.69182Z" fill="#D1D3D4"/>
<path d="M14.3853 7.25879C13.6764 7.25879 13.1011 7.92208 13.1011 8.73748C13.1011 9.55444 13.6764 10.2177 14.3853 10.2177C15.0942 10.2177 15.6695 9.55601 15.6695 8.73748C15.6679 7.92208 15.0942 7.25879 14.3853 7.25879ZM14.3853 10.1142C13.7267 10.1142 13.1923 9.49799 13.1923 8.73905C13.1923 7.9801 13.7267 7.36385 14.3853 7.36385C15.0439 7.36385 15.5783 7.9801 15.5783 8.73905C15.5783 9.49799 15.0439 10.1142 14.3853 10.1142Z" fill="white"/>
<path d="M14.2155 8.28589C14.4324 8.28589 14.6085 8.48817 14.6085 8.73906C14.6085 8.98838 14.4324 9.59209 14.2155 9.59209C13.9986 9.59209 13.8226 8.98838 13.8226 8.73906C13.8241 8.48817 13.9986 8.28589 14.2155 8.28589Z" fill="#939598"/>
<path d="M14.2155 8.28589C14.4324 8.28589 14.6085 8.48817 14.6085 8.73906C14.6085 8.98838 14.4324 9.19223 14.2155 9.19223C13.9986 9.19223 13.8226 8.98995 13.8226 8.73906C13.8241 8.48817 13.9986 8.28589 14.2155 8.28589Z" fill="black"/>
<path d="M14.3837 8.28589C14.6006 8.28589 14.7767 8.48817 14.7767 8.73906C14.7767 8.98838 14.6006 9.19223 14.3837 9.19223C14.1668 9.19223 13.9908 8.98995 13.9908 8.73906C13.9908 8.48817 14.1668 8.28589 14.3837 8.28589Z" fill="white"/>
<path d="M29.2547 10.8245H28.2079C27.2082 10.8245 26.3971 9.88992 26.3971 8.73739C26.3971 7.58642 27.2082 6.65186 28.2079 6.65186H29.2547C28.255 6.65186 27.444 7.58642 27.444 8.73739C27.444 9.88992 28.255 10.8245 29.2547 10.8245Z" fill="black"/>
<mask id="mask3_40_1153" style="mask-type:luminance" maskUnits="userSpaceOnUse" x="26" y="6" width="4" height="5">
<path d="M29.2547 10.8245H28.2079C27.2082 10.8245 26.3971 9.88992 26.3971 8.73739C26.3971 7.58642 27.2082 6.65186 28.2079 6.65186H29.2547C28.255 6.65186 27.444 7.58642 27.444 8.73739C27.444 9.88992 28.255 10.8245 29.2547 10.8245Z" fill="white"/>
</mask>
<g mask="url(#mask3_40_1153)">
<path d="M27.444 8.73896C27.444 8.62606 27.4518 8.5163 27.4675 8.40967H26.4207C26.4066 8.51786 26.3971 8.62763 26.3971 8.73896C26.3971 9.89149 27.2082 10.8261 28.2079 10.8261H29.2547C28.255 10.8245 27.444 9.88992 27.444 8.73896Z" fill="black"/>
<path d="M26.8294 7.38574C26.6958 7.56764 26.5873 7.77462 26.5135 8.00199C26.471 8.13214 26.4396 8.26856 26.4207 8.40969H27.4675C27.4864 8.26856 27.5178 8.13214 27.5603 8.00199C27.6342 7.77462 27.7426 7.56764 27.8762 7.38574H26.8294Z" fill="black"/>
<path d="M27.1799 7.02197C27.0494 7.12547 26.9331 7.24777 26.8309 7.38576H27.8778C27.9799 7.24777 28.0978 7.12547 28.2267 7.02197H27.1799Z" fill="black"/>
<path d="M29.2547 6.65186H28.2079C27.8259 6.65186 27.4707 6.78828 27.1799 7.02035H28.2267C28.5191 6.78828 28.8727 6.65186 29.2547 6.65186Z" fill="black"/>
</g>
<path d="M29.2138 6.65186C30.2371 6.65186 31.0654 7.58642 31.0654 8.73739C31.0654 9.88992 30.2371 10.8245 29.2138 10.8245C28.1906 10.8245 27.3622 9.88992 27.3622 8.73739C27.3622 7.58642 28.1921 6.65186 29.2138 6.65186Z" fill="#939598"/>
<path d="M29.2547 6.65186C30.2544 6.65186 31.0654 7.58642 31.0654 8.73739C31.0654 9.88992 30.2544 10.8245 29.2547 10.8245C28.255 10.8245 27.444 9.88992 27.444 8.73739C27.444 7.58642 28.255 6.65186 29.2547 6.65186Z" fill="#414042"/>
<path d="M29.2547 7.18652C29.9982 7.18652 30.6018 7.88118 30.6018 8.73734C30.6018 9.59351 29.9997 10.2897 29.2547 10.2897C28.5097 10.2897 27.9077 9.59508 27.9077 8.73734C27.9077 7.88118 28.5112 7.18652 29.2547 7.18652Z" fill="#231F20"/>
<path d="M29.2547 7.41235C29.8897 7.41235 30.4053 8.00665 30.4053 8.73737C30.4053 9.46966 29.8897 10.0624 29.2547 10.0624C28.6197 10.0624 28.1041 9.46809 28.1041 8.73737C28.1041 8.00665 28.6197 7.41235 29.2547 7.41235Z" fill="black"/>
<path d="M29.2547 7.25879C28.5442 7.25879 27.9705 7.92208 27.9705 8.73905C27.9705 9.55601 28.5458 10.2193 29.2547 10.2193C29.9652 10.2193 30.5389 9.55601 30.5389 8.73905C30.5404 7.92208 29.9652 7.25879 29.2547 7.25879ZM29.4527 8.88801L30.3848 9.17654C30.3314 9.36314 30.2434 9.52935 30.1302 9.67048L29.4527 8.88801ZM30.1459 7.82957C30.2559 7.97226 30.3424 8.14161 30.3927 8.32978L29.4653 8.61674L30.1459 7.82957ZM29.514 7.39992L29.2673 8.46777L29.0189 7.39364C29.0959 7.37639 29.1745 7.36699 29.2563 7.36699C29.3443 7.36699 29.4307 7.37953 29.514 7.39992ZM28.365 9.65009C28.255 9.5074 28.1686 9.33805 28.1183 9.14988L29.0456 8.86292L28.365 9.65009ZM28.1261 8.30312C28.1796 8.11652 28.2676 7.95031 28.3808 7.80918L29.0582 8.59165L28.1261 8.30312ZM28.9953 10.0797L29.2421 9.01189L29.4905 10.086C29.4134 10.1033 29.3349 10.1127 29.2531 10.1127C29.1651 10.1127 29.0787 10.1001 28.9953 10.0797Z" fill="#E6E7E8"/>
<path d="M29.2547 8.69182C29.6916 8.69182 30.0972 8.77963 30.432 8.9286C30.4398 8.86588 30.4446 8.80315 30.4446 8.73729C30.4446 7.97992 29.9117 7.36523 29.2531 7.36523C28.5945 7.36523 28.0617 7.97992 28.0617 8.73729C28.0617 8.80158 28.0664 8.86588 28.0742 8.9286C28.4122 8.77963 28.8177 8.69182 29.2547 8.69182Z" fill="#D1D3D4"/>
<path d="M29.2563 7.25879C28.5474 7.25879 27.9721 7.92208 27.9721 8.73748C27.9721 9.55444 28.5474 10.2177 29.2563 10.2177C29.9651 10.2177 30.5404 9.55601 30.5404 8.73748C30.5404 7.92208 29.9651 7.25879 29.2563 7.25879ZM29.2563 10.1142C28.5977 10.1142 28.0632 9.49799 28.0632 8.73905C28.0632 7.9801 28.5977 7.36385 29.2563 7.36385C29.9148 7.36385 30.4493 7.9801 30.4493 8.73905C30.4493 9.49799 29.9148 10.1142 29.2563 10.1142Z" fill="white"/>
<path d="M29.0881 8.28589C29.305 8.28589 29.481 8.48817 29.481 8.73906C29.481 8.98838 29.305 9.59209 29.0881 9.59209C28.8712 9.59209 28.6951 8.98838 28.6951 8.73906C28.6951 8.48817 28.8712 8.28589 29.0881 8.28589Z" fill="#939598"/>
<path d="M29.0881 8.28589C29.305 8.28589 29.481 8.48817 29.481 8.73906C29.481 8.98838 29.305 9.19223 29.0881 9.19223C28.8712 9.19223 28.6951 8.98995 28.6951 8.73906C28.6951 8.48817 28.8712 8.28589 29.0881 8.28589Z" fill="black"/>
<path d="M29.2547 8.28589C29.4716 8.28589 29.6477 8.48817 29.6477 8.73906C29.6477 8.98838 29.4716 9.19223 29.2547 9.19223C29.0378 9.19223 28.8618 8.98995 28.8618 8.73906C28.8618 8.48817 29.0378 8.28589 29.2547 8.28589Z" fill="white"/>
<path d="M7.97855 3.37314H9.64939L9.57394 2.71298C9.54722 2.48247 9.36803 2.31783 9.16841 2.34135L8.26462 2.44954C7.98483 2.48247 7.76321 2.73964 7.73649 3.06423C7.72234 3.22887 7.83551 3.37314 7.97855 3.37314Z" fill="#00BDFF"/>
<path d="M8.18604 3.3731H9.89775V3.12378H8.41709C8.28978 3.12378 8.18604 3.22727 8.18604 3.35429V3.3731Z" fill="black"/>
<path d="M8.26462 2.44784L9.16842 2.33964C9.36804 2.31612 9.5488 2.48076 9.57395 2.71127L9.58966 2.85553H8.39823C8.20804 2.85553 8.03985 2.76145 7.93454 2.61875C8.02571 2.52624 8.13888 2.46352 8.26462 2.44784Z" fill="#80C3CE"/>
<path d="M34 4.85944C34 4.73557 33.9906 4.61953 33.9733 4.5129C33.879 3.89508 33.3823 3.398 32.7583 3.35253C32.7221 3.34939 32.686 3.34783 32.6498 3.34783H32.403C31.8985 3.34783 31.4034 3.20356 30.9774 2.93386C29.6665 2.10592 26.6942 0.319886 25.4037 0.31675C25.4006 0.318318 22.7646 0 20.6757 0C16.6723 0 14.6902 0.318318 14.6902 0.318318C14.6886 0.318318 14.6855 0.318318 14.6839 0.319886C12.4692 0.700927 8.22218 3.17377 7.93611 3.33999C7.92668 3.34626 7.91568 3.34939 7.9031 3.35096C7.63589 3.37605 4.29578 3.71319 1.53095 5.16522C0.850354 5.52274 0 6.23307 0 7.00143L0.317507 8.67612C0.38038 9.01169 0.67431 9.25474 1.01697 9.25474H11.9631H12.0668C12.1156 9.25474 12.1564 9.21867 12.1627 9.17006C12.4032 7.3856 13.0728 5.99473 14.6965 5.99473C15.9634 5.99473 16.6597 7.37619 16.5921 9.15282C16.5905 9.2077 16.633 9.25317 16.688 9.25317H16.6188H23.1686H26.7806C26.8294 9.25317 26.8702 9.21711 26.8765 9.1685C27.1186 7.38404 27.7866 5.99316 29.4119 5.99316C30.6992 5.99316 31.3986 7.41853 31.3043 9.23592L31.6297 9.1293C32.8809 8.72003 33.7705 7.61611 33.9088 6.30991C33.9937 5.52901 34 4.85944 34 4.85944Z" fill="#00BDFF"/>
<path d="M13.3526 3.15181C13.5868 3.12986 10.5029 3.08125 8.41238 3.06714C8.15617 3.2114 7.98484 3.31176 7.93611 3.33998C7.92668 3.34625 7.91568 3.34939 7.90311 3.35096C7.66419 3.37291 4.98896 3.64419 2.45361 4.72929C8.40137 3.68182 11.4601 3.33528 13.3526 3.15181Z" fill="#80C3CE"/>
<path d="M2.68154 5.66381H7.19894C7.19894 5.66381 11.1552 4.03929 13.4186 3.7978C11.9757 3.54848 7.21309 5.46152 7.21309 5.46152C7.21309 5.46152 2.67054 5.50073 2.68154 5.66381Z" fill="#BCBEC0"/>
<path d="M33.9403 4.33732C33.8523 3.96412 33.6086 3.63639 33.2581 3.47959C33.0695 3.39491 32.862 3.34944 32.6498 3.34944H32.3653C31.8843 3.34944 31.4144 3.21301 31.0088 2.95585C29.7137 2.13575 26.6973 0.318359 25.3975 0.318359H22.334C22.1454 0.318359 21.9583 0.337176 21.776 0.38265C19.5409 0.939315 16.8861 3.34944 16.8861 3.34944C16.8861 3.34944 13.3369 3.65521 10.4447 5.19192C9.79716 5.53689 8.96567 6.20959 8.96567 6.94188C9.07098 7.50952 8.63401 8.03326 8.05401 8.03326H1.62999C1.14902 8.03326 0.785927 8.46918 0.87552 8.94117C0.9101 9.1215 1.06728 9.25165 1.25118 9.25165H12.1502C12.3828 7.42641 13.0461 5.9932 14.6965 5.9932C15.9886 5.9932 16.6864 7.42798 16.5874 9.25165H26.8655C27.0982 7.42641 27.7615 5.9932 29.4119 5.9932C30.6992 5.9932 31.3987 7.41857 31.3043 9.23597L33.2062 8.61344C34.0047 7.80118 34 4.85635 34 4.85635C34 4.66191 33.9749 4.48629 33.9403 4.33732Z" fill="#00AAD8"/>
<path d="M5.75288 7.89062H2.4835C1.54355 7.89062 1.49483 8.5696 1.33765 9.46183H7.62963C7.47245 8.57117 6.69283 7.89062 5.75288 7.89062Z" fill="#002D38"/>
<path d="M33.8082 4.00018C33.6841 3.77438 33.497 3.58778 33.2581 3.47959C33.0695 3.39491 32.862 3.34944 32.6498 3.34944H32.4958C31.9724 3.33846 31.2949 3.13147 30.6253 2.71594C29.1918 1.82684 26.5826 0.318359 25.399 0.318359H22.3355C22.1469 0.318359 21.9599 0.337176 21.7776 0.38265C19.5424 0.939314 16.8876 3.34944 16.8876 3.34944C16.8876 3.34944 13.3385 3.65521 10.4463 5.19192C9.89775 5.48358 9.22187 6.00888 9.02539 6.60788C13.865 4.6478 18.5522 4.02057 33.8082 4.00018Z" fill="#00AAD8"/>
<path d="M33.6951 7.07361H32.1185C31.6611 7.07361 31.2462 6.8337 30.9962 6.45109C30.6237 5.88188 30.083 5.54004 29.3977 5.54004C28.703 5.54004 28.1591 5.758 27.7379 6.13434C26.9708 6.81958 25.9884 7.2163 24.9683 7.34645L18.2677 8.19635C17.5415 8.28886 16.8515 7.85764 16.6157 7.16613C16.2793 6.17981 15.616 5.54161 14.6823 5.54161C13.2881 5.54161 12.5054 6.41502 12.0841 7.69613C11.9474 8.11167 11.5749 8.40647 11.1379 8.44567L8.49567 8.67774H11.435C11.6424 8.67774 11.8059 8.86121 11.7761 9.06663C11.7666 9.12935 11.7588 9.19207 11.7509 9.25479H12.1501C12.3828 7.42956 13.0461 5.99635 14.6965 5.99635C15.9885 5.99635 16.6864 7.43113 16.5874 9.25479H16.853C16.8703 8.90355 17.1548 8.626 17.5053 8.626H25.9146C26.2478 8.626 26.5056 8.91766 26.4631 9.24852L26.4615 9.25479H26.8639C27.0966 7.42956 27.7599 5.99635 29.4103 5.99635C30.6976 5.99635 31.3971 7.42172 31.3027 9.23911L31.5747 9.14973C31.5983 8.65265 31.5684 8.18223 31.4882 7.75729L33.6951 7.07361Z" fill="#00BDFF"/>
<path d="M16.8672 5.75793C16.8672 5.75793 22.4974 5.18245 24.8725 5.04289C27.2475 4.90333 32.2097 4.52856 32.2097 4.52856C32.2097 4.52856 25.3204 5.80027 16.8672 5.75793Z" fill="#00BDFF"/>
<path d="M0.331654 6.1438C0.132033 6.4088 0 6.70046 0 7.00153L0.00785909 7.04387H9.62896C10.0989 7.04387 10.5328 6.76319 10.6947 6.32413C10.6962 6.32099 10.6962 6.31785 10.6978 6.31472L10.7591 6.1438H0.331654Z" fill="#002D38"/>
<path d="M10.6365 5.5415H8.95938C8.24891 5.5415 7.54317 5.70929 6.9223 6.06053C6.33758 6.3914 6.00121 6.77401 6.06723 7.11584V7.11741C6.08609 7.21777 6.18197 7.2852 6.28257 7.2852H9.28003C10.0518 7.2852 10.7402 6.79439 10.9996 6.06053C11.0892 5.80808 10.9021 5.5415 10.6365 5.5415Z" fill="#231F20"/>
<path d="M23.8822 4.78564C24.1157 4.78564 24.305 4.65365 24.305 4.49084C24.305 4.32803 24.1157 4.19604 23.8822 4.19604C23.6487 4.19604 23.4594 4.32803 23.4594 4.49084C23.4594 4.65365 23.6487 4.78564 23.8822 4.78564Z" fill="#939598"/>
<path d="M24.195 4.65714H23.4641C23.3714 4.65714 23.2975 4.58187 23.2975 4.49092C23.2975 4.39841 23.3729 4.32471 23.4641 4.32471H24.195C24.2877 4.32471 24.3616 4.39997 24.3616 4.49092C24.3616 4.58344 24.2862 4.65714 24.195 4.65714Z" fill="#939598"/>
<path d="M24.2987 4.65714H23.5678C23.4751 4.65714 23.4012 4.58187 23.4012 4.49092C23.4012 4.39841 23.4767 4.32471 23.5678 4.32471H24.2987C24.3915 4.32471 24.4653 4.39997 24.4653 4.49092C24.4653 4.58344 24.3915 4.65714 24.2987 4.65714Z" fill="white"/>
<path d="M28.7187 4.65722C28.9522 4.65722 29.1415 4.52524 29.1415 4.36242C29.1415 4.19961 28.9522 4.06763 28.7187 4.06763C28.4852 4.06763 28.2959 4.19961 28.2959 4.36242C28.2959 4.52524 28.4852 4.65722 28.7187 4.65722Z" fill="#939598"/>
<path d="M29.0315 4.52872H28.3006C28.2078 4.52872 28.134 4.45345 28.134 4.3625C28.134 4.26999 28.2094 4.19629 28.3006 4.19629H29.0315C29.1242 4.19629 29.1981 4.27156 29.1981 4.3625C29.1981 4.45345 29.1242 4.52872 29.0315 4.52872Z" fill="#939598"/>
<path d="M29.1368 4.52872H28.4059C28.3132 4.52872 28.2393 4.45345 28.2393 4.3625C28.2393 4.26999 28.3147 4.19629 28.4059 4.19629H29.1368C29.2295 4.19629 29.3034 4.27156 29.3034 4.3625C29.3034 4.45345 29.228 4.52872 29.1368 4.52872Z" fill="white"/>
<path d="M10.5516 5.5415H8.90595C8.20806 5.5415 7.51489 5.70458 6.9066 6.04485C6.33288 6.36631 6.0028 6.73637 6.06724 7.06723V7.0688C6.08611 7.16602 6.17884 7.23031 6.27787 7.23031H9.22031C9.97793 7.23031 10.6538 6.75519 10.9084 6.04329C10.9949 5.80024 10.8126 5.5415 10.5516 5.5415Z" fill="#E6E7E8"/>
<path d="M10.165 6.17041H9.27532C8.89808 6.17041 8.52399 6.25822 8.19391 6.44325C7.88426 6.61731 7.70507 6.81802 7.73965 6.99678C7.73965 6.99678 7.73965 6.99678 7.73965 6.99835C7.75066 7.0501 7.80095 7.08616 7.8544 7.08616H9.44508C9.85532 7.08616 10.22 6.829 10.3583 6.44482C10.4055 6.30997 10.3064 6.17041 10.165 6.17041Z" fill="#D1D3D4"/>
<path d="M9.00496 5.75952H8.2049C7.86539 5.75952 7.52902 5.83793 7.23352 6.00414C6.95531 6.15938 6.79498 6.33971 6.82642 6.50122C6.82642 6.50122 6.82642 6.50122 6.82642 6.50279C6.83585 6.54983 6.88143 6.58119 6.92858 6.58119H8.35737C8.72517 6.58119 9.05368 6.35068 9.17628 6.00571C9.2203 5.88497 9.13227 5.75952 9.00496 5.75952Z" fill="white"/>
<path d="M21.4081 0.490723H13.9703C11.6676 1.16813 8.20173 3.18466 7.93767 3.3399C7.93453 3.34147 7.92981 3.34147 7.92667 3.34304H16.8955C17.0149 3.23484 19.3176 1.17754 21.4081 0.490723Z" fill="#002D38"/>
<path d="M25.2308 0.60376H23.0193C22.1453 0.60376 21.2824 0.810745 20.5217 1.22628C19.1196 1.98836 17.8087 3.17382 17.4095 3.54859C20.9225 3.25693 24.7514 3.09699 28.7611 3.09699C28.9262 3.09699 29.0881 3.09856 29.2515 3.09856C29.3757 3.10012 29.4873 3.02486 29.5313 2.91196C29.58 2.78494 29.5329 2.64382 29.4166 2.56855C28.0459 1.69043 26.1629 0.60376 25.2308 0.60376Z" fill="#85D5D0"/>
<path d="M13.4909 0.644531C11.5026 1.33291 8.93894 2.76613 8.15775 3.21303H15.7512C16.3171 3.21303 16.8656 3.02329 17.3089 2.67361C18.0445 2.09343 19.1888 1.27019 20.3456 0.754296C20.4006 0.729207 20.3833 0.646099 20.322 0.646099H13.4909V0.644531Z" fill="#85D5D0"/>
<path d="M29.415 2.57012C28.046 1.69043 26.1629 0.60376 25.2308 0.60376H23.0193C22.1454 0.60376 21.2824 0.810745 20.5217 1.22628C20.4368 1.27176 20.3535 1.32037 20.2686 1.36898C20.2403 1.60576 20.1303 2.13733 19.7169 3.04681C19.1243 3.05151 18.5317 3.06092 17.9407 3.0719C17.705 3.27575 17.5211 3.4451 17.4095 3.54859C20.9225 3.25693 24.7514 3.09699 28.7611 3.09699C28.9262 3.09699 29.0881 3.09856 29.2515 3.09856C29.3757 3.10012 29.4873 3.02486 29.5313 2.91196C29.5785 2.78651 29.5313 2.64382 29.415 2.57012ZM21.2589 2.60462L21.1425 3.04054C21.13 3.04054 21.119 3.04054 21.1064 3.04054C20.682 3.04054 20.2592 3.04211 19.8364 3.04524C20.2607 2.11851 20.3739 1.57596 20.4038 1.32821C20.6207 1.4709 20.836 1.62771 21.0467 1.79236C21.2746 1.97112 21.3516 2.26121 21.2589 2.60462ZM28.332 2.60462H24.1856C23.5238 2.60462 22.8763 2.41801 22.3183 2.0652L21.2337 1.38152C21.0922 1.29214 21.1567 1.07575 21.3217 1.07575H26.2337C26.636 1.07575 27.0306 1.19022 27.3717 1.40504L28.4766 2.10283C28.7108 2.2471 28.6071 2.60462 28.332 2.60462ZM19.8426 0.997345C20.0093 0.911101 20.1774 0.829562 20.3456 0.754294C20.4006 0.729205 20.3833 0.646098 20.322 0.646098H13.4909C11.5026 1.33291 8.93894 2.76613 8.15775 3.21303H10.8959C10.8833 3.1801 10.8801 3.14089 10.8896 3.09699L10.2058 2.87746C10.2671 2.56855 12.8276 1.48501 13.4013 1.27803C14.8285 0.758999 17.1061 0.815449 17.1061 0.815449C17.0762 0.964415 16.8908 1.64025 16.2589 3.10953C15.3362 3.13619 14.4183 3.17069 13.5035 3.21146H15.7512C16.0624 3.21146 16.3658 3.15187 16.6519 3.04211C17.2319 1.69043 17.4299 1.06791 17.4849 0.813881C17.4849 0.815449 19.445 0.79036 19.8426 0.997345Z" fill="#231F20"/>
<path d="M28.4719 2.60472H28.1827L28.1796 1.95868C28.1796 1.90066 28.167 1.84735 28.1497 1.79717C27.9281 1.66859 27.7049 1.54471 27.4833 1.42554H27.1359C26.7822 1.42554 26.4427 1.65134 26.3374 1.95868L26.1142 2.60472H25.825C25.5153 2.60472 25.2261 2.82582 25.1806 3.0971L25.1727 3.141C26.35 3.11278 27.5477 3.0971 28.7612 3.0971C28.8256 3.0971 28.8885 3.0971 28.9513 3.09867V3.0971C28.9969 2.82425 28.7816 2.60472 28.4719 2.60472ZM24.1526 2.60472H23.8634L23.8602 1.95868C23.8587 1.65134 23.5962 1.42554 23.2425 1.42554H22.8165C22.4629 1.42554 22.1234 1.65134 22.0181 1.95868L21.7949 2.60472H21.5056C21.196 2.60472 20.9068 2.82582 20.8612 3.0971L20.825 3.31349C22.0621 3.2445 23.3305 3.19118 24.6241 3.15512L24.6336 3.0971C24.6776 2.82425 24.4622 2.60472 24.1526 2.60472Z" fill="#414042"/>
<path d="M17.705 1.95697C17.7034 1.64963 17.4409 1.42383 17.0873 1.42383H16.6613C16.3076 1.42383 15.9681 1.64963 15.8628 1.95697L15.6396 2.60302H15.3504C15.0407 2.60302 14.7515 2.82411 14.7059 3.09539L14.6855 3.21143H15.7528C16.3186 3.21143 16.8672 3.02169 17.3105 2.67201C17.4331 2.57636 17.5667 2.47287 17.7081 2.36624L17.705 1.95697ZM23.1655 2.60458H22.8763L22.8731 1.95854C22.8715 1.6512 22.6091 1.4254 22.2554 1.4254H21.8294C21.4758 1.4254 21.1363 1.6512 21.0309 1.95854L20.8077 2.60458H20.5185C20.2089 2.60458 19.9197 2.82568 19.8741 3.09696L19.8269 3.37294C21.064 3.29453 22.3324 3.23181 23.6307 3.18634L23.6465 3.09696C23.6889 2.82411 23.4751 2.60458 23.1655 2.60458ZM18.3463 2.72846C17.9125 3.08441 17.5777 3.39019 17.4079 3.54856C17.7396 3.52034 18.0759 3.49525 18.4123 3.47016L18.4752 3.09696C18.5003 2.94956 18.4484 2.81784 18.3463 2.72846Z" fill="#58595B"/>
<path d="M8.65131 3.21299H15.7512C16.207 3.21299 16.6519 3.08754 17.0401 2.85547H10.165C9.88361 2.85547 9.159 2.99659 8.65131 3.21299Z" fill="#6D6E71"/>
<path opacity="0.5" d="M21.5795 2.21716C22.3418 1.80319 23.2048 1.59464 24.0771 1.59464H26.2887C27.0149 1.59464 28.3163 2.25323 29.503 2.96043C29.5125 2.94474 29.5219 2.92906 29.5282 2.91182C29.5769 2.7848 29.5298 2.64368 29.4134 2.56841C28.0444 1.68872 26.1614 0.602051 25.2293 0.602051H23.0177C22.1438 0.602051 21.2809 0.809036 20.5201 1.22457C19.118 1.98666 17.8071 3.17211 17.4079 3.54688C18.2032 3.48102 19.0159 3.42144 19.8426 3.36969C20.3566 2.97454 20.9602 2.5543 21.5795 2.21716Z" fill="white"/>
<path opacity="0.5" d="M11.8012 2.7754C13.0775 2.17012 14.4749 1.85337 15.8879 1.85337H18.4217C19.008 1.45508 19.6745 1.05209 20.3456 0.751019C20.4006 0.72593 20.3833 0.642822 20.322 0.642822H13.4909C11.5026 1.33277 8.93894 2.76599 8.15775 3.21289H10.9116C11.1992 3.06706 11.4979 2.92123 11.8012 2.7754Z" fill="white"/>
<path d="M26.001 8.92705H19.14C18.887 8.92705 18.6826 8.72163 18.6826 8.47074V4.49569L18.2268 3.34786L18.2802 3.32748L18.7408 4.49099V8.47074C18.7408 8.69184 18.92 8.8706 19.1416 8.8706H26.0026C26.3217 8.8706 26.5983 8.66832 26.691 8.36568C26.9504 7.51736 27.576 6.05278 28.8366 5.7721C29.2484 5.69369 29.5518 5.36126 29.5942 4.94729L29.6869 4.03311L29.1902 2.94173L29.2421 2.91821L29.7467 4.0237L29.6524 4.952C29.6083 5.39106 29.2845 5.74387 28.8507 5.82698C27.6184 6.09982 27.0038 7.54401 26.7476 8.38136C26.6439 8.70752 26.3468 8.92705 26.001 8.92705Z" fill="#002D38"/>
<path d="M24.6099 8.8989L24.5534 8.89733L24.7451 4.13824L24.3616 3.05471L24.415 3.03589L24.8017 4.1304L24.6099 8.8989Z" fill="#002D38"/>
<path d="M29.4464 2.52303C28.7234 2.05888 27.8762 1.54926 27.095 1.16351C26.361 0.801287 25.6867 0.548828 25.2308 0.548828H23.0193C22.1233 0.548828 21.251 0.76679 20.4934 1.17762C19.0787 1.94755 17.7443 3.15653 17.3702 3.50934C17.3529 3.52502 17.3482 3.55168 17.3576 3.57363C17.367 3.59402 17.3875 3.60656 17.4095 3.60656C17.411 3.60656 17.4126 3.60656 17.4142 3.60656C21.0246 3.30706 24.8426 3.15496 28.7611 3.15496C28.9183 3.15496 29.0739 3.15653 29.2295 3.15653H29.2515C29.3977 3.15653 29.5313 3.06871 29.5848 2.93386C29.6413 2.78176 29.5863 2.61241 29.4464 2.52303ZM27.0117 1.24662C27.073 1.36579 27.3276 1.91462 27.4518 3.04676C26.4836 3.0546 25.5232 3.07342 24.5707 3.10164C24.3883 1.7139 24.151 0.918892 24.0645 0.661729H25.2308C25.6631 0.660161 26.3059 0.900075 27.0117 1.24662ZM19.1589 3.09537L19.0819 2.87584C18.9734 2.56693 19.0819 2.22196 19.3491 2.03222C19.7263 1.76408 20.1334 1.50065 20.5468 1.27641C21.2871 0.873418 22.1406 0.661729 23.0177 0.661729H23.7077C23.7596 0.810696 24.0315 1.64334 24.228 3.11105C22.6326 3.16123 21.0624 3.23493 19.5236 3.33685C19.3617 3.34626 19.2139 3.24904 19.1589 3.09537ZM28.7596 3.04049C28.3603 3.04049 27.9611 3.04206 27.565 3.04519C27.466 2.11846 27.2805 1.57591 27.1752 1.32816C27.4565 1.47085 27.7442 1.62766 28.0318 1.79231C28.3415 1.9695 28.5709 2.26116 28.6684 2.60457L28.7926 3.04049C28.7816 3.04049 28.7706 3.04049 28.7596 3.04049Z" fill="#002D38"/>
<path d="M32.8258 4.70571L32.9249 4.96601C33.1009 5.42702 33.4907 5.76259 33.956 5.87863C34 5.29531 34 4.85938 34 4.85938C34 4.67121 33.9764 4.505 33.945 4.3623H33.0648C32.8856 4.3623 32.763 4.5395 32.8258 4.70571Z" fill="#BE1E2D"/>
<path opacity="0.5" d="M32.9437 4.53181L32.9987 4.61805C33.0569 4.71057 33.1591 4.78897 33.288 4.84385C33.4106 4.89717 33.5835 4.84385 33.5897 4.75291C33.5976 4.64941 33.5976 4.58199 33.5976 4.58199C33.5976 4.57258 33.5976 4.56317 33.596 4.55533C33.5913 4.47849 33.4876 4.41577 33.3571 4.41577H33.0742C32.9767 4.41734 32.9076 4.47693 32.9437 4.53181Z" fill="white"/>
<path d="M33.956 5.89269C33.9544 5.89269 33.9544 5.89269 33.9528 5.89269C33.475 5.77509 33.0852 5.43011 32.9107 4.97224L32.8117 4.71194C32.7803 4.62883 32.7913 4.53788 32.8416 4.46418C32.8919 4.39048 32.9736 4.34814 33.0632 4.34814H33.9434C33.9513 4.34814 33.9575 4.35442 33.9575 4.36226C33.9575 4.3701 33.9513 4.37637 33.9434 4.37637H33.0632C32.983 4.37637 32.9107 4.414 32.8651 4.47986C32.8196 4.54572 32.8101 4.62726 32.8384 4.70096L32.9374 4.96126C33.1088 5.4113 33.4907 5.74843 33.9591 5.86447C33.967 5.86603 33.9717 5.87388 33.9701 5.88172C33.9686 5.88799 33.9623 5.89269 33.956 5.89269Z" fill="black"/>
<path d="M20.3881 4.01911C20.3881 4.01754 20.3865 4.01597 20.3865 4.0144C20.3739 3.9752 20.3613 3.936 20.3472 3.89993C20.3425 3.88896 20.3378 3.87955 20.333 3.86857C20.322 3.84192 20.311 3.81526 20.2985 3.79174C20.2812 3.75724 20.2607 3.72745 20.2419 3.69922C20.2419 3.69922 20.2419 3.69765 20.2403 3.69765L19.6713 2.93557C19.6242 2.87285 19.5739 2.84619 19.5267 2.8556C19.4481 2.86971 19.3774 2.97634 19.3412 3.15981L19.3287 3.22253L19.2375 3.68511L18.6433 3.09395L18.5993 3.42951L20.2607 5.14184C20.3551 5.24063 20.4541 5.12303 20.4745 4.88938C20.4997 4.58675 20.4651 4.27 20.3881 4.01911Z" fill="#939598"/>
<path d="M20.5154 3.37289H18.8445L18.92 2.71274C18.9467 2.48223 19.1259 2.31758 19.3255 2.3411L20.2293 2.4493C20.5091 2.48223 20.7307 2.73939 20.7574 3.06398C20.7716 3.22863 20.66 3.37289 20.5154 3.37289Z" fill="#00BDFF"/>
<path d="M20.3095 3.3731H18.5977V3.12378H20.0784C20.2057 3.12378 20.3095 3.22727 20.3095 3.35429V3.3731Z" fill="#00AAD8"/>
<path d="M20.2293 2.44784L19.3255 2.33964C19.1259 2.31612 18.9451 2.48076 18.92 2.71127L18.9043 2.85553H20.0957C20.2859 2.85553 20.4541 2.76145 20.5594 2.61875C20.4698 2.52624 20.3566 2.46352 20.2293 2.44784Z" fill="#00AAD8"/>
</g>
<defs>
<clipPath id="clip0_40_1153">
<rect width="34" height="11" fill="white"/>
</clipPath>
</defs>
</svg>
