<svg width="34" height="13" viewBox="0 0 34 13" fill="none" xmlns="http://www.w3.org/2000/svg">
<path d="M16.9991 12.0037C26.3874 12.0037 33.9982 11.9167 33.9982 11.8095C33.9982 11.7022 26.3874 11.6152 16.9991 11.6152C7.61076 11.6152 0 11.7022 0 11.8095C0 11.9167 7.61076 12.0037 16.9991 12.0037Z" fill="#58595B"/>
<path d="M0.752747 8.24414C0.752747 8.90137 1.25097 9.49443 2.01274 9.74067L3.39007 10.1881C3.72041 10.2852 4.06881 10.3337 4.42081 10.3337H32.9512C33.1606 10.3337 33.3303 10.1985 33.3303 10.0303V7.76553C33.3303 6.67131 32.2219 5.78345 30.8554 5.78345H0.752747V8.24414Z" fill="#002D38"/>
<path d="M29.5831 11.1328C30.5207 10.2321 30.5207 8.77181 29.5831 7.87113C28.6455 6.97045 27.1254 6.97045 26.1878 7.87113C25.2502 8.77181 25.2502 10.2321 26.1878 11.1328C27.1254 12.0335 28.6455 12.0335 29.5831 11.1328Z" fill="#414042"/>
<path d="M29.1478 10.7147C29.845 10.0449 29.845 8.95901 29.1478 8.28926C28.4506 7.6195 27.3203 7.6195 26.6231 8.28926C25.9259 8.95901 25.9259 10.0449 26.6231 10.7147C27.3203 11.3844 28.4506 11.3844 29.1478 10.7147Z" fill="black"/>
<path d="M26.1837 9.50321C26.1837 10.4067 26.9455 11.1402 27.8877 11.1402C28.8282 11.1402 29.59 10.4067 29.59 9.50321C29.59 8.59974 28.8282 7.86621 27.8877 7.86621C26.9455 7.86621 26.1837 8.59974 26.1837 9.50321ZM26.727 10.5333C26.5772 10.3772 26.4617 10.1916 26.3895 9.98702L27.6242 9.66795L26.727 10.5333ZM27.6079 9.36621L26.3786 9.04887C26.4454 8.84078 26.5592 8.65523 26.7072 8.49569L27.6079 9.36621ZM27.8859 7.98413C27.9924 7.98413 28.0989 7.99453 28.2 8.01361L27.8697 9.20147L27.5412 8.02055C27.6531 7.998 27.7686 7.98413 27.8859 7.98413ZM28.1639 9.6402L29.3932 9.95754C29.3265 10.1656 29.2127 10.3512 29.0647 10.5107L28.1639 9.6402ZM28.1477 9.33847L29.0448 8.47315C29.1947 8.62922 29.3102 8.81477 29.3824 9.01939L28.1477 9.33847ZM27.8859 11.0223C27.7776 11.0223 27.6729 11.0119 27.5718 10.9928L27.9022 9.80494L28.2307 10.9859C28.1188 11.0084 28.0051 11.0223 27.8859 11.0223Z" fill="#E6E7E8"/>
<path d="M27.8859 9.44224C27.2884 9.44224 26.7343 9.54108 26.2739 9.71276C26.2631 9.64166 26.2559 9.56883 26.2559 9.496C26.2559 8.63415 26.9852 7.9353 27.8859 7.9353C28.7867 7.9353 29.516 8.63415 29.516 9.496C29.516 9.57056 29.5088 9.64166 29.4979 9.71276C29.0394 9.54282 28.4834 9.44224 27.8859 9.44224Z" fill="#D1D3D4"/>
<path d="M26.1837 9.50125C26.1837 10.4047 26.9455 11.1382 27.8877 11.1382C28.8282 11.1382 29.5918 10.4065 29.5918 9.50125C29.5918 8.59778 28.83 7.86426 27.8877 7.86426C26.9455 7.86599 26.1837 8.59778 26.1837 9.50125ZM26.3064 9.50299C26.3064 8.66368 27.0141 7.98391 27.8877 7.98391C28.7614 7.98391 29.4691 8.66368 29.4691 9.50299C29.4691 10.3423 28.7614 11.0221 27.8877 11.0221C27.0141 11.0221 26.3064 10.3423 26.3064 9.50299Z" fill="white"/>
<path d="M27.8859 9.00195C27.5989 9.00195 27.3643 9.22565 27.3643 9.50311C27.3643 9.77883 27.5971 10.4465 27.8859 10.4465C28.1748 10.4465 28.4076 9.77883 28.4076 9.50311C28.4076 9.22565 28.1748 9.00195 27.8859 9.00195Z" fill="#939598"/>
<path d="M28.3657 9.69763C28.478 9.44272 28.3538 9.14868 28.0885 9.04087C27.8231 8.93306 27.517 9.05232 27.4048 9.30723C27.2926 9.56215 27.4167 9.85619 27.6821 9.964C27.9474 10.0718 28.2535 9.95255 28.3657 9.69763Z" fill="white"/>
<path d="M8.38137 11.1318C9.31896 10.2311 9.31896 8.77083 8.38137 7.87015C7.44379 6.96947 5.92367 6.96947 4.98609 7.87015C4.04851 8.77083 4.04851 10.2311 4.98609 11.1318C5.92367 12.0325 7.44379 12.0325 8.38137 11.1318Z" fill="#414042"/>
<path d="M7.94614 10.7137C8.64333 10.0439 8.64333 8.95803 7.94614 8.28828C7.24895 7.61853 6.11857 7.61853 5.42138 8.28828C4.72418 8.95803 4.72418 10.0439 5.42138 10.7137C6.11857 11.3834 7.24895 11.3834 7.94614 10.7137Z" fill="black"/>
<path d="M4.98035 9.50296C4.98035 10.4064 5.74212 11.14 6.68441 11.14C7.62489 11.14 8.38667 10.4064 8.38667 9.50296C8.38667 8.59949 7.62489 7.86597 6.68441 7.86597C5.74212 7.86597 4.98035 8.59949 4.98035 9.50296ZM5.5255 10.533C5.37567 10.3769 5.26014 10.1914 5.18794 9.98678L6.42266 9.6677L5.5255 10.533ZM6.40642 9.36597L5.17711 9.04863C5.2439 8.84053 5.35762 8.65498 5.50565 8.49545L6.40642 9.36597ZM6.68441 7.98389C6.79091 7.98389 6.89742 7.99429 6.9985 8.01337L6.66816 9.20123L6.33963 8.0203C6.44974 7.99776 6.56527 7.98389 6.68441 7.98389ZM6.9624 9.63996L8.19171 9.9573C8.12492 10.1654 8.01119 10.3509 7.86317 10.5105L6.9624 9.63996ZM6.94616 9.33822L7.84331 8.4729C7.99314 8.62897 8.10867 8.81452 8.18088 9.01915L6.94616 9.33822ZM6.68441 11.022C6.5761 11.022 6.4714 11.0116 6.37031 10.9926L6.70066 9.8047L7.02919 10.9856C6.91727 11.0082 6.80174 11.022 6.68441 11.022Z" fill="#E6E7E8"/>
<path d="M6.68443 9.44224C6.08693 9.44224 5.53275 9.54108 5.07243 9.71276C5.0616 9.64166 5.05438 9.56883 5.05438 9.496C5.05438 8.63415 5.78366 7.9353 6.68443 7.9353C7.5852 7.9353 8.31448 8.63415 8.31448 9.496C8.31448 9.57056 8.30726 9.64166 8.29643 9.71276C7.83612 9.54282 7.28194 9.44224 6.68443 9.44224Z" fill="#D1D3D4"/>
<path d="M4.98035 9.50125C4.98035 10.4047 5.74212 11.1382 6.68441 11.1382C7.62489 11.1382 8.38847 10.4065 8.38847 9.50125C8.38847 8.59778 7.6267 7.86426 6.68441 7.86426C5.74212 7.86599 4.98035 8.59778 4.98035 9.50125ZM5.1031 9.50299C5.1031 8.66368 5.81072 7.98391 6.68441 7.98391C7.5581 7.98391 8.26572 8.66368 8.26572 9.50299C8.26572 10.3423 7.5581 11.0221 6.68441 11.0221C5.81072 11.0221 5.1031 10.3423 5.1031 9.50299Z" fill="white"/>
<path d="M6.68441 9.00171C6.39739 9.00171 6.16272 9.22541 6.16272 9.50287C6.16272 9.77859 6.39558 10.4462 6.68441 10.4462C6.97143 10.4462 7.2061 9.77859 7.2061 9.50287C7.20429 9.22541 6.97143 9.00171 6.68441 9.00171Z" fill="#939598"/>
<path d="M7.16576 9.69254C7.27603 9.43682 7.14962 9.14365 6.88342 9.03773C6.61723 8.9318 6.31205 9.05324 6.20179 9.30895C6.09152 9.56467 6.21793 9.85784 6.48412 9.96376C6.75032 10.0697 7.0555 9.94826 7.16576 9.69254Z" fill="white"/>
<path d="M0.752708 3.54299H2.30694C2.9568 3.54299 3.5904 3.39213 4.13917 3.10773C5.88836 2.2008 8.356 0.603687 9.41743 0.19097C9.41743 0.19097 10.2279 0.00195312 12.5476 0.00195312C15.9467 0.00195312 17.1146 0.21178 17.3601 0.262069C20.3783 0.877676 23.7431 3.54299 23.7431 3.54299C23.7431 3.54299 28.0033 3.88114 31.9096 5.58057C32.7851 5.96207 33.9079 6.706 33.9079 7.51583C33.935 8.5112 33.5902 10.0719 33.3916 10.0719C33.3916 10.0719 32.4223 10.0719 30.8355 10.0702C30.8482 9.92796 30.8554 9.78403 30.8554 9.6401C30.8554 7.54184 29.525 6.47883 27.8859 6.47883C26.245 6.47883 24.9164 7.54184 24.9164 9.6401C24.9164 9.78403 24.9237 9.92623 24.9345 10.0667C20.0498 10.0632 14.0224 10.0598 9.63405 10.058C9.64488 9.91929 9.6521 9.78057 9.6521 9.6401C9.6521 7.54184 8.3217 6.47883 6.68263 6.47883C5.04174 6.47883 3.71315 7.54184 3.71315 9.6401C3.71315 9.77883 3.71857 9.91582 3.73121 10.0528L1.1715 9.36611C0.0938283 8.46785 0.0992437 5.49906 0.0992437 5.49906C0.101049 4.47768 0.370016 3.54299 0.752708 3.54299Z" fill="#00AAD8"/>
<path d="M4.14644 4.26094H0.247314C0.362844 3.83088 0.541554 3.54128 0.752756 3.54128H2.30699C2.95684 3.54128 3.59045 3.39042 4.13922 3.10602C5.88841 2.19909 8.35605 0.601978 9.41748 0.189261C9.41748 0.189261 10.228 0.000244141 12.5476 0.000244141C15.9467 0.000244141 17.1146 0.210071 17.3601 0.26036C20.3783 0.875967 23.7432 3.54128 23.7432 3.54128C23.7432 3.54128 28.0033 3.87944 31.9096 5.57886C32.6281 5.891 33.5126 6.44938 33.8069 7.08753C30.4312 5.32048 22.5445 4.26094 4.14644 4.26094Z" fill="#00BDFF"/>
<path d="M6.08151 3.26731C5.88475 3.26558 5.77644 3.13378 5.74395 3.01933C5.71146 2.90488 5.73312 2.73667 5.90281 2.63956C6.15011 2.49563 6.39922 2.34997 6.64653 2.20604C7.77475 1.54708 8.84159 0.922802 9.44451 0.688698C9.44812 0.688698 10.2749 0.504883 12.5512 0.504883C15.8275 0.506617 17.0514 0.704305 17.3475 0.764998C19.7248 1.25055 22.2972 2.99332 23.3351 3.75633C18.4504 3.45806 12.8057 3.29852 6.08151 3.26731Z" fill="#85D5D0"/>
<path d="M1.43689 5.04311L1.32316 5.33097C1.12099 5.8408 0.673309 6.2119 0.138984 6.34022C0.0884399 5.69513 0.0884399 5.21305 0.0884399 5.21305C0.0884399 5.00496 0.115517 4.82114 0.15162 4.66334H1.1625C1.36829 4.66161 1.50909 4.8593 1.43689 5.04311Z" fill="#BE1E2D"/>
<path d="M1.01628 5.08474L0.945883 5.26509C0.870067 5.45757 0.738291 5.61884 0.572217 5.7333C0.413364 5.84254 0.19133 5.7333 0.182305 5.54601C0.173279 5.33098 0.173279 5.19052 0.173279 5.19052C0.173279 5.17145 0.173279 5.15237 0.175084 5.13503C0.180499 4.97376 0.315886 4.84717 0.483765 4.84717H0.848405C0.97296 4.84717 1.06141 4.97029 1.01628 5.08474Z" fill="#ED1C24"/>
<path opacity="0.5" d="M1.30148 4.85049L1.2383 4.94587C1.17151 5.04818 1.05417 5.13488 0.906152 5.19558C0.76535 5.25454 0.566783 5.19558 0.559563 5.095C0.550537 4.98055 0.550537 4.90598 0.550537 4.90598C0.550537 4.89558 0.550537 4.88517 0.552342 4.8765C0.557758 4.79153 0.676898 4.72217 0.826725 4.72217H1.15165C1.26357 4.72217 1.34119 4.78806 1.30148 4.85049Z" fill="white"/>
<path d="M0.139003 6.3558C0.140808 6.3558 0.140808 6.3558 0.142613 6.3558C0.691379 6.22574 1.13906 5.84424 1.33943 5.33788L1.45315 5.05002C1.48926 4.95811 1.47662 4.85753 1.41885 4.77603C1.36109 4.69453 1.26722 4.64771 1.16433 4.64771H0.153444C0.144418 4.64771 0.137198 4.65464 0.137198 4.66331C0.137198 4.67198 0.144418 4.67892 0.153444 4.67892H1.16433C1.25639 4.67892 1.33943 4.72054 1.39178 4.79337C1.44413 4.8662 1.45496 4.95464 1.42246 5.03788L1.30693 5.32574C1.11017 5.82343 0.671522 6.19626 0.133587 6.32458C0.124562 6.32632 0.119146 6.33499 0.120951 6.34366C0.124562 6.3506 0.131782 6.3558 0.139003 6.3558Z" fill="black"/>
<path d="M24.7089 6.43376C24.7089 6.43376 16.324 5.79734 12.7841 5.643C9.24416 5.48867 1.85388 5.07422 1.85388 5.07422C1.85388 5.07422 12.1162 6.48058 24.7089 6.43376Z" fill="#00BDFF"/>
<path d="M0.512634 7.6615H2.64271C3.26007 7.6615 3.82147 7.39619 4.15904 6.97307C4.66087 6.34359 5.39015 5.96729 6.318 5.96729C7.25667 5.96729 7.98956 6.20833 8.55999 6.62451C9.59615 7.38231 10.9211 7.82104 12.3003 7.96497L22.7358 8.90486C23.716 9.00717 24.6493 8.53029 24.967 7.76555C25.4219 6.6748 26.3173 5.96902 27.5791 5.96902C29.4618 5.96902 30.5178 6.93492 31.0883 8.35168C31.2742 8.81122 31.776 9.13723 32.3663 9.18058L33.509 9.26382C33.6263 9.27249 33.6191 9.43896 33.5017 9.43896H31.9638C31.6208 9.43896 31.3699 9.7407 31.5702 10.0216C31.5522 10.0528 31.5558 10.0459 31.5377 10.0771H30.8355C30.8482 9.93492 30.8554 9.78925 30.8554 9.64532C30.8554 7.54705 29.525 6.48405 27.8859 6.48405C26.245 6.48405 24.9165 7.54705 24.9165 9.64532C24.9165 9.79098 24.9237 9.93492 24.9363 10.0771H24.6439C24.6204 9.68867 24.2377 9.38174 23.763 9.38174H11.0186C10.5673 9.38174 10.2189 9.70428 10.2767 10.0702L10.2785 10.0771C10.2785 10.0771 10.0366 10.0754 9.63586 10.0736C9.6485 9.93145 9.65572 9.78752 9.65572 9.64359C9.65572 7.54532 8.32532 6.48231 6.68625 6.48231C5.04537 6.48231 3.71678 7.54532 3.71678 9.64359C3.71678 9.78231 3.72219 9.91931 3.73483 10.0563L3.3756 9.96093C3.34311 9.41122 3.38463 8.89098 3.49294 8.42104L0.512634 7.6615Z" fill="#00BDFF"/>
<path d="M31.5233 6.54127C31.4204 6.26035 31.6334 5.96729 31.9403 5.96729H32.6515C33.314 6.37307 33.9097 6.92798 33.9097 7.51757C33.9133 7.63723 33.9115 7.76382 33.9043 7.89561H33.4982C32.6118 7.89561 31.8212 7.35283 31.5233 6.54127Z" fill="black"/>
<path d="M31.5955 6.52393C31.4944 6.25168 31.7038 5.96729 32.0035 5.96729H32.6515C33.314 6.37307 33.9097 6.92798 33.9097 7.51757C33.9133 7.61815 33.9115 7.72567 33.9061 7.83665H33.5343C32.6642 7.83491 31.888 7.31122 31.5955 6.52393Z" fill="#E6E7E8"/>
<path d="M32.1226 6.96262C32.0685 6.81522 32.1822 6.66089 32.3429 6.66089H32.6931C33.0505 6.87939 33.3736 7.17939 33.3736 7.49846C33.3754 7.55395 33.3736 7.61118 33.3718 7.67187H33.1696C32.7003 7.67187 32.2797 7.38748 32.1226 6.96262Z" fill="#D1D3D4"/>
<path d="M32.2887 6.50828C32.2346 6.36088 32.3483 6.20654 32.5089 6.20654H32.8591C33.2166 6.42504 33.5397 6.72504 33.5397 7.04412C33.5415 7.09961 33.5397 7.15683 33.5379 7.21753H33.3357C32.8682 7.21753 32.4476 6.93487 32.2887 6.50828Z" fill="white"/>
<path d="M9.44273 0.688698C9.44634 0.688698 10.2731 0.504883 12.5494 0.504883C15.8275 0.506617 17.0514 0.704305 17.3475 0.764998C19.3169 1.16731 21.4181 2.43147 22.6727 3.28812C22.6763 3.40084 22.6745 3.56558 22.6691 3.71818C21.8567 3.67136 21.0246 3.628 20.1707 3.58985C20.2303 3.52049 20.2754 3.43725 20.3007 3.34361L20.3946 2.98292C20.4541 2.75575 20.3603 2.51298 20.1671 2.39679C19.2339 1.83841 18.1742 1.32338 17.1525 1.09274C16.9179 1.03899 16.0333 0.881183 13.804 0.843033V3.37309C13.6541 3.36962 13.5061 3.36615 13.3563 3.36269V0.836097C13.1848 0.834363 13.0061 0.834363 12.822 0.834363C10.8796 0.834363 10.1088 0.997368 10.024 1.01644C9.83986 1.09621 9.607 1.22107 9.34164 1.3754V3.29506C9.28388 3.29506 9.22431 3.29332 9.16654 3.29332V1.47772C8.88313 1.64766 8.56723 1.84535 8.23509 2.05691C7.92821 2.25286 7.71881 2.58407 7.66466 2.96037L7.61953 3.27598C7.31446 3.27425 7.00758 3.27078 6.6989 3.26904C6.59781 2.96904 6.56352 2.52511 6.62128 2.21818C6.6285 2.21298 6.63753 2.20951 6.64475 2.2043C7.77297 1.54708 8.83981 0.924536 9.44273 0.688698Z" fill="#231F20"/>
<path d="M13.2733 1.78294L13.5928 3.36618C14.0459 3.37658 14.4935 3.38698 14.9358 3.39912L14.6416 1.94421C14.5802 1.63554 14.2986 1.41357 13.9718 1.41357H13.5892C13.387 1.41357 13.2335 1.59219 13.2733 1.78294ZM6.21692 2.4575L6.38119 3.2708C6.83248 3.27253 7.27835 3.276 7.7188 3.27947L7.44984 1.94421C7.4372 1.88352 7.41554 1.82803 7.38666 1.776C7.14477 1.91646 6.89746 2.06039 6.64474 2.20779C6.50394 2.2893 6.35953 2.37427 6.21692 2.4575Z" fill="#58595B"/>
<path opacity="0.5" d="M17.3475 2.02591C17.0514 1.96522 15.8275 1.76753 12.5494 1.76753C10.2731 1.76753 9.44631 1.95134 9.4427 1.95134C8.89935 2.16291 7.98053 2.69007 6.97867 3.27447C6.68082 3.27273 6.38297 3.271 6.08151 3.26926C5.88475 3.26753 5.77644 3.13574 5.74395 3.02129C5.71146 2.90684 5.73312 2.73863 5.90281 2.64152C6.15011 2.49759 6.39922 2.35192 6.64653 2.20799C7.77475 1.54903 8.84159 0.924755 9.44451 0.690651C9.44812 0.690651 10.2749 0.506836 12.5512 0.506836C15.8275 0.506836 17.0514 0.704524 17.3475 0.765217C19.7248 1.25077 22.2972 2.99354 23.3351 3.75655C22.651 3.71493 21.9506 3.67678 21.2358 3.64036C20.0841 2.96926 18.6851 2.29817 17.3475 2.02591Z" fill="white"/>
<path d="M14.3383 5.13151C14.6544 5.13151 14.9105 4.98555 14.9105 4.8055C14.9105 4.62545 14.6544 4.47949 14.3383 4.47949C14.0223 4.47949 13.7661 4.62545 13.7661 4.8055C13.7661 4.98555 14.0223 5.13151 14.3383 5.13151Z" fill="#002D38"/>
<path d="M13.8004 4.98924H14.8781C14.9773 4.98924 15.0586 4.9112 15.0586 4.81583V4.79328C15.0586 4.69791 14.9773 4.61987 14.8781 4.61987H13.8004C13.7011 4.61987 13.6199 4.69791 13.6199 4.79328V4.81583C13.6199 4.9112 13.6993 4.98924 13.8004 4.98924Z" fill="#002D38"/>
<path d="M7.16287 5.13151C7.4789 5.13151 7.7351 4.98555 7.7351 4.8055C7.7351 4.62545 7.4789 4.47949 7.16287 4.47949C6.84683 4.47949 6.59064 4.62545 6.59064 4.8055C6.59064 4.98555 6.84683 5.13151 7.16287 5.13151Z" fill="#002D38"/>
<path d="M6.62491 4.98924H7.70259C7.80187 4.98924 7.8831 4.9112 7.8831 4.81583V4.79328C7.8831 4.69791 7.80187 4.61987 7.70259 4.61987H6.62491C6.52563 4.61987 6.4444 4.69791 6.4444 4.79328V4.81583C6.4444 4.9112 6.52563 4.98924 6.62491 4.98924Z" fill="#002D38"/>
<path d="M6.08156 3.32967C11.8454 3.35568 17.8403 3.48227 23.3857 3.82042C23.4345 3.82389 23.4561 3.76493 23.4182 3.73545C22.5048 3.06088 19.8188 1.20365 17.3619 0.702498C17.1164 0.652209 15.9485 0.442383 12.5494 0.442383C10.228 0.442383 9.41929 0.6314 9.41929 0.6314C8.67918 0.919261 7.25672 1.78285 5.87036 2.58574C5.50753 2.79556 5.65916 3.32793 6.08156 3.32967ZM6.85056 2.69672C6.91013 2.32042 7.14119 1.9892 7.48056 1.79325C7.847 1.58169 8.1954 1.384 8.50949 1.21406V3.22215C7.93726 3.21695 7.356 3.21175 6.76752 3.20828L6.85056 2.69672ZM12.5494 0.568972C12.7552 0.568972 12.952 0.568972 13.1397 0.570706V3.29325C11.7172 3.26204 10.2388 3.23949 8.70264 3.22389V1.11001C8.99508 0.955678 9.25321 0.830822 9.45539 0.751053C9.55106 0.731978 10.4031 0.568972 12.5494 0.568972ZM20.6654 2.12967C20.8802 2.24585 20.9831 2.48689 20.9181 2.71579L20.8134 3.07649C20.734 3.35221 20.465 3.53949 20.1671 3.52562C18.1237 3.43198 15.9521 3.35915 13.6343 3.30539V0.575909C16.0983 0.612325 17.0749 0.771863 17.3349 0.82562C18.4631 1.05626 19.6346 1.57128 20.6654 2.12967Z" fill="#002D38"/>
<path d="M6.22595 3.19092C6.244 3.19092 6.25844 3.20479 6.25844 3.22213V5.03947C6.25844 5.58051 6.61767 6.05739 7.15199 6.22733L7.68631 6.39728C8.40296 6.62444 8.98241 7.08225 9.31456 7.68225C9.33803 7.7256 9.36149 7.76895 9.38135 7.81231L9.93012 8.93427C10.1413 9.3678 10.6016 9.64872 11.0999 9.64872H13.3635V3.31924C13.3635 3.3019 13.378 3.28803 13.396 3.28803C13.4141 3.28803 13.4285 3.3019 13.4285 3.31924V9.64872H21.8116C21.9957 9.64872 22.1438 9.50479 22.1438 9.32965V3.5256C22.1438 3.50826 22.1582 3.49439 22.1763 3.49439C22.1943 3.49439 22.2087 3.50826 22.2087 3.5256V9.32791C22.2087 9.53947 22.03 9.70942 21.8116 9.70942H11.0999C10.5764 9.70942 10.0944 9.41462 9.87235 8.96028L9.32359 7.83832C9.30192 7.79496 9.28026 7.75335 9.2568 7.71173C8.93187 7.12387 8.36505 6.6782 7.66465 6.45624L7.13033 6.28629C6.56893 6.10768 6.19165 5.60653 6.19165 5.03947V3.22213C6.19346 3.20479 6.2079 3.19092 6.22595 3.19092Z" fill="#002D38"/>
<path d="M19.9902 4.28361C19.9902 4.28188 19.992 4.28015 19.992 4.27841C20.0047 4.23506 20.0173 4.19171 20.0318 4.15182C20.0354 4.13968 20.0408 4.12928 20.0462 4.11714C20.057 4.08766 20.0679 4.05818 20.0805 4.03217C20.0986 3.99402 20.1166 3.96107 20.1365 3.92986C20.1365 3.92986 20.1365 3.92812 20.1383 3.92812L20.6997 3.08535C20.7466 3.01598 20.7953 2.9865 20.8423 2.99691C20.9199 3.01252 20.9903 3.13043 21.0264 3.33333L21.039 3.40269L21.1293 3.91425L21.716 3.26049L21.7593 3.63159L20.1184 5.5235C20.0263 5.63275 19.9289 5.50269 19.909 5.24431C19.8801 4.91136 19.9144 4.55934 19.9902 4.28361Z" fill="#002D38"/>
<path d="M19.8639 3.56734H21.5138L21.4398 2.83728C21.4145 2.58237 21.2358 2.40029 21.039 2.4263L20.1473 2.54595C19.8711 2.58237 19.6527 2.86676 19.6256 3.22572C19.6112 3.4078 19.7231 3.56734 19.8639 3.56734Z" fill="#00AAD8"/>
<path d="M20.0697 3.56723H21.7593V3.2915H20.2989C20.1726 3.2915 20.0697 3.39035 20.0697 3.51174V3.56723Z" fill="#002D38"/>
<path d="M20.1473 2.54595L21.0391 2.4263C21.2358 2.40029 21.4145 2.58237 21.4398 2.83728L21.456 2.99682H20.2791C20.0914 2.99682 19.9253 2.89277 19.8224 2.73497C19.9108 2.63093 20.0228 2.56156 20.1473 2.54595Z" fill="#00BDFF"/>
</svg>
